<svg width="24" height="24" viewBox="0 0 24 24" fill="none" xmlns="http://www.w3.org/2000/svg">
<path d="M23.6139 12.8738C23.651 13.7598 23.3351 14.6244 22.7355 15.2779C22.136 15.9313 21.3017 16.3203 20.4157 16.3594C20.3639 16.3618 20.3121 16.363 20.2605 16.363C20.0251 16.3628 19.7904 16.3373 19.5604 16.287C18.8781 17.3405 17.9834 18.24 16.9336 18.9279C15.8837 19.6159 14.7018 20.0771 13.4635 20.2822C13.3171 20.7124 13.0249 21.078 12.6375 21.3157C12.25 21.5534 11.7917 21.6483 11.3418 21.5839C10.8918 21.5196 10.4785 21.3 10.1733 20.9632C9.86803 20.6265 9.69004 20.1936 9.67008 19.7395C9.65012 19.2854 9.78943 18.8386 10.0639 18.4764C10.3385 18.1141 10.7309 17.8591 11.1735 17.7555C11.6161 17.6519 12.0809 17.7062 12.4877 17.909C12.8945 18.1118 13.2176 18.4503 13.4013 18.8661C15.1447 18.5437 16.7196 17.6197 17.8516 16.2553C18.9837 14.8908 19.601 13.1724 19.5961 11.3994C19.5961 7.21092 16.1885 3.80334 12 3.80334C7.81145 3.80334 4.40387 7.21092 4.40387 11.3994C4.40364 12.6946 4.73465 13.9683 5.36542 15.0995C5.3868 15.1368 5.40284 15.1769 5.41309 15.2187C5.47402 15.3881 5.4675 15.5743 5.3949 15.739C5.32229 15.9037 5.18916 16.0342 5.02304 16.1034C4.61629 16.2746 4.17941 16.3627 3.7381 16.3627C3.68617 16.3627 3.63412 16.3615 3.58196 16.359C2.69635 16.3195 1.86257 15.9303 1.26345 15.2769C0.664339 14.6235 0.348783 13.7591 0.38598 12.8734C0.400933 12.5202 0.392589 12.2051 0.384433 11.9003C0.376839 11.6134 0.368917 11.3167 0.381948 11.0071C0.420839 10.1423 0.792852 9.32605 1.42007 8.72937C2.04728 8.1327 2.88105 7.80185 3.74673 7.80614C5.13685 4.62558 8.31278 2.39709 12 2.39709C15.6872 2.39709 18.8631 4.62558 20.2532 7.80619C21.119 7.80125 21.953 8.13181 22.5804 8.7285C23.2077 9.32519 23.5796 10.1416 23.6179 11.0066C23.631 11.3167 23.6231 11.6133 23.6154 11.9003C23.6074 12.205 23.599 12.5203 23.6139 12.8738ZM17.8971 11.3994C17.8967 12.3029 17.6889 13.1942 17.2896 14.0046C16.8903 14.815 16.3102 15.5229 15.594 16.0736C14.8779 16.6244 14.0448 17.0033 13.159 17.1812C12.2733 17.359 11.3585 17.3311 10.4852 17.0994L8.09832 18.4779C7.97789 18.5474 7.83953 18.5797 7.70075 18.5706C7.56197 18.5615 7.42901 18.5115 7.31867 18.4268C7.20833 18.3422 7.12558 18.2267 7.08088 18.095C7.03618 17.9633 7.03154 17.8213 7.06754 17.687L7.67757 15.4113C6.66733 14.3193 6.10522 12.887 6.10309 11.3994C6.10309 8.14688 8.74829 5.50097 12 5.50097C15.2516 5.50097 17.8971 8.14688 17.8971 11.3994ZM10.3605 11.3994C10.3605 11.213 10.2864 11.0341 10.1546 10.9023C10.0227 10.7704 9.84387 10.6963 9.65739 10.6963H9.65621C9.51721 10.6966 9.38139 10.738 9.26594 10.8154C9.15048 10.8929 9.06056 11.0028 9.00755 11.1313C8.95453 11.2598 8.94079 11.4011 8.96807 11.5374C8.99535 11.6737 9.06242 11.7989 9.16081 11.8971C9.25919 11.9953 9.38448 12.0621 9.52084 12.0891C9.65719 12.1162 9.7985 12.1022 9.9269 12.0489C10.0553 11.9957 10.165 11.9055 10.2422 11.7899C10.3194 11.6743 10.3607 11.5384 10.3607 11.3994H10.3605ZM12.7032 11.3994C12.7032 11.3764 12.7019 11.3534 12.6995 11.3305C12.6973 11.3076 12.6938 11.2847 12.6892 11.2621C12.685 11.2396 12.6794 11.2173 12.6723 11.1955C12.6658 11.1735 12.6578 11.1519 12.6494 11.1304C12.6409 11.1088 12.6306 11.0887 12.6198 11.0685C12.6091 11.0482 12.5974 11.0285 12.5847 11.0094C12.5719 10.9902 12.5581 10.9715 12.5434 10.9537C12.5289 10.9357 12.5135 10.9187 12.497 10.9026C12.4811 10.8862 12.4637 10.8707 12.4459 10.8557C12.4281 10.8416 12.4093 10.8276 12.3901 10.8149C12.371 10.8022 12.3513 10.7905 12.3311 10.7798C12.3109 10.769 12.2898 10.7591 12.2687 10.7502C12.2476 10.7414 12.226 10.7337 12.2041 10.7273C12.1602 10.7132 12.1149 10.7041 12.0691 10.7001C12.0002 10.6934 11.9307 10.6967 11.8628 10.7099C11.8402 10.7145 11.8178 10.7203 11.7958 10.7273C11.7739 10.7337 11.7523 10.7414 11.7311 10.7502C11.71 10.7591 11.6889 10.769 11.6688 10.7798C11.6486 10.7905 11.6289 10.8023 11.6097 10.8149C11.5712 10.8404 11.5354 10.8698 11.5029 10.9026C11.4864 10.9187 11.4709 10.9357 11.4564 10.9537C11.4419 10.9715 11.4283 10.9902 11.4157 11.0094C11.4028 11.0285 11.3909 11.0482 11.38 11.0685C11.3692 11.0886 11.3595 11.1092 11.3509 11.1304C11.342 11.1517 11.3342 11.1734 11.3275 11.1955C11.321 11.2171 11.3154 11.2396 11.3107 11.2621C11.306 11.2847 11.3026 11.3076 11.3003 11.3305C11.298 11.3535 11.297 11.3765 11.297 11.3994C11.297 11.4224 11.298 11.4458 11.3003 11.4688C11.3026 11.4916 11.3061 11.5143 11.3107 11.5368C11.3154 11.5593 11.321 11.5818 11.3275 11.6038C11.3342 11.6258 11.342 11.6473 11.3509 11.6685C11.3595 11.6898 11.3692 11.7106 11.38 11.7308C11.3908 11.751 11.403 11.7707 11.4157 11.7899C11.4283 11.809 11.4419 11.8275 11.4564 11.8452C11.471 11.8632 11.4865 11.8804 11.5029 11.8968C11.5193 11.9127 11.5361 11.9287 11.5544 11.9432C11.572 11.9578 11.5905 11.9714 11.6097 11.984C11.6289 11.9966 11.6486 12.0088 11.6688 12.0196C11.7095 12.0408 11.752 12.0584 11.7958 12.0721C11.8178 12.0787 11.8403 12.0843 11.8628 12.089C11.908 12.0982 11.954 12.1028 12.0002 12.1026C12.1864 12.1021 12.365 12.0281 12.497 11.8968C12.5294 11.8639 12.5588 11.8281 12.5847 11.7899C12.5973 11.7707 12.6091 11.751 12.6198 11.7308C12.6306 11.7107 12.6405 11.6896 12.6494 11.6685C12.6583 11.6474 12.6658 11.6254 12.6723 11.6038C12.6793 11.5818 12.685 11.5595 12.6892 11.5368C12.6938 11.5143 12.6972 11.4916 12.6995 11.4688C12.7019 11.4457 12.7031 11.4225 12.7031 11.3993L12.7032 11.3994ZM15.047 11.3994C15.047 11.213 14.9729 11.0341 14.841 10.9023C14.7092 10.7704 14.5303 10.6963 14.3439 10.6963H14.3425C14.2035 10.6966 14.0677 10.738 13.9522 10.8155C13.8368 10.8929 13.7469 11.0028 13.6939 11.1313C13.6409 11.2598 13.6271 11.4011 13.6544 11.5374C13.6817 11.6737 13.7488 11.7989 13.8472 11.8971C13.9455 11.9953 14.0708 12.0621 14.2072 12.0892C14.3435 12.1162 14.4848 12.1022 14.6132 12.0489C14.7416 11.9957 14.8514 11.9055 14.9286 11.7899C15.0058 11.6743 15.047 11.5384 15.047 11.3994Z" fill="#5B9EFF"/>
</svg>
