<svg width="24" height="24" viewBox="0 0 24 24" fill="none" xmlns="http://www.w3.org/2000/svg">
<path d="M13.9687 1.7561V3.70315H15.5156V1.7561C15.5156 1.55098 15.4341 1.35425 15.289 1.2092C15.144 1.06415 14.9473 0.982666 14.7421 0.982666C14.537 0.982666 14.3403 1.06415 14.1952 1.2092C14.0502 1.35425 13.9687 1.55098 13.9687 1.7561ZM19.3928 14.25H11.7445C11.607 14.2494 11.4726 14.2911 11.3595 14.3695C11.2465 14.4479 11.1604 14.5592 11.1128 14.6883L10.3512 16.7813H20.7861L20.0245 14.6882C19.9769 14.5592 19.8908 14.4479 19.7778 14.3695C19.6648 14.2911 19.5304 14.2494 19.3928 14.25ZM4.33968 14.7261C4.28778 14.726 4.237 14.7412 4.19377 14.7699C4.15055 14.7987 4.11681 14.8396 4.09685 14.8875C4.07688 14.9354 4.07157 14.9881 4.08161 15.039C4.09164 15.09 4.11655 15.1368 4.1532 15.1735C4.18984 15.2103 4.23657 15.2353 4.28746 15.2455C4.33835 15.2557 4.39111 15.2505 4.43907 15.2307C4.48703 15.2108 4.52803 15.1772 4.55687 15.1341C4.58572 15.0909 4.60111 15.0402 4.6011 14.9883C4.60111 14.9189 4.5736 14.8523 4.52459 14.8032C4.47558 14.754 4.40908 14.7263 4.33968 14.7261ZM4.33968 12.3985C4.28778 12.3983 4.237 12.4135 4.19378 12.4423C4.15055 12.471 4.11682 12.5119 4.09685 12.5598C4.07688 12.6077 4.07157 12.6604 4.0816 12.7113C4.09163 12.7623 4.11654 12.8091 4.15318 12.8458C4.18982 12.8826 4.23654 12.9076 4.28743 12.9178C4.33832 12.928 4.39108 12.9228 4.43904 12.903C4.487 12.8832 4.528 12.8496 4.55685 12.8064C4.5857 12.7633 4.6011 12.7126 4.6011 12.6607C4.60112 12.5913 4.57361 12.5247 4.52461 12.4755C4.4756 12.4264 4.40909 12.3986 4.33968 12.3985ZM7.12864 14.7261C7.07675 14.726 7.02597 14.7412 6.98274 14.7699C6.93951 14.7987 6.90578 14.8396 6.88581 14.8875C6.86585 14.9354 6.86054 14.9881 6.87057 15.039C6.88061 15.09 6.90552 15.1368 6.94217 15.1735C6.97881 15.2103 7.02554 15.2353 7.07643 15.2455C7.12732 15.2557 7.18008 15.2505 7.22804 15.2307C7.276 15.2108 7.317 15.1772 7.34584 15.1341C7.37468 15.0909 7.39008 15.0402 7.39007 14.9883C7.39008 14.9189 7.36256 14.8523 7.31356 14.8032C7.26455 14.754 7.19805 14.7263 7.12864 14.7261ZM4.33968 10.071C4.28778 10.0708 4.237 10.0861 4.19378 10.1148C4.15055 10.1435 4.11682 10.1844 4.09685 10.2323C4.07688 10.2802 4.07157 10.3329 4.0816 10.3839C4.09163 10.4348 4.11654 10.4816 4.15318 10.5183C4.18982 10.5551 4.23654 10.5801 4.28743 10.5903C4.33832 10.6005 4.39108 10.5954 4.43904 10.5755C4.487 10.5557 4.528 10.5221 4.55685 10.479C4.5857 10.4358 4.6011 10.3851 4.6011 10.3332C4.60112 10.2638 4.57361 10.1972 4.52461 10.148C4.4756 10.0989 4.40909 10.0712 4.33968 10.071ZM13.2175 19.6406L12.9413 20.0625H17.9744L17.6982 19.6406H13.2175ZM12.7066 12.9277C12.7585 12.9279 12.8093 12.9126 12.8525 12.8839C12.8958 12.8552 12.9295 12.8143 12.9495 12.7664C12.9695 12.7185 12.9748 12.6657 12.9647 12.6148C12.9547 12.5639 12.9298 12.5171 12.8931 12.4803C12.8565 12.4435 12.8097 12.4185 12.7588 12.4083C12.7079 12.3982 12.6552 12.4033 12.6072 12.4232C12.5592 12.443 12.5182 12.4767 12.4894 12.5198C12.4606 12.563 12.4452 12.6137 12.4453 12.6657C12.4453 12.735 12.4728 12.8015 12.5218 12.8507C12.5708 12.8998 12.6372 12.9275 12.7066 12.9277ZM12.7066 8.26784C12.7585 8.268 12.8093 8.25275 12.8525 8.22403C12.8957 8.19532 12.9294 8.15442 12.9494 8.10652C12.9694 8.05862 12.9747 8.00587 12.9647 7.95495C12.9546 7.90404 12.9297 7.85724 12.8931 7.82049C12.8564 7.78373 12.8097 7.75868 12.7588 7.7485C12.7079 7.73832 12.6552 7.74346 12.6072 7.76329C12.5593 7.78311 12.5183 7.81672 12.4894 7.85986C12.4606 7.90299 12.4452 7.95372 12.4452 8.00562C12.4451 8.07503 12.4726 8.14162 12.5217 8.19078C12.5707 8.23994 12.6372 8.26765 12.7066 8.26784ZM15.4955 12.9277C15.5474 12.9279 15.5982 12.9127 15.6415 12.884C15.6847 12.8553 15.7185 12.8144 15.7385 12.7665C15.7585 12.7186 15.7638 12.6658 15.7538 12.6149C15.7438 12.5639 15.7189 12.5171 15.6823 12.4803C15.6456 12.4436 15.5989 12.4185 15.548 12.4083C15.4971 12.3982 15.4443 12.4033 15.3963 12.4232C15.3483 12.443 15.3073 12.4766 15.2785 12.5198C15.2497 12.563 15.2343 12.6137 15.2343 12.6657C15.2343 12.735 15.2618 12.8015 15.3108 12.8506C15.3597 12.8997 15.4262 12.9274 15.4955 12.9277ZM12.7066 10.5954C12.7585 10.5955 12.8093 10.5803 12.8525 10.5516C12.8957 10.5228 12.9294 10.4819 12.9494 10.434C12.9694 10.3861 12.9747 10.3334 12.9647 10.2825C12.9546 10.2315 12.9297 10.1848 12.8931 10.148C12.8564 10.1113 12.8097 10.0862 12.7588 10.076C12.7079 10.0658 12.6551 10.071 12.6072 10.0908C12.5592 10.1107 12.5182 10.1443 12.4894 10.1874C12.4605 10.2306 12.4452 10.2813 12.4452 10.3332C12.4451 10.4026 12.4726 10.4692 12.5217 10.5183C12.5707 10.5675 12.6372 10.5952 12.7066 10.5954ZM5.08588 0.9844C4.88111 0.984598 4.68476 1.06591 4.53981 1.21054C4.39485 1.35517 4.3131 1.55134 4.31244 1.7561V3.70315H5.85932V1.7561C5.85867 1.55133 5.77692 1.35516 5.63196 1.21053C5.48701 1.06589 5.29065 0.984585 5.08588 0.9844Z" fill="#6568FF"/>
<path d="M2.90232 3C2.77208 3.00084 2.64329 3.02745 2.52339 3.07831C2.40348 3.12916 2.29483 3.20325 2.2037 3.29629C2.11256 3.38934 2.04075 3.49951 1.9924 3.62045C1.94404 3.74138 1.92011 3.87069 1.92198 4.00092V5.53125H17.9532V4.00106C17.9532 3.45061 17.4834 3 16.9331 3H15.9845V3.94603C15.9858 3.97566 15.9809 4.00524 15.9703 4.03294C15.9597 4.06063 15.9435 4.08585 15.9227 4.10702C15.902 4.1282 15.8771 4.14488 15.8496 4.15604C15.8221 4.16719 15.7926 4.17258 15.763 4.17188H13.7507C13.6213 4.17188 13.5001 4.07545 13.5001 3.94603V3H6.32823V3.94603C6.32573 4.00826 6.29867 4.06696 6.25299 4.10929C6.20731 4.15162 6.14671 4.17412 6.08448 4.17188H4.07255C4.04253 4.17273 4.01265 4.16749 3.9847 4.15648C3.95676 4.14547 3.93133 4.12891 3.90996 4.1078C3.88859 4.0867 3.87171 4.06149 3.86035 4.03368C3.84899 4.00588 3.84338 3.97606 3.84385 3.94603V3H2.90232ZM18.0158 19.2827L18.5421 20.0625H21.797V17.8699C21.7957 17.7043 21.7286 17.5459 21.6106 17.4297C21.4927 17.3135 21.3333 17.2488 21.1677 17.25H9.96994C9.62527 17.25 9.32823 17.5252 9.32823 17.8699V20.0625H12.374L12.9001 19.2827C12.9212 19.2501 12.9497 19.223 12.9834 19.2037C13.0171 19.1845 13.0549 19.1735 13.0937 19.1719H17.8222C17.861 19.1735 17.8988 19.1845 17.9325 19.2037C17.9662 19.223 17.9947 19.2501 18.0158 19.2827ZM18.4419 19.2607L18.7216 17.8143C18.732 17.7609 18.7606 17.7128 18.8026 17.6783C18.8446 17.6437 18.8973 17.6249 18.9517 17.625H20.2186C20.4734 17.625 20.7178 17.7262 20.898 17.9065C21.0783 18.0867 21.1795 18.3311 21.1795 18.5859C21.1795 18.8408 21.0783 19.0852 20.898 19.2654C20.7178 19.4456 20.4734 19.5469 20.2186 19.5469H18.6721C18.6373 19.5462 18.603 19.5379 18.5718 19.5225C18.5406 19.5072 18.5131 19.4852 18.4913 19.458C18.4693 19.4307 18.4535 19.399 18.445 19.3649C18.4364 19.3309 18.4354 19.2954 18.4419 19.2609V19.2607ZM12.4548 19.4578C12.433 19.485 12.4055 19.507 12.3743 19.5224C12.3431 19.5378 12.3088 19.5461 12.274 19.5469H10.7276C10.4728 19.5469 10.2284 19.4456 10.0481 19.2654C9.86794 19.0852 9.7667 18.8408 9.7667 18.5859C9.7667 18.3311 9.86794 18.0867 10.0481 17.9065C10.2284 17.7262 10.4728 17.625 10.7276 17.625H11.9946C12.0489 17.6249 12.1017 17.6437 12.1437 17.6783C12.1857 17.7128 12.2143 17.7609 12.2247 17.8143L12.5043 19.2627C12.5108 19.2969 12.5098 19.3321 12.5012 19.3658C12.4927 19.3995 12.4768 19.4309 12.4548 19.4578ZM17.7182 18.8906H13.2282C13.1661 18.8906 13.1065 18.8659 13.0625 18.822C13.0185 18.778 12.9939 18.7184 12.9939 18.6562C12.9939 18.5941 13.0185 18.5345 13.0625 18.4905C13.1065 18.4466 13.1661 18.4219 13.2282 18.4219H17.7184C17.7806 18.4219 17.8402 18.4466 17.8842 18.4905C17.9281 18.5345 17.9528 18.5941 17.9528 18.6562C17.9528 18.7184 17.9281 18.778 17.8842 18.822C17.8402 18.8659 17.7806 18.8906 17.7184 18.8906H17.7182ZM17.7182 18.1406H13.2282C13.1661 18.1406 13.1065 18.1159 13.0625 18.072C13.0185 18.028 12.9939 17.9684 12.9939 17.9062C12.9939 17.8441 13.0185 17.7845 13.0625 17.7405C13.1065 17.6966 13.1661 17.6719 13.2282 17.6719H17.7184C17.7806 17.6719 17.8402 17.6966 17.8842 17.7405C17.9281 17.7845 17.9528 17.8441 17.9528 17.9062C17.9528 17.9684 17.9281 18.028 17.8842 18.072C17.8402 18.1159 17.7806 18.1406 17.7184 18.1406H17.7182ZM15.4957 8.26781C15.5476 8.26802 15.5984 8.25281 15.6416 8.22412C15.6849 8.19543 15.7187 8.15455 15.7387 8.10666C15.7587 8.05876 15.764 8.00601 15.754 7.95507C15.744 7.90414 15.7191 7.85732 15.6825 7.82054C15.6458 7.78377 15.5991 7.75869 15.5482 7.74849C15.4973 7.73829 15.4446 7.74342 15.3966 7.76324C15.3486 7.78305 15.3076 7.81666 15.2787 7.85981C15.2499 7.90295 15.2345 7.95369 15.2345 8.00559C15.2345 8.07497 15.2619 8.14152 15.3109 8.19067C15.3598 8.23983 15.4263 8.26756 15.4957 8.26781ZM7.1288 7.74342C7.07691 7.74326 7.02613 7.75851 6.9829 7.78723C6.93967 7.81595 6.90594 7.85685 6.88597 7.90475C6.86601 7.95265 6.8607 8.0054 6.87073 8.05632C6.88077 8.10724 6.90568 8.15404 6.94233 8.19079C6.97897 8.22754 7.0257 8.25259 7.07659 8.26277C7.12748 8.27294 7.18024 8.26779 7.2282 8.24796C7.27616 8.22813 7.31716 8.19451 7.346 8.15137C7.37484 8.10822 7.39024 8.05749 7.39023 8.00559C7.39025 7.93618 7.36274 7.8696 7.31373 7.82045C7.26472 7.7713 7.19821 7.7436 7.1288 7.74342Z" fill="#6568FF"/>
<path d="M9.85018 16.7823L10.6723 14.5256C10.7531 14.3065 10.8993 14.1175 11.0911 13.9844C11.283 13.8512 11.5111 13.7803 11.7447 13.7812H17.9532V6H1.92197V16.7277C1.92013 16.8575 1.94416 16.9863 1.99265 17.1067C2.04114 17.2271 2.11313 17.3366 2.20441 17.4289C2.29569 17.5211 2.40443 17.5943 2.52429 17.644C2.64415 17.6938 2.77272 17.7192 2.9025 17.7188H8.88582C8.92307 17.4791 9.03732 17.2581 9.2113 17.0892C9.38529 16.9202 9.60955 16.8125 9.85018 16.7823ZM15.4957 7.27467C15.6403 7.27447 15.7817 7.31717 15.9021 7.39736C16.0224 7.47756 16.1162 7.59166 16.1717 7.72521C16.2272 7.85876 16.2418 8.00577 16.2137 8.14763C16.1856 8.28949 16.1161 8.41984 16.0139 8.52216C15.9117 8.62449 15.7815 8.69421 15.6396 8.72249C15.4978 8.75078 15.3508 8.73635 15.2172 8.68105C15.0835 8.62575 14.9693 8.53205 14.889 8.41182C14.8086 8.29158 14.7657 8.15021 14.7657 8.00559C14.7658 7.81194 14.8427 7.62622 14.9796 7.4892C15.1164 7.35217 15.302 7.27502 15.4957 7.27467ZM15.4957 9.6022C15.6403 9.602 15.7817 9.6447 15.902 9.72489C16.0224 9.80509 16.1162 9.91918 16.1717 10.0527C16.2272 10.1863 16.2418 10.3333 16.2137 10.4751C16.1857 10.617 16.1161 10.7473 16.0139 10.8497C15.9117 10.952 15.7815 11.0217 15.6397 11.05C15.4979 11.0783 15.3508 11.0639 15.2172 11.0086C15.0836 10.9533 14.9694 10.8596 14.889 10.7394C14.8086 10.6192 14.7657 10.4778 14.7657 10.3332C14.7658 10.1395 14.8427 9.95378 14.9795 9.81675C15.1164 9.67971 15.302 9.60255 15.4957 9.6022ZM15.4957 11.9345C15.6403 11.9343 15.7817 11.977 15.902 12.0572C16.0224 12.1374 16.1162 12.2515 16.1717 12.385C16.2272 12.5185 16.2418 12.6655 16.2138 12.8074C16.1857 12.9493 16.1162 13.0796 16.014 13.1819C15.9118 13.2843 15.7816 13.354 15.6398 13.3823C15.498 13.4106 15.3509 13.3962 15.2173 13.341C15.0837 13.2857 14.9694 13.192 14.8891 13.0718C14.8087 12.9516 14.7658 12.8102 14.7657 12.6656C14.7657 12.4719 14.8426 12.2861 14.9794 12.149C15.1163 12.0119 15.3019 11.9347 15.4957 11.9344V11.9345ZM12.7066 7.27467C12.8512 7.27447 12.9926 7.31717 13.113 7.39736C13.2333 7.47756 13.3272 7.59166 13.3827 7.72521C13.4381 7.85876 13.4528 8.00577 13.4247 8.14763C13.3966 8.28949 13.327 8.41984 13.2249 8.52216C13.1227 8.62449 12.9924 8.69421 12.8506 8.72249C12.7088 8.75078 12.5617 8.73635 12.4281 8.68105C12.2945 8.62575 12.1803 8.53205 12.0999 8.41182C12.0195 8.29158 11.9767 8.15021 11.9767 8.00559C11.9767 7.81191 12.0537 7.62618 12.1905 7.48915C12.3274 7.35212 12.5131 7.27498 12.7067 7.27467H12.7066ZM12.7066 9.6022C12.8512 9.602 12.9926 9.6447 13.113 9.72489C13.2333 9.80509 13.3272 9.91918 13.3827 10.0527C13.4381 10.1863 13.4528 10.3333 13.4247 10.4751C13.3966 10.617 13.3271 10.7473 13.2249 10.8497C13.1227 10.952 12.9924 11.0217 12.8506 11.05C12.7088 11.0783 12.5618 11.0639 12.4281 11.0086C12.2945 10.9533 12.1803 10.8596 12.0999 10.7394C12.0196 10.6192 11.9767 10.4778 11.9767 10.3332C11.9767 10.1395 12.0536 9.95374 12.1905 9.8167C12.3274 9.67965 12.5131 9.60251 12.7067 9.6022H12.7066ZM12.7066 11.9345C12.8512 11.9343 12.9926 11.977 13.113 12.0572C13.2333 12.1374 13.3272 12.2515 13.3826 12.385C13.4381 12.5185 13.4528 12.6655 13.4247 12.8074C13.3966 12.9493 13.3271 13.0796 13.2249 13.1819C13.1227 13.2843 12.9925 13.354 12.8507 13.3823C12.7089 13.4106 12.5619 13.3962 12.4282 13.341C12.2946 13.2857 12.1804 13.192 12.1 13.0718C12.0196 12.9516 11.9767 12.8102 11.9767 12.6656C11.9767 12.4719 12.0535 12.2861 12.1904 12.149C12.3273 12.0119 12.513 11.9347 12.7067 11.9344L12.7066 11.9345ZM3.04697 11.6169C3.04697 11.6791 3.02228 11.7387 2.97833 11.7827C2.93437 11.8266 2.87476 11.8513 2.8126 11.8513C2.75044 11.8513 2.69082 11.8266 2.64687 11.7827C2.60292 11.7387 2.57822 11.6791 2.57822 11.6169V7.86661C2.57822 7.80445 2.60292 7.74483 2.64687 7.70088C2.69082 7.65693 2.75044 7.63223 2.8126 7.63223C2.87476 7.63223 2.93437 7.65693 2.97833 7.70088C3.02228 7.74483 3.04697 7.80445 3.04697 7.86661V11.6169ZM3.04697 7.03125C3.04697 7.09341 3.02228 7.15302 2.97833 7.19698C2.93437 7.24093 2.87476 7.26562 2.8126 7.26562C2.75044 7.26562 2.69082 7.24093 2.64687 7.19698C2.60292 7.15302 2.57822 7.09341 2.57822 7.03125V6.90188C2.57822 6.83972 2.60292 6.7801 2.64687 6.73615C2.69082 6.69219 2.75044 6.6675 2.8126 6.6675C2.87476 6.6675 2.93437 6.69219 2.97833 6.73615C3.02228 6.7801 3.04697 6.83972 3.04697 6.90188V7.03125ZM4.33983 15.7192C4.19523 15.7194 4.05382 15.6767 3.93351 15.5964C3.8132 15.5162 3.71939 15.4021 3.66394 15.2686C3.60849 15.135 3.5939 14.988 3.62202 14.8462C3.65013 14.7043 3.71969 14.574 3.82188 14.4717C3.92408 14.3694 4.05432 14.2997 4.19614 14.2714C4.33795 14.2431 4.48497 14.2576 4.61858 14.3129C4.75219 14.3682 4.8664 14.4619 4.94676 14.5821C5.02711 14.7023 5.07 14.8437 5.07 14.9883C5.06993 15.182 4.993 15.3677 4.85611 15.5048C4.71921 15.6418 4.53354 15.719 4.33983 15.7192ZM4.33983 13.3917C4.19522 13.3918 4.0538 13.3491 3.93349 13.2689C3.81317 13.1886 3.71936 13.0745 3.66392 12.9409C3.60847 12.8074 3.5939 12.6604 3.62203 12.5185C3.65017 12.3766 3.71974 12.2463 3.82196 12.144C3.92418 12.0417 4.05445 11.9721 4.19628 11.9438C4.33811 11.9156 4.48513 11.93 4.61874 11.9854C4.75235 12.0407 4.86655 12.1344 4.94687 12.2547C5.0272 12.3749 5.07005 12.5163 5.07 12.6609C5.06987 12.8546 4.99291 13.0403 4.85603 13.1773C4.71914 13.3143 4.5335 13.3914 4.33983 13.3917ZM4.33983 11.0641C4.19523 11.0643 4.05382 11.0215 3.93351 10.9413C3.81319 10.8611 3.71938 10.747 3.66393 10.6134C3.60849 10.4798 3.5939 10.3328 3.62202 10.191C3.65014 10.0491 3.7197 9.91882 3.8219 9.81652C3.9241 9.71421 4.05435 9.64452 4.19617 9.61626C4.33799 9.58799 4.485 9.60243 4.61861 9.65774C4.75223 9.71304 4.86643 9.80674 4.94678 9.92697C5.02713 10.0472 5.07001 10.1886 5.07 10.3332C5.06992 10.5269 4.99299 10.7126 4.85609 10.8497C4.7192 10.9867 4.53353 11.0638 4.33983 11.0641ZM7.1289 15.7192C6.98429 15.7194 6.84289 15.6767 6.72257 15.5964C6.60226 15.5162 6.50845 15.4021 6.453 15.2686C6.39755 15.135 6.38296 14.988 6.41108 14.8462C6.43919 14.7043 6.50875 14.574 6.61094 14.4717C6.71314 14.3694 6.84338 14.2997 6.9852 14.2714C7.12702 14.2431 7.27403 14.2576 7.40764 14.3129C7.54126 14.3682 7.65547 14.4619 7.73582 14.5821C7.81618 14.7023 7.85907 14.8437 7.85907 14.9883C7.85899 15.182 7.78205 15.3678 7.64514 15.5048C7.50822 15.6419 7.32252 15.719 7.1288 15.7192H7.1289ZM7.1289 13.3917C6.98428 13.3918 6.84285 13.3491 6.72252 13.2689C6.60219 13.1887 6.50837 13.0746 6.45291 12.941C6.39746 12.8074 6.38287 12.6604 6.41099 12.5186C6.43911 12.3767 6.50868 12.2464 6.6109 12.1441C6.71312 12.0418 6.84338 11.9721 6.98522 11.9438C7.12705 11.9156 7.27408 11.93 7.40769 11.9854C7.54131 12.0407 7.6555 12.1344 7.73584 12.2547C7.81617 12.3749 7.85902 12.5163 7.85897 12.6609C7.85884 12.8546 7.78188 13.0403 7.64499 13.1773C7.50811 13.3143 7.32246 13.3914 7.1288 13.3917H7.1289ZM7.1289 11.0641C6.98429 11.0643 6.84288 11.0215 6.72257 10.9413C6.60226 10.8611 6.50844 10.747 6.453 10.6134C6.39755 10.4798 6.38296 10.3328 6.41108 10.191C6.4392 10.0491 6.50876 9.91882 6.61096 9.81652C6.71316 9.71421 6.84341 9.64452 6.98523 9.61626C7.12705 9.58799 7.27406 9.60243 7.40768 9.65774C7.54129 9.71304 7.65549 9.80674 7.73584 9.92697C7.81619 10.0472 7.85908 10.1886 7.85907 10.3332C7.85898 10.5269 7.78204 10.7126 7.64512 10.8497C7.50821 10.9867 7.32251 11.0638 7.1288 11.0641H7.1289ZM7.1289 8.73656C6.98429 8.73672 6.84289 8.69398 6.72257 8.61376C6.60226 8.53354 6.50845 8.41943 6.453 8.28588C6.39755 8.15232 6.38296 8.00532 6.41108 7.86348C6.43919 7.72163 6.50875 7.59131 6.61094 7.489C6.71314 7.3867 6.84338 7.317 6.9852 7.28873C7.12702 7.26046 7.27403 7.27489 7.40764 7.33019C7.54126 7.38549 7.65547 7.47918 7.73582 7.59941C7.81618 7.71963 7.85907 7.86099 7.85907 8.00559C7.85899 8.19931 7.78205 8.38509 7.64514 8.52214C7.50822 8.65918 7.32252 8.7363 7.1288 8.73656H7.1289ZM9.91796 7.27467C10.0626 7.27455 10.2039 7.31732 10.3242 7.39757C10.4445 7.47782 10.5383 7.59194 10.5937 7.7255C10.6491 7.85906 10.6637 8.00605 10.6356 8.14789C10.6074 8.28972 10.5378 8.42003 10.4356 8.52231C10.3334 8.6246 10.2032 8.69428 10.0614 8.72253C9.91955 8.75077 9.77255 8.73633 9.63895 8.68101C9.50534 8.6257 9.39115 8.532 9.31081 8.41177C9.23047 8.29155 9.18759 8.15019 9.1876 8.00559C9.18769 7.8119 9.26462 7.62615 9.40151 7.48911C9.5384 7.35208 9.72407 7.27496 9.91777 7.27467H9.91796ZM9.91796 9.6022C10.0626 9.60208 10.2039 9.64485 10.3242 9.7251C10.4445 9.80534 10.5383 9.91946 10.5937 10.053C10.6491 10.1866 10.6637 10.3336 10.6356 10.4754C10.6074 10.6172 10.5379 10.7475 10.4357 10.8498C10.3335 10.9521 10.2032 11.0218 10.0614 11.0501C9.91959 11.0783 9.77258 11.0639 9.63898 11.0086C9.50538 10.9532 9.39118 10.8596 9.31083 10.7393C9.23048 10.6191 9.1876 10.4778 9.1876 10.3332C9.18767 10.1395 9.2646 9.95371 9.40149 9.81666C9.53839 9.67962 9.72407 9.60249 9.91777 9.6022H9.91796ZM9.91796 11.9298C10.0625 11.9297 10.2039 11.9724 10.3242 12.0527C10.4445 12.1329 10.5383 12.247 10.5937 12.3806C10.6491 12.5141 10.6637 12.6611 10.6356 12.8029C10.6075 12.9447 10.5379 13.075 10.4357 13.1773C10.3335 13.2796 10.2033 13.3493 10.0615 13.3776C9.91971 13.4059 9.77271 13.3915 9.63911 13.3362C9.5055 13.2809 9.39129 13.1873 9.31092 13.0671C9.23055 12.9469 9.18764 12.8055 9.1876 12.6609C9.1876 12.4672 9.26449 12.2814 9.4014 12.1442C9.5383 12.0071 9.72402 11.93 9.91777 11.9297L9.91796 11.9298ZM20.7076 18.5859C20.7076 18.456 20.6562 18.3312 20.5646 18.239C20.473 18.1468 20.3486 18.0946 20.2186 18.0938H19.1452L18.9561 19.0781H20.2186C20.3486 19.0773 20.473 19.025 20.5646 18.9328C20.6562 18.8406 20.7076 18.7159 20.7076 18.5859Z" fill="#6568FF"/>
<path d="M9.91771 10.5954C9.9696 10.5955 10.0204 10.5803 10.0636 10.5516C10.1068 10.5228 10.1406 10.4819 10.1605 10.434C10.1805 10.3861 10.1858 10.3334 10.1758 10.2825C10.1657 10.2316 10.1408 10.1848 10.1042 10.148C10.0675 10.1113 10.0208 10.0862 9.96993 10.076C9.91904 10.0659 9.86627 10.071 9.81831 10.0908C9.77035 10.1107 9.72935 10.1443 9.70051 10.1874C9.67167 10.2306 9.65628 10.2813 9.65629 10.3332C9.65626 10.4026 9.68377 10.4692 9.73278 10.5183C9.78179 10.5675 9.8483 10.5952 9.91771 10.5954ZM9.91771 12.923C9.96961 12.9231 10.0204 12.9079 10.0636 12.8791C10.1069 12.8504 10.1406 12.8095 10.1606 12.7616C10.1805 12.7137 10.1858 12.6609 10.1758 12.61C10.1657 12.5591 10.1408 12.5123 10.1041 12.4755C10.0675 12.4388 10.0207 12.4137 9.96981 12.4036C9.91891 12.3934 9.86614 12.3986 9.81818 12.4185C9.77022 12.4383 9.72924 12.472 9.70042 12.5151C9.6716 12.5583 9.65624 12.6091 9.65629 12.661C9.65631 12.7303 9.68384 12.7969 9.73285 12.846C9.78185 12.8951 9.84833 12.9228 9.91771 12.923ZM9.04691 20.5313H22.0782V21.2813H9.04691V20.5313ZM20.1463 21.75L20.1539 22.8323C20.154 22.8565 20.1591 22.8805 20.1688 22.9027C20.1784 22.9249 20.1925 22.945 20.2101 22.9616C20.2276 22.9792 20.2485 22.993 20.2714 23.0024C20.2944 23.0117 20.319 23.0164 20.3438 23.0161L21.4896 23.009C21.5143 23.009 21.5388 23.0041 21.5616 22.9946C21.5844 22.9851 21.6051 22.9712 21.6224 22.9536C21.6398 22.9364 21.6536 22.9158 21.6629 22.8932C21.6723 22.8705 21.677 22.8462 21.6767 22.8217L21.6692 21.75H20.1463ZM9.46227 21.75L9.46991 22.8322C9.47021 22.8566 9.47533 22.8808 9.48498 22.9032C9.49463 22.9257 9.50862 22.946 9.52614 22.9631C9.54366 22.9801 9.56438 22.9935 9.5871 23.0026C9.60982 23.0116 9.63409 23.016 9.65854 23.0157H9.65994L10.8058 23.009C10.8305 23.009 10.8549 23.0041 10.8777 22.9946C10.9005 22.9851 10.9212 22.9712 10.9386 22.9536C10.956 22.9364 10.9697 22.9158 10.9791 22.8932C10.9884 22.8705 10.9931 22.8462 10.9928 22.8217L10.9852 21.75H9.46227ZM10.7276 18.0938C10.597 18.0938 10.4718 18.1456 10.3795 18.2379C10.2872 18.3302 10.2354 18.4554 10.2354 18.586C10.2354 18.7165 10.2872 18.8417 10.3795 18.934C10.4718 19.0263 10.597 19.0782 10.7276 19.0782H11.9901L11.8011 18.0938H10.7276ZM7.12874 10.071C7.07684 10.0708 7.02607 10.0861 6.98284 10.1148C6.93961 10.1435 6.90588 10.1844 6.88591 10.2323C6.86594 10.2802 6.86064 10.333 6.87066 10.3839C6.88069 10.4348 6.9056 10.4816 6.94224 10.5183C6.97888 10.5551 7.0256 10.5801 7.07649 10.5903C7.12738 10.6005 7.18014 10.5954 7.2281 10.5755C7.27606 10.5557 7.31706 10.5221 7.34591 10.479C7.37476 10.4358 7.39016 10.3851 7.39016 10.3332C7.39019 10.2638 7.36268 10.1972 7.31367 10.148C7.26466 10.0989 7.19815 10.0712 7.12874 10.071ZM7.12874 12.3985C7.07684 12.3983 7.02607 12.4136 6.98284 12.4423C6.93961 12.471 6.90588 12.5119 6.88591 12.5598C6.86594 12.6077 6.86064 12.6604 6.87066 12.7114C6.88069 12.7623 6.9056 12.8091 6.94224 12.8458C6.97888 12.8826 7.0256 12.9076 7.07649 12.9178C7.12738 12.928 7.18014 12.9228 7.2281 12.903C7.27606 12.8832 7.31706 12.8496 7.34591 12.8065C7.37476 12.7633 7.39016 12.7126 7.39016 12.6607C7.39019 12.5913 7.36268 12.5247 7.31367 12.4755C7.26466 12.4264 7.19815 12.3987 7.12874 12.3985ZM15.4956 10.5954C15.5475 10.5956 15.5983 10.5804 15.6416 10.5517C15.6848 10.523 15.7186 10.4821 15.7386 10.4342C15.7586 10.3863 15.7639 10.3336 15.7539 10.2826C15.7439 10.2317 15.719 10.1849 15.6824 10.1481C15.6458 10.1113 15.599 10.0862 15.5481 10.076C15.4972 10.0659 15.4445 10.071 15.3965 10.0908C15.3485 10.1106 15.3075 10.1443 15.2787 10.1874C15.2498 10.2306 15.2344 10.2813 15.2344 10.3332C15.2344 10.4026 15.2619 10.4691 15.3108 10.5183C15.3598 10.5674 15.4262 10.5951 15.4956 10.5954ZM9.91771 8.26784C9.9696 8.268 10.0204 8.25276 10.0636 8.22404C10.1068 8.19532 10.1406 8.15443 10.1605 8.10653C10.1805 8.05863 10.1858 8.00588 10.1758 7.95496C10.1658 7.90404 10.1408 7.85724 10.1042 7.82049C10.0676 7.78374 10.0208 7.75869 9.96995 7.74851C9.91907 7.73832 9.8663 7.74347 9.81834 7.76329C9.77038 7.78311 9.72938 7.81672 9.70053 7.85986C9.67168 7.903 9.65629 7.95373 9.65629 8.00563C9.65626 8.07504 9.68377 8.14163 9.73278 8.19079C9.78179 8.23995 9.84829 8.26766 9.91771 8.26784Z" fill="#6568FF"/>
</svg>
