<svg width="29" height="29" viewBox="0 0 29 29" fill="none" xmlns="http://www.w3.org/2000/svg">
<path fill-rule="evenodd" clip-rule="evenodd" d="M28.526 10.837C26.503 3.09065 18.5834 -1.54904 10.8371 0.47393C3.09081 2.4969 -1.54887 10.4165 0.474094 18.1628C2.49706 25.9091 10.4166 30.5488 18.1629 28.5258C25.9093 26.5028 30.5489 18.5833 28.526 10.837Z" fill="#3A3A3A"/>
<path d="M18.2495 8.40939C18.1702 7.68609 18.0386 7.30839 17.8035 7.01248C17.7527 7.02325 17.7001 7.023 17.6494 7.01176C17.5987 7.00052 17.551 6.97854 17.5095 6.94731L16.6582 6.31479C16.6152 6.28239 16.5792 6.24159 16.5524 6.19486C16.5256 6.14813 16.5086 6.09644 16.5024 6.04293L16.3776 6.00092L16.3725 6.79435L12.8632 6.77206L12.8682 5.97863L12.7428 6.01905C12.736 6.07247 12.7183 6.12394 12.6909 6.17033C12.6636 6.21672 12.627 6.25706 12.5836 6.2889L11.7244 6.91056C11.6825 6.94135 11.6345 6.96277 11.5836 6.97337C11.5328 6.98397 11.4802 6.9835 11.4296 6.97199C11.1907 7.26489 11.0543 7.64235 10.9673 8.36313C10.7343 10.2754 11.0833 13.2733 11.0786 14.0123C11.005 17.9541 10.9574 20.3533 11.2127 21.1852C11.2755 21.3545 11.3968 21.4957 11.5546 21.5834C11.5972 21.5644 11.6436 21.5551 11.6902 21.5563C11.9949 21.5582 12.1423 21.7579 12.4798 21.7085C12.7023 21.6716 12.7732 21.8576 12.8019 21.9873C13.0019 22.0195 13.2019 22.0443 13.3902 22.0632C13.4062 22.0409 13.4273 22.0228 13.4517 22.0104C13.4761 21.998 13.5031 21.9917 13.5305 21.9919L15.5104 22.0045C15.5378 22.0046 15.5648 22.0113 15.589 22.024C15.6133 22.0367 15.6341 22.0551 15.6498 22.0775C15.7971 22.0652 15.9444 22.0499 16.0917 22.0303C16.1132 21.9009 16.1866 21.6923 16.4219 21.7379C16.7586 21.7975 16.9086 21.5938 17.2148 21.5958C17.2522 21.5942 17.2895 21.6001 17.3246 21.6133C17.3596 21.6264 17.3917 21.6464 17.4189 21.6721C17.6129 21.5866 17.7664 21.4293 17.8471 21.2332C18.1144 20.4047 18.0958 18.0036 18.0723 14.0626C18.0652 13.3177 18.4582 10.32 18.2495 8.40939Z" fill="url(#paint0_radial_153_3927)"/>
<path d="M16.3746 6.79447L16.3796 6.00094C15.2319 5.68228 14.02 5.67458 12.8684 5.97863L12.8633 6.77216L16.3746 6.79447Z" fill="url(#paint1_linear_153_3927)"/>
<path d="M18.03 8.52584C17.9021 7.32673 17.6281 7.12479 16.9604 6.56556C16.0511 5.79724 13.2013 5.77914 12.2823 6.53585C11.6045 7.09388 11.3294 7.29234 11.1864 8.48825C10.9672 10.324 11.3036 13.2144 11.2873 13.9254C11.2176 17.7185 11.172 20.0294 11.4127 20.8303C11.6895 21.7536 14.525 21.7216 14.525 21.7216C14.525 21.7216 17.3583 21.7896 17.6483 20.8699C17.8992 20.0722 17.883 17.7623 17.8614 13.9671C17.8572 13.2502 18.2273 10.3643 18.03 8.52584Z" fill="url(#paint2_radial_153_3927)"/>
<path d="M13.1868 12.4579C12.782 12.5087 12.3855 12.6116 12.007 12.764L12.051 13.0264C12.4287 12.8553 12.8299 12.7417 13.2413 12.6894C14.1302 12.6031 15.0256 12.6088 15.9134 12.7064C16.326 12.7634 16.7277 12.8821 17.1051 13.0585L17.151 12.7967C16.7745 12.6395 16.3793 12.5315 15.9752 12.4756C15.0486 12.3781 14.1146 12.3721 13.1868 12.4579Z" fill="url(#paint3_linear_153_3927)"/>
<path d="M11.8434 10.4769C12.2487 10.3027 12.6709 10.1707 13.1032 10.0829C14.0925 9.89358 15.1094 9.90004 16.0962 10.1019C16.5274 10.1952 16.9479 10.3326 17.3509 10.5118C17.4234 10.5381 17.4901 10.578 17.5475 10.6294L17.5475 10.622C17.5684 10.5439 17.574 10.4624 17.5638 10.3822C17.5405 10.3378 17.4716 10.2962 17.3512 10.2424C16.9481 10.0631 16.5276 9.92576 16.0965 9.83251C15.1096 9.63057 14.0928 9.62411 13.1034 9.8135C12.6714 9.90327 12.2497 10.0373 11.845 10.2133C11.724 10.2656 11.6545 10.3063 11.6307 10.3504C11.6195 10.4305 11.624 10.512 11.6439 10.5904L11.6438 10.5978C11.7018 10.5448 11.7696 10.5037 11.8434 10.4769Z" fill="url(#paint4_linear_153_3927)"/>
<path d="M13.1871 12.4582C14.1178 12.3719 15.0548 12.3779 15.9843 12.476C16.3884 12.5319 16.7836 12.6398 17.1601 12.7971L17.5537 10.6294C17.4964 10.578 17.4296 10.5381 17.3572 10.5119C16.9541 10.3326 16.5336 10.1952 16.1025 10.102C15.1156 9.90007 14.0988 9.89361 13.1094 10.083C12.6771 10.1708 12.2549 10.3028 11.8496 10.4769C11.7768 10.5021 11.7096 10.5412 11.6516 10.5919L12.0176 12.7644C12.3928 12.6128 12.7858 12.5099 13.1871 12.4582Z" fill="url(#paint5_linear_153_3927)"/>
<path d="M16.925 18.7513C16.9065 18.657 16.885 18.5626 16.8591 18.4682C16.8591 18.4682 16.8251 18.4857 16.7572 18.5117C16.5092 18.6088 15.7952 18.8369 14.5468 18.829C13.797 18.8344 13.0516 18.7157 12.3406 18.4778C12.2745 18.4538 12.2392 18.4389 12.2392 18.4389C12.2136 18.53 12.191 18.6211 12.1712 18.7123C12.0556 19.2859 12.0196 19.8728 12.0645 20.4563C12.4552 20.6216 12.8626 20.7441 13.2797 20.8217C14.1102 20.9287 14.9507 20.934 15.7825 20.8376C16.203 20.7659 16.6145 20.6485 17.0097 20.4877C17.061 19.9077 17.0325 19.3235 16.925 18.7513ZM16.8374 20.2554C16.472 20.4157 16.0894 20.5333 15.6971 20.606C14.9239 20.7028 14.1414 20.6978 13.3695 20.5912C12.9777 20.5137 12.5961 20.3912 12.2323 20.2262C12.1974 19.7311 12.2158 19.2336 12.2874 18.7425C13.0241 18.9321 13.7819 19.0274 14.5426 19.0262C15.3034 19.0465 16.0635 18.9647 16.8026 18.7829C16.8666 19.2711 16.8782 19.7648 16.8374 20.2554Z" fill="url(#paint6_linear_153_3927)"/>
<path d="M12.2872 18.7454C12.2159 19.2356 12.1974 19.732 12.2322 20.2261C12.5955 20.391 12.9766 20.5135 13.3679 20.5911C14.1398 20.6977 14.9223 20.7027 15.6955 20.6059C16.0883 20.5334 16.4714 20.4158 16.8373 20.2554C16.8781 19.7647 16.8664 19.2711 16.8025 18.7829C16.0634 18.9646 15.3033 19.0464 14.5424 19.0262C13.7818 19.0283 13.024 18.934 12.2872 18.7454Z" fill="url(#paint7_linear_153_3927)"/>
<path d="M11.4688 15.2489L11.9683 15.4214L11.8957 13.1772L11.4356 10.5153C11.4356 10.5153 11.39 11.1967 11.425 12.1745C11.4476 12.793 11.5158 13.6474 11.5109 14.1921C11.5075 14.7132 11.4861 15.0694 11.4688 15.2489Z" fill="url(#paint8_linear_153_3927)"/>
<path d="M17.6616 15.2883L17.1599 15.4544L17.261 13.2113L17.7535 10.5555C17.7535 10.5555 17.7904 11.2374 17.7429 12.2147C17.7125 12.8329 17.6335 13.6863 17.6315 14.231C17.6311 14.7522 17.6436 15.1086 17.6616 15.2883Z" fill="url(#paint9_linear_153_3927)"/>
<path d="M11.453 15.4544L11.9698 15.6741L12.0153 17.5501C11.96 17.7634 11.8786 17.9691 11.7729 18.1625C11.6828 18.362 11.5684 18.5497 11.4322 18.7212C11.4322 18.7212 11.3881 16.1577 11.453 15.4544Z" fill="url(#paint10_linear_153_3927)"/>
<path d="M17.6748 15.4939L17.1552 15.7085L17.0859 17.5837C17.1386 17.7972 17.2174 18.0034 17.3205 18.1977C17.4081 18.3984 17.5201 18.5875 17.6541 18.7607C17.6541 18.7607 17.7278 16.1979 17.6748 15.4939Z" fill="url(#paint11_linear_153_3927)"/>
<path d="M11.7253 6.91072L12.5846 6.28899C12.6281 6.25714 12.6646 6.2168 12.692 6.1704C12.7193 6.12401 12.737 6.07253 12.7439 6.0191C12.5242 6.08921 12.3179 6.19591 12.1338 6.33471C11.8778 6.5216 11.6425 6.7353 11.4319 6.97217C11.4823 6.98346 11.5346 6.98382 11.5852 6.97322C11.6358 6.96262 11.6836 6.94131 11.7253 6.91072Z" fill="url(#paint12_radial_153_3927)"/>
<path d="M16.6604 6.31476L17.5117 6.94736C17.5532 6.9786 17.601 7.00058 17.6517 7.01182C17.7024 7.02306 17.755 7.02331 17.8058 7.01254C17.5982 6.77299 17.3656 6.55632 17.112 6.36622C16.9297 6.22509 16.7248 6.11577 16.506 6.04288C16.512 6.09628 16.5288 6.1479 16.5553 6.19463C16.5819 6.24136 16.6176 6.28223 16.6604 6.31476Z" fill="url(#paint13_radial_153_3927)"/>
<path d="M12.4801 21.6997C12.1426 21.7549 11.9952 21.5494 11.6905 21.5474C11.6438 21.5463 11.5975 21.5556 11.5549 21.5745C11.9425 21.7844 12.3662 21.9194 12.8038 21.9726C12.7766 21.8488 12.7027 21.6672 12.4801 21.6997Z" fill="#93091A"/>
<path d="M16.4195 21.7247C16.1842 21.6834 16.1122 21.892 16.0893 22.017C16.5487 21.9736 16.9974 21.853 17.4166 21.6603C17.3895 21.6346 17.3574 21.6146 17.3223 21.6014C17.2872 21.5883 17.2499 21.5824 17.2125 21.584C16.9062 21.5894 16.7563 21.7872 16.4195 21.7247Z" fill="#93091A"/>
<path d="M12.2231 9.6597C12.2231 9.6597 12.8084 8.60632 12.8904 8.21522C12.9526 7.92116 12.8643 6.98864 12.8643 6.98864C12.8643 6.98864 12.7954 7.87157 12.7318 8.15679C12.6454 8.54493 12.2231 9.6597 12.2231 9.6597Z" fill="url(#paint14_linear_153_3927)"/>
<path d="M16.986 9.68976C16.986 9.68976 16.4142 8.62314 16.3372 8.23691C16.2787 7.94208 16.3788 7.01077 16.3788 7.01077C16.3788 7.01077 16.4365 7.8945 16.4965 8.18051C16.578 8.56971 16.986 9.68976 16.986 9.68976Z" fill="url(#paint15_linear_153_3927)"/>
<path style="mix-blend-mode:screen" d="M17.349 10.5118C16.9459 10.3325 16.5255 10.1951 16.0943 10.1019C15.8627 10.0513 15.6285 10.0139 15.3927 9.98994C14.7568 10.6661 14.0011 11.8951 13.6915 12.4158C14.453 12.3761 15.2164 12.3962 15.9747 12.4759C16.3788 12.5318 16.774 12.6397 17.1505 12.797L17.5441 10.6293C17.4871 10.5781 17.4209 10.5382 17.349 10.5118Z" fill="url(#paint16_linear_153_3927)"/>
<path d="M14.5817 12.87C12.7491 12.8172 12.1315 13.1489 12.1315 13.1489C12.1315 13.1489 12.1254 17.5908 12.2625 18.0333C12.3548 18.3284 13.5096 18.4726 14.2425 18.5318L14.8475 18.5356C15.584 18.4858 16.7376 18.3606 16.8337 18.0624C16.9837 17.6216 17.0267 13.18 17.0267 13.18C17.0267 13.18 16.4149 12.8405 14.5817 12.87Z" fill="url(#paint17_linear_153_3927)"/>
<path d="M14.8457 21.5676C16.626 21.5229 17.4168 21.023 17.4168 21.023L17.0676 20.5967C15.9521 21.2124 14.5293 21.0753 14.5293 21.0753C14.5293 21.0753 13.1049 21.1929 11.9973 20.5645L11.6427 20.9863C11.6427 20.9863 12.4272 21.4963 14.2067 21.5635C14.2995 21.5641 14.5262 21.5656 14.5262 21.5656C14.6469 21.5752 14.7529 21.567 14.8457 21.5676Z" fill="url(#paint18_linear_153_3927)"/>
<path d="M12.5822 6.43175C12.5822 6.43175 11.4745 6.98271 11.3504 8.22011C11.2776 8.85138 11.2391 9.48613 11.2352 10.1216C11.2352 10.1216 11.6328 7.09708 12.5822 6.43175Z" fill="url(#paint19_linear_153_3927)"/>
<path d="M16.668 6.45764C16.668 6.45764 17.7686 7.02263 17.8771 8.26151C17.9414 8.89416 17.9713 9.52984 17.9666 10.1657C17.9666 10.1657 17.6089 7.13498 16.668 6.45764Z" fill="url(#paint20_linear_153_3927)"/>
<path d="M17.7331 10.7202C17.7331 10.7202 18.0184 10.7779 18.0257 11.0165C18.033 11.255 17.7354 11.7508 17.7285 11.4416C17.7133 11.2013 17.7148 10.9602 17.7331 10.7202Z" fill="url(#paint21_linear_153_3927)"/>
<path d="M18.7252 11.2639C18.6624 11.1781 18.0879 10.9963 18.0879 10.9963C17.9748 10.9588 17.9403 11.0587 17.9206 11.1425L18.7449 11.3995C18.752 11.3768 18.754 11.3529 18.7505 11.3294C18.7471 11.3059 18.7384 11.2835 18.7252 11.2639Z" fill="url(#paint22_linear_153_3927)"/>
<path d="M17.9204 11.1439C17.9171 11.1786 17.9169 11.2136 17.9198 11.2484L18.7297 11.4553C18.7389 11.4376 18.7459 11.4188 18.7507 11.3994L17.9204 11.1439Z" fill="url(#paint23_linear_153_3927)"/>
<path d="M11.4519 10.6642C11.4519 10.6642 11.1468 10.7182 11.1379 10.9567C11.1291 11.1951 11.438 11.6947 11.4473 11.3871C11.4667 11.1466 11.4682 10.9049 11.4519 10.6642Z" fill="url(#paint24_linear_153_3927)"/>
<path d="M11.096 10.9357C11.096 10.9357 10.5192 11.1117 10.4554 11.1952C10.4409 11.2165 10.4316 11.241 10.4284 11.2665C10.4252 11.2921 10.428 11.3181 10.4368 11.3423L11.2613 11.0929C11.2501 11.0074 11.214 10.8967 11.096 10.9357Z" fill="url(#paint25_linear_153_3927)"/>
<path d="M10.4352 11.3422C10.4396 11.3575 10.4454 11.3724 10.4526 11.3865L11.2725 11.19C11.2753 11.1582 11.2755 11.1262 11.2731 11.0943L10.4352 11.3422Z" fill="url(#paint26_linear_153_3927)"/>
<path d="M11.0868 13.8974C11.0665 13.8973 11.047 13.9052 11.0326 13.9195C11.0181 13.9338 11.0099 13.9532 11.0098 13.9735L11.0058 14.6051C11.0056 14.6254 11.0136 14.6449 11.0279 14.6593C11.0421 14.6738 11.0615 14.682 11.0818 14.6821L11.0868 13.8974Z" fill="#595959"/>
<path d="M11.029 17.0548C11.0087 17.0547 10.9892 17.0626 10.9748 17.0769C10.9603 17.0912 10.9521 17.1106 10.952 17.1309L10.948 17.761C10.9479 17.7813 10.9558 17.8008 10.9701 17.8153C10.9843 17.8297 11.0038 17.8379 11.0241 17.838L11.029 17.0548Z" fill="#595959"/>
<path d="M18.0613 13.9418C18.0817 13.9419 18.1011 13.9501 18.1153 13.9646C18.1296 13.979 18.1375 13.9986 18.1374 14.0189L18.1334 14.6504C18.1333 14.6707 18.1251 14.6902 18.1106 14.7044C18.0962 14.7187 18.0767 14.7266 18.0564 14.7265L18.0613 13.9418Z" fill="#595959"/>
<path d="M18.0801 17.0995C18.0991 17.1004 18.1172 17.1083 18.1307 17.1217C18.1443 17.1351 18.1523 17.1531 18.1532 17.1721L18.1492 17.8023C18.1491 17.8226 18.1409 17.842 18.1265 17.8562C18.112 17.8705 18.0925 17.8785 18.0722 17.8783L18.0801 17.0995Z" fill="#595959"/>
<path d="M12.945 9.43555C13.0673 9.42602 13.1295 9.35722 13.2518 9.34916C13.2566 9.34882 13.2611 9.34667 13.2644 9.34314C13.2677 9.33961 13.2696 9.33497 13.2696 9.33014C13.2698 9.32776 13.2695 9.32536 13.2687 9.32311C13.2679 9.32086 13.2667 9.31881 13.265 9.31711C13.2633 9.31541 13.2613 9.3141 13.259 9.31328C13.2568 9.31246 13.2544 9.31215 13.252 9.31236C13.1298 9.32189 13.0675 9.39069 12.9452 9.39875C12.9404 9.39909 12.9359 9.40124 12.9326 9.40477C12.9293 9.4083 12.9275 9.41294 12.9274 9.41777C12.9274 9.42246 12.9292 9.42696 12.9325 9.4303C12.9358 9.43363 12.9403 9.43552 12.945 9.43555Z" fill="#9E9E9E"/>
<path d="M13.2516 9.3845C13.1293 9.39403 13.0671 9.46283 12.9448 9.47089C12.94 9.47123 12.9355 9.47338 12.9322 9.47691C12.9289 9.48044 12.927 9.48508 12.927 9.48992C12.9268 9.49229 12.9271 9.49469 12.9279 9.49694C12.9287 9.49919 12.9299 9.50124 12.9316 9.50294C12.9333 9.50464 12.9353 9.50595 12.9376 9.50677C12.9398 9.50759 12.9422 9.50791 12.9446 9.50769C13.0668 9.49817 13.1291 9.42936 13.2514 9.42131C13.2562 9.42097 13.2607 9.41881 13.264 9.41529C13.2673 9.41176 13.2691 9.40711 13.2692 9.40228C13.2694 9.3999 13.2691 9.39751 13.2683 9.39525C13.2675 9.393 13.2662 9.39095 13.2646 9.38925C13.2629 9.38755 13.2609 9.38625 13.2586 9.38543C13.2564 9.3846 13.254 9.38429 13.2516 9.3845Z" fill="#9E9E9E"/>
<path d="M13.251 9.4567C13.1288 9.46623 13.0665 9.53504 12.9442 9.54309C12.9394 9.54343 12.9349 9.54558 12.9316 9.54911C12.9283 9.55264 12.9265 9.55729 12.9265 9.56212C12.9264 9.5668 12.9283 9.57131 12.9316 9.57464C12.9348 9.57798 12.9393 9.57987 12.944 9.5799C13.0663 9.57037 13.1285 9.50157 13.2508 9.49351C13.2556 9.49317 13.2601 9.49102 13.2634 9.48749C13.2667 9.48396 13.2686 9.47931 13.2686 9.47448C13.2688 9.47211 13.2685 9.46971 13.2677 9.46746C13.267 9.4652 13.2657 9.46316 13.264 9.46146C13.2623 9.45976 13.2603 9.45845 13.258 9.45763C13.2558 9.45681 13.2534 9.45649 13.251 9.4567Z" fill="#9E9E9E"/>
<path d="M16.2563 9.45658C16.1341 9.44549 16.0727 9.37591 15.9506 9.3663C15.9458 9.36589 15.9413 9.36369 15.938 9.36012C15.9348 9.35655 15.933 9.35188 15.933 9.34705C15.9328 9.34467 15.9331 9.34227 15.934 9.34003C15.9348 9.33779 15.9361 9.33576 15.9378 9.33408C15.9395 9.3324 15.9415 9.33112 15.9438 9.33033C15.946 9.32953 15.9484 9.32925 15.9508 9.32949C16.073 9.34057 16.1343 9.41016 16.2565 9.41977C16.2613 9.42017 16.2658 9.42238 16.269 9.42595C16.2723 9.42952 16.2741 9.43419 16.274 9.43902C16.274 9.44371 16.2721 9.44819 16.2688 9.45148C16.2654 9.45477 16.2609 9.45661 16.2563 9.45658Z" fill="#9E9E9E"/>
<path d="M15.9517 9.40171C16.0739 9.41279 16.1353 9.48238 16.2574 9.49199C16.2622 9.49239 16.2667 9.4946 16.27 9.49817C16.2732 9.50174 16.275 9.50641 16.2749 9.51124C16.2752 9.51362 16.2748 9.51602 16.274 9.51826C16.2732 9.5205 16.2719 9.52253 16.2702 9.52421C16.2685 9.52589 16.2664 9.52717 16.2642 9.52796C16.2619 9.52876 16.2595 9.52904 16.2572 9.5288C16.135 9.51772 16.0736 9.44813 15.9515 9.43852C15.9467 9.43812 15.9422 9.43591 15.939 9.43234C15.9357 9.42877 15.9339 9.4241 15.934 9.41927C15.934 9.41458 15.9359 9.4101 15.9392 9.40681C15.9425 9.40352 15.9471 9.40168 15.9517 9.40171Z" fill="#9E9E9E"/>
<path d="M15.9513 9.47384C16.0734 9.48492 16.1348 9.55451 16.257 9.56412C16.2618 9.56452 16.2663 9.56673 16.2695 9.5703C16.2728 9.57387 16.2746 9.57854 16.2745 9.58337C16.2745 9.58805 16.2726 9.59253 16.2693 9.59583C16.2659 9.59912 16.2614 9.60095 16.2567 9.60092C16.1346 9.58984 16.0732 9.52025 15.9511 9.51064C15.9463 9.51024 15.9418 9.50803 15.9385 9.50446C15.9353 9.50089 15.9335 9.49622 15.9335 9.49139C15.9333 9.48901 15.9336 9.48662 15.9345 9.48438C15.9353 9.48213 15.9366 9.4801 15.9383 9.47842C15.94 9.47675 15.942 9.47547 15.9443 9.47467C15.9465 9.47388 15.9489 9.47359 15.9513 9.47384Z" fill="#9E9E9E"/>
<path d="M15.5114 21.9986L13.5328 21.986C13.5054 21.9857 13.4783 21.9921 13.4539 22.0045C13.4295 22.0169 13.4084 22.035 13.3924 22.0572C14.0134 22.1171 14.5213 22.1115 14.5228 22.1115C14.5243 22.1115 15.0307 22.1236 15.6508 22.0716C15.6352 22.0491 15.6143 22.0308 15.59 22.0181C15.5658 22.0054 15.5388 21.9987 15.5114 21.9986Z" fill="url(#paint27_linear_153_3927)"/>
<path style="mix-blend-mode:screen" d="M16.802 18.7829C16.0629 18.9646 15.3028 19.0464 14.5419 19.0262C14.3123 19.0247 14.1003 19.016 13.8914 19.0014C13.2446 19.2918 12.8532 20.1977 12.7545 20.4297C12.9556 20.4956 13.1602 20.55 13.3674 20.5926C14.1393 20.6992 14.9218 20.7042 15.695 20.6074C16.0879 20.5344 16.471 20.4163 16.8368 20.2554C16.8776 19.7647 16.8659 19.2711 16.802 18.7829Z" fill="url(#paint28_linear_153_3927)"/>
<defs>
<radialGradient id="paint0_radial_153_3927" cx="0" cy="0" r="1" gradientUnits="userSpaceOnUse" gradientTransform="translate(14.5629 15.6718) rotate(0.363959) scale(4.5855 9.53783)">
<stop stop-color="#F7F7F7"/>
<stop offset="1" stop-color="#A8ABAA"/>
</radialGradient>
<linearGradient id="paint1_linear_153_3927" x1="207.989" y1="34.8084" x2="291.732" y2="35.3404" gradientUnits="userSpaceOnUse">
<stop stop-color="#525956"/>
<stop offset="1" stop-color="#2C2E2E"/>
</linearGradient>
<radialGradient id="paint2_radial_153_3927" cx="0" cy="0" r="1" gradientUnits="userSpaceOnUse" gradientTransform="translate(2677.18 -345510) rotate(0.363959) scale(173.757 1505.94)">
<stop stop-color="white"/>
<stop offset="1" stop-color="#D2D6D5"/>
</radialGradient>
<linearGradient id="paint3_linear_153_3927" x1="269.379" y1="59.7118" x2="449.006" y2="60.8528" gradientUnits="userSpaceOnUse">
<stop/>
<stop offset="1" stop-color="#1B1C1C"/>
</linearGradient>
<linearGradient id="paint4_linear_153_3927" x1="292.639" y1="61.6551" x2="532.954" y2="63.1816" gradientUnits="userSpaceOnUse">
<stop/>
<stop offset="1" stop-color="#1B1C1C"/>
</linearGradient>
<linearGradient id="paint5_linear_153_3927" x1="290.955" y1="186.599" x2="527.513" y2="188.102" gradientUnits="userSpaceOnUse">
<stop stop-color="#363B39"/>
<stop offset="1" stop-color="#1B1C1C"/>
</linearGradient>
<linearGradient id="paint6_linear_153_3927" x1="262.58" y1="309.893" x2="431.788" y2="310.968" gradientUnits="userSpaceOnUse">
<stop/>
<stop offset="1" stop-color="#1B1C1C"/>
</linearGradient>
<linearGradient id="paint7_linear_153_3927" x1="251.285" y1="247.134" x2="397.856" y2="248.065" gradientUnits="userSpaceOnUse">
<stop stop-color="#363B39"/>
<stop offset="1" stop-color="#1B1C1C"/>
</linearGradient>
<linearGradient id="paint8_linear_153_3927" x1="35.9096" y1="367.195" x2="38.2093" y2="367.21" gradientUnits="userSpaceOnUse">
<stop stop-color="#363B39"/>
<stop offset="1" stop-color="#1B1C1C"/>
</linearGradient>
<linearGradient id="paint9_linear_153_3927" x1="64.3971" y1="367.376" x2="66.6909" y2="367.391" gradientUnits="userSpaceOnUse">
<stop stop-color="#363B39"/>
<stop offset="1" stop-color="#1B1C1C"/>
</linearGradient>
<linearGradient id="paint10_linear_153_3927" x1="37.1936" y1="344.735" x2="39.6577" y2="344.75" gradientUnits="userSpaceOnUse">
<stop stop-color="#363B39"/>
<stop offset="1" stop-color="#1B1C1C"/>
</linearGradient>
<linearGradient id="paint11_linear_153_3927" x1="65.9688" y1="344.917" x2="68.4275" y2="344.933" gradientUnits="userSpaceOnUse">
<stop stop-color="#363B39"/>
<stop offset="1" stop-color="#1B1C1C"/>
</linearGradient>
<radialGradient id="paint12_radial_153_3927" cx="0" cy="0" r="1" gradientUnits="userSpaceOnUse" gradientTransform="translate(76.9447 42.6838) rotate(0.363959) scale(5.02767 3.91972)">
<stop stop-color="white"/>
<stop offset="1" stop-color="#D2D6D5"/>
</radialGradient>
<radialGradient id="paint13_radial_153_3927" cx="0" cy="0" r="1" gradientUnits="userSpaceOnUse" gradientTransform="translate(126.96 43.0068) rotate(0.363959) scale(5.0146 3.9101)">
<stop stop-color="white"/>
<stop offset="1" stop-color="#D2D6D5"/>
</radialGradient>
<linearGradient id="paint14_linear_153_3927" x1="12.327" y1="9.29966" x2="13.1694" y2="6.71232" gradientUnits="userSpaceOnUse">
<stop stop-color="#D2DBDA"/>
<stop offset="1" stop-color="#B5B5B5"/>
</linearGradient>
<linearGradient id="paint15_linear_153_3927" x1="71.5002" y1="137.961" x2="46.4035" y2="112.355" gradientUnits="userSpaceOnUse">
<stop stop-color="#D2DBDA"/>
<stop offset="1" stop-color="#B5B5B5"/>
</linearGradient>
<linearGradient id="paint16_linear_153_3927" x1="271.837" y1="172.884" x2="304.829" y2="205.535" gradientUnits="userSpaceOnUse">
<stop stop-color="#363B39"/>
<stop offset="1"/>
</linearGradient>
<linearGradient id="paint17_linear_153_3927" x1="12.9291" y1="12.7491" x2="19.2767" y2="23.3207" gradientUnits="userSpaceOnUse">
<stop stop-color="#F7F7F7"/>
<stop offset="1" stop-color="#DBDBDB"/>
</linearGradient>
<linearGradient id="paint18_linear_153_3927" x1="367.281" y1="139.173" x2="371.762" y2="184.922" gradientUnits="userSpaceOnUse">
<stop stop-color="#F7F7F7"/>
<stop offset="1" stop-color="#DBDBDB"/>
</linearGradient>
<linearGradient id="paint19_linear_153_3927" x1="65.4949" y1="73.7454" x2="128.921" y2="139.902" gradientUnits="userSpaceOnUse">
<stop stop-color="#F7F7F7"/>
<stop offset="1" stop-color="#DBDBDB"/>
</linearGradient>
<linearGradient id="paint20_linear_153_3927" x1="-447.263" y1="70.5147" x2="-511.538" y2="135.837" gradientUnits="userSpaceOnUse">
<stop stop-color="#F7F7F7"/>
<stop offset="1" stop-color="#DBDBDB"/>
</linearGradient>
<linearGradient id="paint21_linear_153_3927" x1="44.5837" y1="58.328" x2="48.6859" y2="61.3467" gradientUnits="userSpaceOnUse">
<stop stop-color="#363B39"/>
<stop offset="1" stop-color="#1B1C1C"/>
</linearGradient>
<linearGradient id="paint22_linear_153_3927" x1="92.8264" y1="36.0276" x2="97.5739" y2="36.0578" gradientUnits="userSpaceOnUse">
<stop stop-color="white"/>
<stop offset="1" stop-color="#D2D6D5"/>
</linearGradient>
<linearGradient id="paint23_linear_153_3927" x1="92.9709" y1="30.3346" x2="97.7254" y2="30.3648" gradientUnits="userSpaceOnUse">
<stop stop-color="#363B39"/>
<stop offset="1" stop-color="#1B1C1C"/>
</linearGradient>
<linearGradient id="paint24_linear_153_3927" x1="25.5492" y1="58.8378" x2="29.5789" y2="62.3969" gradientUnits="userSpaceOnUse">
<stop stop-color="#363B39"/>
<stop offset="1" stop-color="#1B1C1C"/>
</linearGradient>
<linearGradient id="paint25_linear_153_3927" x1="10.4278" y1="11.1332" x2="11.2669" y2="11.1385" gradientUnits="userSpaceOnUse">
<stop stop-color="#D2D6D5"/>
<stop offset="1" stop-color="white"/>
</linearGradient>
<linearGradient id="paint26_linear_153_3927" x1="43.2281" y1="29.4447" x2="48.0057" y2="29.4751" gradientUnits="userSpaceOnUse">
<stop stop-color="#363B39"/>
<stop offset="1" stop-color="#1B1C1C"/>
</linearGradient>
<linearGradient id="paint27_linear_153_3927" x1="148.5" y1="38.9279" x2="183.144" y2="39.148" gradientUnits="userSpaceOnUse">
<stop stop-color="#363B39"/>
<stop offset="1" stop-color="#1B1C1C"/>
</linearGradient>
<linearGradient id="paint28_linear_153_3927" x1="256.976" y1="217.575" x2="266.409" y2="249.406" gradientUnits="userSpaceOnUse">
<stop stop-color="#363B39"/>
<stop offset="1"/>
</linearGradient>
</defs>
</svg>
