<svg width="13" height="15" viewBox="0 0 13 15" fill="none" xmlns="http://www.w3.org/2000/svg">
<g clip-path="url(#clip0_153_6216)">
<path d="M9.66374 2.93458H12.2619L9.52734 0.248718V2.79836C9.52734 2.87342 9.58849 2.93458 9.66374 2.93458Z" fill="#0177FB"/>
<path d="M9.66378 3.79148C9.11615 3.79148 8.67054 3.34597 8.67054 2.79833V0H1.54549C0.663928 0 -0.0532227 0.71715 -0.0532227 1.59869V13.0263C-0.0532227 13.9078 0.663928 14.625 1.54549 14.625H10.9164C11.7981 14.625 12.5151 13.9078 12.5151 13.0263V3.79146L9.66378 3.79148ZM8.68437 11.083H3.16562C2.929 11.083 2.73716 10.8912 2.73716 10.6545C2.73716 10.4179 2.929 10.2261 3.16562 10.2261H8.68437C8.92111 10.2261 9.11283 10.4179 9.11283 10.6545C9.11283 10.8912 8.92111 11.083 8.68437 11.083ZM2.73716 8.94067C2.73716 8.70404 2.929 8.5122 3.16562 8.5122H8.09034C8.32708 8.5122 8.51881 8.70404 8.51881 8.94067C8.51881 9.1773 8.32688 9.36914 8.09034 9.36914H3.16562C2.929 9.36914 2.73716 9.1773 2.73716 8.94067ZM9.2054 7.65527H3.16562C2.929 7.65527 2.73716 7.46343 2.73716 7.2268C2.73716 6.99018 2.929 6.79834 3.16562 6.79834H9.2054C9.44205 6.79834 9.63387 6.99018 9.63387 7.2268C9.63387 7.46343 9.44205 7.65527 9.2054 7.65527Z" fill="#0177FB"/>
</g>
<defs>
<clipPath id="clip0_153_6216">
<rect width="13" height="14.7333" fill="white"/>
</clipPath>
</defs>
</svg>
