<svg width="22" height="22" viewBox="0 0 22 22" fill="none" xmlns="http://www.w3.org/2000/svg">
<path fill-rule="evenodd" clip-rule="evenodd" d="M17.1481 8.06328C17.1481 9.21455 17.4524 9.89313 18.122 10.6751C18.6295 11.2512 18.7916 11.9907 18.7916 12.793C18.7916 13.5944 18.5284 14.3551 18.0009 14.9728C17.3103 15.7132 16.3364 16.1859 15.3425 16.268C13.9021 16.3908 12.4608 16.4942 11.0004 16.4942C9.53913 16.4942 8.09877 16.4324 6.65842 16.268C5.66356 16.1859 4.68966 15.7132 4.00001 14.9728C3.47251 14.3551 3.20831 13.5944 3.20831 12.793C3.20831 11.9907 3.37139 11.2512 3.87793 10.6751C4.5685 9.89313 4.85274 9.21455 4.85274 8.06328V7.67276C4.85274 6.13096 5.2372 5.12279 6.02889 4.13585C7.20595 2.69653 9.09272 1.83331 10.9594 1.83331H11.0414C12.9482 1.83331 14.896 2.73808 16.0531 4.23926C16.8038 5.20588 17.1481 6.17158 17.1481 7.67276V8.06328ZM8.31751 18.3891C8.31751 17.9275 8.74115 17.716 9.13289 17.6256C9.59115 17.5286 12.3835 17.5286 12.8417 17.6256C13.2335 17.716 13.6571 17.9275 13.6571 18.3891C13.6343 18.8285 13.3765 19.2181 13.0203 19.4656C12.5584 19.8256 12.0163 20.0537 11.4497 20.1358C11.1363 20.1765 10.8283 20.1774 10.5259 20.1358C9.9583 20.0537 9.41623 19.8256 8.95524 19.4646C8.59811 19.2181 8.34029 18.8285 8.31751 18.3891Z" fill="#3A3A3A"/>
</svg>
