<svg width="10" height="10" viewBox="0 0 10 10" fill="none" xmlns="http://www.w3.org/2000/svg">
<g clip-path="url(#clip0_169_3869)">
<path d="M5.3902 7.77793L9.84025 3.3278C9.94325 3.22488 10 3.08748 10 2.94098C10 2.79448 9.94325 2.65708 9.84025 2.55415L9.51261 2.22643C9.29911 2.01318 8.95212 2.01318 8.73895 2.22643L5.00207 5.96331L1.26105 2.22228C1.15804 2.11936 1.02072 2.06253 0.874302 2.06253C0.727717 2.06253 0.590401 2.11936 0.487312 2.22228L0.159754 2.55001C0.0567474 2.65301 -3.18131e-08 2.79033 -3.8217e-08 2.93683C-4.46208e-08 3.08333 0.0567474 3.22073 0.159754 3.32366L4.61386 7.77793C4.7172 7.8811 4.85516 7.93777 5.00183 7.93744C5.14906 7.93777 5.28695 7.8811 5.3902 7.77793Z" fill="#3A3A3A"/>
</g>
<defs>
<clipPath id="clip0_169_3869">
<rect width="10" height="10" fill="white" transform="translate(10) rotate(90)"/>
</clipPath>
</defs>
</svg>
