<svg width="17" height="17" viewBox="0 0 17 17" fill="none" xmlns="http://www.w3.org/2000/svg">
<path d="M13.3943 3.4C12.8758 3.4 12.3998 3.1025 12.1618 2.6435L11.5498 1.411C11.1588 0.637499 10.1388 0 9.27177 0H7.32527C6.44978 0 5.42978 0.637499 5.03878 1.411L4.42678 2.6435C4.18878 3.1025 3.71278 3.4 3.19428 3.4C1.34978 3.4 -0.112217 4.95549 0.00678303 6.79149L0.448782 13.8125C0.550782 15.5635 1.49428 17 3.84028 17H12.7483C15.0943 17 16.0293 15.5635 16.1398 13.8125L16.5818 6.79149C16.7008 4.95549 15.2388 3.4 13.3943 3.4ZM7.01927 4.46249H9.56927C9.91777 4.46249 10.2068 4.75149 10.2068 5.09999C10.2068 5.44849 9.91777 5.73749 9.56927 5.73749H7.01927C6.67078 5.73749 6.38178 5.44849 6.38178 5.09999C6.38178 4.75149 6.67078 4.46249 7.01927 4.46249ZM8.29427 13.702C6.71328 13.702 5.42128 12.4185 5.42128 10.829C5.42128 9.23949 6.70478 7.95599 8.29427 7.95599C9.88377 7.95599 11.1673 9.23949 11.1673 10.829C11.1673 12.4185 9.87527 13.702 8.29427 13.702Z" fill="#3A3A3A"/>
</svg>
