<svg width="34" height="34" viewBox="0 0 34 34" fill="none" xmlns="http://www.w3.org/2000/svg">
<path fill-rule="evenodd" clip-rule="evenodd" d="M29.0208 29.0208C35.6597 22.3819 35.6597 11.6181 29.0208 4.97918C22.3819 -1.65973 11.6181 -1.65973 4.97917 4.97918C-1.65974 11.6181 -1.65974 22.3819 4.97917 29.0208C11.6181 35.6597 22.3819 35.6597 29.0208 29.0208Z" fill="white"/>
<path d="M9.10608 18.1793C8.54524 18.8874 8.33202 19.3359 8.28162 19.8024C8.33591 19.8372 8.3821 19.8832 8.4171 19.9374C8.4521 19.9915 8.47508 20.0526 8.48451 20.1164L8.68481 21.4177C8.69457 21.4838 8.69078 21.5513 8.67367 21.6159C8.65657 21.6806 8.6265 21.7411 8.5853 21.7937L8.65896 21.9398L9.35549 21.2432L12.4362 24.324L11.7397 25.0205L11.8857 25.0942C11.9384 25.053 11.9989 25.0229 12.0635 25.0058C12.1282 24.9887 12.1956 24.9849 12.2618 24.9947L13.5631 25.195C13.6269 25.2043 13.688 25.2272 13.7422 25.2622C13.7964 25.2972 13.8424 25.3435 13.8771 25.3978C14.3436 25.3474 14.7933 25.1329 15.4989 24.5721C17.3727 23.086 19.6793 20.1332 20.3281 19.4845C23.8314 16.0664 25.9662 13.9885 26.4663 13.0309C26.5584 12.8266 26.5745 12.596 26.5115 12.3809C26.4573 12.3605 26.4083 12.3283 26.3681 12.2866C26.1006 12.0191 26.1445 11.7141 25.8034 11.4634C25.5746 11.3019 25.6741 11.0757 25.762 10.9362C25.6134 10.7333 25.4583 10.5369 25.3084 10.3559C25.2749 10.3617 25.2405 10.3593 25.2081 10.3489C25.1757 10.3386 25.1463 10.3206 25.1223 10.2965L23.3843 8.55841C23.3601 8.53443 23.3422 8.50501 23.3318 8.47262C23.3215 8.44024 23.3191 8.40584 23.3248 8.37233C23.184 8.25473 23.0405 8.13972 22.8932 8.02858C22.7614 8.12421 22.5146 8.24439 22.3466 7.99886C22.101 7.65254 21.7909 7.70164 21.5221 7.43285C21.4877 7.40162 21.4599 7.3638 21.4403 7.32162C21.4208 7.27945 21.4099 7.23378 21.4084 7.18732C21.1624 7.09363 20.8896 7.09873 20.6472 7.20154C19.6884 7.70035 17.6104 9.83775 14.1937 13.3398C13.5502 14.004 10.5883 16.3094 9.10608 18.1793Z" fill="url(#paint0_radial_153_5151)"/>
<path d="M9.35441 21.242L8.65788 21.9385C9.39375 23.221 10.4575 24.2847 11.7399 25.0205L12.4364 24.324L9.35441 21.242Z" fill="url(#paint1_linear_153_5151)"/>
<path d="M9.40234 18.2683C8.46933 19.4391 8.53523 19.8565 8.63732 20.9329C8.77043 22.4048 11.2722 24.9066 12.7441 25.0397C13.8296 25.1379 14.2457 25.2025 15.4152 24.2708C17.2102 22.8403 19.4341 19.9934 20.0686 19.3796C23.4389 16.0895 25.4948 14.0878 25.9807 13.1703C26.5416 12.1133 24.0087 9.6683 24.0087 9.6683C24.0087 9.6683 21.5651 7.13676 20.5067 7.69631C19.5892 8.1822 17.5888 10.2369 14.2974 13.6084C13.6758 14.2455 10.8316 16.472 9.40234 18.2683Z" fill="url(#paint2_radial_153_5151)"/>
<path d="M17.1107 19.0192C17.5126 19.3273 17.9526 19.5823 18.4198 19.7777L18.6097 19.5076C18.1269 19.3293 17.6735 19.0797 17.2645 18.7672C16.4041 18.0681 15.6181 17.2822 14.919 16.4217C14.6043 16.0115 14.3529 15.5562 14.1734 15.0713L13.9046 15.2626C14.1 15.7298 14.355 16.1698 14.6632 16.5716C15.3966 17.466 16.2164 18.2858 17.1107 19.0192Z" fill="url(#paint3_linear_153_5151)"/>
<path d="M16.5689 21.9411C16.059 21.7414 15.571 21.4898 15.1125 21.1903C14.0735 20.4947 13.181 19.6021 12.4854 18.5631C12.1858 18.1047 11.9343 17.6166 11.7346 17.1067C11.6934 17.0204 11.6693 16.9269 11.6635 16.8315L11.657 16.8379C11.5704 16.8887 11.4945 16.9559 11.4335 17.0357C11.4154 17.0951 11.4399 17.192 11.4994 17.3445C11.699 17.8544 11.9506 18.3425 12.2502 18.8009C12.9457 19.8399 13.8383 20.7325 14.8773 21.428C15.3373 21.7256 15.8266 21.975 16.3376 22.1724C16.4901 22.2318 16.587 22.2564 16.6464 22.2383C16.7262 22.1773 16.7933 22.1013 16.8441 22.0147L16.8506 22.0083C16.7532 22.0046 16.6575 21.9818 16.5689 21.9411Z" fill="url(#paint4_linear_153_5151)"/>
<path d="M17.1105 19.0192C16.2131 18.2838 15.3907 17.4614 14.6552 16.564C14.347 16.1621 14.0921 15.7221 13.8967 15.2549L11.6585 16.8263C11.6643 16.9217 11.6884 17.0152 11.7296 17.1015C11.9293 17.6114 12.1809 18.0995 12.4804 18.5579C13.176 19.5969 14.0685 20.4895 15.1075 21.1851C15.566 21.4846 16.054 21.7362 16.5639 21.9359C16.6502 21.9771 16.7437 22.0012 16.8392 22.007L18.4105 19.7688C17.947 19.5755 17.5101 19.3236 17.1105 19.0192Z" fill="url(#paint5_linear_153_5151)"/>
<path d="M19.2983 10.1997C19.2324 10.2992 19.1691 10.4013 19.1096 10.5073C19.1096 10.5073 19.1549 10.5215 19.2376 10.5577C19.5413 10.6882 20.3709 11.1095 21.4667 12.2053C22.1337 12.8544 22.6886 13.6094 23.1092 14.4396C23.1467 14.5184 23.1648 14.5624 23.1648 14.5624C23.2668 14.5042 23.3663 14.4435 23.4633 14.3802C24.0657 13.9744 24.6093 13.4873 25.0786 12.9328C24.8777 12.4461 24.6246 11.9825 24.3239 11.5501C23.6836 10.7313 22.9459 9.9936 22.1271 9.35329C21.693 9.04992 21.2272 8.7947 20.7379 8.59215C20.1868 9.05964 19.7024 9.60054 19.2983 10.1997ZM20.6875 8.94752C21.15 9.12459 21.5906 9.35441 22.0004 9.63241C22.7678 10.2212 23.4547 10.9081 24.0435 11.6755C24.322 12.0857 24.5523 12.5267 24.7297 12.9897C24.3287 13.4575 23.8786 13.8808 23.387 14.2522C22.9016 13.4423 22.3154 12.6971 21.6425 12.0347C20.9881 11.3533 20.2453 10.7626 19.434 10.2785C19.8033 9.79154 20.2235 9.34533 20.6875 8.94752Z" fill="url(#paint6_linear_153_5151)"/>
<path d="M23.3896 14.2495C23.8801 13.8787 24.3293 13.4563 24.7296 12.9895C24.5526 12.527 24.3227 12.0864 24.0447 11.6766C23.4559 10.9092 22.769 10.2223 22.0017 9.63352C21.5915 9.35498 21.1505 9.12472 20.6874 8.94733C20.2235 9.34515 19.8032 9.79135 19.434 10.2784C20.2453 10.7624 20.9881 11.3531 21.6424 12.0345C22.3161 12.696 22.9032 13.4402 23.3896 14.2495Z" fill="url(#paint7_linear_153_5151)"/>
<path d="M21.0624 18.0528L20.7716 17.4649L18.8785 19.5105L16.9633 22.263C16.9633 22.263 17.5978 21.7009 18.4197 20.8066C18.9392 20.2406 19.6241 19.4265 20.1035 18.9497C20.561 18.4922 20.8905 18.1963 21.0624 18.0528Z" fill="url(#paint8_linear_153_5151)"/>
<path d="M15.6258 12.6159L16.2138 12.9067L14.1682 14.7999L11.417 16.7163C11.417 16.7163 11.9791 16.0818 12.8733 15.2599C13.4393 14.7404 14.2535 14.0555 14.7303 13.5761C15.1852 13.116 15.485 12.7904 15.6258 12.6159Z" fill="url(#paint9_linear_153_5151)"/>
<path d="M21.2562 17.8847L20.9913 17.2399L22.5872 15.5431C22.8221 15.4029 23.0734 15.2923 23.3354 15.2136C23.5891 15.1159 23.8539 15.0499 24.1237 15.0172C24.1237 15.0172 21.9269 17.32 21.2562 17.8847Z" fill="url(#paint10_linear_153_5151)"/>
<path d="M15.7936 12.4221L16.4397 12.6857L18.1364 11.0898C18.2762 10.8552 18.3864 10.6044 18.4647 10.3428C18.5624 10.0892 18.6283 9.8244 18.6611 9.55455C18.6611 9.55455 16.3609 11.754 15.7936 12.4221Z" fill="url(#paint11_linear_153_5151)"/>
<path d="M13.5632 25.1951L12.2619 24.9948C12.1957 24.985 12.1283 24.9888 12.0636 25.0059C11.999 25.023 11.9385 25.0531 11.8858 25.0943C12.141 25.2239 12.4162 25.3096 12.6999 25.3476C13.089 25.4058 13.4833 25.4222 13.8759 25.3967C13.8412 25.3427 13.7953 25.2968 13.7414 25.262C13.6874 25.2272 13.6267 25.2044 13.5632 25.1951Z" fill="url(#paint12_radial_153_5151)"/>
<path d="M8.68374 21.4163L8.48344 20.115C8.47402 20.0512 8.45103 19.9902 8.41604 19.936C8.38104 19.8818 8.33484 19.8358 8.28056 19.801C8.25498 20.1936 8.27144 20.5878 8.32966 20.9769C8.36765 21.2606 8.45329 21.5359 8.58295 21.7911C8.6242 21.7386 8.65441 21.6784 8.67173 21.614C8.68906 21.5496 8.69314 21.4823 8.68374 21.4163Z" fill="url(#paint13_radial_153_5151)"/>
<path d="M25.7959 11.4713C26.1422 11.7168 26.0931 12.0269 26.3606 12.2944C26.4009 12.3361 26.4499 12.3683 26.5041 12.3888C26.3447 11.8653 26.0882 11.3765 25.7481 10.9479C25.6641 11.081 25.5711 11.3058 25.7959 11.4713Z" fill="#93091A"/>
<path d="M22.3377 8.01292C22.5095 8.25457 22.7551 8.1331 22.8843 8.04264C22.4407 7.68037 21.9391 7.39553 21.4008 7.20008C21.4023 7.24654 21.4132 7.29221 21.4327 7.33438C21.4523 7.37656 21.4801 7.41438 21.5145 7.44562C21.7897 7.70794 22.0947 7.66401 22.3377 8.01292Z" fill="#93091A"/>
<path d="M15.521 22.3327C15.521 22.3327 14.0853 22.7527 13.6718 23.0266C13.3603 23.2321 12.6251 24.1328 12.6251 24.1328C12.6251 24.1328 13.456 23.413 13.7609 23.2166C14.1758 22.9491 15.521 22.3327 15.521 22.3327Z" fill="url(#paint14_linear_153_5151)"/>
<path d="M11.3392 18.1508C11.3392 18.1508 10.914 19.5917 10.6452 20C10.4398 20.3115 9.53907 21.0468 9.53907 21.0468C9.53907 21.0468 10.2589 20.2159 10.4553 19.9109C10.7228 19.4961 11.3392 18.1508 11.3392 18.1508Z" fill="url(#paint15_linear_153_5151)"/>
<path style="mix-blend-mode:screen" d="M11.7359 17.1081C11.9356 17.618 12.1872 18.1061 12.4867 18.5645C12.6471 18.8111 12.8214 19.0484 13.0088 19.2752C14.1602 19.2326 15.8996 18.8062 16.6271 18.6162C15.9199 17.9871 15.2632 17.3036 14.6629 16.5718C14.3547 16.17 14.0997 15.73 13.9043 15.2628L11.6661 16.8342C11.6717 16.9291 11.6954 17.0221 11.7359 17.1081Z" fill="url(#paint16_linear_153_5151)"/>
<path d="M16.2382 17.4387C17.8109 19.0837 18.6457 19.3293 18.6457 19.3293C18.6457 19.3293 22.5251 15.4111 22.79 14.9007C22.9657 14.5595 22.0715 13.4249 21.4758 12.7336L20.9446 12.2025C20.2507 11.6041 19.1226 10.7086 18.7775 10.8882C18.2606 11.1467 14.349 15.0325 14.349 15.0325C14.349 15.0325 14.5932 15.866 16.2382 17.4387Z" fill="url(#paint17_linear_153_5151)"/>
<path d="M23.5912 9.52495C21.9797 8.01172 20.8451 7.7636 20.8451 7.7636L20.7818 8.44462C22.3041 8.87365 23.4413 10.2357 23.4413 10.2357C23.4413 10.2357 24.802 11.3742 25.2324 12.8952L25.9134 12.8318C25.9134 12.8318 25.6653 11.6972 24.152 10.0858C24.0706 10.0044 23.8716 9.80537 23.8716 9.80537C23.7734 9.69165 23.6726 9.60636 23.5912 9.52495Z" fill="url(#paint18_linear_153_5151)"/>
<path d="M12.3888 24.8707C12.3888 24.8707 13.8477 25.3502 15.0366 24.3655C15.6515 23.8713 16.239 23.3442 16.7967 22.7863C16.7967 22.7863 13.8077 25.1111 12.3888 24.8707Z" fill="url(#paint19_linear_153_5151)"/>
<path d="M8.8014 21.2834C8.8014 21.2834 8.32197 19.8244 9.30667 18.6355C9.80163 18.0206 10.3296 17.433 10.8884 16.8755C10.8884 16.8755 8.56104 19.8645 8.8014 21.2834Z" fill="url(#paint20_linear_153_5151)"/>
<path d="M11.5784 16.5885C11.5784 16.5885 11.3768 16.2887 11.5784 16.0716C11.78 15.8545 12.4752 15.6761 12.2116 15.9553C12.0155 16.1808 11.8039 16.3924 11.5784 16.5885Z" fill="url(#paint21_linear_153_5151)"/>
<path d="M11.1764 15.2432C11.157 15.3737 11.5059 16.0353 11.5059 16.0353C11.5731 16.1671 11.6907 16.109 11.7812 16.0521L11.2772 15.1062C11.2512 15.12 11.2286 15.1394 11.2111 15.1631C11.1937 15.1869 11.1818 15.2142 11.1764 15.2432Z" fill="url(#paint22_linear_153_5151)"/>
<path d="M11.7825 16.0508C11.8157 16.023 11.8464 15.9923 11.8742 15.9591L11.3392 15.07C11.3157 15.0776 11.2931 15.088 11.272 15.101L11.7825 16.0508Z" fill="url(#paint23_linear_153_5151)"/>
<path d="M17.0784 22.1166C17.0784 22.1166 17.395 22.335 17.6108 22.1321C17.8266 21.9293 17.9895 21.2185 17.7129 21.4821C17.486 21.6777 17.274 21.8898 17.0784 22.1166Z" fill="url(#paint24_linear_153_5151)"/>
<path d="M17.6299 22.188C17.6299 22.188 18.2928 22.5356 18.422 22.5176C18.4534 22.5114 18.4829 22.4978 18.508 22.4781C18.5332 22.4583 18.5533 22.4329 18.5668 22.4038L17.6208 21.905C17.5562 21.9903 17.4916 22.1195 17.6299 22.188Z" fill="url(#paint25_linear_153_5151)"/>
<path d="M18.5682 22.4051C18.5777 22.3878 18.5855 22.3696 18.5915 22.3508L17.696 21.8093C17.6657 21.835 17.6376 21.8631 17.612 21.8933L18.5682 22.4051Z" fill="url(#paint26_linear_153_5151)"/>
<path d="M20.2209 19.5789C20.2387 19.5967 20.2629 19.6067 20.2881 19.6067C20.3133 19.6067 20.3375 19.5967 20.3553 19.5789L20.9097 19.0245C20.9275 19.0067 20.9375 18.9825 20.9375 18.9573C20.9375 18.9321 20.9275 18.9079 20.9097 18.8901L20.2209 19.5789Z" fill="#595959"/>
<path d="M23.0264 16.8405C23.0442 16.8583 23.0684 16.8683 23.0936 16.8683C23.1188 16.8683 23.143 16.8583 23.1608 16.8405L23.7139 16.2874C23.7317 16.2696 23.7417 16.2454 23.7417 16.2202C23.7417 16.195 23.7317 16.1708 23.7139 16.153L23.0264 16.8405Z" fill="#595959"/>
<path d="M14.0983 13.4562C14.0805 13.4384 14.0704 13.4142 14.0704 13.389C14.0704 13.3638 14.0805 13.3396 14.0983 13.3218L14.6527 12.7674C14.6705 12.7496 14.6946 12.7396 14.7198 12.7396C14.7451 12.7396 14.7692 12.7496 14.787 12.7674L14.0983 13.4562Z" fill="#595959"/>
<path d="M16.8366 10.6507C16.8205 10.6334 16.8115 10.6107 16.8112 10.587C16.811 10.5633 16.8196 10.5404 16.8353 10.5228L17.3884 9.96969C17.4062 9.95187 17.4304 9.94186 17.4556 9.94186C17.4808 9.94186 17.505 9.95187 17.5228 9.96969L16.8366 10.6507Z" fill="#595959"/>
<path d="M14.6874 21.8996C14.5711 21.8014 14.456 21.8079 14.341 21.7084C14.3365 21.7045 14.3306 21.7024 14.3246 21.7027C14.3186 21.7029 14.313 21.7054 14.3087 21.7097C14.3064 21.7116 14.3046 21.7139 14.3033 21.7166C14.3021 21.7193 14.3014 21.7222 14.3014 21.7252C14.3014 21.7281 14.3021 21.7311 14.3033 21.7338C14.3046 21.7364 14.3064 21.7388 14.3087 21.7407C14.425 21.8389 14.54 21.8324 14.6551 21.9319C14.6596 21.9358 14.6655 21.9379 14.6715 21.9376C14.6775 21.9374 14.6831 21.9349 14.6874 21.9307C14.6915 21.9265 14.6938 21.921 14.6938 21.9151C14.6938 21.9093 14.6915 21.9038 14.6874 21.8996Z" fill="#9E9E9E"/>
<path d="M14.3721 21.6776C14.4884 21.7758 14.6034 21.7693 14.7184 21.8688C14.7229 21.8727 14.7288 21.8748 14.7348 21.8745C14.7408 21.8743 14.7465 21.8718 14.7507 21.8676C14.753 21.8657 14.7548 21.8633 14.7561 21.8606C14.7574 21.8579 14.758 21.855 14.758 21.852C14.758 21.8491 14.7574 21.8462 14.7561 21.8435C14.7548 21.8408 14.753 21.8384 14.7507 21.8365C14.6344 21.7383 14.5194 21.7448 14.4044 21.6453C14.3998 21.6414 14.394 21.6393 14.388 21.6396C14.382 21.6398 14.3763 21.6423 14.3721 21.6466C14.3698 21.6485 14.3679 21.6508 14.3667 21.6535C14.3654 21.6562 14.3648 21.6591 14.3648 21.6621C14.3648 21.665 14.3654 21.668 14.3667 21.6707C14.3679 21.6733 14.3698 21.6757 14.3721 21.6776Z" fill="#9E9E9E"/>
<path d="M14.4355 21.6142C14.5518 21.7125 14.6669 21.706 14.7819 21.8055C14.7864 21.8094 14.7923 21.8114 14.7983 21.8112C14.8043 21.811 14.8099 21.8085 14.8142 21.8042C14.8183 21.8001 14.8206 21.7945 14.8206 21.7887C14.8206 21.7829 14.8183 21.7773 14.8142 21.7732C14.6979 21.675 14.5829 21.6814 14.4678 21.5819C14.4633 21.578 14.4574 21.576 14.4514 21.5762C14.4454 21.5765 14.4398 21.579 14.4355 21.5832C14.4333 21.5851 14.4314 21.5875 14.4301 21.5902C14.4289 21.5928 14.4282 21.5958 14.4282 21.5987C14.4282 21.6017 14.4289 21.6046 14.4301 21.6073C14.4314 21.61 14.4333 21.6124 14.4355 21.6142Z" fill="#9E9E9E"/>
<path d="M11.7814 18.9933C11.8796 19.1096 11.8731 19.2246 11.9726 19.3396C11.9765 19.3442 11.9786 19.35 11.9783 19.356C11.9781 19.362 11.9756 19.3677 11.9713 19.3719C11.9695 19.3742 11.9671 19.3761 11.9644 19.3773C11.9617 19.3786 11.9588 19.3792 11.9558 19.3792C11.9529 19.3792 11.9499 19.3786 11.9473 19.3773C11.9446 19.3761 11.9422 19.3742 11.9403 19.3719C11.8421 19.2556 11.8486 19.1406 11.7491 19.0256C11.7452 19.021 11.7431 19.0152 11.7434 19.0092C11.7436 19.0032 11.7461 18.9975 11.7504 18.9933C11.7545 18.9892 11.7601 18.9869 11.7659 18.9869C11.7717 18.9869 11.7773 18.9892 11.7814 18.9933Z" fill="#9E9E9E"/>
<path d="M12.0023 19.3075C11.9041 19.1912 11.9105 19.0762 11.811 18.9612C11.8071 18.9567 11.8051 18.9508 11.8053 18.9448C11.8056 18.9388 11.8081 18.9331 11.8123 18.9289C11.8142 18.9266 11.8166 18.9248 11.8192 18.9235C11.8219 18.9223 11.8248 18.9216 11.8278 18.9216C11.8308 18.9216 11.8337 18.9223 11.8364 18.9235C11.8391 18.9248 11.8414 18.9266 11.8433 18.9289C11.9415 19.0452 11.9351 19.1602 12.0346 19.2752C12.0385 19.2798 12.0405 19.2856 12.0403 19.2916C12.04 19.2976 12.0375 19.3033 12.0333 19.3075C12.0292 19.3117 12.0236 19.314 12.0178 19.314C12.012 19.314 12.0064 19.3116 12.0023 19.3075Z" fill="#9E9E9E"/>
<path d="M12.0657 19.244C11.9675 19.1277 11.9739 19.0127 11.8744 18.8977C11.8705 18.8931 11.8685 18.8872 11.8687 18.8813C11.869 18.8753 11.8715 18.8696 11.8757 18.8654C11.8798 18.8612 11.8854 18.8589 11.8912 18.8589C11.897 18.8589 11.9026 18.8612 11.9067 18.8654C12.0049 18.9817 11.9985 19.0967 12.098 19.2117C12.1019 19.2162 12.1039 19.2221 12.1037 19.2281C12.1034 19.2341 12.1009 19.2398 12.0967 19.244C12.0948 19.2463 12.0924 19.2481 12.0897 19.2494C12.0871 19.2506 12.0841 19.2513 12.0812 19.2513C12.0782 19.2513 12.0753 19.2506 12.0726 19.2494C12.0699 19.2481 12.0676 19.2463 12.0657 19.244Z" fill="#9E9E9E"/>
<path d="M23.3794 8.56343L25.1162 10.3002C25.1402 10.3243 25.1696 10.3423 25.202 10.3527C25.2344 10.363 25.2688 10.3654 25.3023 10.3597C24.8061 9.76523 24.3525 9.32715 24.3512 9.32586C24.3499 9.32457 23.9131 8.87228 23.32 8.37735C23.3142 8.41086 23.3166 8.44526 23.327 8.47764C23.3373 8.51003 23.3553 8.53945 23.3794 8.56343Z" fill="url(#paint27_linear_153_5151)"/>
<path style="mix-blend-mode:screen" d="M19.4341 10.2785C20.2455 10.7625 20.9882 11.3532 21.6426 12.0346C21.8442 12.2362 22.0238 12.4288 22.1957 12.6239C23.0202 12.9315 24.156 12.4727 24.4455 12.3538C24.3254 12.1203 24.1921 11.8938 24.0462 11.6754C23.4574 10.908 22.7705 10.2212 22.0031 9.63234C21.5925 9.35415 21.151 9.12433 20.6876 8.94744C20.2236 9.34525 19.8034 9.79146 19.4341 10.2785Z" fill="url(#paint28_linear_153_5151)"/>
<defs>
<radialGradient id="paint0_radial_153_5151" cx="0" cy="0" r="1" gradientUnits="userSpaceOnUse" gradientTransform="translate(18.6976 14.9793) rotate(-135) scale(5.69276 11.8409)">
<stop stop-color="#F7F7F7"/>
<stop offset="1" stop-color="#A8ABAA"/>
</radialGradient>
<linearGradient id="paint1_linear_153_5151" x1="-135.466" y1="-170.619" x2="-208.973" y2="-244.126" gradientUnits="userSpaceOnUse">
<stop stop-color="#525956"/>
<stop offset="1" stop-color="#2C2E2E"/>
</linearGradient>
<radialGradient id="paint2_radial_153_5151" cx="0" cy="0" r="1" gradientUnits="userSpaceOnUse" gradientTransform="translate(-303721 302934) rotate(-135) scale(215.714 1869.58)">
<stop stop-color="white"/>
<stop offset="1" stop-color="#D2D6D5"/>
</radialGradient>
<linearGradient id="paint3_linear_153_5151" x1="-167.972" y1="-246.158" x2="-325.641" y2="-403.828" gradientUnits="userSpaceOnUse">
<stop/>
<stop offset="1" stop-color="#1B1C1C"/>
</linearGradient>
<linearGradient id="paint4_linear_153_5151" x1="-186.823" y1="-268.161" x2="-397.762" y2="-479.1" gradientUnits="userSpaceOnUse">
<stop/>
<stop offset="1" stop-color="#1B1C1C"/>
</linearGradient>
<linearGradient id="paint5_linear_153_5151" x1="-76.3657" y1="-377.055" x2="-284.007" y2="-584.696" gradientUnits="userSpaceOnUse">
<stop stop-color="#363B39"/>
<stop offset="1" stop-color="#1B1C1C"/>
</linearGradient>
<linearGradient id="paint6_linear_153_5151" x1="56.2305" y1="-461.214" x2="-92.2937" y2="-609.738" gradientUnits="userSpaceOnUse">
<stop/>
<stop offset="1" stop-color="#1B1C1C"/>
</linearGradient>
<linearGradient id="paint7_linear_153_5151" x1="11.4713" y1="-395.929" x2="-117.182" y2="-524.582" gradientUnits="userSpaceOnUse">
<stop stop-color="#363B39"/>
<stop offset="1" stop-color="#1B1C1C"/>
</linearGradient>
<linearGradient id="paint8_linear_153_5151" x1="306.423" y1="-314.138" x2="304.405" y2="-316.156" gradientUnits="userSpaceOnUse">
<stop stop-color="#363B39"/>
<stop offset="1" stop-color="#1B1C1C"/>
</linearGradient>
<linearGradient id="paint9_linear_153_5151" x1="281.418" y1="-339.144" x2="279.404" y2="-341.157" gradientUnits="userSpaceOnUse">
<stop stop-color="#363B39"/>
<stop offset="1" stop-color="#1B1C1C"/>
</linearGradient>
<linearGradient id="paint10_linear_153_5151" x1="285.701" y1="-295.419" x2="283.538" y2="-297.581" gradientUnits="userSpaceOnUse">
<stop stop-color="#363B39"/>
<stop offset="1" stop-color="#1B1C1C"/>
</linearGradient>
<linearGradient id="paint11_linear_153_5151" x1="260.442" y1="-320.678" x2="258.284" y2="-322.836" gradientUnits="userSpaceOnUse">
<stop stop-color="#363B39"/>
<stop offset="1" stop-color="#1B1C1C"/>
</linearGradient>
<radialGradient id="paint12_radial_153_5151" cx="0" cy="0" r="1" gradientUnits="userSpaceOnUse" gradientTransform="translate(-12.8458 -63.2845) rotate(-135) scale(6.24092 4.86562)">
<stop stop-color="white"/>
<stop offset="1" stop-color="#D2D6D5"/>
</radialGradient>
<radialGradient id="paint13_radial_153_5151" cx="0" cy="0" r="1" gradientUnits="userSpaceOnUse" gradientTransform="translate(-56.7435 -107.192) rotate(-135) scale(6.22471 4.85367)">
<stop stop-color="white"/>
<stop offset="1" stop-color="#D2D6D5"/>
</radialGradient>
<linearGradient id="paint14_linear_153_5151" x1="15.1152" y1="22.5601" x2="12.1146" y2="24.1108" gradientUnits="userSpaceOnUse">
<stop stop-color="#D2DBDA"/>
<stop offset="1" stop-color="#B5B5B5"/>
</linearGradient>
<linearGradient id="paint15_linear_153_5151" x1="75.0586" y1="-142.696" x2="74.894" y2="-98.1897" gradientUnits="userSpaceOnUse">
<stop stop-color="#D2DBDA"/>
<stop offset="1" stop-color="#B5B5B5"/>
</linearGradient>
<linearGradient id="paint16_linear_153_5151" x1="-71.4403" y1="-348.267" x2="-72.1063" y2="-405.882" gradientUnits="userSpaceOnUse">
<stop stop-color="#363B39"/>
<stop offset="1"/>
</linearGradient>
<linearGradient id="paint17_linear_153_5151" x1="17.5925" y1="18.9868" x2="21.2057" y2="4.11291" gradientUnits="userSpaceOnUse">
<stop stop-color="#F7F7F7"/>
<stop offset="1" stop-color="#DBDBDB"/>
</linearGradient>
<linearGradient id="paint18_linear_153_5151" x1="-185.146" y1="-401.733" x2="-149.204" y2="-446.051" gradientUnits="userSpaceOnUse">
<stop stop-color="#F7F7F7"/>
<stop offset="1" stop-color="#DBDBDB"/>
</linearGradient>
<linearGradient id="paint19_linear_153_5151" x1="24.3585" y1="-80.7353" x2="26.0325" y2="-194.489" gradientUnits="userSpaceOnUse">
<stop stop-color="#F7F7F7"/>
<stop offset="1" stop-color="#DBDBDB"/>
</linearGradient>
<linearGradient id="paint20_linear_153_5151" x1="474.46" y1="369.319" x2="588.204" y2="367.677" gradientUnits="userSpaceOnUse">
<stop stop-color="#F7F7F7"/>
<stop offset="1" stop-color="#DBDBDB"/>
</linearGradient>
<linearGradient id="paint21_linear_153_5151" x1="29.3824" y1="-48.8813" x2="28.3917" y2="-55.1254" gradientUnits="userSpaceOnUse">
<stop stop-color="#363B39"/>
<stop offset="1" stop-color="#1B1C1C"/>
</linearGradient>
<linearGradient id="paint22_linear_153_5151" x1="-32.6796" y1="-71.258" x2="-36.8468" y2="-75.4252" gradientUnits="userSpaceOnUse">
<stop stop-color="white"/>
<stop offset="1" stop-color="#D2D6D5"/>
</linearGradient>
<linearGradient id="paint23_linear_153_5151" x1="-37.7725" y1="-66.3556" x2="-41.9458" y2="-70.5289" gradientUnits="userSpaceOnUse">
<stop stop-color="#363B39"/>
<stop offset="1" stop-color="#1B1C1C"/>
</linearGradient>
<linearGradient id="paint24_linear_153_5151" x1="46.6409" y1="-32.7301" x2="46.1855" y2="-39.3883" gradientUnits="userSpaceOnUse">
<stop stop-color="#363B39"/>
<stop offset="1" stop-color="#1B1C1C"/>
</linearGradient>
<linearGradient id="paint25_linear_153_5151" x1="18.3923" y1="22.5964" x2="17.6557" y2="21.8598" gradientUnits="userSpaceOnUse">
<stop stop-color="#D2D6D5"/>
<stop offset="1" stop-color="white"/>
</linearGradient>
<linearGradient id="paint26_linear_153_5151" x1="5.39034" y1="-22.1852" x2="1.19678" y2="-26.3787" gradientUnits="userSpaceOnUse">
<stop stop-color="#363B39"/>
<stop offset="1" stop-color="#1B1C1C"/>
</linearGradient>
<linearGradient id="paint27_linear_153_5151" x1="-79.325" y1="-122.377" x2="-109.734" y2="-152.786" gradientUnits="userSpaceOnUse">
<stop stop-color="#363B39"/>
<stop offset="1" stop-color="#1B1C1C"/>
</linearGradient>
<linearGradient id="paint28_linear_153_5151" x1="-19.3346" y1="-374.783" x2="0.0936922" y2="-411.126" gradientUnits="userSpaceOnUse">
<stop stop-color="#363B39"/>
<stop offset="1"/>
</linearGradient>
</defs>
</svg>
