<svg width="15" height="17" viewBox="0 0 15 17" fill="none" xmlns="http://www.w3.org/2000/svg">
<path d="M14.4681 3.05909C13.2306 2.93611 11.9931 2.84388 10.748 2.7747V2.76701L10.5789 1.76781C10.4636 1.06069 10.2945 0 8.49594 0H6.48217C4.6913 0 4.5222 1.01457 4.39922 1.76013L4.23782 2.74396C3.523 2.79007 2.80819 2.83619 2.09338 2.90536L0.525406 3.05909C0.202588 3.08983 -0.0279964 3.37422 0.0027482 3.68935C0.0334928 4.00448 0.310194 4.23507 0.633012 4.20432L2.20099 4.0506C6.22853 3.65092 10.2868 3.80464 14.3605 4.21201C14.3835 4.21201 14.3989 4.21201 14.422 4.21201C14.714 4.21201 14.9677 3.98911 14.9984 3.68935C15.0215 3.37422 14.7909 3.08983 14.4681 3.05909Z" fill="#FF0000"/>
<path d="M13.0544 5.29576C12.8699 5.1036 12.6163 4.996 12.355 4.996H2.63966C2.37833 4.996 2.117 5.1036 1.94022 5.29576C1.76344 5.48791 1.66352 5.74924 1.67889 6.01825L2.15543 13.9042C2.23998 15.0725 2.34759 16.5329 5.03005 16.5329H9.96456C12.647 16.5329 12.7546 15.0802 12.8392 13.9042L13.3157 6.02594C13.3311 5.74924 13.2312 5.48791 13.0544 5.29576ZM8.77321 12.6821H6.21372C5.89859 12.6821 5.63726 12.4208 5.63726 12.1057C5.63726 11.7906 5.89859 11.5292 6.21372 11.5292H8.77321C9.08834 11.5292 9.34967 11.7906 9.34967 12.1057C9.34967 12.4208 9.08834 12.6821 8.77321 12.6821ZM9.41884 9.60769H5.57577C5.26064 9.60769 4.99931 9.34636 4.99931 9.03122C4.99931 8.71609 5.26064 8.45476 5.57577 8.45476H9.41884C9.73397 8.45476 9.9953 8.71609 9.9953 9.03122C9.9953 9.34636 9.73397 9.60769 9.41884 9.60769Z" fill="#FF0000"/>
</svg>
