<svg width="19" height="20" viewBox="0 0 19 20" fill="none" xmlns="http://www.w3.org/2000/svg">
<path d="M16.112 3.41793L10.9414 0.427554C9.95125 -0.142518 8.40105 -0.142518 7.41093 0.427554L2.19027 3.43793C0.120015 4.83811 0 5.04813 0 7.27841V12.7091C0 14.9394 0.120015 15.1594 2.23028 16.5796L7.40093 19.5699C7.90099 19.86 8.54107 20 9.17115 20C9.80123 20 10.4413 19.86 10.9314 19.5699L16.152 16.5596C18.2223 15.1594 18.3423 14.9494 18.3423 12.7191V7.27841C18.3423 5.04813 18.2223 4.83811 16.112 3.41793ZM9.17115 13.2492C7.38092 13.2492 5.92074 11.789 5.92074 9.99875C5.92074 8.20853 7.38092 6.74834 9.17115 6.74834C10.9614 6.74834 12.4216 8.20853 12.4216 9.99875C12.4216 11.789 10.9614 13.2492 9.17115 13.2492Z" fill="#5B9EFF"/>
</svg>
