<svg width="26" height="26" viewBox="0 0 26 26" fill="none" xmlns="http://www.w3.org/2000/svg">
<path d="M25.0991 14.0268C24.9163 11.9747 24.6151 11.5751 24.5014 11.4248C24.2399 11.0774 23.8214 10.8504 23.3786 10.6123C23.3536 10.599 23.3319 10.5801 23.3155 10.5571C23.299 10.5341 23.288 10.5075 23.2836 10.4796C23.2791 10.4516 23.2812 10.423 23.2896 10.3959C23.2981 10.3689 23.3127 10.3442 23.3324 10.3238C23.4144 10.2407 23.4774 10.1407 23.5171 10.0309C23.5568 9.92105 23.5723 9.80392 23.5624 9.68754C23.5433 9.48117 23.4474 9.28951 23.2936 9.15059C23.1398 9.01166 22.9394 8.9356 22.7322 8.9375H21.94C21.906 8.9377 21.8721 8.93991 21.8384 8.9441C21.8153 8.93407 21.7913 8.92608 21.7668 8.92023C21.2976 7.92848 20.6552 6.57059 19.3237 5.90789C17.3488 4.92578 13.7109 4.875 12.9999 4.875C12.289 4.875 8.65104 4.92578 6.67869 5.90637C5.34721 6.56906 4.70482 7.92695 4.23561 8.91871L4.23154 8.92684C4.20814 8.93013 4.18516 8.93592 4.16299 8.9441C4.12929 8.93991 4.09538 8.9377 4.06143 8.9375H3.26771C3.06047 8.9356 2.86008 9.01166 2.70629 9.15059C2.5525 9.28951 2.45654 9.48117 2.43744 9.68754C2.42842 9.80365 2.44458 9.92033 2.48481 10.0296C2.52503 10.1389 2.58838 10.2382 2.67053 10.3208C2.69018 10.3412 2.70482 10.3659 2.7133 10.3929C2.72178 10.4199 2.72385 10.4486 2.71937 10.4765C2.71489 10.5045 2.70397 10.531 2.68748 10.5541C2.67098 10.5771 2.64936 10.596 2.62432 10.6092C2.1815 10.8489 1.76104 11.0759 1.50154 11.4217C1.38779 11.5741 1.08717 11.9717 0.903848 14.0238C0.802286 15.1785 0.787051 16.3739 0.866778 17.1438C1.03385 18.7434 1.34717 19.7102 1.36037 19.7504C1.40845 19.8963 1.49695 20.0257 1.6156 20.1234C1.73425 20.2211 1.87818 20.2832 2.03068 20.3023V20.3125C2.03068 20.528 2.11629 20.7347 2.26866 20.887C2.42103 21.0394 2.6277 21.125 2.84318 21.125H5.68693C5.90242 21.125 6.10908 21.0394 6.26146 20.887C6.41383 20.7347 6.49943 20.528 6.49943 20.3125C6.93666 20.3125 7.24084 20.2343 7.5633 20.151C8.02885 20.0256 8.50472 19.9421 8.98518 19.9017C10.5345 19.7539 12.0752 19.7031 12.9999 19.7031C13.9059 19.7031 15.5146 19.7539 17.0665 19.9017C17.5489 19.9422 18.0266 20.026 18.494 20.152C18.8027 20.2312 19.0957 20.3044 19.5015 20.312C19.5015 20.5275 19.5871 20.7341 19.7394 20.8865C19.8918 21.0389 20.0985 21.1245 20.314 21.1245H23.1577C23.3732 21.1245 23.5799 21.0389 23.7322 20.8865C23.8846 20.7341 23.9702 20.5275 23.9702 20.312V20.3059C24.1231 20.2871 24.2674 20.2252 24.3865 20.1275C24.5055 20.0297 24.5943 19.9002 24.6426 19.7539C24.6558 19.7138 24.9691 18.7469 25.1362 17.1473C25.2159 16.377 25.2017 15.1836 25.0991 14.0268ZM5.7042 9.6134C6.11045 8.75012 6.5751 7.77309 7.40232 7.36125C8.59771 6.76609 11.0753 6.49797 12.9999 6.49797C14.9246 6.49797 17.4022 6.76406 18.5976 7.36125C19.4248 7.77309 19.8874 8.75062 20.2957 9.6134L20.3465 9.72359C20.3762 9.78633 20.3893 9.85562 20.3846 9.92487C20.3799 9.99412 20.3575 10.061 20.3197 10.1192C20.2818 10.1773 20.2296 10.2248 20.1682 10.2571C20.1067 10.2893 20.038 10.3053 19.9687 10.3035C18.2812 10.2578 14.7265 10.1116 12.9999 10.1116C11.2734 10.1116 7.71869 10.2614 6.02869 10.3071C5.95931 10.3089 5.89062 10.2929 5.82917 10.2606C5.76772 10.2283 5.71557 10.1809 5.67768 10.1227C5.6398 10.0646 5.61744 9.99767 5.61275 9.92842C5.60806 9.85918 5.62118 9.78988 5.65088 9.72715C5.66865 9.68957 5.68744 9.65148 5.7042 9.6134ZM6.31002 13.6571C5.43648 13.7622 4.55736 13.8141 3.67752 13.8125C3.13924 13.8125 2.5842 13.6602 2.48111 13.1808C2.41053 12.8583 2.41814 12.677 2.45623 12.4947C2.48822 12.3398 2.539 12.2271 2.79291 12.1875C3.45307 12.0859 3.82225 12.2134 4.90287 12.5318C5.61939 12.7425 6.13635 13.0234 6.43088 13.2458C6.57865 13.3555 6.49994 13.6419 6.31002 13.6571ZM17.552 17.8212C16.8837 17.8973 15.5471 17.8694 13.0152 17.8694C10.4832 17.8694 9.14717 17.8973 8.47889 17.8212C7.78928 17.7445 6.91025 17.0925 7.51049 16.5115C7.91014 16.1286 8.84248 15.8422 10.0841 15.6812C11.3257 15.5203 11.8513 15.4375 13.0101 15.4375C14.1689 15.4375 14.6412 15.4883 15.9361 15.6818C17.231 15.8752 18.2096 16.1652 18.5097 16.512C19.0571 17.1336 18.2411 17.7404 17.552 17.8242V17.8212ZM23.5188 13.1803C23.4172 13.6617 22.8586 13.812 22.3224 13.812C21.4257 13.8122 20.5297 13.7603 19.6391 13.6566C19.4837 13.6419 19.4116 13.3692 19.569 13.2453C19.859 13.0173 20.3815 12.742 21.097 12.5313C22.1776 12.2129 22.8007 12.0854 23.336 12.1916C23.4665 12.2175 23.5355 12.3576 23.5437 12.4455C23.5795 12.6901 23.571 12.9391 23.5188 13.1808V13.1803Z" fill="#4AD18E"/>
</svg>
