<svg width="29" height="29" viewBox="0 0 29 29" fill="none" xmlns="http://www.w3.org/2000/svg">
<path fill-rule="evenodd" clip-rule="evenodd" d="M0.565437 18.4961C2.7724 26.1919 10.8002 30.6416 18.4961 28.4346C26.192 26.2276 30.6416 18.1998 28.4347 10.5039C26.2277 2.80808 18.1999 -1.64157 10.504 0.565394C2.80812 2.77235 -1.64152 10.8002 0.565437 18.4961Z" fill="#3A3A3A"/>
<path d="M10.8968 20.6781C10.9933 21.3993 11.1339 21.7737 11.376 22.064C11.4265 22.052 11.4791 22.051 11.53 22.061C11.581 22.071 11.6292 22.0919 11.6715 22.1221L12.5376 22.7342C12.5813 22.7655 12.6183 22.8055 12.6462 22.8515C12.6741 22.8976 12.6923 22.9489 12.6998 23.0022L12.8256 23.0413L12.8117 22.2479L16.3206 22.1866L16.3345 22.9799L16.4588 22.9365C16.4644 22.883 16.4809 22.8311 16.5071 22.784C16.5334 22.737 16.5689 22.6958 16.6116 22.663L17.4558 22.021C17.4969 21.9892 17.5444 21.9667 17.595 21.9549C17.6456 21.943 17.6981 21.9423 17.749 21.9526C17.9809 21.6541 18.1082 21.2735 18.178 20.5508C18.3653 18.6336 17.945 15.6448 17.9321 14.9059C17.9118 10.9635 17.9022 8.56386 17.6272 7.73829C17.5604 7.57057 17.4357 7.43228 17.2759 7.34839C17.2337 7.36837 17.1876 7.37873 17.1409 7.37872C16.8363 7.38405 16.6841 7.18795 16.348 7.24535C16.1264 7.28751 16.0511 7.10331 16.0194 6.97431C15.8186 6.9469 15.6181 6.92685 15.4294 6.91248C15.4139 6.93511 15.3933 6.95369 15.3692 6.96667C15.3451 6.97965 15.3182 6.98663 15.2908 6.98704L13.3112 7.02164C13.2838 7.02219 13.2567 7.01615 13.2321 7.00403C13.2076 6.9919 13.1863 6.97405 13.1701 6.95197C13.0231 6.96779 12.8762 6.98655 12.7294 7.00973C12.7111 7.13961 12.6426 7.34987 12.4063 7.30983C12.0683 7.25832 11.9232 7.46551 11.6171 7.47086C11.5797 7.47333 11.5422 7.46828 11.5069 7.456C11.4715 7.44372 11.439 7.42446 11.4112 7.39937C11.2192 7.48951 11.0696 7.65039 10.9935 7.84836C10.746 8.68305 10.8219 11.083 10.9393 15.0223C10.9641 15.7668 10.6427 18.773 10.8968 20.6781Z" fill="url(#paint0_radial_153_4015)"/>
<path d="M12.8093 22.2479L12.8232 23.0413C13.9781 23.3325 15.1898 23.3113 16.3339 22.9799L16.3201 22.1865L12.8093 22.2479Z" fill="url(#paint1_linear_153_4015)"/>
<path d="M11.1137 20.5564C11.2701 21.7521 11.5488 21.9475 12.2297 22.4906C13.157 23.2371 16.0065 23.1873 16.9072 22.4089C17.5714 21.8349 17.8417 21.6299 17.9562 20.4309C18.1316 18.5904 17.7264 15.7089 17.7258 14.9978C17.7051 11.2041 17.6956 8.89275 17.4358 8.09784C17.1371 7.18141 14.3033 7.281 14.3033 7.281C14.3033 7.281 11.4691 7.28048 11.2011 8.20682C10.9693 9.01032 11.0406 11.3191 11.1525 15.1127C11.1739 15.8293 10.8726 18.7232 11.1137 20.5564Z" fill="url(#paint2_radial_153_4015)"/>
<path d="M15.8615 16.5101C16.265 16.4497 16.659 16.3374 17.0337 16.176L16.9834 15.9148C16.6099 16.0948 16.2115 16.2179 15.8015 16.28C14.915 16.3874 14.0196 16.4031 13.1298 16.3267C12.7159 16.2795 12.3115 16.1704 11.93 16.0031L11.8904 16.2659C12.2705 16.4141 12.6682 16.5126 13.0735 16.5588C14.0022 16.6343 14.9361 16.618 15.8615 16.5101Z" fill="url(#paint3_linear_153_4015)"/>
<path d="M17.2517 18.4585C16.8506 18.6423 16.4317 18.7843 16.0016 18.8824C15.0171 19.0952 14.0003 19.113 13.009 18.9347C12.5757 18.8517 12.1521 18.7244 11.7448 18.5548C11.6718 18.5303 11.6041 18.492 11.5456 18.442L11.5457 18.4493C11.5267 18.5279 11.5231 18.6095 11.5352 18.6895C11.5595 18.7333 11.6294 18.7733 11.751 18.8242C12.1583 18.9938 12.5819 19.1211 13.0152 19.204C14.0065 19.3824 15.0232 19.3646 16.0078 19.1517C16.4376 19.0517 16.8559 18.9077 17.2563 18.722C17.3761 18.6669 17.4445 18.6245 17.4673 18.5799C17.4766 18.4996 17.4701 18.4182 17.4484 18.3403L17.4483 18.3329C17.3916 18.3873 17.3248 18.43 17.2517 18.4585Z" fill="url(#paint4_linear_153_4015)"/>
<path d="M15.8616 16.5098C14.9332 16.6183 13.9964 16.6346 13.0648 16.5586C12.6594 16.5124 12.2618 16.4139 11.8817 16.2657L11.5398 18.4421C11.5984 18.4921 11.666 18.5304 11.7391 18.5549C12.1463 18.7245 12.5699 18.8518 13.0032 18.9348C13.9946 19.1131 15.0113 19.0954 15.9958 18.8825C16.4259 18.7844 16.8448 18.6424 17.2459 18.4587C17.3181 18.4317 17.3844 18.3911 17.4411 18.3389L17.0234 16.1758C16.652 16.3363 16.2615 16.4485 15.8616 16.5098Z" fill="url(#paint5_linear_153_4015)"/>
<path d="M11.9745 10.3076C11.9953 10.4015 12.019 10.4953 12.0472 10.589C12.0472 10.589 12.0807 10.5708 12.148 10.5431C12.3935 10.4401 13.1019 10.1951 14.3502 10.1733C15.0996 10.15 15.8477 10.2509 16.5641 10.4718C16.6308 10.4942 16.6664 10.5083 16.6664 10.5083C16.6898 10.4166 16.7103 10.3249 16.7278 10.2333C16.8298 9.65709 16.8517 9.06954 16.793 8.48731C16.3985 8.33135 15.9882 8.21855 15.5694 8.15089C14.7366 8.06375 13.8962 8.07844 13.067 8.19463C12.6483 8.27641 12.2397 8.40353 11.8485 8.57374C11.811 9.15473 11.8534 9.73811 11.9745 10.3076ZM12.0262 8.80181C12.3877 8.63287 12.7674 8.50617 13.1579 8.42422C13.9285 8.30902 14.7109 8.29535 15.4851 8.38354C15.8787 8.45167 16.2631 8.56502 16.6307 8.72133C16.6774 9.21546 16.6708 9.71319 16.611 10.2059C15.87 10.0339 15.1102 9.95667 14.3497 9.97598C13.5886 9.97385 12.8307 10.0738 12.0961 10.2731C12.0206 9.78652 11.9971 9.29332 12.0262 8.80181Z" fill="url(#paint6_linear_153_4015)"/>
<path d="M16.611 10.203C16.6706 9.71124 16.6772 9.21451 16.6307 8.72134C16.2636 8.56513 15.8797 8.45178 15.4866 8.38353C14.7124 8.29533 13.93 8.30901 13.1593 8.42421C12.7684 8.50605 12.3881 8.63276 12.0262 8.80182C11.9971 9.29333 12.0206 9.78654 12.0961 10.2731C12.8307 10.0738 13.5886 9.97387 14.3497 9.976C15.11 9.95573 15.8699 10.032 16.611 10.203Z" fill="url(#paint7_linear_153_4015)"/>
<path d="M17.5122 13.679L17.0087 13.5184L17.1348 15.7603L17.6582 18.4104C17.6582 18.4104 17.6875 17.7281 17.6292 16.7514C17.5919 16.1336 17.5034 15.2812 17.4953 14.7365C17.4862 14.2154 17.4991 13.8588 17.5122 13.679Z" fill="url(#paint8_linear_153_4015)"/>
<path d="M11.3205 13.7872L11.818 13.6091L11.7704 15.854L11.3414 18.5208C11.3414 18.5208 11.2883 17.84 11.3124 16.8618C11.3281 16.2431 11.3867 15.388 11.3758 14.8434C11.3637 14.3224 11.3428 13.9664 11.3205 13.7872Z" fill="url(#paint9_linear_153_4015)"/>
<path d="M17.5237 13.4732L17.0018 13.2658L16.9116 11.3915C16.9618 11.1769 17.0383 10.9693 17.1393 10.7735C17.2247 10.5718 17.3346 10.3815 17.4666 10.2067C17.4666 10.2067 17.5718 12.7685 17.5237 13.4732Z" fill="url(#paint10_linear_153_4015)"/>
<path d="M11.3024 13.582L11.8168 13.355L11.8414 11.4787C11.7837 11.2665 11.7 11.0622 11.5922 10.8705C11.4999 10.6719 11.3834 10.4855 11.2454 10.3155C11.2454 10.3155 11.2327 12.8793 11.3024 13.582Z" fill="url(#paint11_linear_153_4015)"/>
<path d="M17.4548 22.0208L16.6105 22.6629C16.5678 22.6957 16.5323 22.737 16.506 22.784C16.4798 22.831 16.4633 22.8829 16.4577 22.9365C16.6757 22.8612 16.8793 22.7496 17.0601 22.6064C17.3116 22.4135 17.5417 22.1943 17.7466 21.9524C17.6959 21.9423 17.6436 21.9432 17.5933 21.955C17.543 21.9668 17.4957 21.9893 17.4548 22.0208Z" fill="url(#paint12_radial_153_4015)"/>
<path d="M12.5356 22.7342L11.6694 22.1221C11.6272 22.0918 11.579 22.071 11.528 22.061C11.477 22.051 11.4245 22.052 11.3739 22.0639C11.5871 22.2985 11.8248 22.5095 12.0829 22.6935C12.2686 22.8303 12.476 22.9347 12.6964 23.0023C12.6891 22.9491 12.6711 22.8979 12.6435 22.8518C12.6159 22.8057 12.5792 22.7657 12.5356 22.7342Z" fill="url(#paint13_radial_153_4015)"/>
<path d="M16.348 7.25416C16.684 7.19086 16.8363 7.39287 17.141 7.38755C17.1877 7.38756 17.2338 7.37719 17.2759 7.35721C16.8834 7.15666 16.4566 7.03175 16.0179 6.989C16.048 7.11216 16.1263 7.29191 16.348 7.25416Z" fill="#93091A"/>
<path d="M12.4091 7.32301C12.6453 7.35863 12.7123 7.14837 12.7322 7.02287C12.274 7.07722 11.8283 7.20847 11.4137 7.41108C11.4415 7.43618 11.4741 7.45543 11.5095 7.46771C11.5448 7.48 11.5823 7.48505 11.6197 7.48258C11.9257 7.46987 12.0709 7.26855 12.4091 7.32301Z" fill="#93091A"/>
<path d="M16.8918 19.2845C16.8918 19.2845 16.3318 20.3515 16.2592 20.7445C16.204 21.0399 16.3145 21.9701 16.3145 21.9701C16.3145 21.9701 16.3623 21.0858 16.4192 20.7991C16.4963 20.409 16.8918 19.2845 16.8918 19.2845Z" fill="url(#paint14_linear_153_4015)"/>
<path d="M12.129 19.368C12.129 19.368 12.7261 20.4206 12.8124 20.8049C12.8779 21.0983 12.7999 22.0317 12.7999 22.0317C12.7999 22.0317 12.7212 21.1496 12.6544 20.8651C12.5637 20.478 12.129 19.368 12.129 19.368Z" fill="url(#paint15_linear_153_4015)"/>
<path style="mix-blend-mode:screen" d="M11.7464 18.5548C12.1537 18.7245 12.5773 18.8518 13.0106 18.9347C13.2433 18.9798 13.4783 19.0116 13.7146 19.0299C14.3342 18.3388 15.0604 17.0922 15.3575 16.5643C14.5972 16.622 13.8336 16.6201 13.0736 16.5585C12.6682 16.5123 12.2706 16.4138 11.8905 16.2656L11.5486 18.442C11.6068 18.4919 11.6739 18.5302 11.7464 18.5548Z" fill="url(#paint16_linear_153_4015)"/>
<path d="M14.4575 16.1313C16.2909 16.1405 16.9003 15.7941 16.9003 15.7941C16.9003 15.7941 16.8006 11.3534 16.653 10.9142C16.5537 10.6215 15.3957 10.5048 14.6617 10.4631L14.0567 10.4737C13.3217 10.541 12.1714 10.6937 12.0824 10.9941C11.9429 11.4383 12.0058 15.8796 12.0058 15.8796C12.0058 15.8796 12.6255 16.2045 14.4575 16.1313Z" fill="url(#paint17_linear_153_4015)"/>
<path d="M13.9865 7.44258C12.2078 7.52962 11.4291 8.04829 11.4291 8.04829L11.7883 8.46608C12.8888 7.82399 14.3145 7.92718 14.3145 7.92718C14.3145 7.92718 15.7357 7.7757 16.8579 8.37747L17.2023 7.94738C17.2023 7.94738 16.406 7.45624 14.6253 7.43141C14.5326 7.43303 14.3059 7.43699 14.3059 7.43699C14.185 7.43027 14.0792 7.44096 13.9865 7.44258Z" fill="url(#paint18_linear_153_4015)"/>
<path d="M16.6095 22.5201C16.6095 22.5201 17.7038 21.9429 17.7984 20.7029C17.8561 20.0701 17.8794 19.4346 17.8682 18.7992C17.8682 18.7992 17.5428 21.8323 16.6095 22.5201Z" fill="url(#paint19_linear_153_4015)"/>
<path d="M12.5245 22.5916C12.5245 22.5916 11.4108 22.053 11.2728 20.817C11.1935 20.1861 11.1485 19.5513 11.138 18.9155C11.138 18.9155 11.5678 21.9368 12.5245 22.5916Z" fill="url(#paint20_linear_153_4015)"/>
<path d="M11.3577 18.3556C11.3577 18.3556 11.0711 18.3047 11.0581 18.0664C11.0451 17.8281 11.3308 17.3254 11.3451 17.6343C11.3661 17.8742 11.3703 18.1152 11.3577 18.3556Z" fill="url(#paint21_linear_153_4015)"/>
<path d="M10.3534 17.8357C10.4182 17.92 10.9968 18.0881 10.9968 18.0881C11.1108 18.1229 11.1429 18.0222 11.1606 17.9379L10.3304 17.7007C10.3238 17.7235 10.3225 17.7474 10.3264 17.7708C10.3304 17.7942 10.3396 17.8164 10.3534 17.8357Z" fill="url(#paint22_linear_153_4015)"/>
<path d="M11.1605 17.9365C11.163 17.9017 11.1624 17.8667 11.1587 17.832L10.3441 17.6445C10.3353 17.6624 10.3287 17.6813 10.3244 17.7008L11.1605 17.9365Z" fill="url(#paint23_linear_153_4015)"/>
<path d="M17.6384 18.262C17.6384 18.262 17.9421 18.2007 17.9453 17.9621C17.9485 17.7235 17.6278 17.2314 17.6258 17.5392C17.6121 17.7801 17.6164 18.0217 17.6384 18.262Z" fill="url(#paint24_linear_153_4015)"/>
<path d="M17.9883 17.982C17.9883 17.982 18.5607 17.7924 18.6225 17.7073C18.6365 17.6857 18.6451 17.661 18.6478 17.6354C18.6504 17.6098 18.6469 17.5839 18.6376 17.5598L17.8192 17.8289C17.8325 17.914 17.8712 18.0238 17.9883 17.982Z" fill="url(#paint25_linear_153_4015)"/>
<path d="M18.6391 17.5598C18.6344 17.5447 18.6283 17.53 18.6207 17.516L17.8058 17.732C17.8038 17.7639 17.8043 17.7959 17.8075 17.8276L18.6391 17.5598Z" fill="url(#paint26_linear_153_4015)"/>
<path d="M17.9264 15.0209C17.9467 15.0206 17.9661 15.0122 17.9802 14.9976C17.9943 14.983 18.002 14.9634 18.0016 14.9431L17.9906 14.3116C17.9902 14.2913 17.9818 14.2719 17.9672 14.2578C17.9526 14.2437 17.933 14.236 17.9127 14.2364L17.9264 15.0209Z" fill="#595959"/>
<path d="M17.9091 11.8631C17.9294 11.8627 17.9488 11.8543 17.9629 11.8397C17.977 11.8251 17.9847 11.8055 17.9843 11.7852L17.9733 11.1552C17.973 11.1349 17.9646 11.1155 17.95 11.1014C17.9354 11.0873 17.9158 11.0796 17.8955 11.08L17.9091 11.8631Z" fill="#595959"/>
<path d="M10.9529 15.1427C10.9326 15.1431 10.913 15.1354 10.8984 15.1213C10.8838 15.1072 10.8754 15.0878 10.875 15.0675L10.864 14.436C10.8636 14.4157 10.8714 14.3961 10.8855 14.3815C10.8996 14.3669 10.9189 14.3585 10.9392 14.3582L10.9529 15.1427Z" fill="#595959"/>
<path d="M10.8591 11.9864C10.84 11.986 10.8218 11.9786 10.808 11.9655C10.7941 11.9524 10.7857 11.9346 10.7842 11.9156L10.7732 11.2855C10.7729 11.2652 10.7806 11.2456 10.7947 11.231C10.8088 11.2164 10.8281 11.208 10.8484 11.2077L10.8591 11.9864Z" fill="#595959"/>
<path d="M16.1749 19.5258C16.0529 19.5383 15.9923 19.6085 15.8703 19.6195C15.8655 19.62 15.861 19.6222 15.8578 19.6258C15.8546 19.6294 15.8529 19.6341 15.853 19.6389C15.8528 19.6413 15.8531 19.6437 15.854 19.6459C15.8548 19.6482 15.8561 19.6502 15.8578 19.6519C15.8596 19.6535 15.8616 19.6548 15.8639 19.6555C15.8661 19.6563 15.8686 19.6566 15.8709 19.6563C15.9929 19.6439 16.0535 19.5736 16.1756 19.5626C16.1804 19.5622 16.1848 19.5599 16.188 19.5563C16.1913 19.5527 16.193 19.548 16.1929 19.5432C16.1928 19.5385 16.1909 19.534 16.1875 19.5308C16.1841 19.5275 16.1796 19.5257 16.1749 19.5258Z" fill="#9E9E9E"/>
<path d="M15.8699 19.5842C15.9919 19.5717 16.0525 19.5015 16.1745 19.4905C16.1793 19.49 16.1838 19.4878 16.187 19.4842C16.1902 19.4806 16.1919 19.4759 16.1918 19.471C16.192 19.4687 16.1917 19.4663 16.1908 19.464C16.19 19.4618 16.1887 19.4598 16.1869 19.4581C16.1852 19.4565 16.1832 19.4552 16.1809 19.4544C16.1786 19.4537 16.1762 19.4534 16.1739 19.4537C16.0519 19.4661 15.9912 19.5364 15.8692 19.5474C15.8644 19.5478 15.86 19.5501 15.8567 19.5537C15.8535 19.5573 15.8518 19.562 15.8519 19.5668C15.8517 19.5692 15.852 19.5716 15.8529 19.5738C15.8537 19.576 15.8551 19.5781 15.8568 19.5797C15.8585 19.5814 15.8606 19.5826 15.8628 19.5834C15.8651 19.5842 15.8675 19.5844 15.8699 19.5842Z" fill="#9E9E9E"/>
<path d="M15.8689 19.512C15.9909 19.4995 16.0516 19.4292 16.1736 19.4183C16.1784 19.4178 16.1829 19.4156 16.1861 19.412C16.1893 19.4084 16.191 19.4037 16.1909 19.3988C16.1908 19.3941 16.1889 19.3897 16.1855 19.3864C16.1822 19.3832 16.1776 19.3814 16.1729 19.3815C16.0509 19.3939 15.9903 19.4642 15.8683 19.4752C15.8635 19.4756 15.859 19.4779 15.8558 19.4815C15.8526 19.4851 15.8509 19.4898 15.851 19.4946C15.8508 19.497 15.8511 19.4994 15.852 19.5016C15.8528 19.5038 15.8542 19.5059 15.8559 19.5075C15.8576 19.5092 15.8597 19.5104 15.8619 19.5112C15.8642 19.512 15.8666 19.5122 15.8689 19.512Z" fill="#9E9E9E"/>
<path d="M12.8647 19.5837C12.9871 19.5919 13.0501 19.66 13.1724 19.6667C13.1773 19.6669 13.1818 19.669 13.1851 19.6725C13.1885 19.676 13.1904 19.6807 13.1904 19.6855C13.1907 19.6879 13.1904 19.6903 13.1897 19.6925C13.1889 19.6948 13.1877 19.6968 13.186 19.6986C13.1843 19.7003 13.1823 19.7016 13.1801 19.7025C13.1779 19.7033 13.1755 19.7036 13.1731 19.7035C13.0507 19.6953 12.9877 19.6272 12.8654 19.6205C12.8605 19.6202 12.856 19.6181 12.8527 19.6146C12.8493 19.6111 12.8474 19.6065 12.8474 19.6017C12.8473 19.597 12.8491 19.5924 12.8523 19.5891C12.8556 19.5857 12.86 19.5838 12.8647 19.5837Z" fill="#9E9E9E"/>
<path d="M13.1702 19.6313C13.0478 19.6231 12.9848 19.555 12.8625 19.5483C12.8576 19.548 12.8531 19.5459 12.8498 19.5424C12.8464 19.539 12.8445 19.5343 12.8445 19.5295C12.8442 19.5271 12.8445 19.5247 12.8452 19.5225C12.846 19.5202 12.8473 19.5181 12.8489 19.5164C12.8506 19.5147 12.8526 19.5134 12.8548 19.5125C12.8571 19.5117 12.8594 19.5113 12.8618 19.5115C12.9842 19.5197 13.0472 19.5878 13.1695 19.5945C13.1744 19.5948 13.1789 19.5969 13.1822 19.6004C13.1856 19.6039 13.1875 19.6085 13.1875 19.6133C13.1876 19.618 13.1858 19.6225 13.1826 19.6259C13.1793 19.6293 13.1749 19.6312 13.1702 19.6313Z" fill="#9E9E9E"/>
<path d="M13.1691 19.5592C13.0468 19.551 12.9837 19.4829 12.8614 19.4762C12.8566 19.4759 12.852 19.4738 12.8487 19.4703C12.8454 19.4668 12.8435 19.4622 12.8434 19.4574C12.8433 19.4527 12.8451 19.4482 12.8484 19.4448C12.8516 19.4414 12.8561 19.4395 12.8608 19.4394C12.9831 19.4476 13.0462 19.5157 13.1685 19.5224C13.1733 19.5227 13.1778 19.5248 13.1812 19.5283C13.1845 19.5317 13.1864 19.5364 13.1865 19.5412C13.1868 19.5436 13.1865 19.546 13.1857 19.5482C13.185 19.5505 13.1837 19.5526 13.182 19.5543C13.1804 19.556 13.1784 19.5573 13.1761 19.5582C13.1739 19.559 13.1715 19.5594 13.1691 19.5592Z" fill="#9E9E9E"/>
<path d="M13.3105 7.02756L15.2889 6.99298C15.3163 6.99257 15.3431 6.98558 15.3673 6.97261C15.3914 6.95963 15.412 6.94104 15.4275 6.91841C14.8053 6.87333 14.2976 6.89103 14.2961 6.89106C14.2947 6.89109 13.7881 6.89111 13.1694 6.95788C13.1856 6.97995 13.2069 6.99781 13.2314 7.00994C13.256 7.02207 13.2831 7.02811 13.3105 7.02756Z" fill="url(#paint27_linear_153_4015)"/>
<path style="mix-blend-mode:screen" d="M12.0968 10.2731C12.8313 10.0738 13.5892 9.97386 14.3503 9.976C14.58 9.97198 14.7921 9.97564 15.0013 9.98523C15.6409 9.67956 16.0107 8.76458 16.1038 8.5303C15.9012 8.46923 15.6954 8.41973 15.4872 8.38205C14.713 8.29386 13.9306 8.30754 13.1599 8.42273C12.7689 8.50505 12.3887 8.63226 12.0269 8.80182C11.9978 9.29333 12.0212 9.78654 12.0968 10.2731Z" fill="url(#paint28_linear_153_4015)"/>
<defs>
<radialGradient id="paint0_radial_153_4015" cx="0" cy="0" r="1" gradientUnits="userSpaceOnUse" gradientTransform="translate(14.4093 13.3299) rotate(178.999) scale(4.58547 9.53778)">
<stop stop-color="#F7F7F7"/>
<stop offset="1" stop-color="#A8ABAA"/>
</radialGradient>
<linearGradient id="paint1_linear_153_4015" x1="-179.417" y1="-1.19225" x2="-263.149" y2="0.271339" gradientUnits="userSpaceOnUse">
<stop stop-color="#525956"/>
<stop offset="1" stop-color="#2C2E2E"/>
</linearGradient>
<radialGradient id="paint2_radial_153_4015" cx="0" cy="0" r="1" gradientUnits="userSpaceOnUse" gradientTransform="translate(5585.62 345503) rotate(178.999) scale(173.756 1505.93)">
<stop stop-color="white"/>
<stop offset="1" stop-color="#D2D6D5"/>
</radialGradient>
<linearGradient id="paint3_linear_153_4015" x1="-241.383" y1="-24.6256" x2="-420.985" y2="-21.4863" gradientUnits="userSpaceOnUse">
<stop/>
<stop offset="1" stop-color="#1B1C1C"/>
</linearGradient>
<linearGradient id="paint4_linear_153_4015" x1="-264.682" y1="-26.0142" x2="-504.964" y2="-21.8142" gradientUnits="userSpaceOnUse">
<stop/>
<stop offset="1" stop-color="#1B1C1C"/>
</linearGradient>
<linearGradient id="paint5_linear_153_4015" x1="-265.976" y1="-150.962" x2="-502.501" y2="-146.828" gradientUnits="userSpaceOnUse">
<stop stop-color="#363B39"/>
<stop offset="1" stop-color="#1B1C1C"/>
</linearGradient>
<linearGradient id="paint6_linear_153_4015" x1="-240.546" y1="-274.897" x2="-409.731" y2="-271.939" gradientUnits="userSpaceOnUse">
<stop/>
<stop offset="1" stop-color="#1B1C1C"/>
</linearGradient>
<linearGradient id="paint7_linear_153_4015" x1="-227.76" y1="-212.425" x2="-374.31" y2="-209.863" gradientUnits="userSpaceOnUse">
<stop stop-color="#363B39"/>
<stop offset="1" stop-color="#1B1C1C"/>
</linearGradient>
<linearGradient id="paint8_linear_153_4015" x1="-15.3076" y1="-337.583" x2="-17.6069" y2="-337.543" gradientUnits="userSpaceOnUse">
<stop stop-color="#363B39"/>
<stop offset="1" stop-color="#1B1C1C"/>
</linearGradient>
<linearGradient id="paint9_linear_153_4015" x1="-43.7909" y1="-337.085" x2="-46.0844" y2="-337.045" gradientUnits="userSpaceOnUse">
<stop stop-color="#363B39"/>
<stop offset="1" stop-color="#1B1C1C"/>
</linearGradient>
<linearGradient id="paint10_linear_153_4015" x1="-16.0554" y1="-315.099" x2="-18.5191" y2="-315.055" gradientUnits="userSpaceOnUse">
<stop stop-color="#363B39"/>
<stop offset="1" stop-color="#1B1C1C"/>
</linearGradient>
<linearGradient id="paint11_linear_153_4015" x1="-44.8269" y1="-314.596" x2="-47.2853" y2="-314.553" gradientUnits="userSpaceOnUse">
<stop stop-color="#363B39"/>
<stop offset="1" stop-color="#1B1C1C"/>
</linearGradient>
<radialGradient id="paint12_radial_153_4015" cx="0" cy="0" r="1" gradientUnits="userSpaceOnUse" gradientTransform="translate(-48.5982 -12.1879) rotate(178.999) scale(5.02764 3.9197)">
<stop stop-color="white"/>
<stop offset="1" stop-color="#D2D6D5"/>
</radialGradient>
<radialGradient id="paint13_radial_153_4015" cx="0" cy="0" r="1" gradientUnits="userSpaceOnUse" gradientTransform="translate(-98.6068 -11.319) rotate(178.999) scale(5.01458 3.91008)">
<stop stop-color="white"/>
<stop offset="1" stop-color="#D2D6D5"/>
</radialGradient>
<linearGradient id="paint14_linear_153_4015" x1="16.7966" y1="19.6469" x2="16.0161" y2="22.2536" gradientUnits="userSpaceOnUse">
<stop stop-color="#D2DBDA"/>
<stop offset="1" stop-color="#B5B5B5"/>
</linearGradient>
<linearGradient id="paint15_linear_153_4015" x1="-45.4257" y1="-107.567" x2="-19.7261" y2="-82.5665" gradientUnits="userSpaceOnUse">
<stop stop-color="#D2DBDA"/>
<stop offset="1" stop-color="#B5B5B5"/>
</linearGradient>
<linearGradient id="paint16_linear_153_4015" x1="-246.537" y1="-137.707" x2="-280.297" y2="-169.562" gradientUnits="userSpaceOnUse">
<stop stop-color="#363B39"/>
<stop offset="1"/>
</linearGradient>
<linearGradient id="paint17_linear_153_4015" x1="16.1125" y1="16.2128" x2="9.51485" y2="5.79555" gradientUnits="userSpaceOnUse">
<stop stop-color="#F7F7F7"/>
<stop offset="1" stop-color="#DBDBDB"/>
</linearGradient>
<linearGradient id="paint18_linear_153_4015" x1="-341.149" y1="-101.732" x2="-346.719" y2="-147.361" gradientUnits="userSpaceOnUse">
<stop stop-color="#F7F7F7"/>
<stop offset="1" stop-color="#DBDBDB"/>
</linearGradient>
<linearGradient id="paint19_linear_153_4015" x1="-37.8918" y1="-43.5133" x2="-102.876" y2="-108.139" gradientUnits="userSpaceOnUse">
<stop stop-color="#F7F7F7"/>
<stop offset="1" stop-color="#DBDBDB"/>
</linearGradient>
<linearGradient id="paint20_linear_153_4015" x1="474.795" y1="-52.5014" x2="537.495" y2="-119.336" gradientUnits="userSpaceOnUse">
<stop stop-color="#F7F7F7"/>
<stop offset="1" stop-color="#DBDBDB"/>
</linearGradient>
<linearGradient id="paint21_linear_153_4015" x1="-16.6195" y1="-28.5987" x2="-20.7924" y2="-31.5187" gradientUnits="userSpaceOnUse">
<stop stop-color="#363B39"/>
<stop offset="1" stop-color="#1B1C1C"/>
</linearGradient>
<linearGradient id="paint22_linear_153_4015" x1="-64.3165" y1="-5.15521" x2="-69.0633" y2="-5.07223" gradientUnits="userSpaceOnUse">
<stop stop-color="white"/>
<stop offset="1" stop-color="#D2D6D5"/>
</linearGradient>
<linearGradient id="paint23_linear_153_4015" x1="-64.3255" y1="0.539589" x2="-69.0794" y2="0.622684" gradientUnits="userSpaceOnUse">
<stop stop-color="#363B39"/>
<stop offset="1" stop-color="#1B1C1C"/>
</linearGradient>
<linearGradient id="paint24_linear_153_4015" x1="2.39733" y1="-29.5618" x2="-1.71598" y2="-33.0238" gradientUnits="userSpaceOnUse">
<stop stop-color="#363B39"/>
<stop offset="1" stop-color="#1B1C1C"/>
</linearGradient>
<linearGradient id="paint25_linear_153_4015" x1="18.6516" y1="17.7687" x2="17.8125" y2="17.7833" gradientUnits="userSpaceOnUse">
<stop stop-color="#D2D6D5"/>
<stop offset="1" stop-color="white"/>
</linearGradient>
<linearGradient id="paint26_linear_153_4015" x1="-14.5756" y1="0.243972" x2="-19.3525" y2="0.32747" gradientUnits="userSpaceOnUse">
<stop stop-color="#363B39"/>
<stop offset="1" stop-color="#1B1C1C"/>
</linearGradient>
<linearGradient id="paint27_linear_153_4015" x1="-120.043" y1="-6.72809" x2="-154.682" y2="-6.12262" gradientUnits="userSpaceOnUse">
<stop stop-color="#363B39"/>
<stop offset="1" stop-color="#1B1C1C"/>
</linearGradient>
<linearGradient id="paint28_linear_153_4015" x1="-232.744" y1="-182.739" x2="-242.934" y2="-214.336" gradientUnits="userSpaceOnUse">
<stop stop-color="#363B39"/>
<stop offset="1"/>
</linearGradient>
</defs>
</svg>
