<svg width="24" height="24" viewBox="0 0 24 24" fill="none" xmlns="http://www.w3.org/2000/svg">
<path fill-rule="evenodd" clip-rule="evenodd" d="M3.51472 20.4853C8.20101 25.1716 15.799 25.1716 20.4853 20.4853C25.1716 15.799 25.1716 8.20102 20.4853 3.51473C15.799 -1.17156 8.20101 -1.17156 3.51472 3.51473C-1.17157 8.20102 -1.17157 15.799 3.51472 20.4853Z" fill="white"/>
<path d="M11.2523 6.1911C10.7272 5.77521 10.3947 5.6171 10.0487 5.57973C10.0229 5.61998 9.98879 5.65424 9.94862 5.68019C9.90846 5.70614 9.8632 5.72319 9.81589 5.73018L8.85092 5.87871C8.80186 5.88594 8.75185 5.88314 8.70391 5.87045C8.65597 5.85777 8.61112 5.83547 8.57206 5.80492L8.46378 5.85954L8.98028 6.37605L6.69578 8.66055L6.17927 8.14405L6.12465 8.25233C6.1552 8.29138 6.1775 8.33624 6.19018 8.38418C6.20287 8.43211 6.20568 8.48213 6.19844 8.53118L6.04991 9.49616C6.043 9.54349 6.026 9.58879 6.00004 9.62897C5.97408 9.66915 5.93978 9.70327 5.89946 9.72902C5.93683 10.0749 6.0959 10.4084 6.51179 10.9316C7.6138 12.3211 9.80343 14.0316 10.2845 14.5127C12.8191 17.1105 14.36 18.6936 15.0701 19.0644C15.2216 19.1328 15.3925 19.1447 15.5521 19.098C15.5672 19.0578 15.5911 19.0214 15.622 18.9916C15.8204 18.7932 16.0465 18.8258 16.2324 18.5728C16.3522 18.4032 16.5199 18.477 16.6234 18.5422C16.7739 18.432 16.9195 18.317 17.0537 18.2058C17.0494 18.181 17.0512 18.1555 17.0589 18.1314C17.0665 18.1074 17.0799 18.0856 17.0977 18.0678L18.3866 16.779C18.4044 16.7611 18.4262 16.7478 18.4502 16.7401C18.4742 16.7324 18.4997 16.7306 18.5246 16.7349C18.6118 16.6304 18.6971 16.5241 18.7795 16.4148C18.7086 16.3171 18.6195 16.1341 18.8015 16.0095C19.0584 15.8274 19.0219 15.5974 19.2213 15.3981C19.2444 15.3726 19.2725 15.352 19.3037 15.3375C19.335 15.323 19.3689 15.3149 19.4033 15.3138C19.4728 15.1313 19.469 14.9291 19.3928 14.7494C19.0229 14.0383 17.4379 12.4974 14.841 9.96379C14.3485 9.48657 12.6389 7.29023 11.2523 6.1911Z" fill="url(#paint0_radial_153_5283)"/>
<path d="M8.9812 6.37501L8.4647 5.85851C7.51369 6.40419 6.72491 7.19297 6.17923 8.14397L6.69574 8.66048L8.9812 6.37501Z" fill="url(#paint1_linear_153_5283)"/>
<path d="M11.1862 6.41053C10.318 5.71866 10.0085 5.76753 9.21028 5.84324C8.11882 5.94194 6.26361 7.79714 6.16491 8.8886C6.09209 9.69355 6.04417 10.0021 6.73508 10.8693C7.79588 12.2004 9.90694 13.8495 10.3621 14.32C12.8019 16.8192 14.2862 18.3438 14.9666 18.7041C15.7504 19.12 17.5635 17.2418 17.5635 17.2418C17.5635 17.2418 19.4407 15.4297 19.0258 14.6449C18.6655 13.9645 17.1418 12.4811 14.6417 10.0404C14.1693 9.57951 12.5182 7.47037 11.1862 6.41053Z" fill="url(#paint2_radial_153_5283)"/>
<path d="M10.6295 12.1266C10.401 12.4247 10.2119 12.7509 10.067 13.0974L10.2673 13.2382C10.3995 12.8802 10.5846 12.544 10.8164 12.2407C11.3347 11.6026 11.9176 11.0198 12.5556 10.5014C12.8598 10.268 13.1974 10.0816 13.557 9.94851L13.4152 9.74919C13.0687 9.89409 12.7424 10.0832 12.4445 10.3117C11.7813 10.8555 11.1734 11.4635 10.6295 12.1266Z" fill="url(#paint3_linear_153_5283)"/>
<path d="M8.46282 11.725C8.61092 11.3469 8.79749 10.985 9.01957 10.6451C9.53539 9.87461 10.1973 9.21274 10.9677 8.69693C11.3077 8.47482 11.6696 8.28826 12.0477 8.14017C12.1117 8.10968 12.181 8.09179 12.2518 8.08747L12.247 8.08268C12.2093 8.01844 12.1595 7.96214 12.1004 7.9169C12.0563 7.90348 11.9844 7.92169 11.8714 7.96577C11.4932 8.11383 11.1313 8.30039 10.7914 8.52252C10.0209 9.03831 9.35904 9.70018 8.84325 10.4707C8.62262 10.8117 8.43766 11.1746 8.29129 11.5535C8.24721 11.6666 8.229 11.7385 8.24242 11.7825C8.28768 11.8417 8.34398 11.8915 8.4082 11.9292L8.41299 11.9339C8.41572 11.8617 8.43265 11.7907 8.46282 11.725Z" fill="url(#paint4_linear_153_5283)"/>
<path d="M10.6294 12.1266C11.1748 11.4611 11.7847 10.8513 12.4501 10.3059C12.7481 10.0774 13.0744 9.88829 13.4209 9.74339L12.2556 8.08368C12.1848 8.08799 12.1155 8.10588 12.0515 8.13638C11.6734 8.28446 11.3115 8.47103 10.9715 8.69313C10.2011 9.20895 9.5392 9.87081 9.02339 10.6413C8.8013 10.9813 8.61474 11.3431 8.46664 11.7212C8.43608 11.7853 8.41818 11.8546 8.41393 11.9254L10.0736 13.0906C10.217 12.7469 10.4038 12.4229 10.6294 12.1266Z" fill="url(#paint5_linear_153_5283)"/>
<path d="M17.1697 13.7489C17.096 13.7 17.0203 13.653 16.9417 13.609C16.9417 13.609 16.9311 13.6425 16.9043 13.7038C16.8075 13.929 16.4951 14.5442 15.6825 15.3568C15.2012 15.8514 14.6413 16.2629 14.0257 16.5748C13.9672 16.6026 13.9346 16.616 13.9346 16.616C13.9778 16.6917 14.0228 16.7655 14.0698 16.8373C14.3707 17.2841 14.7318 17.6872 15.143 18.0352C15.504 17.8862 15.8478 17.6985 16.1684 17.4756C16.7755 17.0007 17.3226 16.4537 17.7974 15.8465C18.0224 15.5246 18.2116 15.1792 18.3618 14.8164C18.0152 14.4077 17.6141 14.0485 17.1697 13.7489ZM18.0983 14.779C17.967 15.122 17.7966 15.4487 17.5904 15.7526C17.1538 16.3216 16.6444 16.831 16.0754 17.2676C15.7712 17.4742 15.4442 17.6449 15.1008 17.7764C14.754 17.4791 14.4401 17.1453 14.1646 16.7808C14.7653 16.4209 15.3178 15.9862 15.809 15.4872C16.3143 15.0019 16.7523 14.4511 17.1113 13.8495C17.4724 14.1233 17.8033 14.4349 18.0983 14.779Z" fill="url(#paint6_linear_153_5283)"/>
<path d="M14.1665 16.7828C14.4414 17.1465 14.7547 17.4797 15.1008 17.7765C15.4437 17.6452 15.7704 17.4748 16.0744 17.2687C16.6434 16.832 17.1527 16.3227 17.5894 15.7536C17.7959 15.4495 17.9667 15.1224 18.0982 14.7791C17.8032 14.435 17.4723 14.1234 17.1112 13.8496C16.7522 14.4512 16.3142 15.002 15.8089 15.4872C15.3184 15.9868 14.7665 16.4222 14.1665 16.7828Z" fill="url(#paint7_linear_153_5283)"/>
<path d="M11.3461 15.057L11.7821 14.8413L10.2652 13.4375L8.22407 12.0173C8.22407 12.0173 8.64091 12.4878 9.30403 13.0973C9.72375 13.4825 10.3275 13.9904 10.6811 14.3459C11.0203 14.6852 11.2397 14.9295 11.3461 15.057Z" fill="url(#paint8_linear_153_5283)"/>
<path d="M15.3776 11.0255L15.162 11.4615L13.7581 9.94454L12.337 7.90439C12.337 7.90439 12.8075 8.32123 13.417 8.98435C13.8022 9.40407 14.3101 10.0078 14.6656 10.3614C15.0067 10.6987 15.2482 10.921 15.3776 11.0255Z" fill="url(#paint9_linear_153_5283)"/>
<path d="M11.4708 15.2005L11.949 15.004L13.2072 16.1875C13.3111 16.3617 13.3932 16.548 13.4515 16.7423C13.524 16.9304 13.5729 17.1268 13.5972 17.3269C13.5972 17.3269 11.8895 15.6978 11.4708 15.2005Z" fill="url(#paint10_linear_153_5283)"/>
<path d="M15.5213 11.1499L15.3258 11.6291L16.5093 12.8873C16.6832 12.9909 16.8692 13.0726 17.0631 13.1307C17.2512 13.2031 17.4476 13.252 17.6477 13.2763C17.6477 13.2763 16.0167 11.5706 15.5213 11.1499Z" fill="url(#paint11_linear_153_5283)"/>
<path d="M6.04992 9.49617L6.19846 8.5312C6.20569 8.48214 6.20288 8.43213 6.1902 8.38419C6.17752 8.33626 6.15522 8.2914 6.12467 8.25234C6.02852 8.44157 5.96502 8.64568 5.93685 8.85605C5.89369 9.1446 5.88149 9.43693 5.90044 9.72807C5.94046 9.70233 5.97451 9.66831 6.0003 9.62831C6.02608 9.58831 6.043 9.54326 6.04992 9.49617Z" fill="url(#paint12_radial_153_5283)"/>
<path d="M8.85192 5.87772L9.81689 5.72919C9.8642 5.7222 9.90946 5.70516 9.94963 5.67921C9.98979 5.65326 10.0239 5.619 10.0497 5.57874C9.75861 5.55978 9.46627 5.57198 9.17773 5.61516C8.96735 5.64333 8.76325 5.70683 8.57402 5.80298C8.61288 5.83357 8.65755 5.85597 8.70531 5.86882C8.75308 5.88166 8.80295 5.88469 8.85192 5.87772Z" fill="url(#paint13_radial_153_5283)"/>
<path d="M16.2267 18.5669C16.0447 18.8237 15.8147 18.7873 15.6163 18.9857C15.5854 19.0155 15.5615 19.0518 15.5464 19.092C15.9345 18.9738 16.297 18.7837 16.6148 18.5314C16.5161 18.4692 16.3494 18.4002 16.2267 18.5669Z" fill="#93091A"/>
<path d="M18.7911 16.0026C18.6119 16.13 18.702 16.3121 18.769 16.4079C19.0377 16.079 19.2489 15.7071 19.3938 15.3078C19.3594 15.309 19.3255 15.317 19.2942 15.3315C19.263 15.346 19.2349 15.3666 19.2118 15.3922C19.0172 15.5963 19.0498 15.8224 18.7911 16.0026Z" fill="#93091A"/>
<path d="M8.17249 10.9477C8.17249 10.9477 7.86105 9.88308 7.6579 9.57643C7.50554 9.34549 6.83762 8.80024 6.83762 8.80024C6.83762 8.80024 7.37138 9.4164 7.51703 9.64255C7.7154 9.95016 8.17249 10.9477 8.17249 10.9477Z" fill="url(#paint14_linear_153_5283)"/>
<path d="M11.2733 7.84686C11.2733 7.84686 10.2049 7.53159 9.90206 7.33227C9.67112 7.17991 9.12586 6.512 9.12586 6.512C9.12586 6.512 9.74203 7.04575 9.96818 7.19141C10.2758 7.38977 11.2733 7.84686 11.2733 7.84686Z" fill="url(#paint15_linear_153_5283)"/>
<path style="mix-blend-mode:screen" d="M12.0467 8.14102C11.6686 8.28911 11.3067 8.47567 10.9668 8.69778C10.7839 8.81672 10.6079 8.94597 10.4397 9.08492C10.4713 9.93873 10.7876 11.2286 10.9284 11.7681C11.3949 11.2437 11.9018 10.7566 12.4444 10.3115C12.7424 10.083 13.0687 9.89389 13.4151 9.74899L12.2499 8.08928C12.1795 8.09341 12.1105 8.11098 12.0467 8.14102Z" fill="url(#paint16_linear_153_5283)"/>
<path d="M11.8014 11.4796C10.5815 12.6459 10.3994 13.2649 10.3994 13.2649C10.3994 13.2649 13.3049 16.1416 13.6834 16.338C13.9364 16.4684 14.7778 15.8052 15.2904 15.3635L15.6843 14.9696C16.1279 14.4551 16.792 13.6185 16.6588 13.3626C16.4672 12.9793 13.5857 10.0787 13.5857 10.0787C13.5857 10.0787 12.9676 10.2598 11.8014 11.4796Z" fill="url(#paint17_linear_153_5283)"/>
<path d="M17.6696 16.9322C18.7918 15.7373 18.9757 14.8959 18.9757 14.8959L18.4707 14.8489C18.1526 15.9778 17.1426 16.8211 17.1426 16.8211C17.1426 16.8211 16.2984 17.8301 15.1705 18.1492L15.2174 18.6542C15.2174 18.6542 16.0588 18.4702 17.2537 17.3481C17.3141 17.2877 17.4617 17.1402 17.4617 17.1402C17.546 17.0673 17.6093 16.9926 17.6696 16.9322Z" fill="url(#paint18_linear_153_5283)"/>
<path d="M6.29037 8.62488C6.29037 8.62488 5.93486 9.70676 6.66506 10.5884C7.03147 11.0443 7.42238 11.48 7.83606 11.8935C7.83606 11.8935 6.11214 9.67705 6.29037 8.62488Z" fill="url(#paint19_linear_153_5283)"/>
<path d="M8.95049 5.96478C8.95049 5.96478 10.0324 5.60927 10.914 6.33946C11.37 6.70649 11.8057 7.09804 12.2191 7.51238C12.2191 7.51238 10.0027 5.78655 8.95049 5.96478Z" fill="url(#paint20_linear_153_5283)"/>
<path d="M12.4318 8.02422C12.4318 8.02422 12.6542 7.87473 12.8151 8.02422C12.9761 8.17371 13.1084 8.68926 12.9014 8.49377C12.7341 8.34836 12.5772 8.19147 12.4318 8.02422Z" fill="url(#paint21_linear_153_5283)"/>
<path d="M13.4295 7.72632C13.3328 7.71194 12.8421 7.97067 12.8421 7.97067C12.7444 8.0205 12.7875 8.1077 12.8297 8.17478L13.5311 7.80106C13.5209 7.78176 13.5065 7.76501 13.4889 7.75207C13.4713 7.73912 13.451 7.73032 13.4295 7.72632Z" fill="url(#paint22_linear_153_5283)"/>
<path d="M12.8304 8.17558C12.851 8.20023 12.8738 8.223 12.8984 8.24362L13.5577 7.8469C13.5521 7.82942 13.5444 7.81269 13.5347 7.79707L12.8304 8.17558Z" fill="url(#paint23_linear_153_5283)"/>
<path d="M8.33254 12.1026C8.33254 12.1026 8.17059 12.3373 8.32104 12.4974C8.47149 12.6574 8.99853 12.7781 8.80305 12.5731C8.65804 12.4048 8.50078 12.2476 8.33254 12.1026Z" fill="url(#paint24_linear_153_5283)"/>
<path d="M8.27986 12.5118C8.27986 12.5118 8.02208 13.0034 8.0355 13.0992C8.0401 13.1225 8.05013 13.1444 8.06479 13.163C8.07944 13.1817 8.0983 13.1966 8.11983 13.2066L8.48972 12.5051C8.42647 12.4572 8.33064 12.4093 8.27986 12.5118Z" fill="url(#paint25_linear_153_5283)"/>
<path d="M8.11892 13.2074C8.13175 13.2144 8.14523 13.2202 8.15917 13.2246L8.56068 12.5606C8.54165 12.5381 8.52081 12.5173 8.4984 12.4983L8.11892 13.2074Z" fill="url(#paint26_linear_153_5283)"/>
<path d="M10.2145 14.4329C10.2013 14.4461 10.1938 14.464 10.1938 14.4827C10.1938 14.5014 10.2013 14.5193 10.2145 14.5325L10.6256 14.9436C10.6388 14.9568 10.6567 14.9643 10.6754 14.9643C10.6941 14.9643 10.712 14.9568 10.7252 14.9436L10.2145 14.4329Z" fill="#595959"/>
<path d="M12.245 16.5135C12.2318 16.5267 12.2243 16.5447 12.2243 16.5634C12.2243 16.582 12.2318 16.6 12.245 16.6132L12.6551 17.0233C12.6683 17.0365 12.6863 17.044 12.705 17.044C12.7236 17.044 12.7416 17.0365 12.7548 17.0233L12.245 16.5135Z" fill="#595959"/>
<path d="M14.7548 9.89297C14.768 9.87976 14.7859 9.87233 14.8046 9.87233C14.8233 9.87233 14.8412 9.87976 14.8544 9.89297L15.2655 10.3041C15.2787 10.3173 15.2862 10.3352 15.2862 10.3539C15.2862 10.3726 15.2787 10.3905 15.2655 10.4037L14.7548 9.89297Z" fill="#595959"/>
<path d="M16.8352 11.9233C16.8481 11.9114 16.8649 11.9047 16.8825 11.9045C16.9 11.9043 16.917 11.9107 16.9301 11.9224L17.3402 12.3325C17.3535 12.3457 17.3609 12.3636 17.3609 12.3823C17.3609 12.401 17.3535 12.4189 17.3402 12.4322L16.8352 11.9233Z" fill="#595959"/>
<path d="M8.49338 10.3297C8.5662 10.2435 8.56141 10.1582 8.6352 10.0729C8.63809 10.0695 8.6396 10.0652 8.63942 10.0607C8.63925 10.0563 8.63739 10.0521 8.63424 10.0489C8.63284 10.0472 8.63109 10.0459 8.6291 10.0449C8.62711 10.044 8.62494 10.0435 8.62274 10.0435C8.62054 10.0435 8.61837 10.044 8.61638 10.0449C8.6144 10.0459 8.61264 10.0472 8.61124 10.0489C8.53841 10.1352 8.54321 10.2205 8.46942 10.3057C8.46653 10.3091 8.46502 10.3135 8.46519 10.3179C8.46537 10.3224 8.46722 10.3266 8.47038 10.3297C8.47343 10.3328 8.47756 10.3345 8.48188 10.3345C8.48619 10.3345 8.49033 10.3328 8.49338 10.3297Z" fill="#9E9E9E"/>
<path d="M8.65835 10.0959C8.58552 10.1822 8.59031 10.2675 8.51652 10.3528C8.51363 10.3561 8.51212 10.3605 8.5123 10.3649C8.51248 10.3694 8.51433 10.3736 8.51748 10.3767C8.51888 10.3784 8.52064 10.3798 8.52263 10.3807C8.52461 10.3817 8.52678 10.3821 8.52898 10.3821C8.53118 10.3821 8.53335 10.3817 8.53534 10.3807C8.53733 10.3798 8.53908 10.3784 8.54048 10.3767C8.61331 10.2905 8.60852 10.2052 8.6823 10.1199C8.6852 10.1165 8.68671 10.1122 8.68653 10.1077C8.68635 10.1033 8.6845 10.0991 8.68135 10.0959C8.67995 10.0942 8.67819 10.0929 8.6762 10.0919C8.67422 10.091 8.67204 10.0905 8.66985 10.0905C8.66765 10.0905 8.66548 10.091 8.66349 10.0919C8.6615 10.0929 8.65975 10.0942 8.65835 10.0959Z" fill="#9E9E9E"/>
<path d="M8.70516 10.1429C8.63233 10.2291 8.63712 10.3144 8.56334 10.3997C8.56044 10.4031 8.55893 10.4074 8.55911 10.4118C8.55929 10.4163 8.56114 10.4205 8.56429 10.4236C8.56734 10.4267 8.57148 10.4284 8.57579 10.4284C8.58011 10.4284 8.58424 10.4267 8.58729 10.4236C8.66012 10.3374 8.65533 10.2521 8.72912 10.1668C8.73201 10.1634 8.73352 10.1591 8.73334 10.1547C8.73316 10.1502 8.73131 10.146 8.72816 10.1429C8.72676 10.1412 8.725 10.1398 8.72302 10.1389C8.72103 10.1379 8.71886 10.1374 8.71666 10.1374C8.71446 10.1374 8.71229 10.1379 8.7103 10.1389C8.70831 10.1398 8.70656 10.1412 8.70516 10.1429Z" fill="#9E9E9E"/>
<path d="M10.6486 8.17453C10.5623 8.24736 10.477 8.24257 10.3918 8.31635C10.3884 8.31925 10.384 8.32075 10.3796 8.32058C10.3751 8.3204 10.3709 8.31855 10.3678 8.31539C10.3661 8.31399 10.3647 8.31224 10.3638 8.31025C10.3629 8.30826 10.3624 8.30609 10.3624 8.30389C10.3624 8.3017 10.3629 8.29953 10.3638 8.29754C10.3647 8.29555 10.3661 8.29379 10.3678 8.2924C10.454 8.21957 10.5393 8.22436 10.6246 8.15057C10.628 8.14768 10.6323 8.14617 10.6368 8.14635C10.6412 8.14652 10.6454 8.14838 10.6486 8.15153C10.6516 8.15458 10.6533 8.15872 10.6533 8.16303C10.6533 8.16734 10.6516 8.17148 10.6486 8.17453Z" fill="#9E9E9E"/>
<path d="M10.4157 8.33848C10.502 8.26565 10.5873 8.27044 10.6726 8.19665C10.6759 8.19376 10.6803 8.19225 10.6847 8.19243C10.6892 8.19261 10.6934 8.19446 10.6965 8.19761C10.6982 8.19901 10.6996 8.20077 10.7005 8.20275C10.7014 8.20474 10.7019 8.20691 10.7019 8.20911C10.7019 8.21131 10.7014 8.21348 10.7005 8.21547C10.6996 8.21745 10.6982 8.21921 10.6965 8.22061C10.6103 8.29344 10.525 8.28865 10.4397 8.36243C10.4363 8.36533 10.432 8.36684 10.4275 8.36666C10.4231 8.36648 10.4189 8.36463 10.4157 8.36147C10.4127 8.35842 10.411 8.35429 10.411 8.34998C10.411 8.34566 10.4127 8.34153 10.4157 8.33848Z" fill="#9E9E9E"/>
<path d="M10.4627 8.38532C10.5489 8.31249 10.6342 8.31728 10.7195 8.2435C10.7229 8.2406 10.7272 8.23909 10.7317 8.23927C10.7361 8.23945 10.7403 8.2413 10.7435 8.24446C10.7465 8.2475 10.7482 8.25164 10.7482 8.25595C10.7482 8.26027 10.7465 8.2644 10.7435 8.26745C10.6572 8.34028 10.5719 8.33549 10.4866 8.40928C10.4833 8.41217 10.4789 8.41368 10.4745 8.4135C10.47 8.41332 10.4658 8.41147 10.4627 8.40832C10.461 8.40692 10.4596 8.40516 10.4587 8.40318C10.4578 8.40119 10.4573 8.39902 10.4573 8.39682C10.4573 8.39462 10.4578 8.39245 10.4587 8.39046C10.4596 8.38848 10.461 8.38672 10.4627 8.38532Z" fill="#9E9E9E"/>
<path d="M18.3826 16.7751L17.0947 18.063C17.0768 18.0808 17.0635 18.1026 17.0558 18.1266C17.0481 18.1506 17.0464 18.1761 17.0506 18.201C17.4914 17.833 17.8163 17.4967 17.8172 17.4957C17.8182 17.4947 18.1536 17.1708 18.5206 16.731C18.4957 16.7267 18.4702 16.7285 18.4462 16.7362C18.4222 16.7439 18.4004 16.7572 18.3826 16.7751Z" fill="url(#paint27_linear_153_5283)"/>
<path style="mix-blend-mode:screen" d="M17.1111 13.8495C16.7521 14.4511 16.3141 15.0019 15.8088 15.4871C15.6593 15.6366 15.5165 15.7698 15.3718 15.8973C15.1438 16.5086 15.4839 17.351 15.5721 17.5656C15.7453 17.4765 15.9133 17.3777 16.0752 17.2695C16.6442 16.8329 17.1536 16.3235 17.5902 15.7545C17.7965 15.45 17.9669 15.1226 18.0981 14.779C17.8031 14.4349 17.4722 14.1233 17.1111 13.8495Z" fill="url(#paint28_linear_153_5283)"/>
<defs>
<radialGradient id="paint0_radial_153_5283" cx="0" cy="0" r="1" gradientUnits="userSpaceOnUse" gradientTransform="translate(13.6253 13.3036) rotate(-45) scale(4.22142 8.78055)">
<stop stop-color="#F7F7F7"/>
<stop offset="1" stop-color="#A8ABAA"/>
</radialGradient>
<linearGradient id="paint1_linear_153_5283" x1="151.254" y1="-101.016" x2="205.763" y2="-155.524" gradientUnits="userSpaceOnUse">
<stop stop-color="#525956"/>
<stop offset="1" stop-color="#2C2E2E"/>
</linearGradient>
<radialGradient id="paint2_radial_153_5283" cx="0" cy="0" r="1" gradientUnits="userSpaceOnUse" gradientTransform="translate(-224613 -225223) rotate(-45) scale(159.961 1386.37)">
<stop stop-color="white"/>
<stop offset="1" stop-color="#D2D6D5"/>
</radialGradient>
<linearGradient id="paint3_linear_153_5283" x1="207.27" y1="-125.12" x2="324.188" y2="-242.038" gradientUnits="userSpaceOnUse">
<stop/>
<stop offset="1" stop-color="#1B1C1C"/>
</linearGradient>
<linearGradient id="paint4_linear_153_5283" x1="223.586" y1="-139.099" x2="380.006" y2="-295.519" gradientUnits="userSpaceOnUse">
<stop/>
<stop offset="1" stop-color="#1B1C1C"/>
</linearGradient>
<linearGradient id="paint5_linear_153_5283" x1="304.335" y1="-57.19" x2="458.31" y2="-211.165" gradientUnits="userSpaceOnUse">
<stop stop-color="#363B39"/>
<stop offset="1" stop-color="#1B1C1C"/>
</linearGradient>
<linearGradient id="paint6_linear_153_5283" x1="366.743" y1="41.1357" x2="476.88" y2="-69.0013" gradientUnits="userSpaceOnUse">
<stop/>
<stop offset="1" stop-color="#1B1C1C"/>
</linearGradient>
<linearGradient id="paint7_linear_153_5283" x1="318.331" y1="7.9449" x2="413.733" y2="-87.4572" gradientUnits="userSpaceOnUse">
<stop stop-color="#363B39"/>
<stop offset="1" stop-color="#1B1C1C"/>
</linearGradient>
<linearGradient id="paint8_linear_153_5283" x1="257.679" y1="226.664" x2="259.176" y2="225.167" gradientUnits="userSpaceOnUse">
<stop stop-color="#363B39"/>
<stop offset="1" stop-color="#1B1C1C"/>
</linearGradient>
<linearGradient id="paint9_linear_153_5283" x1="276.222" y1="208.121" x2="277.715" y2="206.628" gradientUnits="userSpaceOnUse">
<stop stop-color="#363B39"/>
<stop offset="1" stop-color="#1B1C1C"/>
</linearGradient>
<linearGradient id="paint10_linear_153_5283" x1="243.798" y1="211.298" x2="245.402" y2="209.694" gradientUnits="userSpaceOnUse">
<stop stop-color="#363B39"/>
<stop offset="1" stop-color="#1B1C1C"/>
</linearGradient>
<linearGradient id="paint11_linear_153_5283" x1="262.529" y1="192.567" x2="264.129" y2="190.967" gradientUnits="userSpaceOnUse">
<stop stop-color="#363B39"/>
<stop offset="1" stop-color="#1B1C1C"/>
</linearGradient>
<radialGradient id="paint12_radial_153_5283" cx="0" cy="0" r="1" gradientUnits="userSpaceOnUse" gradientTransform="translate(71.6613 -10.0872) rotate(-45) scale(4.62791 3.60806)">
<stop stop-color="white"/>
<stop offset="1" stop-color="#D2D6D5"/>
</radialGradient>
<radialGradient id="paint13_radial_153_5283" cx="0" cy="0" r="1" gradientUnits="userSpaceOnUse" gradientTransform="translate(104.22 -42.6393) rotate(-45) scale(4.61589 3.59921)">
<stop stop-color="white"/>
<stop offset="1" stop-color="#D2D6D5"/>
</radialGradient>
<linearGradient id="paint14_linear_153_5283" x1="8.00383" y1="10.6468" x2="6.85391" y2="8.42172" gradientUnits="userSpaceOnUse">
<stop stop-color="#D2DBDA"/>
<stop offset="1" stop-color="#B5B5B5"/>
</linearGradient>
<linearGradient id="paint15_linear_153_5283" x1="130.548" y1="55.0975" x2="97.5448" y2="54.9755" gradientUnits="userSpaceOnUse">
<stop stop-color="#D2DBDA"/>
<stop offset="1" stop-color="#B5B5B5"/>
</linearGradient>
<linearGradient id="paint16_linear_153_5283" x1="282.988" y1="-53.5376" x2="325.712" y2="-54.0315" gradientUnits="userSpaceOnUse">
<stop stop-color="#363B39"/>
<stop offset="1"/>
</linearGradient>
<linearGradient id="paint17_linear_153_5283" x1="10.6534" y1="12.4839" x2="21.683" y2="15.1632" gradientUnits="userSpaceOnUse">
<stop stop-color="#F7F7F7"/>
<stop offset="1" stop-color="#DBDBDB"/>
</linearGradient>
<linearGradient id="paint18_linear_153_5283" x1="322.635" y1="-137.855" x2="355.499" y2="-111.203" gradientUnits="userSpaceOnUse">
<stop stop-color="#F7F7F7"/>
<stop offset="1" stop-color="#DBDBDB"/>
</linearGradient>
<linearGradient id="paint19_linear_153_5283" x1="84.6017" y1="17.5009" x2="168.955" y2="18.7423" gradientUnits="userSpaceOnUse">
<stop stop-color="#F7F7F7"/>
<stop offset="1" stop-color="#DBDBDB"/>
</linearGradient>
<linearGradient id="paint20_linear_153_5283" x1="-249.133" y1="351.27" x2="-247.915" y2="435.617" gradientUnits="userSpaceOnUse">
<stop stop-color="#F7F7F7"/>
<stop offset="1" stop-color="#DBDBDB"/>
</linearGradient>
<linearGradient id="paint21_linear_153_5283" x1="60.9805" y1="21.2266" x2="65.6107" y2="20.492" gradientUnits="userSpaceOnUse">
<stop stop-color="#363B39"/>
<stop offset="1" stop-color="#1B1C1C"/>
</linearGradient>
<linearGradient id="paint22_linear_153_5283" x1="77.5739" y1="-24.7948" x2="80.664" y2="-27.8849" gradientUnits="userSpaceOnUse">
<stop stop-color="white"/>
<stop offset="1" stop-color="#D2D6D5"/>
</linearGradient>
<linearGradient id="paint23_linear_153_5283" x1="73.9383" y1="-28.5715" x2="77.033" y2="-31.6662" gradientUnits="userSpaceOnUse">
<stop stop-color="#363B39"/>
<stop offset="1" stop-color="#1B1C1C"/>
</linearGradient>
<linearGradient id="paint24_linear_153_5283" x1="49.0038" y1="34.0244" x2="53.9411" y2="33.6867" gradientUnits="userSpaceOnUse">
<stop stop-color="#363B39"/>
<stop offset="1" stop-color="#1B1C1C"/>
</linearGradient>
<linearGradient id="paint25_linear_153_5283" x1="7.97704" y1="13.0772" x2="8.52326" y2="12.531" gradientUnits="userSpaceOnUse">
<stop stop-color="#D2D6D5"/>
<stop offset="1" stop-color="white"/>
</linearGradient>
<linearGradient id="paint26_linear_153_5283" x1="41.1845" y1="3.43543" x2="44.2942" y2="0.325724" gradientUnits="userSpaceOnUse">
<stop stop-color="#363B39"/>
<stop offset="1" stop-color="#1B1C1C"/>
</linearGradient>
<linearGradient id="paint27_linear_153_5283" x1="115.48" y1="-59.3846" x2="138.03" y2="-81.9341" gradientUnits="userSpaceOnUse">
<stop stop-color="#363B39"/>
<stop offset="1" stop-color="#1B1C1C"/>
</linearGradient>
<linearGradient id="paint28_linear_153_5283" x1="302.65" y1="-14.8992" x2="329.601" y2="-0.492304" gradientUnits="userSpaceOnUse">
<stop stop-color="#363B39"/>
<stop offset="1"/>
</linearGradient>
</defs>
</svg>
