<svg width="28" height="28" viewBox="0 0 28 28" fill="none" xmlns="http://www.w3.org/2000/svg">
<path d="M24.5289 3.27956C23.9874 2.74406 23.342 2.32512 22.6325 2.04853C21.9229 1.77193 21.1643 1.64356 20.4033 1.67131C18.9397 1.72499 17.5521 2.33604 16.5244 3.37937C15.4967 4.42271 14.9066 5.81941 14.875 7.28356C14.8544 8.52491 15.2475 9.73782 15.9924 10.7311C16.0974 10.8877 18.648 14.4341 19.4303 15.5191C19.5567 15.6903 19.7214 15.8296 19.9112 15.9258C20.101 16.0221 20.3107 16.0727 20.5236 16.0735C20.7364 16.0744 20.9465 16.0255 21.1371 15.9307C21.3277 15.836 21.4935 15.698 21.6213 15.5278C21.6213 15.5278 24.9944 10.9192 25.0968 10.7888C25.8407 9.79859 26.2452 8.59471 26.25 7.35618C26.2526 6.59576 26.1015 5.84265 25.8058 5.14209C25.51 4.44154 25.0757 3.80801 24.5289 3.27956ZM20.5625 9.62506C20.1299 9.62506 19.7069 9.49676 19.3472 9.2564C18.9875 9.01603 18.7071 8.67439 18.5415 8.27468C18.3759 7.87496 18.3326 7.43513 18.417 7.0108C18.5014 6.58646 18.7098 6.19669 19.0157 5.89076C19.3216 5.58483 19.7114 5.37649 20.1357 5.29209C20.5601 5.20768 20.9999 5.251 21.3996 5.41657C21.7993 5.58214 22.141 5.86251 22.3813 6.22225C22.6217 6.58198 22.75 7.00491 22.75 7.43756C22.7493 8.01751 22.5186 8.5735 22.1085 8.98359C21.6984 9.39367 21.1425 9.62436 20.5625 9.62506ZM6.125 24.0626C6.125 24.4952 5.99671 24.9181 5.75634 25.2779C5.51597 25.6376 5.17433 25.918 4.77462 26.0835C4.37491 26.2491 3.93507 26.2924 3.51074 26.208C3.08641 26.1236 2.69663 25.9153 2.3907 25.6094C2.08478 25.3034 1.87644 24.9137 1.79203 24.4893C1.70763 24.065 1.75095 23.6252 1.91651 23.2254C2.08208 22.8257 2.36246 22.4841 2.72219 22.2437C3.08192 22.0034 3.50485 21.8751 3.9375 21.8751C4.51745 21.8758 5.07344 22.1064 5.48353 22.5165C5.89362 22.9266 6.12431 23.4826 6.125 24.0626ZM15.75 21.8751C15.7493 22.571 15.4725 23.2383 14.9804 23.7304C14.4883 24.2226 13.821 24.4994 13.125 24.5001H7.83125C7.91779 23.9094 7.84966 23.3065 7.6335 22.7501H13.125C13.3571 22.7501 13.5796 22.6579 13.7437 22.4938C13.9078 22.3297 14 22.1071 14 21.8751C14 21.643 13.9078 21.4204 13.7437 21.2563C13.5796 21.0922 13.3571 21.0001 13.125 21.0001H9.625C8.92902 20.9994 8.26175 20.7226 7.76961 20.2304C7.27748 19.7383 7.0007 19.071 7 18.3751V17.5001C7.0007 16.8041 7.27748 16.1368 7.76961 15.6447C8.26175 15.1525 8.92902 14.8758 9.625 14.8751H16.8105C17.3688 15.6346 17.759 16.2287 18.0871 16.6251H9.625C9.39301 16.6253 9.17058 16.7176 9.00654 16.8816C8.84249 17.0456 8.75023 17.2681 8.75 17.5001V18.3751C8.75023 18.6071 8.84249 18.8295 9.00654 18.9935C9.17058 19.1576 9.39301 19.2498 9.625 19.2501H13.125C13.821 19.2508 14.4883 19.5275 14.9804 20.0197C15.4725 20.5118 15.7493 21.1791 15.75 21.8751Z" fill="#FF3E1E"/>
</svg>
