<svg width="22" height="22" viewBox="0 0 22 22" fill="none" xmlns="http://www.w3.org/2000/svg">
<g clip-path="url(#clip0_153_4944)">
<path d="M9.03853 10.5975C10.4944 10.5975 11.7551 10.0753 12.7852 9.04502C13.8153 8.01497 14.3374 6.75462 14.3374 5.29858C14.3374 3.84298 13.8153 2.5825 12.785 1.55207C11.7547 0.522154 10.4942 0 9.03853 0C7.58246 0 6.32206 0.522154 5.29201 1.55224C4.26197 2.58233 3.7396 3.84285 3.7396 5.29858C3.7396 6.75462 4.26193 8.01514 5.29219 9.04523C6.32244 10.0751 7.58297 10.5975 9.03853 10.5975ZM18.3102 16.9169C18.2804 16.4882 18.2204 16.0205 18.1319 15.5268C18.0426 15.0292 17.9277 14.559 17.79 14.1291C17.6478 13.6848 17.4545 13.2461 17.2155 12.8256C16.9674 12.3892 16.676 12.0092 16.349 11.6965C16.0071 11.3694 15.5885 11.1064 15.1044 10.9145C14.6221 10.7237 14.0875 10.627 13.5156 10.627C13.291 10.627 13.0739 10.7192 12.6544 10.9923C12.3563 11.1864 12.0572 11.3792 11.7573 11.5706C11.4691 11.7543 11.0787 11.9263 10.5964 12.0821C10.126 12.2343 9.6483 12.3115 9.1768 12.3115C8.70535 12.3115 8.2278 12.2343 7.75682 12.0821C7.27514 11.9264 6.88473 11.7544 6.59684 11.5708C6.26298 11.3575 5.96091 11.1628 5.69888 10.992C5.27994 10.719 5.06256 10.6268 4.83801 10.6268C4.26597 10.6268 3.73157 10.7237 3.24933 10.9147C2.76559 11.1062 2.34682 11.3692 2.00457 11.6967C1.6778 12.0095 1.38626 12.3893 1.1385 12.8256C0.89968 13.2461 0.706322 13.6846 0.563967 14.1293C0.426467 14.5591 0.311526 15.0292 0.222238 15.5268C0.133765 16.0199 0.0736951 16.4877 0.0439609 16.9174C0.0143822 17.3498 -0.000278787 17.7831 4.01387e-06 18.2165C4.01387e-06 19.3649 0.365065 20.2946 1.08496 20.9802C1.79596 21.6569 2.73672 22.0001 3.88075 22.0001H14.4739C15.6179 22.0001 16.5583 21.657 17.2695 20.9803C17.9896 20.2951 18.3546 19.3653 18.3546 18.2163C18.3545 17.7731 18.3396 17.3358 18.3102 16.9169Z" fill="#03C2EB"/>
</g>
<defs>
<clipPath id="clip0_153_4944">
<rect width="22" height="22" fill="white"/>
</clipPath>
</defs>
</svg>
