<svg width="24" height="24" viewBox="0 0 24 24" fill="none" xmlns="http://www.w3.org/2000/svg">
<path fill-rule="evenodd" clip-rule="evenodd" d="M12 24C18.6274 24 24 18.6274 24 12C24 5.37258 18.6274 0 12 0C5.37258 0 0 5.37258 0 12C0 18.6274 5.37258 24 12 24Z" fill="white"/>
<path d="M7.36378 8.42116C6.69838 8.49841 6.35145 8.62173 6.08042 8.83992C6.09063 8.88664 6.09071 8.935 6.08066 8.98175C6.07061 9.02851 6.05065 9.07256 6.02214 9.11096L5.44483 9.89832C5.41526 9.93813 5.37791 9.97151 5.33505 9.99643C5.29218 10.0214 5.2447 10.0373 5.19548 10.0433L5.15753 10.1585L5.88798 10.1585L5.88798 13.3893L5.15753 13.3893L5.19548 13.5045C5.2447 13.5105 5.29218 13.5265 5.33505 13.5514C5.37791 13.5763 5.41526 13.6097 5.44483 13.6495L6.02214 14.4369C6.05073 14.4752 6.07074 14.5193 6.08079 14.566C6.09084 14.6128 6.09072 14.6612 6.08042 14.7079C6.35146 14.9261 6.69974 15.0494 7.36378 15.1253C9.12553 15.3286 11.8833 14.9898 12.5637 14.9898C16.1929 15.0345 18.4018 15.0643 19.1661 14.8244C19.3216 14.7656 19.4509 14.6531 19.5307 14.5073C19.513 14.4682 19.5042 14.4256 19.5049 14.3826C19.5049 14.1021 19.6879 13.9652 19.6405 13.6549C19.6052 13.4503 19.776 13.3839 19.8952 13.3568C19.9237 13.1725 19.9454 12.9882 19.9616 12.8147C19.9411 12.8001 19.9243 12.7808 19.9127 12.7584C19.9012 12.736 19.8952 12.7112 19.8952 12.6859L19.8952 10.8632C19.8952 10.838 19.9012 10.8131 19.9127 10.7907C19.9243 10.7683 19.9411 10.749 19.9616 10.7345C19.9494 10.599 19.9345 10.4634 19.9156 10.3279C19.7963 10.3089 19.6039 10.2425 19.6445 10.0257C19.6974 9.71537 19.509 9.5785 19.509 9.29662C19.5073 9.26219 19.5126 9.22778 19.5245 9.19542C19.5363 9.16306 19.5546 9.13342 19.5781 9.10824C19.4982 8.93011 19.3526 8.78977 19.1716 8.71659C18.4072 8.47537 16.1969 8.50654 12.5691 8.55126C11.8833 8.5621 9.12147 8.21788 7.36378 8.42116Z" fill="url(#paint0_radial_153_5195)"/>
<path d="M5.88791 10.1571L5.15746 10.1571C4.87085 11.2154 4.87085 12.3309 5.15746 13.3893L5.88791 13.3893L5.88791 10.1571Z" fill="url(#paint1_linear_153_5195)"/>
<path d="M7.47223 8.62307C6.3691 8.74775 6.1848 9.00117 5.67389 9.61914C4.9719 10.4607 4.9719 13.0844 5.67389 13.9259C6.19157 14.5466 6.37588 14.7987 7.47765 14.9234C9.16893 15.1144 11.8278 14.7878 12.4824 14.7987C15.9747 14.8407 18.1024 14.8691 18.8382 14.6428C19.6866 14.3826 19.6405 11.7725 19.6405 11.7725C19.6405 11.7725 19.6866 9.16379 18.8382 8.90224C18.1024 8.67592 15.9761 8.70438 12.4824 8.7464C11.8224 8.75453 9.16351 8.43064 7.47223 8.62307Z" fill="url(#paint2_radial_153_5195)"/>
<path d="M11.1205 13.0586C11.1696 13.4309 11.2666 13.7953 11.4091 14.1428L11.6504 14.1008C11.4907 13.7541 11.3838 13.3854 11.3332 13.0071C11.2486 12.1894 11.2486 11.3651 11.3332 10.5474C11.3833 10.1673 11.4902 9.79679 11.6504 9.44838L11.4091 9.40772C11.2666 9.75516 11.1696 10.1196 11.1205 10.4919C11.0361 11.3454 11.0361 12.2051 11.1205 13.0586Z" fill="url(#paint3_linear_153_5195)"/>
<path d="M9.30438 14.3067C9.14174 13.9346 9.01777 13.5468 8.93441 13.1494C8.75434 12.2398 8.75434 11.3038 8.93441 10.3943C9.01775 9.99685 9.14172 9.60903 9.30438 9.23695C9.32809 9.17011 9.36444 9.10846 9.41144 9.05536L9.40466 9.05536C9.3326 9.03657 9.25758 9.03197 9.18377 9.0418C9.14311 9.06349 9.10516 9.12718 9.05638 9.23831C8.89369 9.61038 8.76972 9.9982 8.68641 10.3956C8.5063 11.3052 8.5063 12.2412 8.68641 13.1507C8.77157 13.5479 8.89736 13.9353 9.0618 14.3067C9.11059 14.4178 9.14853 14.4815 9.18919 14.5032C9.263 14.513 9.33802 14.5084 9.41008 14.4897L9.41686 14.4897C9.36771 14.4367 9.32949 14.3745 9.30438 14.3067Z" fill="url(#paint4_linear_153_5195)"/>
<path d="M11.1204 13.0586C11.0354 12.2024 11.0354 11.34 11.1204 10.4838C11.1695 10.1115 11.2665 9.74706 11.409 9.39962L9.41146 9.04998C9.36446 9.10309 9.32811 9.16474 9.3044 9.23157C9.14174 9.60365 9.01777 9.99147 8.93443 10.3889C8.75436 11.2984 8.75436 12.2345 8.93443 13.144C9.01779 13.5414 9.14176 13.9293 9.3044 14.3013C9.32805 14.3682 9.3644 14.4299 9.41146 14.4829L11.409 14.1333C11.2673 13.7889 11.1703 13.4277 11.1204 13.0586Z" fill="url(#paint5_linear_153_5195)"/>
<path d="M16.8922 9.58105C16.8054 9.59867 16.7187 9.619 16.632 9.64339C16.632 9.64339 16.6482 9.67456 16.6726 9.7369C16.7634 9.96457 16.9775 10.6205 16.9775 11.7697C16.9869 12.4598 16.882 13.1466 16.6672 13.8025C16.6455 13.8635 16.632 13.896 16.632 13.896C16.716 13.919 16.8 13.9393 16.884 13.957C17.4127 14.0601 17.9531 14.0897 18.4899 14.0451C18.6398 13.6844 18.7502 13.3087 18.8192 12.9243C18.9128 12.1592 18.9128 11.3856 18.8192 10.6205C18.7507 10.2338 18.6403 9.85574 18.4899 9.49296C17.9558 9.44911 17.4182 9.47875 16.8922 9.58105ZM18.2772 9.65288C18.4268 9.98825 18.5373 10.3398 18.6065 10.7004C18.7001 11.4116 18.7001 12.1319 18.6065 12.843C18.5374 13.2041 18.4269 13.5561 18.2772 13.8919C17.8216 13.9269 17.3636 13.9129 16.9111 13.8499C17.0813 13.1707 17.1647 12.4726 17.1591 11.7724C17.1733 11.072 17.0936 10.3728 16.922 9.69353C17.371 9.6318 17.8253 9.61818 18.2772 9.65288Z" fill="url(#paint6_linear_153_5195)"/>
<path d="M16.9139 13.85C17.3655 13.9128 17.8226 13.9269 18.2772 13.8921C18.4269 13.5567 18.5374 13.2052 18.6065 12.8445C18.7001 12.1334 18.7001 11.4131 18.6065 10.7019C18.5375 10.3408 18.427 9.98882 18.2772 9.65302C17.8253 9.61832 17.371 9.63195 16.922 9.69368C17.0936 10.3729 17.1734 11.0721 17.1592 11.7725C17.1656 12.4726 17.0832 13.1707 16.9139 13.85Z" fill="url(#paint7_linear_153_5195)"/>
<path d="M13.6992 14.624L13.855 14.1632L11.7897 14.2432L9.34222 14.6822C9.34222 14.6822 9.96968 14.7202 10.8695 14.6822C11.4387 14.6578 12.2247 14.5901 12.7261 14.5914C13.2059 14.5914 13.5338 14.6091 13.6992 14.624Z" fill="url(#paint8_linear_153_5195)"/>
<path d="M13.6992 8.92257L13.855 9.38333L11.7897 9.30338L9.34222 8.86565C9.34222 8.86565 9.96968 8.8277 10.8695 8.86565C11.4387 8.89004 12.2247 8.9578 12.7261 8.95645C13.2059 8.95374 13.5338 8.94018 13.6992 8.92257Z" fill="url(#paint9_linear_153_5195)"/>
<path d="M13.8889 14.6373L14.0881 14.1602L15.8146 14.1074C16.0113 14.157 16.2011 14.2308 16.3797 14.3269C16.5639 14.4087 16.7374 14.5129 16.896 14.6373C16.896 14.6373 14.5366 14.6928 13.8889 14.6373Z" fill="url(#paint10_linear_153_5195)"/>
<path d="M13.8889 8.90899L14.0894 9.38602L15.8159 9.43887C16.0122 9.38916 16.2015 9.31542 16.3797 9.21933C16.5639 9.13754 16.7374 9.03331 16.896 8.90899C16.896 8.90899 14.5366 8.85614 13.8889 8.90899Z" fill="url(#paint11_linear_153_5195)"/>
<path d="M6.02216 14.4368L5.44485 13.6495C5.41528 13.6097 5.37793 13.5763 5.33507 13.5514C5.2922 13.5264 5.24472 13.5105 5.1955 13.5045C5.26131 13.7062 5.36074 13.8955 5.48957 14.0642C5.66309 14.2987 5.86117 14.514 6.08044 14.7065C6.09053 14.66 6.09056 14.6119 6.08051 14.5654C6.07046 14.5188 6.05056 14.475 6.02216 14.4368Z" fill="url(#paint12_radial_153_5195)"/>
<path d="M5.44485 9.89691L6.02216 9.10954C6.05067 9.07115 6.07063 9.02709 6.08068 8.98034C6.09073 8.93359 6.09065 8.88522 6.08044 8.8385C5.86116 9.03096 5.66308 9.2463 5.48957 9.48086C5.36074 9.64954 5.26131 9.83877 5.1955 10.0406C5.24461 10.0347 5.29203 10.019 5.33489 9.99428C5.37775 9.96959 5.41515 9.93646 5.44485 9.89691Z" fill="url(#paint13_radial_153_5195)"/>
<path d="M19.6323 13.6547C19.6851 13.9651 19.4967 14.1019 19.4967 14.3825C19.496 14.4254 19.5048 14.468 19.5225 14.5071C19.7134 14.1491 19.8352 13.7583 19.8816 13.3552C19.7678 13.381 19.6011 13.4501 19.6323 13.6547Z" fill="#93091A"/>
<path d="M19.6323 10.0282C19.5957 10.245 19.7881 10.3101 19.9033 10.3304C19.8607 9.90785 19.747 9.49551 19.5672 9.11074C19.5437 9.13592 19.5254 9.16556 19.5136 9.19792C19.5017 9.23028 19.4964 9.26469 19.4981 9.29911C19.5049 9.58099 19.6878 9.71787 19.6323 10.0282Z" fill="#93091A"/>
<path d="M8.54942 13.9624C8.54942 13.9624 7.57639 13.4298 7.21591 13.3566C6.94487 13.301 6.08704 13.3878 6.08704 13.3878C6.08704 13.3878 6.90015 13.446 7.16306 13.503C7.52083 13.5802 8.54942 13.9624 8.54942 13.9624Z" fill="url(#paint14_linear_153_5195)"/>
<path d="M8.54942 9.57709C8.54942 9.57709 7.57097 10.1097 7.21591 10.1829C6.94487 10.2384 6.08704 10.1517 6.08704 10.1517C6.08704 10.1517 6.90015 10.0934 7.16306 10.0365C7.52083 9.95926 8.54942 9.57709 8.54942 9.57709Z" fill="url(#paint15_linear_153_5195)"/>
<path style="mix-blend-mode:screen" d="M9.30435 9.23824C9.14169 9.61032 9.01771 9.99813 8.93438 10.3956C8.88916 10.609 8.85613 10.8248 8.83545 11.042C9.46155 11.6234 10.5972 12.3118 11.0783 12.5937C11.0373 11.893 11.0514 11.1902 11.1203 10.4918C11.1694 10.1195 11.2664 9.75507 11.409 9.40763L9.41141 9.058C9.36455 9.1107 9.32821 9.17188 9.30435 9.23824Z" fill="url(#paint16_linear_153_5195)"/>
<path d="M11.4916 11.7725C11.4536 13.4597 11.7626 14.0262 11.7626 14.0262C11.7626 14.0262 15.8512 14.0058 16.2578 13.8771C16.5288 13.7903 16.6549 12.7265 16.705 12.0516L16.705 11.4947C16.6549 10.8171 16.5329 9.75595 16.2578 9.66921C15.8512 9.53369 11.7626 9.52014 11.7626 9.52014C11.7626 9.52014 11.4536 10.0853 11.4916 11.7725Z" fill="url(#paint17_linear_153_5195)"/>
<path d="M19.4966 11.4785C19.4451 9.84011 18.9803 9.11508 18.9803 9.11508L18.59 9.43898C19.1632 10.4621 19.0453 11.7726 19.0453 11.7726C19.0453 11.7726 19.1619 13.0831 18.59 14.1063L18.9803 14.4301C18.9803 14.4301 19.4451 13.7051 19.4966 12.0667C19.4966 11.9813 19.4966 11.7726 19.4966 11.7726C19.5047 11.6615 19.4966 11.5639 19.4966 11.4785Z" fill="url(#paint18_linear_153_5195)"/>
<path d="M5.57611 13.6507C5.57611 13.6507 6.08973 14.6671 7.22944 14.7742C7.81093 14.8375 8.39543 14.8692 8.98035 14.869C8.98035 14.869 6.19408 14.5208 5.57611 13.6507Z" fill="url(#paint19_linear_153_5195)"/>
<path d="M5.57611 9.88876C5.57611 9.88876 6.08973 8.87237 7.22944 8.76531C7.81141 8.70241 8.39636 8.67119 8.98171 8.6718C8.98171 8.6718 6.19408 9.01873 5.57611 9.88876Z" fill="url(#paint20_linear_153_5195)"/>
<path d="M9.49408 8.88335C9.49408 8.88335 9.54558 8.62044 9.76512 8.61231C9.98466 8.60418 10.4427 8.87521 10.1581 8.88335C9.93704 8.89879 9.71516 8.89879 9.49408 8.88335Z" fill="url(#paint21_linear_153_5195)"/>
<path d="M9.98887 7.96718C9.91027 8.02545 9.74629 8.55533 9.74629 8.55533C9.71241 8.65968 9.80457 8.69085 9.88181 8.70847L10.1135 7.9482C10.0927 7.94177 10.0706 7.94014 10.049 7.94343C10.0275 7.94671 10.0069 7.95483 9.98887 7.96718Z" fill="url(#paint22_linear_153_5195)"/>
<path d="M9.88293 8.70852C9.91494 8.71138 9.94714 8.71138 9.97915 8.70852L10.1648 7.96181C10.1485 7.95345 10.1312 7.94708 10.1133 7.94284L9.88293 8.70852Z" fill="url(#paint23_linear_153_5195)"/>
<path d="M9.47919 14.6658C9.47919 14.6658 9.53068 14.9463 9.75023 14.9531C9.96977 14.9598 10.4278 14.6725 10.1446 14.6658C9.92309 14.6493 9.70068 14.6493 9.47919 14.6658Z" fill="url(#paint24_linear_153_5195)"/>
<path d="M9.73138 14.9924C9.73138 14.9924 9.89672 15.5223 9.97396 15.5806C9.99367 15.5938 10.0162 15.6022 10.0398 15.605C10.0633 15.6078 10.0872 15.605 10.1095 15.5969L9.87503 14.8393C9.79643 14.8501 9.69479 14.884 9.73138 14.9924Z" fill="url(#paint25_linear_153_5195)"/>
<path d="M10.1094 15.5981C10.1234 15.594 10.137 15.5886 10.15 15.5818L9.96437 14.8283C9.93506 14.8259 9.9056 14.8259 9.87628 14.8283L10.1094 15.5981Z" fill="url(#paint26_linear_153_5195)"/>
<path d="M12.4578 14.9828C12.4578 15.0015 12.4652 15.0194 12.4784 15.0326C12.4916 15.0459 12.5095 15.0533 12.5282 15.0533L13.1096 15.0533C13.1283 15.0533 13.1462 15.0459 13.1594 15.0326C13.1727 15.0194 13.1801 15.0015 13.1801 14.9828L12.4578 14.9828Z" fill="#595959"/>
<path d="M15.3648 15.0183C15.3648 15.037 15.3722 15.0549 15.3854 15.0681C15.3987 15.0814 15.4166 15.0888 15.4353 15.0888L16.0153 15.0888C16.034 15.0888 16.0519 15.0814 16.0651 15.0681C16.0783 15.0549 16.0858 15.037 16.0858 15.0183L15.3648 15.0183Z" fill="#595959"/>
<path d="M12.458 8.56216C12.458 8.54347 12.4654 8.52555 12.4786 8.51233C12.4919 8.49912 12.5098 8.49169 12.5285 8.49169L13.1099 8.49169C13.1285 8.49169 13.1465 8.49912 13.1597 8.51233C13.1729 8.52555 13.1803 8.54347 13.1803 8.56216L12.458 8.56216Z" fill="#595959"/>
<path d="M15.3648 8.52674C15.3655 8.50921 15.3726 8.49254 15.3849 8.48001C15.3972 8.46748 15.4137 8.45998 15.4312 8.45898L16.0112 8.45898C16.0299 8.45898 16.0478 8.4664 16.0611 8.47962C16.0743 8.49284 16.0817 8.51076 16.0817 8.52945L15.3648 8.52674Z" fill="#595959"/>
<path d="M8.33938 13.2985C8.32989 13.186 8.2662 13.1291 8.25807 13.0166C8.25773 13.0122 8.25572 13.008 8.25245 13.005C8.24919 13.002 8.2449 13.0003 8.24045 13.0003C8.23826 13.0001 8.23606 13.0004 8.23399 13.0011C8.23192 13.0019 8.23004 13.0031 8.22849 13.0046C8.22693 13.0062 8.22574 13.0081 8.225 13.0101C8.22426 13.0122 8.22398 13.0144 8.22419 13.0166C8.23368 13.1291 8.29737 13.186 8.3055 13.2985C8.30584 13.3029 8.30785 13.307 8.31112 13.3101C8.31438 13.3131 8.31867 13.3147 8.32312 13.3147C8.32743 13.3147 8.33157 13.313 8.33462 13.31C8.33767 13.3069 8.33938 13.3028 8.33938 13.2985Z" fill="#9E9E9E"/>
<path d="M8.29072 13.0165C8.3002 13.129 8.3639 13.1859 8.37203 13.2984C8.37237 13.3028 8.37438 13.307 8.37764 13.31C8.38091 13.313 8.3852 13.3147 8.38965 13.3147C8.39183 13.3149 8.39404 13.3146 8.39611 13.3138C8.39818 13.3131 8.40006 13.3119 8.40161 13.3104C8.40316 13.3088 8.40436 13.3069 8.4051 13.3049C8.40584 13.3028 8.40612 13.3006 8.40591 13.2984C8.39642 13.1859 8.33273 13.129 8.3246 13.0165C8.32426 13.0121 8.32225 13.0079 8.31898 13.0049C8.31571 13.0019 8.31143 13.0002 8.30698 13.0003C8.30479 13 8.30258 13.0003 8.30052 13.0011C8.29845 13.0018 8.29657 13.003 8.29502 13.0046C8.29346 13.0061 8.29227 13.008 8.29153 13.0101C8.29078 13.0121 8.29051 13.0143 8.29072 13.0165Z" fill="#9E9E9E"/>
<path d="M8.357 13.0166C8.36649 13.1291 8.43018 13.186 8.43831 13.2985C8.43866 13.3029 8.44066 13.307 8.44393 13.3101C8.4472 13.3131 8.45148 13.3147 8.45593 13.3147C8.46024 13.3147 8.46438 13.313 8.46743 13.31C8.47048 13.3069 8.47219 13.3028 8.47219 13.2985C8.46271 13.186 8.39901 13.1291 8.39088 13.0166C8.39054 13.0122 8.38853 13.008 8.38527 13.005C8.382 13.002 8.37771 13.0003 8.37326 13.0003C8.37108 13.0001 8.36887 13.0004 8.3668 13.0011C8.36473 13.0019 8.36285 13.0031 8.3613 13.0046C8.35975 13.0062 8.35855 13.0081 8.35781 13.0101C8.35707 13.0122 8.35679 13.0144 8.357 13.0166Z" fill="#9E9E9E"/>
<path d="M8.33938 10.2506C8.32989 10.363 8.2662 10.42 8.25807 10.5324C8.25773 10.5369 8.25572 10.541 8.25245 10.544C8.24919 10.547 8.2449 10.5487 8.24045 10.5487C8.23826 10.5489 8.23606 10.5486 8.23399 10.5479C8.23192 10.5471 8.23004 10.546 8.22849 10.5444C8.22693 10.5428 8.22574 10.541 8.225 10.5389C8.22426 10.5368 8.22398 10.5346 8.22419 10.5324C8.23368 10.42 8.29737 10.363 8.3055 10.2506C8.30584 10.2461 8.30785 10.242 8.31112 10.239C8.31438 10.236 8.31867 10.2343 8.32312 10.2343C8.32743 10.2343 8.33157 10.236 8.33462 10.2391C8.33767 10.2421 8.33938 10.2462 8.33938 10.2506Z" fill="#9E9E9E"/>
<path d="M8.29065 10.5311C8.30014 10.4187 8.36383 10.3617 8.37196 10.2493C8.3723 10.2448 8.37431 10.2407 8.37758 10.2377C8.38084 10.2346 8.38513 10.233 8.38958 10.233C8.39177 10.2328 8.39397 10.2331 8.39604 10.2338C8.39811 10.2345 8.39999 10.2357 8.40154 10.2373C8.4031 10.2388 8.40429 10.2407 8.40503 10.2428C8.40577 10.2449 8.40605 10.2471 8.40584 10.2493C8.39635 10.3617 8.33266 10.4187 8.32453 10.5311C8.32419 10.5356 8.32218 10.5397 8.31891 10.5427C8.31565 10.5457 8.31136 10.5474 8.30691 10.5474C8.3026 10.5474 8.29846 10.5457 8.29541 10.5426C8.29236 10.5396 8.29065 10.5354 8.29065 10.5311Z" fill="#9E9E9E"/>
<path d="M8.357 10.5311C8.36649 10.4186 8.43018 10.3617 8.43831 10.2492C8.43866 10.2447 8.44066 10.2406 8.44393 10.2376C8.4472 10.2346 8.45148 10.2329 8.45593 10.2329C8.46024 10.2329 8.46438 10.2346 8.46743 10.2377C8.47048 10.2407 8.47219 10.2449 8.47219 10.2492C8.46271 10.3617 8.39901 10.4186 8.39088 10.5311C8.39054 10.5355 8.38853 10.5396 8.38527 10.5427C8.382 10.5457 8.37771 10.5473 8.37326 10.5473C8.37108 10.5475 8.36887 10.5473 8.3668 10.5465C8.36473 10.5458 8.36285 10.5446 8.3613 10.543C8.35975 10.5415 8.35855 10.5396 8.35781 10.5375C8.35707 10.5355 8.35679 10.5333 8.357 10.5311Z" fill="#9E9E9E"/>
<path d="M19.8896 10.8633L19.8896 12.6847C19.8896 12.7099 19.8956 12.7347 19.9071 12.7571C19.9187 12.7796 19.9355 12.7989 19.9561 12.8134C20.0076 12.2415 19.9994 11.774 19.9994 11.7726C19.9994 11.7713 20.0076 11.3051 19.9561 10.7346C19.9355 10.7491 19.9187 10.7684 19.9071 10.7908C19.8956 10.8132 19.8896 10.8381 19.8896 10.8633Z" fill="url(#paint27_linear_153_5195)"/>
<path style="mix-blend-mode:screen" d="M16.9218 9.69367C17.0934 10.3729 17.1732 11.0721 17.159 11.7725C17.159 11.9839 17.1522 12.1791 17.14 12.3715C17.411 12.9651 18.2472 13.3202 18.4613 13.4096C18.5208 13.2242 18.5696 13.0355 18.6077 12.8445C18.7013 12.1334 18.7013 11.4131 18.6077 10.7019C18.5382 10.3407 18.4272 9.98876 18.277 9.65302C17.8251 9.61831 17.3708 9.63194 16.9218 9.69367Z" fill="url(#paint28_linear_153_5195)"/>
<defs>
<radialGradient id="paint0_radial_153_5195" cx="0" cy="0" r="1" gradientUnits="userSpaceOnUse" gradientTransform="translate(14.071 11.7726) rotate(-90) scale(4.22142 8.78055)">
<stop stop-color="#F7F7F7"/>
<stop offset="1" stop-color="#A8ABAA"/>
</radialGradient>
<linearGradient id="paint1_linear_153_5195" x1="30.5535" y1="-166.382" x2="30.5535" y2="-243.468" gradientUnits="userSpaceOnUse">
<stop stop-color="#525956"/>
<stop offset="1" stop-color="#2C2E2E"/>
</linearGradient>
<radialGradient id="paint2_radial_153_5195" cx="0" cy="0" r="1" gradientUnits="userSpaceOnUse" gradientTransform="translate(-318087 -418.778) rotate(-90) scale(159.961 1386.37)">
<stop stop-color="white"/>
<stop offset="1" stop-color="#D2D6D5"/>
</radialGradient>
<linearGradient id="paint3_linear_153_5195" x1="53.1182" y1="-223.035" x2="53.1182" y2="-388.383" gradientUnits="userSpaceOnUse">
<stop/>
<stop offset="1" stop-color="#1B1C1C"/>
</linearGradient>
<linearGradient id="paint4_linear_153_5195" x1="54.7705" y1="-244.457" x2="54.7705" y2="-465.668" gradientUnits="userSpaceOnUse">
<stop/>
<stop offset="1" stop-color="#1B1C1C"/>
</linearGradient>
<linearGradient id="paint5_linear_153_5195" x1="169.788" y1="-243.637" x2="169.788" y2="-461.39" gradientUnits="userSpaceOnUse">
<stop stop-color="#363B39"/>
<stop offset="1" stop-color="#1B1C1C"/>
</linearGradient>
<linearGradient id="paint6_linear_153_5195" x1="283.443" y1="-218.239" x2="283.443" y2="-373.996" gradientUnits="userSpaceOnUse">
<stop/>
<stop offset="1" stop-color="#1B1C1C"/>
</linearGradient>
<linearGradient id="paint7_linear_153_5195" x1="225.741" y1="-207.476" x2="225.741" y2="-342.395" gradientUnits="userSpaceOnUse">
<stop stop-color="#363B39"/>
<stop offset="1" stop-color="#1B1C1C"/>
</linearGradient>
<linearGradient id="paint8_linear_153_5195" x1="337.512" y1="-9.931" x2="337.512" y2="-12.0478" gradientUnits="userSpaceOnUse">
<stop stop-color="#363B39"/>
<stop offset="1" stop-color="#1B1C1C"/>
</linearGradient>
<linearGradient id="paint9_linear_153_5195" x1="337.512" y1="-36.1548" x2="337.512" y2="-38.2663" gradientUnits="userSpaceOnUse">
<stop stop-color="#363B39"/>
<stop offset="1" stop-color="#1B1C1C"/>
</linearGradient>
<linearGradient id="paint10_linear_153_5195" x1="316.831" y1="-10.9816" x2="316.831" y2="-13.2498" gradientUnits="userSpaceOnUse">
<stop stop-color="#363B39"/>
<stop offset="1" stop-color="#1B1C1C"/>
</linearGradient>
<linearGradient id="paint11_linear_153_5195" x1="316.831" y1="-37.4703" x2="316.831" y2="-39.7336" gradientUnits="userSpaceOnUse">
<stop stop-color="#363B39"/>
<stop offset="1" stop-color="#1B1C1C"/>
</linearGradient>
<radialGradient id="paint12_radial_153_5195" cx="0" cy="0" r="1" gradientUnits="userSpaceOnUse" gradientTransform="translate(38.5689 -45.8049) rotate(-90) scale(4.62791 3.60806)">
<stop stop-color="white"/>
<stop offset="1" stop-color="#D2D6D5"/>
</radialGradient>
<radialGradient id="paint13_radial_153_5195" cx="0" cy="0" r="1" gradientUnits="userSpaceOnUse" gradientTransform="translate(38.5738 -91.8455) rotate(-90) scale(4.61589 3.59921)">
<stop stop-color="white"/>
<stop offset="1" stop-color="#D2D6D5"/>
</radialGradient>
<linearGradient id="paint14_linear_153_5195" x1="8.2174" y1="13.8689" x2="5.8309" y2="13.1086" gradientUnits="userSpaceOnUse">
<stop stop-color="#D2DBDA"/>
<stop offset="1" stop-color="#B5B5B5"/>
</linearGradient>
<linearGradient id="paint15_linear_153_5195" x1="126.301" y1="-41.3516" x2="102.878" y2="-18.1011" gradientUnits="userSpaceOnUse">
<stop stop-color="#D2DBDA"/>
<stop offset="1" stop-color="#B5B5B5"/>
</linearGradient>
<linearGradient id="paint16_linear_153_5195" x1="157.275" y1="-225.96" x2="187.136" y2="-256.519" gradientUnits="userSpaceOnUse">
<stop stop-color="#363B39"/>
<stop offset="1"/>
</linearGradient>
<linearGradient id="paint17_linear_153_5195" x1="11.3899" y1="13.2944" x2="21.0836" y2="7.38978" gradientUnits="userSpaceOnUse">
<stop stop-color="#F7F7F7"/>
<stop offset="1" stop-color="#DBDBDB"/>
</linearGradient>
<linearGradient id="paint18_linear_153_5195" x1="125.688" y1="-313.615" x2="167.773" y2="-318.008" gradientUnits="userSpaceOnUse">
<stop stop-color="#F7F7F7"/>
<stop offset="1" stop-color="#DBDBDB"/>
</linearGradient>
<linearGradient id="paint19_linear_153_5195" x1="67.2269" y1="-35.4474" x2="127.751" y2="-94.2162" gradientUnits="userSpaceOnUse">
<stop stop-color="#F7F7F7"/>
<stop offset="1" stop-color="#DBDBDB"/>
</linearGradient>
<linearGradient id="paint20_linear_153_5195" x1="67.2515" y1="436.549" x2="127.754" y2="495.33" gradientUnits="userSpaceOnUse">
<stop stop-color="#F7F7F7"/>
<stop offset="1" stop-color="#DBDBDB"/>
</linearGradient>
<linearGradient id="paint21_linear_153_5195" x1="53.1587" y1="-16.1102" x2="55.9133" y2="-19.9037" gradientUnits="userSpaceOnUse">
<stop stop-color="#363B39"/>
<stop offset="1" stop-color="#1B1C1C"/>
</linearGradient>
<linearGradient id="paint22_linear_153_5195" x1="32.3499" y1="-60.3856" x2="32.3499" y2="-64.7557" gradientUnits="userSpaceOnUse">
<stop stop-color="white"/>
<stop offset="1" stop-color="#D2D6D5"/>
</linearGradient>
<linearGradient id="paint23_linear_153_5195" x1="27.1086" y1="-60.4854" x2="27.1086" y2="-64.862" gradientUnits="userSpaceOnUse">
<stop stop-color="#363B39"/>
<stop offset="1" stop-color="#1B1C1C"/>
</linearGradient>
<linearGradient id="paint24_linear_153_5195" x1="53.7391" y1="1.40794" x2="56.9916" y2="-2.32207" gradientUnits="userSpaceOnUse">
<stop stop-color="#363B39"/>
<stop offset="1" stop-color="#1B1C1C"/>
</linearGradient>
<linearGradient id="paint25_linear_153_5195" x1="9.91704" y1="15.6063" x2="9.91704" y2="14.8339" gradientUnits="userSpaceOnUse">
<stop stop-color="#D2D6D5"/>
<stop offset="1" stop-color="white"/>
</linearGradient>
<linearGradient id="paint26_linear_153_5195" x1="26.5804" y1="-14.6926" x2="26.5804" y2="-19.0904" gradientUnits="userSpaceOnUse">
<stop stop-color="#363B39"/>
<stop offset="1" stop-color="#1B1C1C"/>
</linearGradient>
<linearGradient id="paint27_linear_153_5195" x1="34.695" y1="-111.648" x2="34.695" y2="-143.538" gradientUnits="userSpaceOnUse">
<stop stop-color="#363B39"/>
<stop offset="1" stop-color="#1B1C1C"/>
</linearGradient>
<linearGradient id="paint28_linear_153_5195" x1="198.5" y1="-212.541" x2="227.744" y2="-221.411" gradientUnits="userSpaceOnUse">
<stop stop-color="#363B39"/>
<stop offset="1"/>
</linearGradient>
</defs>
</svg>
