<svg width="29" height="29" viewBox="0 0 29 29" fill="none" xmlns="http://www.w3.org/2000/svg">
<path fill-rule="evenodd" clip-rule="evenodd" d="M9.40761 0.927826C1.9119 3.74027 -1.88463 12.0967 0.927816 19.5924C3.74026 27.0881 12.0967 30.8846 19.5924 28.0722C27.0881 25.2597 30.8846 16.9033 28.0722 9.40762C25.2597 1.91191 16.9033 -1.88462 9.40761 0.927826Z" fill="#3A3A3A"/>
<path d="M8.05466 11.3997C7.34344 11.5533 6.98137 11.7232 6.71133 11.9877C6.7273 12.0371 6.73248 12.0894 6.72654 12.141C6.7206 12.1926 6.70367 12.2423 6.67689 12.2868L6.13572 13.1989C6.10795 13.245 6.07108 13.285 6.02737 13.3165C5.98365 13.348 5.934 13.3702 5.88142 13.3819L5.85253 13.5104L6.64222 13.4335L6.98263 16.9263L6.19294 17.0032L6.2461 17.1238C6.29995 17.1251 6.35297 17.1373 6.40193 17.1598C6.4509 17.1822 6.4948 17.2144 6.53096 17.2543L7.23805 18.0447C7.273 18.0831 7.29927 18.1286 7.31507 18.1781C7.33087 18.2276 7.33583 18.28 7.32961 18.3315C7.64562 18.5389 8.03515 18.6355 8.76104 18.6476C10.6871 18.6817 13.6329 18.0249 14.3684 17.9532C18.2966 17.6191 20.6879 17.4186 21.4889 17.0788C21.6508 16.9988 21.7787 16.8636 21.8496 16.6975C21.8263 16.6571 21.8123 16.612 21.8086 16.5655C21.7791 16.2622 21.9624 16.0949 21.8785 15.7644C21.8188 15.5469 21.9964 15.4571 22.1225 15.4153C22.1338 15.213 22.1379 15.0115 22.1372 14.8222C22.1134 14.8086 22.0932 14.7895 22.0784 14.7665C22.0635 14.7435 22.0544 14.7173 22.0518 14.69L21.8598 12.7195C21.857 12.6922 21.8609 12.6647 21.871 12.6393C21.8812 12.6138 21.8973 12.5912 21.918 12.5733C21.8905 12.4281 21.8601 12.2831 21.8253 12.1386C21.6944 12.1307 21.4794 12.0791 21.5005 11.8404C21.5249 11.4994 21.3068 11.3712 21.2771 11.0665C21.2717 11.0295 21.2738 10.9917 21.2832 10.9555C21.2926 10.9192 21.3092 10.8853 21.332 10.8556C21.2269 10.6714 21.0546 10.535 20.8512 10.475C19.9995 10.2947 17.6132 10.5613 13.6958 10.9919C12.9556 11.0759 9.93348 10.9948 8.05466 11.3997Z" fill="url(#paint0_radial_153_3971)"/>
<path d="M6.64202 13.4314L5.85224 13.5084C5.65387 14.6829 5.77142 15.889 6.19283 17.0031L6.98262 16.9261L6.64202 13.4314Z" fill="url(#paint1_linear_153_3971)"/>
<path d="M8.19333 11.6063C7.01387 11.8573 6.84132 12.1507 6.35409 12.8726C5.68383 13.8564 5.96027 16.6929 6.80787 17.5287C7.43294 18.1452 7.65875 18.3983 8.86301 18.417C10.7116 18.4454 13.5517 17.8121 14.2605 17.7549C18.0405 17.4323 20.3437 17.2389 21.1154 16.9167C22.0051 16.546 21.6803 13.7291 21.6803 13.7291C21.6803 13.7291 21.4553 10.9039 20.5105 10.7105C19.6912 10.5434 17.3954 10.7982 13.6228 11.2117C12.9102 11.2901 10.0015 11.22 8.19333 11.6063Z" fill="url(#paint2_radial_153_3971)"/>
<path d="M12.6045 16.017C12.6969 16.4143 12.8402 16.7981 13.0308 17.1588L13.2872 17.0879C13.0781 16.7299 12.9237 16.3426 12.8291 15.9389C12.6515 15.0636 12.5646 14.1724 12.5699 13.2794C12.584 12.8631 12.6606 12.4512 12.797 12.0576L12.5319 12.0391C12.4144 12.4298 12.3479 12.834 12.334 13.2417C12.3327 14.1734 12.4233 15.103 12.6045 16.017Z" fill="url(#paint3_linear_153_3971)"/>
<path d="M10.7728 17.5579C10.5577 17.1728 10.3828 16.7665 10.2508 16.3456C9.96025 15.3811 9.86162 14.3691 9.96047 13.3667C10.0087 12.9282 10.1019 12.4958 10.2385 12.0763C10.2571 12.0016 10.2899 11.9311 10.3352 11.8687L10.3278 11.8694C10.2479 11.8567 10.1663 11.8596 10.0876 11.878C10.0459 11.9058 10.0116 11.9786 9.97053 12.1039C9.83384 12.5234 9.74066 12.9557 9.69247 13.3943C9.59358 14.3967 9.69221 15.4087 9.98279 16.3732C10.1167 16.7936 10.2936 17.1992 10.5105 17.5835C10.575 17.6985 10.6227 17.7634 10.6689 17.7825C10.7498 17.7854 10.8304 17.7725 10.9063 17.7446L10.9137 17.7439C10.8549 17.6918 10.8071 17.6286 10.7728 17.5579Z" fill="url(#paint4_linear_153_3971)"/>
<path d="M12.6049 16.0169C12.4229 15.1001 12.332 14.1675 12.3336 13.2328C12.3475 12.8251 12.414 12.4209 12.5315 12.0302L10.3348 11.8626C10.2896 11.925 10.2568 11.9955 10.2382 12.0703C10.1015 12.4897 10.0083 12.9221 9.96012 13.3606C9.86126 14.363 9.9599 15.3751 10.2504 16.3395C10.3824 16.7604 10.5574 17.1667 10.7724 17.5519C10.805 17.6217 10.8508 17.6845 10.9073 17.7369L13.0303 17.1484C12.8408 16.7909 12.6978 16.4107 12.6049 16.0169Z" fill="url(#paint5_linear_153_3971)"/>
<path d="M18.4778 11.6488C18.3859 11.677 18.2943 11.7082 18.2031 11.7437C18.2031 11.7437 18.2239 11.7757 18.2569 11.8405C18.379 12.0771 18.6797 12.7637 18.8008 14.0063C18.8836 14.7514 18.8426 15.5051 18.6794 16.2369C18.6624 16.3051 18.6512 16.3417 18.6512 16.3417C18.7445 16.3578 18.8374 16.3709 18.9301 16.3811C19.5127 16.4369 20.1001 16.412 20.6758 16.3071C20.7999 15.9014 20.8796 15.4835 20.9138 15.0606C20.9343 14.2235 20.8528 13.387 20.671 12.5696C20.5561 12.1588 20.3969 11.7616 20.1961 11.3852C19.614 11.3941 19.0358 11.4828 18.4778 11.6488ZM19.9829 11.5806C20.1801 11.9274 20.3366 12.2958 20.4494 12.6785C20.6255 13.4375 20.7014 14.2164 20.6751 14.9951C20.6385 15.3929 20.5562 15.7851 20.4296 16.164C19.9408 16.2498 19.4441 16.2829 18.9482 16.2625C19.0606 15.5101 19.0772 14.7466 18.9974 13.9901C18.9389 13.2312 18.779 12.4837 18.5219 11.7673C19.0009 11.6533 19.4906 11.5907 19.9829 11.5806Z" fill="url(#paint6_linear_153_3971)"/>
<path d="M18.9511 16.2623C19.446 16.2826 19.9417 16.2497 20.4296 16.1641C20.5561 15.7857 20.6385 15.394 20.6752 14.9967C20.7015 14.218 20.6256 13.4391 20.4495 12.6801C20.3368 12.2969 20.1802 11.928 19.9829 11.5807C19.4906 11.5908 19.0008 11.6534 18.5219 11.7675C18.779 12.4838 18.9389 13.2314 18.9974 13.9902C19.0781 14.7465 19.0625 15.51 18.9511 16.2623Z" fill="url(#paint7_linear_153_3971)"/>
<path d="M15.558 17.4372L15.6779 16.9226L13.4532 17.2267L10.8532 17.9594C10.8532 17.9594 11.5356 17.9343 12.5046 17.7984C13.1174 17.7121 13.9602 17.556 14.5025 17.5046C15.0212 17.4541 15.3776 17.4386 15.558 17.4372Z" fill="url(#paint8_linear_153_3971)"/>
<path d="M14.9572 11.2738L15.1743 11.7556L12.9328 11.8868L10.2403 11.6714C10.2403 11.6714 10.9148 11.5643 11.8917 11.5105C12.5097 11.4769 13.3667 11.4673 13.9087 11.413C14.4272 11.3595 14.7803 11.3103 14.9572 11.2738Z" fill="url(#paint9_linear_153_3971)"/>
<path d="M15.7642 17.432L15.9294 16.8952L17.7906 16.6562C18.0085 16.6891 18.2215 16.7488 18.4247 16.834C18.6325 16.903 18.831 16.9974 19.0157 17.1151C19.0157 17.1151 16.4705 17.4238 15.7642 17.432Z" fill="url(#paint10_linear_153_3971)"/>
<path d="M15.1603 11.2394L15.4274 11.7341L17.2998 11.6093C17.5067 11.5348 17.7037 11.4352 17.8862 11.3125C18.0768 11.2047 18.2533 11.0737 18.4118 10.9225C18.4118 10.9225 15.8551 11.114 15.1603 11.2394Z" fill="url(#paint11_linear_153_3971)"/>
<path d="M7.23823 18.0441L6.53104 17.2536C6.49488 17.2137 6.45098 17.1815 6.402 17.1591C6.35303 17.1366 6.3 17.1244 6.24615 17.1231C6.33858 17.3343 6.46602 17.5284 6.6231 17.6972C6.83543 17.9326 7.07229 18.1445 7.32965 18.3295C7.33567 18.2782 7.33062 18.2261 7.31485 18.1769C7.29908 18.1277 7.27296 18.0824 7.23823 18.0441Z" fill="url(#paint12_radial_153_3971)"/>
<path d="M6.13537 13.197L6.67661 12.2848C6.70339 12.2403 6.72032 12.1905 6.72626 12.1389C6.7322 12.0873 6.72702 12.035 6.71106 11.9856C6.49424 12.2168 6.30276 12.4705 6.13988 12.7424C6.01835 12.9384 5.93079 13.1534 5.8809 13.3785C5.93338 13.3671 5.983 13.345 6.02673 13.3138C6.07047 13.2826 6.10743 13.2428 6.13537 13.197Z" fill="url(#paint13_radial_153_3971)"/>
<path d="M21.8695 15.7651C21.9593 16.095 21.7701 16.2629 21.7996 16.5662C21.8033 16.6127 21.8173 16.6578 21.8406 16.6983C22.0093 16.291 22.0998 15.8557 22.1075 15.4149C21.9871 15.4548 21.8142 15.5471 21.8695 15.7651Z" fill="#93091A"/>
<path d="M21.4877 11.8445C21.4709 12.0828 21.6859 12.1328 21.8126 12.1427C21.7219 11.6903 21.5556 11.2564 21.3207 10.8593C21.2978 10.889 21.2812 10.923 21.2718 10.9592C21.2624 10.9955 21.2603 11.0332 21.2658 11.0703C21.3028 11.3744 21.515 11.5031 21.4877 11.8445Z" fill="#93091A"/>
<path d="M9.92081 17.2649C9.92081 17.2649 8.81261 16.7916 8.41513 16.7504C8.11622 16.7189 7.19784 16.9031 7.19784 16.9031C7.19784 16.9031 8.08315 16.8804 8.37341 16.9142C8.76839 16.9601 9.92081 17.2649 9.92081 17.2649Z" fill="url(#paint14_linear_153_3971)"/>
<path d="M9.45841 12.524C9.45841 12.524 8.4566 13.203 8.08041 13.3195C7.79321 13.4082 6.85654 13.4048 6.85654 13.4048C6.85654 13.4048 7.72957 13.2561 8.00784 13.1669C8.38653 13.0456 9.45841 12.524 9.45841 12.524Z" fill="url(#paint15_linear_153_3971)"/>
<path style="mix-blend-mode:screen" d="M10.2389 12.078C10.1022 12.4975 10.009 12.9299 9.96082 13.3684C9.93442 13.6039 9.92145 13.8407 9.92197 14.0777C10.6602 14.6404 11.9606 15.2651 12.5105 15.5191C12.3924 14.7659 12.3335 14.0045 12.3345 13.2421C12.3483 12.8343 12.4148 12.4301 12.5323 12.0394L10.3356 11.8719C10.2905 11.9338 10.2577 12.0038 10.2389 12.078Z" fill="url(#paint16_linear_153_3971)"/>
<path d="M12.8702 14.5872C13.007 16.4155 13.4008 16.9954 13.4008 16.9954C13.4008 16.9954 17.8194 16.5426 18.2454 16.3605C18.5293 16.2382 18.5535 15.0746 18.5366 14.3397L18.4779 13.7374C18.3523 13.0101 18.1086 11.8756 17.802 11.8108C17.3481 11.7071 12.9259 12.1233 12.9259 12.1233C12.9259 12.1233 12.6514 12.7669 12.8702 14.5872Z" fill="url(#paint17_linear_153_3971)"/>
<path d="M21.4936 13.4261C21.2653 11.66 20.6863 10.925 20.6863 10.925L20.2984 11.3163C21.0261 12.3622 21.0367 13.7916 21.0367 13.7916C21.0367 13.7916 21.3008 15.1962 20.7903 16.3628L21.2464 16.6718C21.2464 16.6718 21.6726 15.8389 21.5556 14.062C21.5466 13.9697 21.5246 13.744 21.5246 13.744C21.5217 13.623 21.5026 13.5184 21.4936 13.4261Z" fill="url(#paint18_linear_153_3971)"/>
<path d="M6.67315 17.2412C6.67315 17.2412 7.33559 18.286 8.57918 18.2817C9.21457 18.2888 9.84989 18.2615 10.4823 18.1997C10.4823 18.1997 7.433 18.1168 6.67315 17.2412Z" fill="url(#paint19_linear_153_3971)"/>
<path d="M6.277 13.1747C6.277 13.1747 6.72524 12.0216 7.94626 11.7857C8.56887 11.6564 9.19805 11.561 9.83102 11.5C9.83102 11.5 6.85349 12.1688 6.277 13.1747Z" fill="url(#paint20_linear_153_3971)"/>
<path d="M10.4063 11.6744C10.4063 11.6744 10.4343 11.3847 10.6708 11.3528C10.9073 11.3209 11.4311 11.5657 11.1243 11.6044C10.8869 11.6444 10.647 11.6678 10.4063 11.6744Z" fill="url(#paint21_linear_153_3971)"/>
<path d="M10.8445 10.6319C10.7656 10.7032 10.6442 11.2934 10.6442 11.2934C10.6185 11.4098 10.7214 11.4338 10.8068 11.4447L10.9773 10.5983C10.954 10.5935 10.93 10.5941 10.907 10.5999C10.884 10.6057 10.8626 10.6167 10.8445 10.6319Z" fill="url(#paint22_linear_153_3971)"/>
<path d="M10.8083 11.4447C10.8432 11.4444 10.8781 11.441 10.9124 11.4346L11.0344 10.6076C11.0159 10.6003 10.9965 10.5952 10.9767 10.5925L10.8083 11.4447Z" fill="url(#paint23_linear_153_3971)"/>
<path d="M10.9995 17.9277C10.9995 17.9277 11.0848 18.2256 11.3229 18.2098C11.561 18.194 12.026 17.8351 11.719 17.8576C11.4778 17.8632 11.2373 17.8866 10.9995 17.9277Z" fill="url(#paint24_linear_153_3971)"/>
<path d="M11.3064 18.2541C11.3064 18.2541 11.541 18.8096 11.6306 18.8645C11.6533 18.8767 11.6786 18.8833 11.7044 18.8839C11.7301 18.8845 11.7557 18.879 11.7789 18.8678L11.4456 18.0734C11.3617 18.0934 11.2554 18.1407 11.3064 18.2541Z" fill="url(#paint25_linear_153_3971)"/>
<path d="M11.7792 18.8692C11.794 18.8633 11.8081 18.856 11.8215 18.8473L11.5413 18.0522C11.5094 18.0527 11.4775 18.0558 11.4461 18.0615L11.7792 18.8692Z" fill="url(#paint26_linear_153_3971)"/>
<path d="M14.253 17.9569C14.255 17.9771 14.2649 17.9957 14.2806 18.0086C14.2963 18.0215 14.3164 18.0277 14.3366 18.0257L14.9652 17.9644C14.9855 17.9625 15.004 17.9525 15.0169 17.9369C15.0298 17.9212 15.036 17.901 15.034 17.8808L14.253 17.9569Z" fill="#595959"/>
<path d="M17.3997 17.6882C17.4016 17.7084 17.4116 17.727 17.4272 17.7399C17.4429 17.7528 17.4631 17.7589 17.4833 17.757L18.1104 17.6959C18.1306 17.6939 18.1492 17.684 18.1621 17.6683C18.175 17.6526 18.1812 17.6324 18.1792 17.6122L17.3997 17.6882Z" fill="#595959"/>
<path d="M13.5769 11.0153C13.5749 10.9951 13.5811 10.9749 13.5939 10.9593C13.6068 10.9436 13.6254 10.9337 13.6457 10.9317L14.2743 10.8704C14.2945 10.8685 14.3146 10.8746 14.3303 10.8875C14.346 10.9004 14.3559 10.919 14.3579 10.9392L13.5769 11.0153Z" fill="#595959"/>
<path d="M16.7158 10.6706C16.7147 10.6516 16.7207 10.6328 16.7326 10.618C16.7446 10.6031 16.7617 10.5933 16.7805 10.5903L17.4076 10.5292C17.4278 10.5273 17.448 10.5334 17.4637 10.5463C17.4794 10.5592 17.4893 10.5778 17.4913 10.598L16.7158 10.6706Z" fill="#595959"/>
<path d="M9.62312 16.5696C9.60101 16.4489 9.52614 16.3941 9.5055 16.2733C9.50466 16.2686 9.50206 16.2643 9.49821 16.2614C9.49436 16.2585 9.48954 16.2571 9.48474 16.2576C9.48235 16.2576 9.47999 16.2582 9.47783 16.2592C9.47568 16.2602 9.47377 16.2617 9.47225 16.2635C9.47074 16.2654 9.46965 16.2675 9.46906 16.2698C9.46848 16.2722 9.46841 16.2746 9.46887 16.2769C9.49098 16.3975 9.56584 16.4524 9.58649 16.5731C9.58733 16.5779 9.58993 16.5821 9.59378 16.5851C9.59763 16.588 9.60244 16.5893 9.60725 16.5889C9.61191 16.5884 9.61621 16.5861 9.61918 16.5825C9.62216 16.5789 9.62357 16.5742 9.62312 16.5696Z" fill="#9E9E9E"/>
<path d="M9.54097 16.27C9.56308 16.3906 9.63795 16.4454 9.65859 16.5662C9.65943 16.571 9.66203 16.5752 9.66588 16.5781C9.66973 16.5811 9.67455 16.5824 9.67935 16.5819C9.68174 16.5819 9.6841 16.5814 9.68626 16.5804C9.68841 16.5793 9.69032 16.5779 9.69184 16.576C9.69335 16.5742 9.69444 16.572 9.69503 16.5697C9.69561 16.5674 9.69568 16.565 9.69522 16.5626C9.67311 16.442 9.59825 16.3872 9.5776 16.2664C9.57677 16.2617 9.57416 16.2574 9.57031 16.2545C9.56646 16.2516 9.56165 16.2502 9.55684 16.2507C9.55445 16.2507 9.55209 16.2512 9.54994 16.2522C9.54778 16.2533 9.54587 16.2548 9.54436 16.2566C9.54284 16.2584 9.54175 16.2606 9.54116 16.2629C9.54058 16.2652 9.54051 16.2676 9.54097 16.27Z" fill="#9E9E9E"/>
<path d="M9.61259 16.2632C9.6347 16.3838 9.70957 16.4386 9.73021 16.5594C9.73105 16.5641 9.73366 16.5684 9.73751 16.5713C9.74136 16.5742 9.74617 16.5756 9.75098 16.5751C9.75564 16.5747 9.75993 16.5724 9.76291 16.5688C9.76588 16.5651 9.7673 16.5605 9.76685 16.5558C9.74474 16.4352 9.66987 16.3804 9.64923 16.2596C9.64839 16.2549 9.64578 16.2506 9.64193 16.2477C9.63808 16.2448 9.63327 16.2434 9.62846 16.2439C9.62607 16.2439 9.62372 16.2444 9.62156 16.2454C9.6194 16.2465 9.6175 16.2479 9.61598 16.2498C9.61446 16.2516 9.61337 16.2538 9.61279 16.2561C9.6122 16.2584 9.61214 16.2608 9.61259 16.2632Z" fill="#9E9E9E"/>
<path d="M9.30201 13.2744C9.3036 13.397 9.24073 13.4652 9.24379 13.5877C9.24389 13.5926 9.24216 13.5972 9.23894 13.6008C9.23573 13.6044 9.23127 13.6067 9.22646 13.6072C9.22412 13.6076 9.2217 13.6076 9.21939 13.607C9.21707 13.6064 9.21491 13.6053 9.21307 13.6038C9.21123 13.6023 9.20974 13.6004 9.20872 13.5982C9.2077 13.596 9.20717 13.5937 9.20716 13.5913C9.20557 13.4687 9.26844 13.4004 9.26537 13.2779C9.26528 13.2731 9.26701 13.2684 9.27023 13.2648C9.27344 13.2612 9.2779 13.259 9.28271 13.2585C9.28737 13.258 9.29203 13.2595 9.29565 13.2624C9.29926 13.2654 9.30155 13.2697 9.30201 13.2744Z" fill="#9E9E9E"/>
<path d="M9.2792 13.5827C9.27761 13.4601 9.34048 13.3919 9.33742 13.2694C9.33732 13.2645 9.33905 13.2599 9.34227 13.2563C9.34548 13.2526 9.34994 13.2504 9.35475 13.2499C9.3571 13.2495 9.35951 13.2495 9.36183 13.2501C9.36414 13.2507 9.3663 13.2518 9.36814 13.2533C9.36999 13.2548 9.37147 13.2567 9.37249 13.2589C9.37351 13.2611 9.37405 13.2634 9.37405 13.2658C9.37565 13.3884 9.31278 13.4567 9.31584 13.5792C9.31593 13.584 9.3142 13.5887 9.31099 13.5923C9.30777 13.5959 9.30331 13.5981 9.2985 13.5986C9.29384 13.5991 9.28919 13.5976 9.28557 13.5947C9.28195 13.5917 9.27966 13.5874 9.2792 13.5827Z" fill="#9E9E9E"/>
<path d="M9.35089 13.5758C9.34929 13.4532 9.41216 13.3849 9.4091 13.2624C9.409 13.2576 9.41074 13.2529 9.41395 13.2493C9.41717 13.2457 9.42163 13.2435 9.42644 13.243C9.4311 13.2426 9.43575 13.244 9.43937 13.2469C9.44299 13.2499 9.44528 13.2542 9.44573 13.2589C9.44733 13.3815 9.38446 13.4497 9.38752 13.5722C9.38762 13.5771 9.38588 13.5817 9.38267 13.5853C9.37945 13.589 9.37499 13.5912 9.37018 13.5917C9.36784 13.5921 9.36543 13.5921 9.36311 13.5915C9.3608 13.5909 9.35864 13.5898 9.3568 13.5883C9.35495 13.5868 9.35347 13.5849 9.35244 13.5827C9.35142 13.5805 9.35089 13.5782 9.35089 13.5758Z" fill="#9E9E9E"/>
<path d="M21.8537 12.7194L22.0456 14.6887C22.0482 14.716 22.0573 14.7422 22.0721 14.7652C22.087 14.7882 22.1072 14.8073 22.131 14.8209C22.1264 14.1971 22.0683 13.6925 22.0682 13.691C22.068 13.6895 22.0277 13.1846 21.9119 12.5732C21.8912 12.5911 21.8751 12.6137 21.8649 12.6392C21.8548 12.6646 21.8509 12.6921 21.8537 12.7194Z" fill="url(#paint27_linear_153_3971)"/>
<path style="mix-blend-mode:screen" d="M18.5219 11.7676C18.779 12.484 18.939 13.2315 18.9974 13.9904C19.0197 14.219 19.0329 14.4307 19.04 14.64C19.3956 15.2533 20.3371 15.5491 20.5781 15.6232C20.6228 15.4164 20.6558 15.2073 20.6768 14.9968C20.7031 14.218 20.6271 13.4392 20.451 12.6801C20.3378 12.2969 20.1807 11.928 19.9829 11.5809C19.4907 11.591 19.0009 11.6536 18.5219 11.7676Z" fill="url(#paint28_linear_153_3971)"/>
<defs>
<radialGradient id="paint0_radial_153_3971" cx="0" cy="0" r="1" gradientUnits="userSpaceOnUse" gradientTransform="translate(15.659 14.3162) rotate(-95.5665) scale(4.58541 9.53766)">
<stop stop-color="#F7F7F7"/>
<stop offset="1" stop-color="#A8ABAA"/>
</radialGradient>
<linearGradient id="paint1_linear_153_3971" x1="14.7081" y1="-180.048" x2="6.58494" y2="-263.397" gradientUnits="userSpaceOnUse">
<stop stop-color="#525956"/>
<stop offset="1" stop-color="#2C2E2E"/>
</linearGradient>
<radialGradient id="paint2_radial_153_3971" cx="0" cy="0" r="1" gradientUnits="userSpaceOnUse" gradientTransform="translate(-343930 33065.4) rotate(-95.5665) scale(173.753 1505.91)">
<stop stop-color="white"/>
<stop offset="1" stop-color="#D2D6D5"/>
</radialGradient>
<linearGradient id="paint3_linear_153_3971" x1="33.135" y1="-243.682" x2="15.7111" y2="-422.462" gradientUnits="userSpaceOnUse">
<stop/>
<stop offset="1" stop-color="#1B1C1C"/>
</linearGradient>
<linearGradient id="paint4_linear_153_3971" x1="32.6646" y1="-267.018" x2="9.35386" y2="-506.2" gradientUnits="userSpaceOnUse">
<stop/>
<stop offset="1" stop-color="#1B1C1C"/>
</linearGradient>
<linearGradient id="paint5_linear_153_3971" x1="157.112" y1="-278.252" x2="134.166" y2="-513.695" gradientUnits="userSpaceOnUse">
<stop stop-color="#363B39"/>
<stop offset="1" stop-color="#1B1C1C"/>
</linearGradient>
<linearGradient id="paint6_linear_153_3971" x1="282.675" y1="-262.767" x2="266.262" y2="-431.178" gradientUnits="userSpaceOnUse">
<stop/>
<stop offset="1" stop-color="#1B1C1C"/>
</linearGradient>
<linearGradient id="paint7_linear_153_3971" x1="221.42" y1="-245.049" x2="207.203" y2="-390.929" gradientUnits="userSpaceOnUse">
<stop stop-color="#363B39"/>
<stop offset="1" stop-color="#1B1C1C"/>
</linearGradient>
<linearGradient id="paint8_linear_153_3971" x1="363.089" y1="-43.2351" x2="362.866" y2="-45.5239" gradientUnits="userSpaceOnUse">
<stop stop-color="#363B39"/>
<stop offset="1" stop-color="#1B1C1C"/>
</linearGradient>
<linearGradient id="paint9_linear_153_3971" x1="360.326" y1="-71.5881" x2="360.103" y2="-73.8711" gradientUnits="userSpaceOnUse">
<stop stop-color="#363B39"/>
<stop offset="1" stop-color="#1B1C1C"/>
</linearGradient>
<linearGradient id="paint10_linear_153_3971" x1="340.617" y1="-42.1913" x2="340.378" y2="-44.6438" gradientUnits="userSpaceOnUse">
<stop stop-color="#363B39"/>
<stop offset="1" stop-color="#1B1C1C"/>
</linearGradient>
<linearGradient id="paint11_linear_153_3971" x1="337.825" y1="-70.8309" x2="337.587" y2="-73.2781" gradientUnits="userSpaceOnUse">
<stop stop-color="#363B39"/>
<stop offset="1" stop-color="#1B1C1C"/>
</linearGradient>
<radialGradient id="paint12_radial_153_3971" cx="0" cy="0" r="1" gradientUnits="userSpaceOnUse" gradientTransform="translate(36.0808 -50.5212) rotate(-95.5665) scale(5.02758 3.91965)">
<stop stop-color="white"/>
<stop offset="1" stop-color="#D2D6D5"/>
</radialGradient>
<radialGradient id="paint13_radial_153_3971" cx="0" cy="0" r="1" gradientUnits="userSpaceOnUse" gradientTransform="translate(31.2343 -100.302) rotate(-95.5665) scale(5.01451 3.91003)">
<stop stop-color="white"/>
<stop offset="1" stop-color="#D2D6D5"/>
</radialGradient>
<linearGradient id="paint14_linear_153_3971" x1="9.55196" y1="17.1988" x2="6.89148" y2="16.6282" gradientUnits="userSpaceOnUse">
<stop stop-color="#D2DBDA"/>
<stop offset="1" stop-color="#B5B5B5"/>
</linearGradient>
<linearGradient id="paint15_linear_153_3971" x1="131.409" y1="-54.9502" x2="108.533" y2="-27.3427" gradientUnits="userSpaceOnUse">
<stop stop-color="#D2DBDA"/>
<stop offset="1" stop-color="#B5B5B5"/>
</linearGradient>
<linearGradient id="paint16_linear_153_3971" x1="145.446" y1="-257.819" x2="174.512" y2="-294.008" gradientUnits="userSpaceOnUse">
<stop stop-color="#363B39"/>
<stop offset="1"/>
</linearGradient>
<linearGradient id="paint17_linear_153_3971" x1="12.9207" y1="16.2434" x2="22.7797" y2="8.83767" gradientUnits="userSpaceOnUse">
<stop stop-color="#F7F7F7"/>
<stop offset="1" stop-color="#DBDBDB"/>
</linearGradient>
<linearGradient id="paint18_linear_153_3971" x1="102.055" y1="-349.268" x2="147.095" y2="-358.452" gradientUnits="userSpaceOnUse">
<stop stop-color="#F7F7F7"/>
<stop offset="1" stop-color="#DBDBDB"/>
</linearGradient>
<linearGradient id="paint19_linear_153_3971" x1="68.1584" y1="-42.3422" x2="127.407" y2="-112.263" gradientUnits="userSpaceOnUse">
<stop stop-color="#F7F7F7"/>
<stop offset="1" stop-color="#DBDBDB"/>
</linearGradient>
<linearGradient id="paint20_linear_153_3971" x1="117.923" y1="467.996" x2="189.535" y2="525.177" gradientUnits="userSpaceOnUse">
<stop stop-color="#F7F7F7"/>
<stop offset="1" stop-color="#DBDBDB"/>
</linearGradient>
<linearGradient id="paint21_linear_153_3971" x1="54.9843" y1="-19.9508" x2="57.5629" y2="-24.3428" gradientUnits="userSpaceOnUse">
<stop stop-color="#363B39"/>
<stop offset="1" stop-color="#1B1C1C"/>
</linearGradient>
<linearGradient id="paint22_linear_153_3971" x1="27.8192" y1="-65.63" x2="27.3587" y2="-70.3551" gradientUnits="userSpaceOnUse">
<stop stop-color="white"/>
<stop offset="1" stop-color="#D2D6D5"/>
</linearGradient>
<linearGradient id="paint23_linear_153_3971" x1="22.1419" y1="-65.1855" x2="21.6807" y2="-69.9176" gradientUnits="userSpaceOnUse">
<stop stop-color="#363B39"/>
<stop offset="1" stop-color="#1B1C1C"/>
</linearGradient>
<linearGradient id="paint24_linear_153_3971" x1="57.458" y1="-1.07114" x2="60.5815" y2="-5.44689" gradientUnits="userSpaceOnUse">
<stop stop-color="#363B39"/>
<stop offset="1" stop-color="#1B1C1C"/>
</linearGradient>
<linearGradient id="paint25_linear_153_3971" x1="11.5718" y1="18.8983" x2="11.4904" y2="18.0631" gradientUnits="userSpaceOnUse">
<stop stop-color="#D2D6D5"/>
<stop offset="1" stop-color="white"/>
</linearGradient>
<linearGradient id="paint26_linear_153_3971" x1="26.3964" y1="-15.6179" x2="25.9329" y2="-20.3729" gradientUnits="userSpaceOnUse">
<stop stop-color="#363B39"/>
<stop offset="1" stop-color="#1B1C1C"/>
</linearGradient>
<linearGradient id="paint27_linear_153_3971" x1="24.9518" y1="-121.305" x2="21.5913" y2="-155.785" gradientUnits="userSpaceOnUse">
<stop stop-color="#363B39"/>
<stop offset="1" stop-color="#1B1C1C"/>
</linearGradient>
<linearGradient id="paint28_linear_153_3971" x1="191.432" y1="-247.655" x2="222.118" y2="-260.327" gradientUnits="userSpaceOnUse">
<stop stop-color="#363B39"/>
<stop offset="1"/>
</linearGradient>
</defs>
</svg>
