<svg width="24" height="24" viewBox="0 0 24 24" fill="none" xmlns="http://www.w3.org/2000/svg">
<path d="M17 1.25H3C2.53652 1.2521 2.09262 1.43715 1.76489 1.76489C1.43715 2.09262 1.2521 2.53652 1.25 3V21C1.2521 21.4635 1.43715 21.9074 1.76489 22.2351C2.09262 22.5628 2.53652 22.7479 3 22.75H18C18.11 22.75 18.22 22.75 18.33 22.74C18.3418 22.7281 18.3553 22.718 18.37 22.71C18.5527 22.2099 18.6736 21.6894 18.73 21.16C18.4913 21.22 18.2461 21.2503 18 21.25C17.138 21.25 16.3114 20.9076 15.7019 20.2981C15.0924 19.6886 14.75 18.862 14.75 18C14.75 17.138 15.0924 16.3114 15.7019 15.7019C16.3114 15.0924 17.138 14.75 18 14.75C18.2527 14.7491 18.5046 14.7794 18.75 14.84V3C18.7479 2.53652 18.5628 2.09262 18.2351 1.76489C17.9074 1.43715 17.4635 1.2521 17 1.25ZM5.5 5.25H14.5C14.6989 5.25 14.8897 5.32902 15.0303 5.46967C15.171 5.61032 15.25 5.80109 15.25 6C15.25 6.19891 15.171 6.38968 15.0303 6.53033C14.8897 6.67098 14.6989 6.75 14.5 6.75H5.5C5.30109 6.75 5.11032 6.67098 4.96967 6.53033C4.82902 6.38968 4.75 6.19891 4.75 6C4.75 5.80109 4.82902 5.61032 4.96967 5.46967C5.11032 5.32902 5.30109 5.25 5.5 5.25ZM5.5 9.25H14.5C14.6989 9.25 14.8897 9.32902 15.0303 9.46967C15.171 9.61032 15.25 9.80109 15.25 10C15.25 10.1989 15.171 10.3897 15.0303 10.5303C14.8897 10.671 14.6989 10.75 14.5 10.75H5.5C5.30109 10.75 5.11032 10.671 4.96967 10.5303C4.82902 10.3897 4.75 10.1989 4.75 10C4.75 9.80109 4.82902 9.61032 4.96967 9.46967C5.11032 9.32902 5.30109 9.25 5.5 9.25ZM11 18.75H5.5C5.30109 18.75 5.11032 18.671 4.96967 18.5303C4.82902 18.3897 4.75 18.1989 4.75 18C4.75 17.8011 4.82902 17.6103 4.96967 17.4697C5.11032 17.329 5.30109 17.25 5.5 17.25H11C11.1989 17.25 11.3897 17.329 11.5303 17.4697C11.671 17.6103 11.75 17.8011 11.75 18C11.75 18.1989 11.671 18.3897 11.5303 18.5303C11.3897 18.671 11.1989 18.75 11 18.75ZM12 14.75H5.5C5.30109 14.75 5.11032 14.671 4.96967 14.5303C4.82902 14.3897 4.75 14.1989 4.75 14C4.75 13.8011 4.82902 13.6103 4.96967 13.4697C5.11032 13.329 5.30109 13.25 5.5 13.25H12C12.1989 13.25 12.3897 13.329 12.5303 13.4697C12.671 13.6103 12.75 13.8011 12.75 14C12.75 14.1989 12.671 14.3897 12.5303 14.5303C12.3897 14.671 12.1989 14.75 12 14.75Z" fill="#5B9EFF"/>
<path d="M18.7499 13.31C18.1327 13.2194 17.5037 13.2512 16.8988 13.4037C16.2939 13.5562 15.725 13.8263 15.2245 14.1987C14.7239 14.571 14.3017 15.0383 13.9818 15.5739C13.6619 16.1095 13.4506 16.7028 13.3599 17.32C13.2693 17.9372 13.3012 18.5662 13.4537 19.1711C13.6061 19.776 13.8763 20.345 14.2486 20.8455C14.621 21.346 15.0883 21.7683 15.6239 22.0882C16.1594 22.4081 16.7527 22.6194 17.37 22.71C17.5787 22.7382 17.7893 22.7516 17.9999 22.75C18.1099 22.75 18.2199 22.75 18.3299 22.74C19.4942 22.6601 20.5883 22.1543 21.4035 21.3193C22.2187 20.4842 22.698 19.3783 22.7499 18.2125C22.8018 17.0467 22.4227 15.9025 21.685 14.9983C20.9473 14.0941 19.9025 13.4931 18.7499 13.31ZM18.7299 21.16C18.4913 21.22 18.2461 21.2503 17.9999 21.25C17.138 21.25 16.3113 20.9076 15.7019 20.2981C15.0924 19.6886 14.7499 18.8619 14.7499 18C14.7499 17.138 15.0924 16.3114 15.7019 15.7019C16.3113 15.0924 17.138 14.75 17.9999 14.75C18.2527 14.7491 18.5046 14.7793 18.7499 14.84C19.4633 15.0079 20.0988 15.4125 20.5529 15.9877C21.007 16.563 21.2529 17.2751 21.2506 18.0079C21.2482 18.7408 20.9978 19.4513 20.5401 20.0237C20.0824 20.5961 19.4444 20.9966 18.7299 21.16Z" fill="#5B9EFF"/>
<path d="M17.5002 19.75C17.4017 19.75 17.3042 19.7306 17.2132 19.6928C17.1223 19.6551 17.0397 19.5998 16.9702 19.53L15.9702 18.53C15.8965 18.4613 15.8374 18.3785 15.7964 18.2865C15.7554 18.1945 15.7333 18.0952 15.7316 17.9945C15.7298 17.8938 15.7483 17.7938 15.786 17.7004C15.8238 17.607 15.8799 17.5222 15.9511 17.451C16.0223 17.3797 16.1072 17.3236 16.2006 17.2859C16.2939 17.2482 16.394 17.2296 16.4947 17.2314C16.5954 17.2332 16.6947 17.2552 16.7867 17.2962C16.8787 17.3372 16.9615 17.3963 17.0302 17.47L17.5002 17.94L18.9702 16.47C19.1123 16.3375 19.3004 16.2654 19.4947 16.2688C19.689 16.2723 19.8744 16.351 20.0118 16.4884C20.1492 16.6258 20.2279 16.8112 20.2313 17.0055C20.2348 17.1998 20.1626 17.3878 20.0302 17.53L18.0302 19.53C17.9606 19.5998 17.878 19.6551 17.7871 19.6928C17.6961 19.7306 17.5986 19.75 17.5002 19.75Z" fill="#5B9EFF"/>
</svg>
