<svg width="28" height="28" viewBox="0 0 28 28" fill="none" xmlns="http://www.w3.org/2000/svg">
<path fill-rule="evenodd" clip-rule="evenodd" d="M14 28C21.732 28 28 21.732 28 14C28 6.26801 21.732 0 14 0C6.26801 0 0 6.26801 0 14C0 21.732 6.26801 28 14 28Z" fill="white"/>
<path d="M8.59071 9.82426C7.81441 9.91438 7.40966 10.0583 7.09345 10.3128C7.10537 10.3673 7.10546 10.4237 7.09374 10.4783C7.08201 10.5328 7.05873 10.5842 7.02547 10.629L6.35194 11.5476C6.31744 11.5941 6.27386 11.633 6.22385 11.6621C6.17385 11.6912 6.11845 11.7098 6.06102 11.7168L6.01675 11.8512L6.86894 11.8512L6.86894 15.6204L6.01675 15.6204L6.06102 15.7548C6.11845 15.7618 6.17385 15.7804 6.22385 15.8095C6.27386 15.8386 6.31744 15.8775 6.35194 15.924L7.02547 16.8426C7.05882 16.8873 7.08216 16.9387 7.09389 16.9933C7.10562 17.0478 7.10547 17.1043 7.09345 17.1588C7.40966 17.4133 7.816 17.5572 8.59071 17.6457C10.6461 17.8829 13.8635 17.4876 14.6572 17.4876C18.8913 17.5398 21.4684 17.5746 22.3601 17.2948C22.5415 17.2261 22.6924 17.0949 22.7854 16.9248C22.7648 16.8791 22.7545 16.8294 22.7554 16.7793C22.7554 16.4521 22.9688 16.2924 22.9135 15.9303C22.8724 15.6916 23.0716 15.6141 23.2107 15.5825C23.2439 15.3674 23.2692 15.1524 23.2882 14.95C23.2642 14.9331 23.2446 14.9105 23.2311 14.8844C23.2177 14.8583 23.2107 14.8293 23.2107 14.7998L23.2107 12.6733C23.2107 12.6439 23.2177 12.6149 23.2311 12.5888C23.2446 12.5626 23.2642 12.5401 23.2882 12.5231C23.274 12.365 23.2566 12.2069 23.2345 12.0488C23.0953 12.0267 22.8708 11.9492 22.9182 11.6962C22.9799 11.3342 22.7601 11.1745 22.7601 10.8456C22.7582 10.8055 22.7643 10.7653 22.7782 10.7276C22.792 10.6898 22.8133 10.6552 22.8408 10.6259C22.7476 10.418 22.5776 10.2543 22.3665 10.1689C21.4747 9.8875 18.896 9.92387 14.6636 9.97604C13.8635 9.98869 10.6413 9.5871 8.59071 9.82426Z" fill="url(#paint0_radial_153_5239)"/>
<path d="M6.86908 11.8498L6.01689 11.8498C5.68252 13.0845 5.68252 14.3859 6.01689 15.6206L6.86908 15.6206L6.86908 11.8498Z" fill="url(#paint1_linear_153_5239)"/>
<path d="M8.71767 10.0601C7.43069 10.2056 7.21567 10.5012 6.61961 11.2222C5.80062 12.204 5.80062 15.2649 6.61961 16.2468C7.22357 16.9709 7.4386 17.265 8.724 17.4104C10.6972 17.6334 13.7992 17.2523 14.5628 17.265C18.6372 17.314 21.1195 17.3472 21.978 17.0832C22.9677 16.7796 22.914 13.7345 22.914 13.7345C22.914 13.7345 22.9677 10.6909 21.978 10.3858C21.1195 10.1218 18.6388 10.155 14.5628 10.204C13.7929 10.2135 10.6908 9.8356 8.71767 10.0601Z" fill="url(#paint2_radial_153_5239)"/>
<path d="M12.9738 15.2348C13.0311 15.6691 13.1443 16.0942 13.3106 16.4996L13.592 16.4506C13.4057 16.0461 13.281 15.6161 13.222 15.1747C13.1233 14.2207 13.1233 13.2591 13.222 12.3051C13.2805 11.8615 13.4052 11.4293 13.592 11.0228L13.3106 10.9754C13.1443 11.3807 13.0311 11.8059 12.9738 12.2402C12.8754 13.236 12.8754 14.239 12.9738 15.2348Z" fill="url(#paint3_linear_153_5239)"/>
<path d="M10.855 16.6912C10.6653 16.2571 10.5206 15.8046 10.4234 15.3409C10.2133 14.2798 10.2133 13.1878 10.4234 12.1267C10.5206 11.663 10.6653 11.2105 10.855 10.7764C10.8827 10.6985 10.9251 10.6265 10.9799 10.5646L10.972 10.5646C10.888 10.5427 10.8004 10.5373 10.7143 10.5488C10.6669 10.5741 10.6226 10.6484 10.5657 10.778C10.3759 11.2121 10.2313 11.6646 10.1341 12.1282C9.92394 13.1894 9.92394 14.2814 10.1341 15.3425C10.2334 15.8059 10.3802 16.2578 10.572 16.6912C10.6289 16.8208 10.6732 16.8951 10.7206 16.9204C10.8068 16.9319 10.8943 16.9265 10.9783 16.9046L10.9863 16.9046C10.9289 16.8428 10.8843 16.7702 10.855 16.6912Z" fill="url(#paint4_linear_153_5239)"/>
<path d="M12.9737 15.235C12.8746 14.2361 12.8746 13.2298 12.9737 12.231C13.031 11.7966 13.1442 11.3715 13.3104 10.9661L10.98 10.5582C10.9251 10.6202 10.8827 10.6921 10.8551 10.7701C10.6653 11.2042 10.5207 11.6566 10.4234 12.1203C10.2133 13.1814 10.2133 14.2734 10.4234 15.3346C10.5207 15.7982 10.6653 16.2507 10.8551 16.6848C10.8827 16.7628 10.9251 16.8347 10.98 16.8967L13.3104 16.4887C13.1451 16.0869 13.0319 15.6656 12.9737 15.235Z" fill="url(#paint5_linear_153_5239)"/>
<path d="M19.7074 11.1775C19.6062 11.1981 19.505 11.2218 19.4038 11.2502C19.4038 11.2502 19.4228 11.2866 19.4512 11.3593C19.5572 11.6249 19.807 12.3902 19.807 13.7309C19.8179 14.536 19.6955 15.3373 19.4449 16.1025C19.4196 16.1736 19.4038 16.2116 19.4038 16.2116C19.5018 16.2385 19.5999 16.2622 19.6979 16.2827C20.3147 16.403 20.9452 16.4376 21.5714 16.3855C21.7463 15.9648 21.8751 15.5264 21.9556 15.078C22.0648 14.1854 22.0648 13.2828 21.9556 12.3902C21.8757 11.9391 21.7469 11.498 21.5714 11.0747C20.9483 11.0236 20.3211 11.0581 19.7074 11.1775ZM21.3232 11.2613C21.4978 11.6526 21.6267 12.0627 21.7074 12.4835C21.8166 13.3131 21.8166 14.1535 21.7074 14.9831C21.6269 15.4044 21.4979 15.8151 21.3232 16.2068C20.7918 16.2477 20.2574 16.2313 19.7295 16.1578C19.9281 15.3654 20.0253 14.551 20.0188 13.7341C20.0354 12.9169 19.9424 12.1012 19.7422 11.3087C20.266 11.2367 20.796 11.2208 21.3232 11.2613Z" fill="url(#paint6_linear_153_5239)"/>
<path d="M19.7325 16.1583C20.2594 16.2315 20.7926 16.2479 21.323 16.2073C21.4976 15.816 21.6266 15.4059 21.7072 14.9851C21.8165 14.1555 21.8165 13.3151 21.7072 12.4855C21.6267 12.0641 21.4978 11.6535 21.323 11.2617C20.7958 11.2213 20.2658 11.2372 19.742 11.3092C19.9422 12.1016 20.0352 12.9173 20.0187 13.7345C20.0261 14.5513 19.93 15.3657 19.7325 16.1583Z" fill="url(#paint7_linear_153_5239)"/>
<path d="M15.9824 17.0614L16.1642 16.5238L13.7547 16.6171L10.8993 17.1293C10.8993 17.1293 11.6314 17.1736 12.6812 17.1293C13.3452 17.1009 14.2622 17.0218 14.8472 17.0234C15.4069 17.0234 15.7895 17.044 15.9824 17.0614Z" fill="url(#paint8_linear_153_5239)"/>
<path d="M15.9824 10.4096L16.1642 10.9471L13.7547 10.8538L10.8993 10.3431C10.8993 10.3431 11.6314 10.2989 12.6812 10.3431C13.3452 10.3716 14.2622 10.4507 14.8472 10.4491C15.4069 10.4459 15.7895 10.4301 15.9824 10.4096Z" fill="url(#paint9_linear_153_5239)"/>
<path d="M16.2034 17.0769L16.4358 16.5204L18.4501 16.4587C18.6796 16.5166 18.901 16.6027 19.1094 16.7148C19.3243 16.8103 19.5267 16.9319 19.7118 17.0769C19.7118 17.0769 16.9592 17.1417 16.2034 17.0769Z" fill="url(#paint10_linear_153_5239)"/>
<path d="M16.2034 10.3939L16.4374 10.9504L18.4517 11.0121C18.6806 10.9541 18.9015 10.868 19.1094 10.7559C19.3243 10.6605 19.5267 10.5389 19.7118 10.3939C19.7118 10.3939 16.9592 10.3322 16.2034 10.3939Z" fill="url(#paint11_linear_153_5239)"/>
<path d="M7.02563 16.8429L6.3521 15.9243C6.3176 15.8779 6.27403 15.839 6.22402 15.8099C6.17401 15.7808 6.11861 15.7622 6.06119 15.7552C6.13797 15.9906 6.25397 16.2114 6.40428 16.4081C6.60672 16.6818 6.83781 16.933 7.09362 17.1576C7.1054 17.1033 7.10543 17.0472 7.0937 16.9929C7.08197 16.9386 7.05876 16.8875 7.02563 16.8429Z" fill="url(#paint12_radial_153_5239)"/>
<path d="M6.3521 11.5463L7.02563 10.6277C7.05889 10.5829 7.08217 10.5315 7.0939 10.4769C7.10563 10.4224 7.10553 10.366 7.09362 10.3115C6.83779 10.536 6.6067 10.7872 6.40428 11.0609C6.25397 11.2577 6.13797 11.4784 6.06119 11.7139C6.11849 11.707 6.17381 11.6887 6.22381 11.6599C6.27381 11.6311 6.31746 11.5924 6.3521 11.5463Z" fill="url(#paint13_radial_153_5239)"/>
<path d="M22.9042 15.9301C22.9658 16.2921 22.7461 16.4518 22.7461 16.7791C22.7452 16.8292 22.7554 16.8789 22.7761 16.9246C22.9988 16.5068 23.1409 16.0509 23.1951 15.5807C23.0623 15.6107 22.8678 15.6913 22.9042 15.9301Z" fill="#93091A"/>
<path d="M22.904 11.6997C22.8613 11.9526 23.0858 12.0285 23.2202 12.0522C23.1705 11.5593 23.0379 11.0782 22.8281 10.6293C22.8007 10.6587 22.7794 10.6933 22.7655 10.731C22.7517 10.7688 22.7455 10.8089 22.7475 10.8491C22.7554 11.1779 22.9688 11.3376 22.904 11.6997Z" fill="#93091A"/>
<path d="M9.97419 16.2894C9.97419 16.2894 8.83899 15.668 8.41843 15.5827C8.10222 15.5178 7.10141 15.619 7.10141 15.619C7.10141 15.619 8.05004 15.687 8.35677 15.7534C8.77417 15.8435 9.97419 16.2894 9.97419 16.2894Z" fill="url(#paint14_linear_153_5239)"/>
<path d="M9.97419 11.1729C9.97419 11.1729 8.83267 11.7942 8.41843 11.8796C8.10222 11.9444 7.10141 11.8432 7.10141 11.8432C7.10141 11.8432 8.05004 11.7753 8.35677 11.7089C8.77417 11.6187 9.97419 11.1729 9.97419 11.1729Z" fill="url(#paint15_linear_153_5239)"/>
<path style="mix-blend-mode:screen" d="M10.8551 10.7779C10.6653 11.212 10.5207 11.6645 10.4234 12.1282C10.3707 12.3771 10.3321 12.6289 10.308 12.8823C11.0385 13.5606 12.3634 14.3638 12.9247 14.6926C12.8769 13.8752 12.8933 13.0553 12.9737 12.2404C13.031 11.806 13.1442 11.3809 13.3104 10.9756L10.98 10.5677C10.9253 10.6291 10.8829 10.7005 10.8551 10.7779Z" fill="url(#paint16_linear_153_5239)"/>
<path d="M13.4068 13.7342C13.3625 15.7026 13.723 16.3634 13.723 16.3634C13.723 16.3634 18.493 16.3397 18.9673 16.1895C19.2835 16.0883 19.4306 14.8472 19.4891 14.0598L19.4891 13.41C19.4306 12.6195 19.2883 11.3815 18.9673 11.2804C18.493 11.1222 13.723 11.1064 13.723 11.1064C13.723 11.1064 13.3625 11.7657 13.4068 13.7342Z" fill="url(#paint17_linear_153_5239)"/>
<path d="M22.7459 13.3916C22.6858 11.4801 22.1435 10.6342 22.1435 10.6342L21.6881 11.0121C22.3569 12.2058 22.2194 13.7347 22.2194 13.7347C22.2194 13.7347 22.3553 15.2636 21.6881 16.4573L22.1435 16.8351C22.1435 16.8351 22.6858 15.9893 22.7459 14.0778C22.7459 13.9782 22.7459 13.7347 22.7459 13.7347C22.7554 13.605 22.7459 13.4912 22.7459 13.3916Z" fill="url(#paint18_linear_153_5239)"/>
<path d="M6.50552 15.9259C6.50552 15.9259 7.10474 17.1117 8.43441 17.2366C9.11281 17.3104 9.79473 17.3474 10.4771 17.3473C10.4771 17.3473 7.22649 16.9409 6.50552 15.9259Z" fill="url(#paint19_linear_153_5239)"/>
<path d="M6.50552 11.5367C6.50552 11.5367 7.10474 10.3509 8.43441 10.226C9.11337 10.1526 9.79581 10.1162 10.4787 10.1169C10.4787 10.1169 7.22649 10.5217 6.50552 11.5367Z" fill="url(#paint20_linear_153_5239)"/>
<path d="M11.0765 10.3639C11.0765 10.3639 11.1366 10.0572 11.3927 10.0477C11.6488 10.0382 12.1832 10.3544 11.8512 10.3639C11.5933 10.3819 11.3344 10.3819 11.0765 10.3639Z" fill="url(#paint21_linear_153_5239)"/>
<path d="M11.6533 9.295C11.5616 9.36298 11.3703 9.98118 11.3703 9.98118C11.3308 10.1029 11.4383 10.1393 11.5284 10.1598L11.7988 9.27286C11.7744 9.26536 11.7487 9.26346 11.7235 9.26729C11.6983 9.27112 11.6744 9.28059 11.6533 9.295Z" fill="url(#paint22_linear_153_5239)"/>
<path d="M11.5299 10.1596C11.5673 10.1629 11.6048 10.1629 11.6422 10.1596L11.8588 9.28845C11.8397 9.27869 11.8196 9.27126 11.7987 9.26632L11.5299 10.1596Z" fill="url(#paint23_linear_153_5239)"/>
<path d="M11.0588 17.1099C11.0588 17.1099 11.1189 17.4372 11.375 17.4451C11.6312 17.453 12.1656 17.1178 11.8351 17.1099C11.5767 17.0907 11.3172 17.0907 11.0588 17.1099Z" fill="url(#paint24_linear_153_5239)"/>
<path d="M11.3532 17.491C11.3532 17.491 11.5461 18.1092 11.6362 18.1772C11.6592 18.1926 11.6855 18.2023 11.713 18.2056C11.7405 18.2089 11.7683 18.2057 11.7943 18.1962L11.5208 17.3123C11.4291 17.325 11.3105 17.3645 11.3532 17.491Z" fill="url(#paint25_linear_153_5239)"/>
<path d="M11.7939 18.1978C11.8103 18.193 11.8262 18.1866 11.8413 18.1788L11.6247 17.2997C11.5905 17.2969 11.5562 17.2969 11.522 17.2997L11.7939 18.1978Z" fill="url(#paint26_linear_153_5239)"/>
<path d="M14.5338 17.4798C14.5338 17.5016 14.5424 17.5225 14.5578 17.5379C14.5733 17.5533 14.5942 17.562 14.616 17.562L15.2942 17.562C15.316 17.562 15.337 17.5533 15.3524 17.5379C15.3678 17.5225 15.3765 17.5016 15.3765 17.4798L14.5338 17.4798Z" fill="#595959"/>
<path d="M17.9255 17.5214C17.9255 17.5432 17.9342 17.5641 17.9496 17.5795C17.965 17.5949 17.9859 17.6036 18.0078 17.6036L18.6844 17.6036C18.7062 17.6036 18.7272 17.5949 18.7426 17.5795C18.758 17.5641 18.7667 17.5432 18.7667 17.5214L17.9255 17.5214Z" fill="#595959"/>
<path d="M14.5343 9.98894C14.5343 9.96713 14.543 9.94622 14.5584 9.9308C14.5738 9.91538 14.5947 9.90672 14.6165 9.90672L15.2948 9.90672C15.3166 9.90672 15.3375 9.91538 15.353 9.9308C15.3684 9.94622 15.377 9.96713 15.377 9.98894L14.5343 9.98894Z" fill="#595959"/>
<path d="M17.9255 9.94761C17.9263 9.92716 17.9346 9.90772 17.949 9.8931C17.9633 9.87848 17.9826 9.86973 18.003 9.86856L18.6797 9.86856C18.7015 9.86856 18.7224 9.87722 18.7378 9.89264C18.7533 9.90806 18.7619 9.92897 18.7619 9.95078L17.9255 9.94761Z" fill="#595959"/>
<path d="M9.72929 15.5145C9.71822 15.3832 9.64391 15.3168 9.63442 15.1856C9.63402 15.1804 9.63168 15.1756 9.62787 15.1721C9.62406 15.1686 9.61906 15.1666 9.61387 15.1666C9.61132 15.1664 9.60874 15.1667 9.60633 15.1676C9.60392 15.1685 9.60173 15.1698 9.59991 15.1717C9.5981 15.1735 9.59671 15.1757 9.59584 15.1781C9.59498 15.1805 9.59465 15.1831 9.5949 15.1856C9.60596 15.3168 9.68027 15.3832 9.68976 15.5145C9.69016 15.5196 9.6925 15.5245 9.69631 15.528C9.70012 15.5315 9.70513 15.5335 9.71031 15.5334C9.71535 15.5334 9.72017 15.5314 9.72373 15.5279C9.72729 15.5243 9.72929 15.5195 9.72929 15.5145Z" fill="#9E9E9E"/>
<path d="M9.67235 15.1855C9.68342 15.3168 9.75773 15.3832 9.76721 15.5144C9.76761 15.5196 9.76995 15.5244 9.77377 15.5279C9.77758 15.5314 9.78258 15.5334 9.78777 15.5334C9.79032 15.5336 9.7929 15.5333 9.79531 15.5324C9.79772 15.5316 9.79991 15.5302 9.80173 15.5284C9.80354 15.5265 9.80493 15.5243 9.8058 15.5219C9.80666 15.5195 9.80699 15.5169 9.80674 15.5144C9.79567 15.3832 9.72136 15.3168 9.71188 15.1855C9.71148 15.1804 9.70914 15.1755 9.70533 15.172C9.70151 15.1685 9.69651 15.1665 9.69132 15.1666C9.68877 15.1663 9.6862 15.1666 9.68378 15.1675C9.68137 15.1684 9.67918 15.1698 9.67737 15.1716C9.67555 15.1734 9.67416 15.1756 9.6733 15.178C9.67243 15.1804 9.67211 15.183 9.67235 15.1855Z" fill="#9E9E9E"/>
<path d="M9.74984 15.1856C9.7609 15.3168 9.83521 15.3832 9.8447 15.5145C9.8451 15.5196 9.84744 15.5245 9.85125 15.528C9.85506 15.5315 9.86006 15.5335 9.86525 15.5334C9.87028 15.5334 9.87511 15.5314 9.87867 15.5279C9.88223 15.5243 9.88423 15.5195 9.88423 15.5145C9.87316 15.3832 9.79885 15.3168 9.78936 15.1856C9.78896 15.1804 9.78662 15.1756 9.78281 15.1721C9.779 15.1686 9.774 15.1666 9.76881 15.1666C9.76626 15.1664 9.76368 15.1667 9.76127 15.1676C9.75885 15.1685 9.75666 15.1698 9.75485 15.1717C9.75304 15.1735 9.75165 15.1757 9.75078 15.1781C9.74991 15.1805 9.74959 15.1831 9.74984 15.1856Z" fill="#9E9E9E"/>
<path d="M9.72929 11.959C9.71822 12.0902 9.64391 12.1566 9.63442 12.2878C9.63402 12.293 9.63168 12.2978 9.62787 12.3014C9.62406 12.3049 9.61906 12.3068 9.61387 12.3068C9.61132 12.3071 9.60874 12.3067 9.60633 12.3059C9.60392 12.305 9.60173 12.3036 9.59991 12.3018C9.5981 12.3 9.59671 12.2978 9.59584 12.2954C9.59498 12.293 9.59465 12.2904 9.5949 12.2878C9.60596 12.1566 9.68027 12.0902 9.68976 11.959C9.69016 11.9538 9.6925 11.949 9.69631 11.9455C9.70012 11.9419 9.70513 11.94 9.71031 11.94C9.71535 11.94 9.72017 11.942 9.72373 11.9456C9.72729 11.9491 9.72929 11.9539 9.72929 11.959Z" fill="#9E9E9E"/>
<path d="M9.67227 12.2862C9.68334 12.155 9.75765 12.0886 9.76713 11.9573C9.76753 11.9522 9.76987 11.9473 9.77369 11.9438C9.7775 11.9403 9.7825 11.9384 9.78769 11.9384C9.79024 11.9381 9.79282 11.9384 9.79523 11.9393C9.79764 11.9402 9.79983 11.9416 9.80165 11.9434C9.80346 11.9452 9.80485 11.9474 9.80572 11.9498C9.80658 11.9522 9.80691 11.9548 9.80666 11.9573C9.79559 12.0886 9.72128 12.155 9.7118 12.2862C9.7114 12.2914 9.70906 12.2962 9.70525 12.2997C9.70143 12.3032 9.69643 12.3052 9.69124 12.3052C9.68621 12.3052 9.68139 12.3032 9.67783 12.2996C9.67427 12.2961 9.67227 12.2912 9.67227 12.2862Z" fill="#9E9E9E"/>
<path d="M9.74984 12.2861C9.7609 12.1549 9.83521 12.0885 9.8447 11.9573C9.8451 11.9521 9.84744 11.9473 9.85125 11.9437C9.85506 11.9402 9.86006 11.9383 9.86525 11.9383C9.87028 11.9383 9.87511 11.9403 9.87867 11.9438C9.88223 11.9474 9.88423 11.9522 9.88423 11.9573C9.87316 12.0885 9.79885 12.1549 9.78936 12.2861C9.78896 12.2913 9.78662 12.2961 9.78281 12.2996C9.779 12.3032 9.774 12.3051 9.76881 12.3051C9.76626 12.3053 9.76368 12.305 9.76127 12.3042C9.75885 12.3033 9.75666 12.3019 9.75485 12.3001C9.75304 12.2983 9.75165 12.2961 9.75078 12.2937C9.74991 12.2913 9.74959 12.2887 9.74984 12.2861Z" fill="#9E9E9E"/>
<path d="M23.2046 12.6738L23.2046 14.7988C23.2045 14.8282 23.2115 14.8572 23.225 14.8833C23.2385 14.9095 23.2581 14.932 23.2821 14.949C23.3421 14.2818 23.3327 13.7363 23.3327 13.7347C23.3327 13.7331 23.3421 13.1893 23.2821 12.5236C23.2581 12.5406 23.2385 12.5631 23.225 12.5893C23.2115 12.6154 23.2045 12.6444 23.2046 12.6738Z" fill="url(#paint27_linear_153_5239)"/>
<path style="mix-blend-mode:screen" d="M19.7422 11.3093C19.9424 12.1017 20.0354 12.9174 20.0189 13.7346C20.0189 13.9813 20.011 14.2089 19.9967 14.4334C20.3129 15.1259 21.2885 15.5402 21.5383 15.6445C21.6076 15.4282 21.6647 15.2081 21.709 14.9852C21.8183 14.1556 21.8183 13.3152 21.709 12.4856C21.628 12.0642 21.4985 11.6535 21.3232 11.2618C20.796 11.2214 20.266 11.2373 19.7422 11.3093Z" fill="url(#paint28_linear_153_5239)"/>
<defs>
<radialGradient id="paint0_radial_153_5239" cx="0" cy="0" r="1" gradientUnits="userSpaceOnUse" gradientTransform="translate(16.4158 13.7342) rotate(-90) scale(4.92499 10.244)">
<stop stop-color="#F7F7F7"/>
<stop offset="1" stop-color="#A8ABAA"/>
</radialGradient>
<linearGradient id="paint1_linear_153_5239" x1="35.6456" y1="-194.112" x2="35.6456" y2="-284.046" gradientUnits="userSpaceOnUse">
<stop stop-color="#525956"/>
<stop offset="1" stop-color="#2C2E2E"/>
</linearGradient>
<radialGradient id="paint2_radial_153_5239" cx="0" cy="0" r="1" gradientUnits="userSpaceOnUse" gradientTransform="translate(-371102 -488.575) rotate(-90) scale(186.621 1617.43)">
<stop stop-color="white"/>
<stop offset="1" stop-color="#D2D6D5"/>
</radialGradient>
<linearGradient id="paint3_linear_153_5239" x1="61.9712" y1="-260.208" x2="61.9712" y2="-453.114" gradientUnits="userSpaceOnUse">
<stop/>
<stop offset="1" stop-color="#1B1C1C"/>
</linearGradient>
<linearGradient id="paint4_linear_153_5239" x1="63.8988" y1="-285.199" x2="63.8988" y2="-543.28" gradientUnits="userSpaceOnUse">
<stop/>
<stop offset="1" stop-color="#1B1C1C"/>
</linearGradient>
<linearGradient id="paint5_linear_153_5239" x1="198.085" y1="-284.243" x2="198.085" y2="-538.289" gradientUnits="userSpaceOnUse">
<stop stop-color="#363B39"/>
<stop offset="1" stop-color="#1B1C1C"/>
</linearGradient>
<linearGradient id="paint6_linear_153_5239" x1="330.683" y1="-254.613" x2="330.683" y2="-436.329" gradientUnits="userSpaceOnUse">
<stop/>
<stop offset="1" stop-color="#1B1C1C"/>
</linearGradient>
<linearGradient id="paint7_linear_153_5239" x1="263.364" y1="-242.056" x2="263.364" y2="-399.461" gradientUnits="userSpaceOnUse">
<stop stop-color="#363B39"/>
<stop offset="1" stop-color="#1B1C1C"/>
</linearGradient>
<linearGradient id="paint8_linear_153_5239" x1="393.764" y1="-11.5861" x2="393.764" y2="-14.0557" gradientUnits="userSpaceOnUse">
<stop stop-color="#363B39"/>
<stop offset="1" stop-color="#1B1C1C"/>
</linearGradient>
<linearGradient id="paint9_linear_153_5239" x1="393.764" y1="-42.1807" x2="393.764" y2="-44.6441" gradientUnits="userSpaceOnUse">
<stop stop-color="#363B39"/>
<stop offset="1" stop-color="#1B1C1C"/>
</linearGradient>
<linearGradient id="paint10_linear_153_5239" x1="369.636" y1="-12.8117" x2="369.636" y2="-15.458" gradientUnits="userSpaceOnUse">
<stop stop-color="#363B39"/>
<stop offset="1" stop-color="#1B1C1C"/>
</linearGradient>
<linearGradient id="paint11_linear_153_5239" x1="369.636" y1="-43.7154" x2="369.636" y2="-46.3559" gradientUnits="userSpaceOnUse">
<stop stop-color="#363B39"/>
<stop offset="1" stop-color="#1B1C1C"/>
</linearGradient>
<radialGradient id="paint12_radial_153_5239" cx="0" cy="0" r="1" gradientUnits="userSpaceOnUse" gradientTransform="translate(44.9968 -53.4391) rotate(-90) scale(5.39923 4.2094)">
<stop stop-color="white"/>
<stop offset="1" stop-color="#D2D6D5"/>
</radialGradient>
<radialGradient id="paint13_radial_153_5239" cx="0" cy="0" r="1" gradientUnits="userSpaceOnUse" gradientTransform="translate(45.0026 -107.153) rotate(-90) scale(5.3852 4.19907)">
<stop stop-color="white"/>
<stop offset="1" stop-color="#D2D6D5"/>
</radialGradient>
<linearGradient id="paint14_linear_153_5239" x1="9.58683" y1="16.1803" x2="6.80259" y2="15.2933" gradientUnits="userSpaceOnUse">
<stop stop-color="#D2DBDA"/>
<stop offset="1" stop-color="#B5B5B5"/>
</linearGradient>
<linearGradient id="paint15_linear_153_5239" x1="147.351" y1="-48.2439" x2="120.024" y2="-21.1183" gradientUnits="userSpaceOnUse">
<stop stop-color="#D2DBDA"/>
<stop offset="1" stop-color="#B5B5B5"/>
</linearGradient>
<linearGradient id="paint16_linear_153_5239" x1="183.488" y1="-263.619" x2="218.326" y2="-299.272" gradientUnits="userSpaceOnUse">
<stop stop-color="#363B39"/>
<stop offset="1"/>
</linearGradient>
<linearGradient id="paint17_linear_153_5239" x1="13.2882" y1="15.5097" x2="24.5975" y2="8.62102" gradientUnits="userSpaceOnUse">
<stop stop-color="#F7F7F7"/>
<stop offset="1" stop-color="#DBDBDB"/>
</linearGradient>
<linearGradient id="paint18_linear_153_5239" x1="146.636" y1="-365.885" x2="195.735" y2="-371.009" gradientUnits="userSpaceOnUse">
<stop stop-color="#F7F7F7"/>
<stop offset="1" stop-color="#DBDBDB"/>
</linearGradient>
<linearGradient id="paint19_linear_153_5239" x1="78.4315" y1="-41.3553" x2="149.043" y2="-109.919" gradientUnits="userSpaceOnUse">
<stop stop-color="#F7F7F7"/>
<stop offset="1" stop-color="#DBDBDB"/>
</linearGradient>
<linearGradient id="paint20_linear_153_5239" x1="78.4601" y1="509.307" x2="149.047" y2="577.885" gradientUnits="userSpaceOnUse">
<stop stop-color="#F7F7F7"/>
<stop offset="1" stop-color="#DBDBDB"/>
</linearGradient>
<linearGradient id="paint21_linear_153_5239" x1="62.0185" y1="-18.7952" x2="65.2322" y2="-23.221" gradientUnits="userSpaceOnUse">
<stop stop-color="#363B39"/>
<stop offset="1" stop-color="#1B1C1C"/>
</linearGradient>
<linearGradient id="paint22_linear_153_5239" x1="37.7412" y1="-70.4499" x2="37.7412" y2="-75.5484" gradientUnits="userSpaceOnUse">
<stop stop-color="white"/>
<stop offset="1" stop-color="#D2D6D5"/>
</linearGradient>
<linearGradient id="paint23_linear_153_5239" x1="31.6265" y1="-70.5666" x2="31.6265" y2="-75.6726" gradientUnits="userSpaceOnUse">
<stop stop-color="#363B39"/>
<stop offset="1" stop-color="#1B1C1C"/>
</linearGradient>
<linearGradient id="paint24_linear_153_5239" x1="62.6955" y1="1.64245" x2="66.4899" y2="-2.70922" gradientUnits="userSpaceOnUse">
<stop stop-color="#363B39"/>
<stop offset="1" stop-color="#1B1C1C"/>
</linearGradient>
<linearGradient id="paint25_linear_153_5239" x1="11.5698" y1="18.2072" x2="11.5698" y2="17.306" gradientUnits="userSpaceOnUse">
<stop stop-color="#D2D6D5"/>
<stop offset="1" stop-color="white"/>
</linearGradient>
<linearGradient id="paint26_linear_153_5239" x1="31.0101" y1="-17.1414" x2="31.0101" y2="-22.2721" gradientUnits="userSpaceOnUse">
<stop stop-color="#363B39"/>
<stop offset="1" stop-color="#1B1C1C"/>
</linearGradient>
<linearGradient id="paint27_linear_153_5239" x1="40.4775" y1="-130.256" x2="40.4775" y2="-167.461" gradientUnits="userSpaceOnUse">
<stop stop-color="#363B39"/>
<stop offset="1" stop-color="#1B1C1C"/>
</linearGradient>
<linearGradient id="paint28_linear_153_5239" x1="231.584" y1="-247.965" x2="265.702" y2="-258.313" gradientUnits="userSpaceOnUse">
<stop stop-color="#363B39"/>
<stop offset="1"/>
</linearGradient>
</defs>
</svg>
