<svg width="40" height="40" viewBox="0 0 40 40" fill="none" xmlns="http://www.w3.org/2000/svg">
<path fill-rule="evenodd" clip-rule="evenodd" d="M20 40C31.0457 40 40 31.0457 40 20C40 8.9543 31.0457 0 20 0C8.9543 0 0 8.9543 0 20C0 31.0457 8.9543 40 20 40Z" fill="#3A3A3A"/>
<path d="M27.6909 27.8712C28.8676 28.0445 29.5192 27.9924 30.0844 27.7427C30.0883 27.6579 30.1104 27.5749 30.1491 27.4994C30.1879 27.4238 30.2423 27.3574 30.3089 27.3047L31.6608 26.2196C31.7298 26.1649 31.8092 26.1248 31.8942 26.1018C31.9792 26.0787 32.0679 26.0732 32.1551 26.0855L32.2731 25.9054L31.0204 25.5697L32.5051 20.0287L33.7578 20.3644L33.7457 20.1494C33.664 20.1165 33.5899 20.0673 33.5279 20.0048C33.4658 19.9424 33.4171 19.868 33.3847 19.7861L32.7564 18.1704C32.725 18.0915 32.7109 18.0068 32.7151 17.9219C32.7194 17.8371 32.7418 17.7542 32.781 17.6788C32.4164 17.1801 31.8757 16.8085 30.7717 16.3732C27.8437 15.2149 22.9582 14.5286 21.7914 14.216C15.5876 12.4715 11.8129 11.4053 10.3918 11.4654C10.0981 11.4949 9.82465 11.6283 9.6208 11.8417C9.63319 11.917 9.62871 11.9941 9.60767 12.0674C9.47876 12.5485 9.10208 12.6992 9.04081 13.2532C9.00721 13.6204 8.68384 13.6558 8.46685 13.6475C8.33334 13.9505 8.21146 14.2566 8.10385 14.5467C8.13246 14.5811 8.15236 14.6219 8.16189 14.6657C8.17141 14.7094 8.17027 14.7548 8.15857 14.798L7.32094 17.9241C7.30947 17.9674 7.28776 18.0072 7.25764 18.0403C7.22752 18.0735 7.18988 18.0989 7.14789 18.1144C7.10653 18.3524 7.06982 18.5917 7.04008 18.8328C7.2359 18.9202 7.53542 19.1225 7.36605 19.4757C7.13279 19.9836 7.39296 20.3049 7.26342 20.7884C7.25047 20.8482 7.22564 20.9048 7.19041 20.9548C7.15518 21.0049 7.11026 21.0473 7.05831 21.0797C7.11345 21.4219 7.29881 21.7296 7.5756 21.9382C8.77561 22.7032 12.5808 23.6655 18.8233 25.256C20.0043 25.5525 24.5829 27.4121 27.6909 27.8712Z" fill="url(#paint0_radial_153_3883)"/>
<path d="M31.0197 25.572L32.2725 25.9077C33.2504 24.2243 33.763 22.3112 33.7578 20.3644L32.505 20.0287L31.0197 25.572Z" fill="url(#paint1_linear_153_3883)"/>
<path d="M27.5977 27.475C29.5469 27.7682 29.9795 27.4182 31.1397 26.5932C32.7304 25.4724 33.9361 20.9727 33.1189 19.2067C32.5162 17.9043 32.316 17.3873 30.4837 16.6672C27.6708 15.5623 22.9606 14.9005 21.843 14.5811C15.8727 12.9042 12.2368 11.8776 10.8707 11.9276C9.29617 11.984 8.17573 16.4816 8.17573 16.4816C8.17573 16.4816 6.89786 20.9346 8.23264 21.773C9.39069 22.4993 13.0505 23.4277 19.0617 24.9611C20.1973 25.2505 24.6086 27.0279 27.5977 27.475Z" fill="url(#paint2_radial_153_3883)"/>
<path d="M23.3791 18.1913C23.4659 17.5302 23.467 16.8607 23.3822 16.1993L22.9492 16.1605C23.0637 16.8285 23.0776 17.5098 22.9905 18.1819C22.7599 19.6232 22.3811 21.0368 21.8602 22.4004C21.5996 23.0293 21.246 23.6156 20.8112 24.1396L21.2063 24.3202C21.6104 23.7898 21.9442 23.2094 22.1995 22.5934C22.7365 21.1684 23.1316 19.6939 23.3791 18.1913Z" fill="url(#paint3_linear_153_3883)"/>
<path d="M27.067 16.8852C27.175 17.5981 27.2094 18.3202 27.1697 19.0401C27.0606 20.6828 26.6304 22.2881 25.9036 23.7653C25.578 24.4086 25.1872 25.0168 24.7372 25.5802C24.6659 25.6839 24.5752 25.773 24.4702 25.8424L24.4818 25.8455C24.5967 25.9109 24.7233 25.9533 24.8544 25.9703C24.9341 25.9518 25.0285 25.86 25.1632 25.6918C25.6132 25.1285 26.004 24.5203 26.3296 23.877C27.0564 22.3998 27.4866 20.7945 27.5957 19.1518C27.6321 18.4315 27.5944 17.7093 27.4831 16.9967C27.4505 16.7837 27.4147 16.657 27.3549 16.6012C27.2328 16.5504 27.102 16.5238 26.9698 16.5229L26.9582 16.5198C27.0181 16.6333 27.0551 16.7574 27.067 16.8852Z" fill="url(#paint4_linear_153_3883)"/>
<path d="M23.379 18.1913C23.1312 19.6987 22.7348 21.1779 22.1957 22.6073C21.9404 23.2233 21.6066 23.8037 21.2025 24.3341L24.4677 25.8517C24.5727 25.7822 24.6634 25.6932 24.7348 25.5894C25.1847 25.0261 25.5756 24.4179 25.9011 23.7746C26.6279 22.2974 27.0581 20.6921 27.1672 19.0494C27.2069 18.3295 27.1725 17.6074 27.0646 16.8945C27.0547 16.7689 27.0207 16.6465 26.9644 16.5338L23.3778 16.2155C23.4626 16.8714 23.463 17.5354 23.379 18.1913Z" fill="url(#paint5_linear_153_3883)"/>
<path d="M11.8822 21.5029C12.0391 21.5125 12.1972 21.5175 12.3571 21.5155C12.3571 21.5155 12.3435 21.4546 12.3304 21.3365C12.2793 20.9043 12.2135 19.681 12.7416 17.71C13.0427 16.5222 13.5382 15.3924 14.208 14.3663C14.2732 14.2717 14.3114 14.2221 14.3114 14.2221C14.1779 14.144 14.0431 14.0705 13.9071 14.0017C13.0477 13.5819 12.1346 13.2827 11.1934 13.1126C10.7706 13.6622 10.4085 14.2559 10.1135 14.8834C9.60143 16.1526 9.2459 17.4794 9.05483 18.8346C8.99467 19.5293 9.01031 20.2284 9.10147 20.9197C9.99735 21.2404 10.933 21.4366 11.8822 21.5029ZM9.53986 20.7432C9.43728 20.0993 9.4093 19.4456 9.45648 18.7953C9.6227 17.5326 9.95372 16.2972 10.4411 15.1206C10.7255 14.533 11.0767 13.9801 11.4879 13.473C12.2853 13.6223 13.0643 13.8569 13.8114 14.1728C13.2074 15.2595 12.7437 16.4185 12.4314 17.6219C12.0851 18.8167 11.9006 20.0525 11.8828 21.2963C11.0843 21.1958 10.2989 21.0104 9.53986 20.7432Z" fill="url(#paint6_linear_153_3883)"/>
<path d="M13.8066 14.1716C13.0609 13.8564 12.2835 13.6222 11.4877 13.473C11.0769 13.9794 10.7259 14.5315 10.4415 15.1183C9.95418 16.2949 9.62316 17.5303 9.45694 18.7929C9.40938 19.4441 9.43715 20.0985 9.5397 20.7432C10.2988 21.0104 11.0842 21.1958 11.8826 21.2963C11.9005 20.0525 12.085 18.8167 12.4312 17.6219C12.7419 16.4183 13.2041 15.2589 13.8066 14.1716Z" fill="url(#paint7_linear_153_3883)"/>
<path d="M19.6752 14.3217L19.1962 15.0403L22.775 15.8523L27.1744 16.224C27.1744 16.224 26.1157 15.8705 24.555 15.5221C23.5676 15.3024 22.1884 15.0574 21.329 14.8246C20.5063 14.6041 19.9519 14.4232 19.6752 14.3217Z" fill="url(#paint8_linear_153_3883)"/>
<path d="M17.0551 24.0998L16.9996 23.2379L20.505 24.3241L24.5014 26.1996C24.5014 26.1996 23.4078 25.9763 21.8819 25.4977C20.917 25.1943 19.6001 24.7169 18.7395 24.4888C17.9154 24.273 17.3468 24.1455 17.0551 24.0998Z" fill="url(#paint9_linear_153_3883)"/>
<path d="M19.3563 14.2112L18.7954 14.9378L15.8101 14.235C15.4956 14.0595 15.2039 13.8458 14.9418 13.5988C14.6634 13.3739 14.4139 13.1154 14.1989 12.8293C14.1989 12.8293 18.2709 13.8183 19.3563 14.2112Z" fill="url(#paint10_linear_153_3883)"/>
<path d="M16.7238 24.0358L16.599 23.1255L13.6622 22.2414C13.3028 22.2365 12.9442 22.276 12.5945 22.3589C12.2409 22.4145 11.8956 22.5136 11.5663 22.6538C11.5663 22.6538 15.5885 23.8287 16.7238 24.0358Z" fill="url(#paint11_linear_153_3883)"/>
<path d="M32.7561 18.1705L33.3844 19.7861C33.4168 19.868 33.4656 19.9424 33.5276 20.0049C33.5897 20.0673 33.6638 20.1165 33.7454 20.1494C33.7253 19.7731 33.6417 19.4029 33.4983 19.0544C33.3085 18.5724 33.0677 18.112 32.7801 17.6812C32.7414 17.7563 32.7193 17.8388 32.7151 17.9232C32.711 18.0076 32.725 18.0919 32.7561 18.1705Z" fill="url(#paint12_radial_153_3883)"/>
<path d="M31.6601 26.2219L30.3082 27.307C30.2416 27.3597 30.1872 27.4261 30.1484 27.5017C30.1097 27.5773 30.0876 27.6603 30.0837 27.7451C30.5482 27.5158 30.9869 27.2375 31.3922 26.9149C31.6907 26.6848 31.9482 26.406 32.1538 26.0901C32.0669 26.0776 31.9783 26.0828 31.8935 26.1055C31.8086 26.1281 31.7292 26.1677 31.6601 26.2219Z" fill="url(#paint13_radial_153_3883)"/>
<path d="M9.05448 13.257C9.10645 12.7005 9.49242 12.5523 9.62134 12.0712C9.64238 11.9979 9.64686 11.9208 9.63447 11.8455C9.14254 12.3719 8.75402 12.9861 8.48919 13.6561C8.69626 13.6642 9.0139 13.6223 9.05448 13.257Z" fill="#93091A"/>
<path d="M7.38782 19.4767C7.55022 19.1216 7.25007 18.9216 7.06186 18.8338C6.94083 19.5781 6.94621 20.3375 7.07777 21.0801C7.12971 21.0477 7.17463 21.0053 7.20986 20.9552C7.24509 20.9052 7.26992 20.8486 7.28287 20.7888C7.40079 20.3022 7.14991 19.9834 7.38782 19.4767Z" fill="#93091A"/>
<path d="M28.2036 17.8225C28.2036 17.8225 29.6277 19.1831 30.2123 19.4742C30.6516 19.6941 32.1627 19.9395 32.1627 19.9395C32.1627 19.9395 30.7949 19.4659 30.3702 19.2475C29.7921 18.9506 28.2036 17.8225 28.2036 17.8225Z" fill="url(#paint14_linear_153_3883)"/>
<path d="M26.1882 25.3436C26.1882 25.3436 28.111 24.8799 28.7536 24.9175C29.244 24.9468 30.6754 25.4898 30.6754 25.4898C30.6754 25.4898 29.2541 25.216 28.777 25.1928C28.1279 25.1609 26.1882 25.3436 26.1882 25.3436Z" fill="url(#paint15_linear_153_3883)"/>
<path style="mix-blend-mode:screen" d="M24.7378 25.5779C25.1878 25.0145 25.5786 24.4063 25.9042 23.763C26.0798 23.4177 26.2356 23.0628 26.3709 22.6998C25.5643 21.415 23.9329 19.7124 23.2374 19.0078C22.9856 20.2283 22.6386 21.4272 22.1994 22.5934C21.9441 23.2094 21.6102 23.7898 21.2061 24.3202L24.4714 25.8378C24.5759 25.7689 24.6664 25.6807 24.7378 25.5779Z" fill="url(#paint16_linear_153_3883)"/>
<path d="M22.1512 20.2264C22.9916 17.3502 22.722 16.2366 22.722 16.2366C22.722 16.2366 15.7004 14.3926 14.944 14.4265C14.4393 14.4507 13.7343 16.2173 13.3381 17.3518L13.0822 18.307C12.8568 19.4922 12.5783 21.3681 13.0103 21.6433C13.6453 22.0625 20.6513 23.9647 20.6513 23.9647C20.6513 23.9647 21.4409 23.1375 22.1512 20.2264Z" fill="url(#paint17_linear_153_3883)"/>
<path d="M8.28692 17.052C7.62231 19.8856 8.08633 21.3427 8.08633 21.3427L8.90456 20.9666C8.3916 18.9484 9.19604 16.755 9.19604 16.755C9.19604 16.755 9.59838 14.4539 11.0494 12.9619L10.5289 12.2271C10.5289 12.2271 9.39847 13.2569 8.55721 16.0433C8.51797 16.1897 8.42207 16.5476 8.42207 16.5476C8.35705 16.7345 8.32616 16.9055 8.28692 17.052Z" fill="url(#paint18_linear_153_3883)"/>
<path d="M33.1599 19.7234C33.1599 19.7234 32.746 17.7442 30.8406 17.0368C29.8724 16.661 28.8845 16.3381 27.8813 16.0695C27.8813 16.0695 32.4998 17.9473 33.1599 19.7234Z" fill="url(#paint19_linear_153_3883)"/>
<path d="M31.4307 26.1754C31.4307 26.1754 30.0827 27.6826 28.0788 27.3424C27.0518 27.1829 26.0342 26.9676 25.0306 26.6976C25.0306 26.6976 29.971 27.3836 31.4307 26.1754Z" fill="url(#paint20_linear_153_3883)"/>
<path d="M24.2496 26.0996C24.2496 26.0996 24.0404 26.5268 23.6602 26.4399C23.2799 26.353 22.6189 25.6776 23.1107 25.7944C23.4969 25.8696 23.8775 25.9715 24.2496 26.0996Z" fill="url(#paint21_linear_153_3883)"/>
<path d="M22.9799 27.4435C23.1415 27.3797 23.6663 26.5462 23.6663 26.5462C23.7723 26.3829 23.6286 26.287 23.5042 26.2213L22.7574 27.4187C22.7902 27.4393 22.8273 27.4523 22.8658 27.4566C22.9044 27.4609 22.9434 27.4564 22.9799 27.4435Z" fill="url(#paint22_linear_153_3883)"/>
<path d="M23.5019 26.2207C23.4484 26.2011 23.3931 26.1863 23.3369 26.1765L22.6754 27.3718C22.6995 27.3937 22.7263 27.4125 22.755 27.428L23.5019 26.2207Z" fill="url(#paint23_linear_153_3883)"/>
<path d="M26.9324 16.189C26.9324 16.189 26.973 15.6842 26.5996 15.5717C26.2261 15.4592 25.3085 15.7414 25.7912 15.8832C26.1635 16.0131 26.5449 16.1153 26.9324 16.189Z" fill="url(#paint24_linear_153_3883)"/>
<path d="M26.6501 15.513C26.6501 15.513 26.6101 14.5283 26.5044 14.3928C26.4767 14.3611 26.4418 14.3364 26.4027 14.3208C26.3636 14.3051 26.3214 14.2989 26.2794 14.3027L26.3334 15.7096C26.4732 15.7272 26.6631 15.7158 26.6501 15.513Z" fill="url(#paint25_linear_153_3883)"/>
<path d="M26.2799 14.3003C26.2539 14.3008 26.2281 14.3039 26.2027 14.3095L26.1749 15.6871C26.2241 15.7047 26.2746 15.7182 26.326 15.7276L26.2799 14.3003Z" fill="url(#paint26_linear_153_3883)"/>
<path d="M21.9696 14.2762C21.9782 14.2442 21.9737 14.21 21.9571 14.1813C21.9405 14.1525 21.9131 14.1316 21.8811 14.123L20.884 13.8558C20.8519 13.8472 20.8178 13.8517 20.7891 13.8683C20.7603 13.8849 20.7393 13.9122 20.7308 13.9443L21.9696 14.2762Z" fill="#595959"/>
<path d="M16.9998 12.8799C17.0084 12.8479 17.0039 12.8137 16.9873 12.785C16.9707 12.7562 16.9434 12.7353 16.9114 12.7267L15.9166 12.4601C15.8845 12.4515 15.8504 12.456 15.8216 12.4726C15.7929 12.4892 15.7719 12.5166 15.7634 12.5486L16.9998 12.8799Z" fill="#595959"/>
<path d="M19.0186 25.2885C19.01 25.3205 18.989 25.3478 18.9603 25.3644C18.9315 25.381 18.8974 25.3855 18.8653 25.3769L17.8682 25.1098C17.8362 25.1012 17.8088 25.0802 17.7922 25.0515C17.7756 25.0227 17.7711 24.9886 17.7797 24.9565L19.0186 25.2885Z" fill="#595959"/>
<path d="M14.0168 24.013C14.0077 24.0428 13.9877 24.0681 13.9609 24.0839C13.9341 24.0998 13.9023 24.105 13.8718 24.0987L12.877 23.8322C12.845 23.8236 12.8176 23.8026 12.801 23.7739C12.7845 23.7451 12.78 23.711 12.7885 23.6789L14.0168 24.013Z" fill="#595959"/>
<path d="M28.2587 19.0579C28.2233 19.2551 28.3064 19.382 28.2686 19.5787C28.2672 19.5864 28.2687 19.5945 28.2729 19.6011C28.2772 19.6078 28.2837 19.6126 28.2914 19.6147C28.295 19.616 28.2989 19.6166 28.3028 19.6162C28.3067 19.6159 28.3105 19.6147 28.3139 19.6128C28.3172 19.6108 28.3202 19.6082 28.3224 19.605C28.3246 19.6018 28.3261 19.5981 28.3267 19.5942C28.3622 19.397 28.2791 19.2701 28.3168 19.0734C28.3183 19.0657 28.3167 19.0577 28.3125 19.051C28.3083 19.0443 28.3017 19.0395 28.2941 19.0375C28.2867 19.0355 28.2788 19.0365 28.2722 19.0403C28.2655 19.0442 28.2607 19.0505 28.2587 19.0579Z" fill="#9E9E9E"/>
<path d="M28.2129 19.5637C28.2484 19.3665 28.1653 19.2396 28.203 19.0429C28.2045 19.0352 28.2029 19.0271 28.1987 19.0205C28.1945 19.0138 28.1879 19.009 28.1803 19.0069C28.1766 19.0056 28.1727 19.005 28.1688 19.0053C28.1649 19.0057 28.1612 19.0069 28.1578 19.0088C28.1544 19.0108 28.1515 19.0134 28.1493 19.0166C28.1471 19.0198 28.1456 19.0235 28.1449 19.0273C28.1095 19.2246 28.1926 19.3515 28.1548 19.5482C28.1534 19.5559 28.1549 19.5639 28.1591 19.5706C28.1634 19.5773 28.1699 19.5821 28.1776 19.5841C28.1812 19.5855 28.1851 19.586 28.189 19.5857C28.1929 19.5854 28.1967 19.5842 28.2001 19.5823C28.2034 19.5803 28.2064 19.5776 28.2086 19.5744C28.2108 19.5712 28.2123 19.5676 28.2129 19.5637Z" fill="#9E9E9E"/>
<path d="M28.0987 19.5332C28.1341 19.336 28.0511 19.2091 28.0888 19.0124C28.0902 19.0047 28.0887 18.9967 28.0845 18.99C28.0803 18.9833 28.0737 18.9785 28.0661 18.9764C28.0587 18.9745 28.0508 18.9755 28.0441 18.9793C28.0375 18.9832 28.0327 18.9895 28.0307 18.9969C27.9953 19.1941 28.0784 19.321 28.0406 19.5177C28.0392 19.5254 28.0407 19.5335 28.0449 19.5401C28.0491 19.5468 28.0557 19.5516 28.0633 19.5537C28.067 19.555 28.0709 19.5556 28.0748 19.5552C28.0787 19.5549 28.0825 19.5537 28.0858 19.5518C28.0892 19.5498 28.0921 19.5472 28.0944 19.544C28.0966 19.5407 28.0981 19.5371 28.0987 19.5332Z" fill="#9E9E9E"/>
<path d="M26.8582 24.285C26.9261 24.0965 27.0615 24.0281 27.1271 23.839C27.1298 23.8315 27.1351 23.8253 27.1421 23.8217C27.1491 23.818 27.1572 23.8171 27.1648 23.8192C27.1687 23.8198 27.1723 23.8213 27.1755 23.8235C27.1788 23.8258 27.1814 23.8287 27.1834 23.8321C27.1853 23.8354 27.1865 23.8392 27.1868 23.8431C27.1872 23.847 27.1866 23.8509 27.1852 23.8545C27.1173 24.0431 26.9819 24.1114 26.9163 24.3006C26.9136 24.3081 26.9083 24.3142 26.9013 24.3179C26.8943 24.3216 26.8862 24.3225 26.8786 24.3204C26.8712 24.3184 26.8649 24.3136 26.861 24.307C26.8572 24.3003 26.8562 24.2924 26.8582 24.285Z" fill="#9E9E9E"/>
<path d="M27.0707 23.8264C27.0027 24.0149 26.8673 24.0833 26.8017 24.2724C26.799 24.2799 26.7937 24.2861 26.7867 24.2897C26.7797 24.2934 26.7716 24.2943 26.764 24.2922C26.7601 24.2916 26.7565 24.2901 26.7533 24.2879C26.7501 24.2856 26.7474 24.2827 26.7454 24.2794C26.7435 24.276 26.7423 24.2722 26.742 24.2683C26.7416 24.2644 26.7422 24.2605 26.7436 24.2569C26.8115 24.0683 26.9469 24 27.0125 23.8108C27.0152 23.8033 27.0205 23.7972 27.0275 23.7935C27.0345 23.7898 27.0426 23.7889 27.0502 23.791C27.0576 23.793 27.0639 23.7978 27.0678 23.8044C27.0716 23.8111 27.0726 23.819 27.0707 23.8264Z" fill="#9E9E9E"/>
<path d="M26.9567 23.7959C26.8888 23.9844 26.7534 24.0528 26.6877 24.2419C26.6851 24.2494 26.6798 24.2556 26.6728 24.2592C26.6658 24.2629 26.6577 24.2638 26.6501 24.2617C26.6427 24.2597 26.6363 24.2549 26.6325 24.2483C26.6287 24.2416 26.6277 24.2338 26.6296 24.2264C26.6976 24.0378 26.833 23.9695 26.8986 23.7803C26.9013 23.7728 26.9066 23.7667 26.9136 23.763C26.9206 23.7593 26.9287 23.7584 26.9363 23.7605C26.9402 23.7611 26.9438 23.7626 26.947 23.7649C26.9502 23.7671 26.9529 23.77 26.9549 23.7734C26.9568 23.7767 26.958 23.7805 26.9583 23.7844C26.9586 23.7883 26.9581 23.7922 26.9567 23.7959Z" fill="#9E9E9E"/>
<path d="M7.3299 17.9266L8.16691 14.8028C8.17861 14.7596 8.17974 14.7142 8.17022 14.6705C8.1607 14.6268 8.14079 14.5859 8.11218 14.5515C7.76105 15.5087 7.56014 16.3143 7.55952 16.3166C7.55889 16.3189 7.33071 17.1147 7.15685 18.1169C7.19884 18.1014 7.23648 18.076 7.2666 18.0429C7.29671 18.0097 7.31843 17.9699 7.3299 17.9266Z" fill="url(#paint27_linear_153_3883)"/>
<path style="mix-blend-mode:screen" d="M11.8827 21.2963C11.9005 20.0525 12.085 18.8167 12.4313 17.6219C12.5284 17.2593 12.6297 16.9277 12.7391 16.6033C12.547 15.4607 11.2761 14.4675 10.95 14.2157C10.7628 14.5065 10.5923 14.8076 10.4393 15.1177C9.95192 16.2943 9.6209 17.5297 9.45468 18.7923C9.40784 19.4437 9.43639 20.0984 9.53976 20.7432C10.2988 21.0104 11.0843 21.1958 11.8827 21.2963Z" fill="url(#paint28_linear_153_3883)"/>
<defs>
<radialGradient id="paint0_radial_153_3883" cx="0" cy="0" r="1" gradientUnits="userSpaceOnUse" gradientTransform="translate(17.7277 19.041) rotate(105) scale(7.49538 15.5904)">
<stop stop-color="#F7F7F7"/>
<stop offset="1" stop-color="#A8ABAA"/>
</radialGradient>
<linearGradient id="paint1_linear_153_3883" x1="-92.4115" y1="317.012" x2="-127.836" y2="449.219" gradientUnits="userSpaceOnUse">
<stop stop-color="#525956"/>
<stop offset="1" stop-color="#2C2E2E"/>
</linearGradient>
<radialGradient id="paint2_radial_153_3883" cx="0" cy="0" r="1" gradientUnits="userSpaceOnUse" gradientTransform="translate(545382 146940) rotate(105) scale(284.02 2461.58)">
<stop stop-color="white"/>
<stop offset="1" stop-color="#D2D6D5"/>
</radialGradient>
<linearGradient id="paint3_linear_153_3883" x1="-157.146" y1="403.806" x2="-233.131" y2="687.387" gradientUnits="userSpaceOnUse">
<stop/>
<stop offset="1" stop-color="#1B1C1C"/>
</linearGradient>
<linearGradient id="paint4_linear_153_3883" x1="-169.824" y1="439.786" x2="-271.482" y2="819.177" gradientUnits="userSpaceOnUse">
<stop/>
<stop offset="1" stop-color="#1B1C1C"/>
</linearGradient>
<linearGradient id="paint5_linear_153_3883" x1="-366.709" y1="385.524" x2="-466.777" y2="758.984" gradientUnits="userSpaceOnUse">
<stop stop-color="#363B39"/>
<stop offset="1" stop-color="#1B1C1C"/>
</linearGradient>
<linearGradient id="paint6_linear_153_3883" x1="-549.963" y1="289.735" x2="-621.541" y2="556.867" gradientUnits="userSpaceOnUse">
<stop/>
<stop offset="1" stop-color="#1B1C1C"/>
</linearGradient>
<linearGradient id="paint7_linear_153_3883" x1="-446.055" y1="297.793" x2="-508.057" y2="529.186" gradientUnits="userSpaceOnUse">
<stop stop-color="#363B39"/>
<stop offset="1" stop-color="#1B1C1C"/>
</linearGradient>
<linearGradient id="paint8_linear_153_3883" x1="-546.967" y1="-92.3729" x2="-547.94" y2="-88.7425" gradientUnits="userSpaceOnUse">
<stop stop-color="#363B39"/>
<stop offset="1" stop-color="#1B1C1C"/>
</linearGradient>
<linearGradient id="paint9_linear_153_3883" x1="-559.018" y1="-47.3977" x2="-559.989" y2="-43.7764" gradientUnits="userSpaceOnUse">
<stop stop-color="#363B39"/>
<stop offset="1" stop-color="#1B1C1C"/>
</linearGradient>
<linearGradient id="paint10_linear_153_3883" x1="-511.98" y1="-81.0676" x2="-513.023" y2="-77.1775" gradientUnits="userSpaceOnUse">
<stop stop-color="#363B39"/>
<stop offset="1" stop-color="#1B1C1C"/>
</linearGradient>
<linearGradient id="paint11_linear_153_3883" x1="-524.153" y1="-35.6376" x2="-525.193" y2="-31.7559" gradientUnits="userSpaceOnUse">
<stop stop-color="#363B39"/>
<stop offset="1" stop-color="#1B1C1C"/>
</linearGradient>
<radialGradient id="paint12_radial_153_3883" cx="0" cy="0" r="1" gradientUnits="userSpaceOnUse" gradientTransform="translate(-50.7474 106.532) rotate(105) scale(8.21713 6.40633)">
<stop stop-color="white"/>
<stop offset="1" stop-color="#D2D6D5"/>
</radialGradient>
<radialGradient id="paint13_radial_153_3883" cx="0" cy="0" r="1" gradientUnits="userSpaceOnUse" gradientTransform="translate(-71.9136 185.492) rotate(105) scale(8.19578 6.3906)">
<stop stop-color="white"/>
<stop offset="1" stop-color="#D2D6D5"/>
</radialGradient>
<linearGradient id="paint14_linear_153_3883" x1="28.7301" y1="18.1354" x2="32.4737" y2="20.536" gradientUnits="userSpaceOnUse">
<stop stop-color="#D2DBDA"/>
<stop offset="1" stop-color="#B5B5B5"/>
</linearGradient>
<linearGradient id="paint15_linear_153_3883" x1="-199.166" y1="58.5769" x2="-148.31" y2="29.465" gradientUnits="userSpaceOnUse">
<stop stop-color="#D2DBDA"/>
<stop offset="1" stop-color="#B5B5B5"/>
</linearGradient>
<linearGradient id="paint16_linear_153_3883" x1="-337.126" y1="360.956" x2="-402.383" y2="399.645" gradientUnits="userSpaceOnUse">
<stop stop-color="#363B39"/>
<stop offset="1"/>
</linearGradient>
<linearGradient id="paint17_linear_153_3883" x1="23.0249" y1="17.663" x2="3.68619" y2="23.3349" gradientUnits="userSpaceOnUse">
<stop stop-color="#F7F7F7"/>
<stop offset="1" stop-color="#DBDBDB"/>
</linearGradient>
<linearGradient id="paint18_linear_153_3883" x1="-323.235" y1="525.807" x2="-397.431" y2="514" gradientUnits="userSpaceOnUse">
<stop stop-color="#F7F7F7"/>
<stop offset="1" stop-color="#DBDBDB"/>
</linearGradient>
<linearGradient id="paint19_linear_153_3883" x1="-95.1379" y1="75.5981" x2="-225.948" y2="148.576" gradientUnits="userSpaceOnUse">
<stop stop-color="#F7F7F7"/>
<stop offset="1" stop-color="#DBDBDB"/>
</linearGradient>
<linearGradient id="paint20_linear_153_3883" x1="121.725" y1="-733.915" x2="44.972" y2="-862.532" gradientUnits="userSpaceOnUse">
<stop stop-color="#F7F7F7"/>
<stop offset="1" stop-color="#DBDBDB"/>
</linearGradient>
<linearGradient id="paint21_linear_153_3883" x1="-62.1235" y1="48.899" x2="-68.5911" y2="54.1393" gradientUnits="userSpaceOnUse">
<stop stop-color="#363B39"/>
<stop offset="1" stop-color="#1B1C1C"/>
</linearGradient>
<linearGradient id="paint22_linear_153_3883" x1="-46.7819" y1="134.397" x2="-48.7902" y2="141.892" gradientUnits="userSpaceOnUse">
<stop stop-color="white"/>
<stop offset="1" stop-color="#D2D6D5"/>
</linearGradient>
<linearGradient id="paint23_linear_153_3883" x1="-37.839" y1="136.976" x2="-39.8503" y2="144.482" gradientUnits="userSpaceOnUse">
<stop stop-color="#363B39"/>
<stop offset="1" stop-color="#1B1C1C"/>
</linearGradient>
<linearGradient id="paint24_linear_153_3883" x1="-55.0687" y1="18.5873" x2="-62.3609" y2="23.4898" gradientUnits="userSpaceOnUse">
<stop stop-color="#363B39"/>
<stop offset="1" stop-color="#1B1C1C"/>
</linearGradient>
<linearGradient id="paint25_linear_153_3883" x1="26.6138" y1="14.3748" x2="26.2589" y2="15.6996" gradientUnits="userSpaceOnUse">
<stop stop-color="#D2D6D5"/>
<stop offset="1" stop-color="white"/>
</linearGradient>
<linearGradient id="paint26_linear_153_3883" x1="-15.889" y1="58.6814" x2="-17.9099" y2="66.2238" gradientUnits="userSpaceOnUse">
<stop stop-color="#363B39"/>
<stop offset="1" stop-color="#1B1C1C"/>
</linearGradient>
<linearGradient id="paint27_linear_153_3883" x1="-74.3621" y1="221.237" x2="-89.017" y2="275.93" gradientUnits="userSpaceOnUse">
<stop stop-color="#363B39"/>
<stop offset="1" stop-color="#1B1C1C"/>
</linearGradient>
<linearGradient id="paint28_linear_153_3883" x1="-401.663" y1="318.998" x2="-455.894" y2="320.771" gradientUnits="userSpaceOnUse">
<stop stop-color="#363B39"/>
<stop offset="1"/>
</linearGradient>
</defs>
</svg>
