<svg width="40" height="40" viewBox="0 0 40 40" fill="none" xmlns="http://www.w3.org/2000/svg">
<path fill-rule="evenodd" clip-rule="evenodd" d="M20 40C31.0457 40 40 31.0457 40 20C40 8.9543 31.0457 0 20 0C8.9543 0 0 8.9543 0 20C0 31.0457 8.9543 40 20 40Z" fill="white"/>
<path d="M27.6904 27.8712C28.8671 28.0445 29.5188 27.9924 30.0839 27.7427C30.0879 27.6579 30.11 27.5749 30.1487 27.4994C30.1874 27.4238 30.2419 27.3574 30.3084 27.3047L31.6604 26.2196C31.7294 26.1649 31.8088 26.1248 31.8938 26.1018C31.9787 26.0787 32.0675 26.0732 32.1547 26.0855L32.2727 25.9054L31.0199 25.5697L32.5046 20.0287L33.7574 20.3644L33.7453 20.1494C33.6636 20.1165 33.5895 20.0673 33.5274 20.0048C33.4654 19.9424 33.4167 19.868 33.3842 19.7861L32.7559 18.1704C32.7245 18.0915 32.7105 18.0068 32.7147 17.9219C32.719 17.8371 32.7414 17.7542 32.7806 17.6788C32.416 17.1801 31.8753 16.8085 30.7713 16.3732C27.8432 15.2149 22.9577 14.5286 21.791 14.216C15.5872 12.4715 11.8124 11.4053 10.3913 11.4654C10.0977 11.4949 9.82423 11.6283 9.62038 11.8417C9.63277 11.917 9.62828 11.9941 9.60724 12.0674C9.47833 12.5485 9.10166 12.6992 9.04039 13.2532C9.00678 13.6204 8.68341 13.6558 8.46642 13.6475C8.33291 13.9505 8.21103 14.2566 8.10343 14.5467C8.13203 14.5811 8.15194 14.6219 8.16146 14.6657C8.17098 14.7094 8.16985 14.7548 8.15815 14.798L7.32051 17.9241C7.30904 17.9674 7.28733 18.0072 7.25721 18.0403C7.2271 18.0735 7.18945 18.0989 7.14746 18.1144C7.1061 18.3524 7.06939 18.5917 7.03965 18.8328C7.23547 18.9202 7.53499 19.1225 7.36562 19.4757C7.13236 19.9836 7.39253 20.3049 7.26299 20.7884C7.25004 20.8482 7.22522 20.9048 7.18998 20.9548C7.15475 21.0049 7.10983 21.0473 7.05789 21.0797C7.11303 21.4219 7.29839 21.7296 7.57517 21.9382C8.77519 22.7032 12.5803 23.6655 18.8229 25.256C20.0039 25.5525 24.5825 27.4121 27.6904 27.8712Z" fill="url(#paint0_radial_153_5107)"/>
<path d="M31.0193 25.572L32.2721 25.9077C33.25 24.2243 33.7626 22.3112 33.7574 20.3644L32.5046 20.0287L31.0193 25.572Z" fill="url(#paint1_linear_153_5107)"/>
<path d="M27.5973 27.475C29.5465 27.7681 29.979 27.4182 31.1393 26.5931C32.73 25.4724 33.9356 20.9727 33.1184 19.2067C32.5158 17.9043 32.3156 17.3873 30.4832 16.6672C27.6704 15.5622 22.9602 14.9005 21.8426 14.5811C15.8723 12.9042 12.2364 11.8776 10.8703 11.9276C9.29575 11.984 8.1753 16.4816 8.1753 16.4816C8.1753 16.4816 6.89743 20.9346 8.23221 21.773C9.39026 22.4993 13.0501 23.4277 19.0612 24.9611C20.1969 25.2505 24.6082 27.0278 27.5973 27.475Z" fill="url(#paint2_radial_153_5107)"/>
<path d="M23.3788 18.1913C23.4656 17.5302 23.4667 16.8607 23.3819 16.1993L22.9489 16.1605C23.0634 16.8285 23.0773 17.5098 22.9902 18.1819C22.7596 19.6232 22.3808 21.0368 21.8599 22.4004C21.5993 23.0293 21.2457 23.6156 20.8109 24.1396L21.206 24.3202C21.6101 23.7898 21.9439 23.2094 22.1992 22.5934C22.7362 21.1684 23.1313 19.6939 23.3788 18.1913Z" fill="url(#paint3_linear_153_5107)"/>
<path d="M27.0668 16.8852C27.1748 17.5981 27.2092 18.3202 27.1695 19.0401C27.0604 20.6828 26.6302 22.2881 25.9034 23.7653C25.5778 24.4086 25.187 25.0168 24.737 25.5802C24.6656 25.6839 24.575 25.773 24.47 25.8424L24.4816 25.8455C24.5965 25.9109 24.7231 25.9533 24.8542 25.9703C24.9339 25.9518 25.0282 25.86 25.163 25.6918C25.613 25.1285 26.0038 24.5203 26.3293 23.877C27.0562 22.3998 27.4864 20.7945 27.5955 19.1518C27.6319 18.4315 27.5942 17.7093 27.4829 16.9967C27.4503 16.7837 27.4145 16.657 27.3547 16.6012C27.2326 16.5504 27.1018 16.5238 26.9696 16.5229L26.958 16.5198C27.0179 16.6333 27.0549 16.7574 27.0668 16.8852Z" fill="url(#paint4_linear_153_5107)"/>
<path d="M23.3788 18.1913C23.1309 19.6987 22.7346 21.1779 22.1955 22.6073C21.9402 23.2233 21.6063 23.8037 21.2022 24.3341L24.4675 25.8517C24.5725 25.7822 24.6631 25.6932 24.7345 25.5894C25.1845 25.0261 25.5753 24.4179 25.9009 23.7746C26.6277 22.2974 27.0578 20.6921 27.167 19.0494C27.2067 18.3295 27.1723 17.6074 27.0643 16.8945C27.0545 16.7689 27.0205 16.6465 26.9642 16.5338L23.3776 16.2155C23.4623 16.8714 23.4627 17.5354 23.3788 18.1913Z" fill="url(#paint5_linear_153_5107)"/>
<path d="M11.8819 21.5029C12.0387 21.5125 12.1968 21.5175 12.3568 21.5156C12.3568 21.5156 12.3432 21.4546 12.33 21.3365C12.2789 20.9043 12.2131 19.681 12.7412 17.71C13.0423 16.5222 13.5378 15.3924 14.2076 14.3663C14.2728 14.2717 14.311 14.2221 14.311 14.2221C14.1775 14.144 14.0427 14.0705 13.9067 14.0017C13.0474 13.5819 12.1342 13.2827 11.193 13.1126C10.7702 13.6622 10.4082 14.2559 10.1132 14.8834C9.60106 16.1526 9.24553 17.4794 9.05446 18.8346C8.9943 19.5293 9.00994 20.2284 9.1011 20.9197C9.99698 21.2404 10.9326 21.4366 11.8819 21.5029ZM9.53949 20.7432C9.43691 20.0993 9.40893 19.4456 9.45611 18.7953C9.62233 17.5326 9.95335 16.2972 10.4407 15.1207C10.7251 14.533 11.0764 13.9801 11.4875 13.473C12.2849 13.6223 13.0639 13.8569 13.8111 14.1728C13.207 15.2595 12.7433 16.4185 12.431 17.6219C12.0848 18.8167 11.9002 20.0525 11.8824 21.2963C11.084 21.1958 10.2986 21.0104 9.53949 20.7432Z" fill="url(#paint6_linear_153_5107)"/>
<path d="M13.8064 14.1716C13.0606 13.8564 12.2832 13.6222 11.4875 13.4731C11.0767 13.9794 10.7256 14.5315 10.4413 15.1184C9.95394 16.2949 9.62291 17.5303 9.45669 18.793C9.40913 19.4441 9.4369 20.0985 9.53945 20.7433C10.2985 21.0104 11.0839 21.1958 11.8824 21.2963C11.9002 20.0525 12.0847 18.8167 12.431 17.6219C12.7417 16.4183 13.2038 15.2589 13.8064 14.1716Z" fill="url(#paint7_linear_153_5107)"/>
<path d="M19.6751 14.3217L19.1961 15.0403L22.7749 15.8523L27.1743 16.224C27.1743 16.224 26.1156 15.8705 24.5549 15.5221C23.5675 15.3024 22.1883 15.0574 21.329 14.8246C20.5062 14.6041 19.9518 14.4232 19.6751 14.3217Z" fill="url(#paint8_linear_153_5107)"/>
<path d="M17.055 24.0998L16.9995 23.2379L20.5049 24.3241L24.5013 26.1996C24.5013 26.1996 23.4077 25.9763 21.8819 25.4977C20.9169 25.1943 19.6 24.7169 18.7394 24.4888C17.9154 24.273 17.3467 24.1455 17.055 24.0998Z" fill="url(#paint9_linear_153_5107)"/>
<path d="M19.3559 14.2112L18.795 14.9378L15.8097 14.235C15.4952 14.0595 15.2035 13.8458 14.9413 13.5988C14.663 13.3739 14.4134 13.1154 14.1984 12.8293C14.1984 12.8293 18.2705 13.8183 19.3559 14.2112Z" fill="url(#paint10_linear_153_5107)"/>
<path d="M16.7234 24.0358L16.5987 23.1255L13.6619 22.2414C13.3025 22.2365 12.9439 22.2759 12.5941 22.3589C12.2406 22.4145 11.8952 22.5135 11.566 22.6538C11.566 22.6538 15.5882 23.8287 16.7234 24.0358Z" fill="url(#paint11_linear_153_5107)"/>
<path d="M32.7559 18.1705L33.3842 19.7862C33.4166 19.868 33.4653 19.9424 33.5274 20.0049C33.5894 20.0673 33.6636 20.1165 33.7452 20.1494C33.7251 19.7731 33.6415 19.4029 33.4981 19.0544C33.3082 18.5724 33.0675 18.112 32.7799 17.6812C32.7412 17.7563 32.719 17.8388 32.7149 17.9232C32.7108 18.0076 32.7247 18.0919 32.7559 18.1705Z" fill="url(#paint12_radial_153_5107)"/>
<path d="M31.6598 26.2219L30.3078 27.307C30.2413 27.3597 30.1868 27.4261 30.1481 27.5017C30.1094 27.5773 30.0873 27.6603 30.0833 27.7451C30.5478 27.5158 30.9865 27.2375 31.3919 26.9149C31.6904 26.6848 31.9478 26.406 32.1534 26.0901C32.0665 26.0776 31.978 26.0828 31.8931 26.1055C31.8083 26.1281 31.7289 26.1677 31.6598 26.2219Z" fill="url(#paint13_radial_153_5107)"/>
<path d="M9.0543 13.257C9.10627 12.7005 9.49224 12.5523 9.62115 12.0712C9.64219 11.9978 9.64668 11.9208 9.63429 11.8455C9.14235 12.3718 8.75384 12.986 8.48901 13.6561C8.69608 13.6642 9.01372 13.6223 9.0543 13.257Z" fill="#93091A"/>
<path d="M7.38773 19.4767C7.55013 19.1216 7.24998 18.9216 7.06176 18.8338C6.94074 19.5781 6.94611 20.3375 7.07768 21.0801C7.12962 21.0477 7.17454 21.0053 7.20977 20.9552C7.245 20.9052 7.26983 20.8486 7.28278 20.7888C7.4007 20.3022 7.14982 19.9834 7.38773 19.4767Z" fill="#93091A"/>
<path d="M28.2033 17.8225C28.2033 17.8225 29.6273 19.183 30.2119 19.4742C30.6512 19.6941 32.1623 19.9395 32.1623 19.9395C32.1623 19.9395 30.7946 19.4659 30.3698 19.2475C29.7917 18.9506 28.2033 17.8225 28.2033 17.8225Z" fill="url(#paint14_linear_153_5107)"/>
<path d="M26.188 25.3437C26.188 25.3437 28.1108 24.8799 28.7534 24.9175C29.2438 24.9468 30.6752 25.4898 30.6752 25.4898C30.6752 25.4898 29.2538 25.216 28.7768 25.1928C28.1277 25.1609 26.188 25.3437 26.188 25.3437Z" fill="url(#paint15_linear_153_5107)"/>
<path style="mix-blend-mode:screen" d="M24.7376 25.5779C25.1876 25.0145 25.5784 24.4063 25.904 23.763C26.0796 23.4177 26.2354 23.0628 26.3707 22.6998C25.5641 21.415 23.9328 19.7124 23.2372 19.0078C22.9854 20.2283 22.6384 21.4272 22.1992 22.5934C21.9439 23.2094 21.61 23.7898 21.2059 24.3202L24.4712 25.8378C24.5758 25.7689 24.6662 25.6807 24.7376 25.5779Z" fill="url(#paint16_linear_153_5107)"/>
<path d="M22.1509 20.2264C22.9914 17.3502 22.7218 16.2366 22.7218 16.2366C22.7218 16.2366 15.7002 14.3926 14.9438 14.4265C14.4391 14.4507 13.734 16.2173 13.3379 17.3518L13.0819 18.307C12.8565 19.4922 12.5781 21.3681 13.01 21.6433C13.645 22.0625 20.651 23.9647 20.651 23.9647C20.651 23.9647 21.4406 23.1375 22.1509 20.2264Z" fill="url(#paint17_linear_153_5107)"/>
<path d="M8.28653 17.052C7.62191 19.8857 8.08594 21.3427 8.08594 21.3427L8.90416 20.9666C8.39121 18.9484 9.19564 16.755 9.19564 16.755C9.19564 16.755 9.59798 14.4539 11.049 12.9619L10.5285 12.2271C10.5285 12.2271 9.39807 13.2569 8.55681 16.0433C8.51758 16.1897 8.42167 16.5476 8.42167 16.5476C8.35666 16.7345 8.32576 16.9056 8.28653 17.052Z" fill="url(#paint18_linear_153_5107)"/>
<path d="M33.1594 19.7234C33.1594 19.7234 32.7456 17.7442 30.8401 17.0368C29.8719 16.661 28.884 16.3381 27.8808 16.0695C27.8808 16.0695 32.4993 17.9473 33.1594 19.7234Z" fill="url(#paint19_linear_153_5107)"/>
<path d="M31.4305 26.1754C31.4305 26.1754 30.0825 27.6826 28.0787 27.3424C27.0517 27.1829 26.0341 26.9676 25.0305 26.6976C25.0305 26.6976 29.9708 27.3836 31.4305 26.1754Z" fill="url(#paint20_linear_153_5107)"/>
<path d="M24.2491 26.0996C24.2491 26.0996 24.04 26.5269 23.6597 26.4399C23.2794 26.353 22.6184 25.6776 23.1102 25.7945C23.4965 25.8696 23.877 25.9715 24.2491 26.0996Z" fill="url(#paint21_linear_153_5107)"/>
<path d="M22.9797 27.4435C23.1413 27.3797 23.666 26.5462 23.666 26.5462C23.7721 26.3829 23.6284 26.287 23.504 26.2213L22.7572 27.4187C22.79 27.4393 22.8271 27.4523 22.8656 27.4566C22.9041 27.4609 22.9431 27.4564 22.9797 27.4435Z" fill="url(#paint22_linear_153_5107)"/>
<path d="M23.5017 26.2207C23.4481 26.2011 23.3929 26.1863 23.3367 26.1765L22.6751 27.3718C22.6993 27.3937 22.726 27.4125 22.7547 27.428L23.5017 26.2207Z" fill="url(#paint23_linear_153_5107)"/>
<path d="M26.932 16.189C26.932 16.189 26.9726 15.6842 26.5992 15.5717C26.2258 15.4592 25.3082 15.7414 25.7908 15.8832C26.1632 16.0131 26.5446 16.1154 26.932 16.189Z" fill="url(#paint24_linear_153_5107)"/>
<path d="M26.6498 15.513C26.6498 15.513 26.6098 14.5282 26.5041 14.3928C26.4763 14.3611 26.4415 14.3364 26.4024 14.3207C26.3633 14.3051 26.3211 14.2989 26.2791 14.3026L26.3331 15.7096C26.4728 15.7272 26.6627 15.7158 26.6498 15.513Z" fill="url(#paint25_linear_153_5107)"/>
<path d="M26.2797 14.3003C26.2537 14.3008 26.2279 14.3039 26.2025 14.3095L26.1747 15.6871C26.2238 15.7047 26.2744 15.7182 26.3257 15.7276L26.2797 14.3003Z" fill="url(#paint26_linear_153_5107)"/>
<path d="M21.9691 14.2762C21.9777 14.2442 21.9732 14.21 21.9566 14.1813C21.94 14.1525 21.9127 14.1316 21.8807 14.123L20.8836 13.8558C20.8515 13.8472 20.8174 13.8517 20.7886 13.8683C20.7599 13.8849 20.7389 13.9122 20.7303 13.9443L21.9691 14.2762Z" fill="#595959"/>
<path d="M16.9998 12.8799C17.0084 12.8479 17.0039 12.8137 16.9873 12.785C16.9707 12.7562 16.9434 12.7353 16.9113 12.7267L15.9166 12.4601C15.8845 12.4515 15.8504 12.456 15.8216 12.4726C15.7929 12.4892 15.7719 12.5166 15.7633 12.5486L16.9998 12.8799Z" fill="#595959"/>
<path d="M19.0184 25.2885C19.0098 25.3205 18.9888 25.3478 18.9601 25.3644C18.9313 25.381 18.8972 25.3855 18.8651 25.3769L17.868 25.1098C17.836 25.1012 17.8086 25.0802 17.7921 25.0515C17.7755 25.0227 17.771 24.9886 17.7796 24.9565L19.0184 25.2885Z" fill="#595959"/>
<path d="M14.0167 24.013C14.0076 24.0428 13.9876 24.0681 13.9608 24.0839C13.934 24.0998 13.9022 24.105 13.8717 24.0987L12.8769 23.8322C12.8449 23.8236 12.8175 23.8026 12.801 23.7739C12.7844 23.7451 12.7799 23.711 12.7885 23.6789L14.0167 24.013Z" fill="#595959"/>
<path d="M28.2584 19.0579C28.2229 19.2551 28.306 19.382 28.2683 19.5787C28.2668 19.5864 28.2684 19.5945 28.2726 19.6011C28.2768 19.6078 28.2834 19.6126 28.291 19.6147C28.2947 19.616 28.2986 19.6166 28.3025 19.6162C28.3064 19.6159 28.3101 19.6147 28.3135 19.6128C28.3169 19.6108 28.3198 19.6082 28.322 19.605C28.3242 19.6018 28.3257 19.5981 28.3264 19.5942C28.3618 19.397 28.2787 19.2701 28.3165 19.0734C28.3179 19.0657 28.3164 19.0577 28.3122 19.051C28.3079 19.0443 28.3013 19.0395 28.2937 19.0375C28.2863 19.0355 28.2784 19.0365 28.2718 19.0403C28.2652 19.0442 28.2603 19.0505 28.2584 19.0579Z" fill="#9E9E9E"/>
<path d="M28.2125 19.5637C28.2479 19.3665 28.1648 19.2396 28.2026 19.0429C28.204 19.0352 28.2025 19.0271 28.1983 19.0205C28.194 19.0138 28.1875 19.009 28.1798 19.0069C28.1762 19.0056 28.1723 19.005 28.1684 19.0053C28.1645 19.0057 28.1607 19.0069 28.1573 19.0088C28.1539 19.0108 28.151 19.0134 28.1488 19.0166C28.1466 19.0198 28.1451 19.0235 28.1445 19.0273C28.109 19.2246 28.1921 19.3515 28.1544 19.5482C28.1529 19.5559 28.1545 19.5639 28.1587 19.5706C28.1629 19.5773 28.1695 19.5821 28.1771 19.5841C28.1808 19.5855 28.1847 19.586 28.1886 19.5857C28.1925 19.5854 28.1962 19.5842 28.1996 19.5823C28.203 19.5803 28.2059 19.5776 28.2081 19.5744C28.2103 19.5712 28.2118 19.5676 28.2125 19.5637Z" fill="#9E9E9E"/>
<path d="M28.0986 19.5332C28.134 19.336 28.0509 19.2091 28.0887 19.0124C28.0901 19.0047 28.0886 18.9966 28.0844 18.99C28.0802 18.9833 28.0736 18.9785 28.0659 18.9764C28.0585 18.9745 28.0507 18.9755 28.044 18.9793C28.0374 18.9831 28.0325 18.9895 28.0306 18.9969C27.9951 19.1941 28.0782 19.321 28.0405 19.5177C28.039 19.5254 28.0406 19.5334 28.0448 19.5401C28.049 19.5468 28.0556 19.5516 28.0632 19.5536C28.0669 19.555 28.0708 19.5555 28.0747 19.5552C28.0786 19.5549 28.0823 19.5537 28.0857 19.5518C28.0891 19.5498 28.092 19.5471 28.0942 19.5439C28.0965 19.5407 28.0979 19.5371 28.0986 19.5332Z" fill="#9E9E9E"/>
<path d="M26.8577 24.2851C26.9257 24.0965 27.0611 24.0282 27.1267 23.839C27.1293 23.8315 27.1347 23.8254 27.1417 23.8217C27.1487 23.818 27.1568 23.8171 27.1644 23.8192C27.1683 23.8198 27.1719 23.8213 27.1751 23.8236C27.1783 23.8258 27.181 23.8287 27.1829 23.8321C27.1849 23.8354 27.1861 23.8392 27.1864 23.8431C27.1867 23.847 27.1862 23.8509 27.1848 23.8546C27.1169 24.0431 26.9815 24.1115 26.9158 24.3006C26.9132 24.3081 26.9079 24.3143 26.9009 24.3179C26.8939 24.3216 26.8858 24.3225 26.8781 24.3204C26.8707 24.3184 26.8644 24.3136 26.8606 24.307C26.8568 24.3003 26.8557 24.2925 26.8577 24.2851Z" fill="#9E9E9E"/>
<path d="M27.0703 23.8263C27.0024 24.0149 26.867 24.0832 26.8014 24.2724C26.7987 24.2799 26.7934 24.286 26.7864 24.2897C26.7794 24.2934 26.7713 24.2943 26.7637 24.2922C26.7598 24.2916 26.7562 24.2901 26.753 24.2878C26.7497 24.2856 26.7471 24.2827 26.7451 24.2793C26.7432 24.276 26.742 24.2722 26.7417 24.2683C26.7413 24.2644 26.7419 24.2605 26.7432 24.2568C26.8112 24.0683 26.9466 23.9999 27.0122 23.8108C27.0149 23.8033 27.0202 23.7971 27.0272 23.7935C27.0342 23.7898 27.0423 23.7889 27.0499 23.791C27.0573 23.793 27.0636 23.7978 27.0675 23.8044C27.0713 23.8111 27.0723 23.8189 27.0703 23.8263Z" fill="#9E9E9E"/>
<path d="M26.9564 23.7958C26.8885 23.9844 26.7531 24.0527 26.6874 24.2419C26.6848 24.2494 26.6795 24.2555 26.6725 24.2592C26.6655 24.2629 26.6574 24.2638 26.6497 24.2617C26.6424 24.2597 26.636 24.2549 26.6322 24.2483C26.6284 24.2416 26.6273 24.2337 26.6293 24.2263C26.6973 24.0378 26.8327 23.9695 26.8983 23.7803C26.9009 23.7728 26.9063 23.7666 26.9133 23.763C26.9203 23.7593 26.9284 23.7584 26.936 23.7605C26.9399 23.7611 26.9435 23.7626 26.9467 23.7648C26.9499 23.7671 26.9526 23.77 26.9546 23.7734C26.9565 23.7767 26.9577 23.7805 26.958 23.7844C26.9583 23.7883 26.9578 23.7922 26.9564 23.7958Z" fill="#9E9E9E"/>
<path d="M7.32978 17.9266L8.16679 14.8028C8.17849 14.7596 8.17962 14.7142 8.1701 14.6705C8.16057 14.6267 8.14067 14.5859 8.11206 14.5515C7.76093 15.5087 7.56002 16.3143 7.55939 16.3166C7.55877 16.3189 7.33059 17.1147 7.15672 18.1169C7.19871 18.1014 7.23636 18.076 7.26647 18.0429C7.29659 18.0097 7.3183 17.9699 7.32978 17.9266Z" fill="url(#paint27_linear_153_5107)"/>
<path style="mix-blend-mode:screen" d="M11.8824 21.2963C11.9002 20.0525 12.0847 18.8167 12.431 17.6219C12.5281 17.2593 12.6294 16.9277 12.7388 16.6033C12.5467 15.4607 11.2758 14.4675 10.9497 14.2157C10.7625 14.5065 10.592 14.8076 10.439 15.1177C9.95162 16.2943 9.6206 17.5297 9.45437 18.7923C9.40753 19.4437 9.43608 20.0984 9.53946 20.7432C10.2985 21.0104 11.084 21.1958 11.8824 21.2963Z" fill="url(#paint28_linear_153_5107)"/>
<defs>
<radialGradient id="paint0_radial_153_5107" cx="0" cy="0" r="1" gradientUnits="userSpaceOnUse" gradientTransform="translate(17.7273 19.041) rotate(105) scale(7.49538 15.5904)">
<stop stop-color="#F7F7F7"/>
<stop offset="1" stop-color="#A8ABAA"/>
</radialGradient>
<linearGradient id="paint1_linear_153_5107" x1="-92.4119" y1="317.012" x2="-127.837" y2="449.219" gradientUnits="userSpaceOnUse">
<stop stop-color="#525956"/>
<stop offset="1" stop-color="#2C2E2E"/>
</linearGradient>
<radialGradient id="paint2_radial_153_5107" cx="0" cy="0" r="1" gradientUnits="userSpaceOnUse" gradientTransform="translate(545382 146940) rotate(105) scale(284.02 2461.58)">
<stop stop-color="white"/>
<stop offset="1" stop-color="#D2D6D5"/>
</radialGradient>
<linearGradient id="paint3_linear_153_5107" x1="-157.146" y1="403.806" x2="-233.132" y2="687.387" gradientUnits="userSpaceOnUse">
<stop/>
<stop offset="1" stop-color="#1B1C1C"/>
</linearGradient>
<linearGradient id="paint4_linear_153_5107" x1="-169.825" y1="439.786" x2="-271.482" y2="819.177" gradientUnits="userSpaceOnUse">
<stop/>
<stop offset="1" stop-color="#1B1C1C"/>
</linearGradient>
<linearGradient id="paint5_linear_153_5107" x1="-366.709" y1="385.524" x2="-466.777" y2="758.984" gradientUnits="userSpaceOnUse">
<stop stop-color="#363B39"/>
<stop offset="1" stop-color="#1B1C1C"/>
</linearGradient>
<linearGradient id="paint6_linear_153_5107" x1="-549.963" y1="289.735" x2="-621.541" y2="556.867" gradientUnits="userSpaceOnUse">
<stop/>
<stop offset="1" stop-color="#1B1C1C"/>
</linearGradient>
<linearGradient id="paint7_linear_153_5107" x1="-446.055" y1="297.793" x2="-508.057" y2="529.186" gradientUnits="userSpaceOnUse">
<stop stop-color="#363B39"/>
<stop offset="1" stop-color="#1B1C1C"/>
</linearGradient>
<linearGradient id="paint8_linear_153_5107" x1="-546.967" y1="-92.3729" x2="-547.94" y2="-88.7425" gradientUnits="userSpaceOnUse">
<stop stop-color="#363B39"/>
<stop offset="1" stop-color="#1B1C1C"/>
</linearGradient>
<linearGradient id="paint9_linear_153_5107" x1="-559.018" y1="-47.3977" x2="-559.989" y2="-43.7764" gradientUnits="userSpaceOnUse">
<stop stop-color="#363B39"/>
<stop offset="1" stop-color="#1B1C1C"/>
</linearGradient>
<linearGradient id="paint10_linear_153_5107" x1="-511.981" y1="-81.0676" x2="-513.023" y2="-77.1775" gradientUnits="userSpaceOnUse">
<stop stop-color="#363B39"/>
<stop offset="1" stop-color="#1B1C1C"/>
</linearGradient>
<linearGradient id="paint11_linear_153_5107" x1="-524.154" y1="-35.6376" x2="-525.194" y2="-31.7559" gradientUnits="userSpaceOnUse">
<stop stop-color="#363B39"/>
<stop offset="1" stop-color="#1B1C1C"/>
</linearGradient>
<radialGradient id="paint12_radial_153_5107" cx="0" cy="0" r="1" gradientUnits="userSpaceOnUse" gradientTransform="translate(-50.7476 106.532) rotate(105) scale(8.21713 6.40633)">
<stop stop-color="white"/>
<stop offset="1" stop-color="#D2D6D5"/>
</radialGradient>
<radialGradient id="paint13_radial_153_5107" cx="0" cy="0" r="1" gradientUnits="userSpaceOnUse" gradientTransform="translate(-71.914 185.492) rotate(105) scale(8.19578 6.3906)">
<stop stop-color="white"/>
<stop offset="1" stop-color="#D2D6D5"/>
</radialGradient>
<linearGradient id="paint14_linear_153_5107" x1="28.7297" y1="18.1354" x2="32.4733" y2="20.536" gradientUnits="userSpaceOnUse">
<stop stop-color="#D2DBDA"/>
<stop offset="1" stop-color="#B5B5B5"/>
</linearGradient>
<linearGradient id="paint15_linear_153_5107" x1="-199.166" y1="58.5769" x2="-148.31" y2="29.465" gradientUnits="userSpaceOnUse">
<stop stop-color="#D2DBDA"/>
<stop offset="1" stop-color="#B5B5B5"/>
</linearGradient>
<linearGradient id="paint16_linear_153_5107" x1="-337.126" y1="360.956" x2="-402.383" y2="399.645" gradientUnits="userSpaceOnUse">
<stop stop-color="#363B39"/>
<stop offset="1"/>
</linearGradient>
<linearGradient id="paint17_linear_153_5107" x1="23.0246" y1="17.663" x2="3.68595" y2="23.3349" gradientUnits="userSpaceOnUse">
<stop stop-color="#F7F7F7"/>
<stop offset="1" stop-color="#DBDBDB"/>
</linearGradient>
<linearGradient id="paint18_linear_153_5107" x1="-323.235" y1="525.807" x2="-397.431" y2="514" gradientUnits="userSpaceOnUse">
<stop stop-color="#F7F7F7"/>
<stop offset="1" stop-color="#DBDBDB"/>
</linearGradient>
<linearGradient id="paint19_linear_153_5107" x1="-95.1384" y1="75.5981" x2="-225.948" y2="148.576" gradientUnits="userSpaceOnUse">
<stop stop-color="#F7F7F7"/>
<stop offset="1" stop-color="#DBDBDB"/>
</linearGradient>
<linearGradient id="paint20_linear_153_5107" x1="121.725" y1="-733.915" x2="44.9719" y2="-862.532" gradientUnits="userSpaceOnUse">
<stop stop-color="#F7F7F7"/>
<stop offset="1" stop-color="#DBDBDB"/>
</linearGradient>
<linearGradient id="paint21_linear_153_5107" x1="-62.124" y1="48.899" x2="-68.5916" y2="54.1393" gradientUnits="userSpaceOnUse">
<stop stop-color="#363B39"/>
<stop offset="1" stop-color="#1B1C1C"/>
</linearGradient>
<linearGradient id="paint22_linear_153_5107" x1="-46.7822" y1="134.397" x2="-48.7904" y2="141.892" gradientUnits="userSpaceOnUse">
<stop stop-color="white"/>
<stop offset="1" stop-color="#D2D6D5"/>
</linearGradient>
<linearGradient id="paint23_linear_153_5107" x1="-37.8393" y1="136.976" x2="-39.8505" y2="144.482" gradientUnits="userSpaceOnUse">
<stop stop-color="#363B39"/>
<stop offset="1" stop-color="#1B1C1C"/>
</linearGradient>
<linearGradient id="paint24_linear_153_5107" x1="-55.069" y1="18.5873" x2="-62.3612" y2="23.4899" gradientUnits="userSpaceOnUse">
<stop stop-color="#363B39"/>
<stop offset="1" stop-color="#1B1C1C"/>
</linearGradient>
<linearGradient id="paint25_linear_153_5107" x1="26.6135" y1="14.3748" x2="26.2585" y2="15.6996" gradientUnits="userSpaceOnUse">
<stop stop-color="#D2D6D5"/>
<stop offset="1" stop-color="white"/>
</linearGradient>
<linearGradient id="paint26_linear_153_5107" x1="-15.8892" y1="58.6814" x2="-17.9102" y2="66.2238" gradientUnits="userSpaceOnUse">
<stop stop-color="#363B39"/>
<stop offset="1" stop-color="#1B1C1C"/>
</linearGradient>
<linearGradient id="paint27_linear_153_5107" x1="-74.3623" y1="221.237" x2="-89.0171" y2="275.93" gradientUnits="userSpaceOnUse">
<stop stop-color="#363B39"/>
<stop offset="1" stop-color="#1B1C1C"/>
</linearGradient>
<linearGradient id="paint28_linear_153_5107" x1="-401.663" y1="318.998" x2="-455.894" y2="320.771" gradientUnits="userSpaceOnUse">
<stop stop-color="#363B39"/>
<stop offset="1"/>
</linearGradient>
</defs>
</svg>
