<svg width="28" height="28" viewBox="0 0 28 28" fill="none" xmlns="http://www.w3.org/2000/svg">
<path fill-rule="evenodd" clip-rule="evenodd" d="M14 28C21.732 28 28 21.732 28 14C28 6.26801 21.732 0 14 0C6.26801 0 0 6.26801 0 14C0 21.732 6.26801 28 14 28Z" fill="white"/>
<path d="M9.01388 16.5204C8.74807 17.1353 8.68141 17.4974 8.73484 17.8412C8.78041 17.8558 8.82234 17.8799 8.8578 17.9119C8.89326 17.944 8.92144 17.9833 8.94043 18.0272L9.33366 18.9209C9.35335 18.9664 9.36358 19.0154 9.36373 19.065C9.36389 19.1146 9.35396 19.1637 9.33456 19.2093L9.41534 19.2998L9.78057 18.6672L12.5785 20.2826L12.2133 20.9152L12.332 20.9399C12.3618 20.9003 12.3994 20.8671 12.4424 20.8425C12.4854 20.8178 12.533 20.8022 12.5823 20.7965L13.5528 20.6902C13.6003 20.6846 13.6485 20.6893 13.694 20.704C13.7395 20.7186 13.7814 20.7429 13.8167 20.7752C14.1411 20.6496 14.4221 20.4096 14.8198 19.8725C15.8767 18.4484 16.9622 15.8907 17.3024 15.3015C19.1557 12.1809 20.286 10.2828 20.4605 9.50093C20.4872 9.33688 20.4545 9.16867 20.3681 9.02666C20.3254 9.02243 20.2841 9.00876 20.2473 8.98662C20.0043 8.84636 19.9773 8.61949 19.6848 8.50539C19.4899 8.43359 19.5178 8.25251 19.554 8.13568C19.4086 8.01888 19.2598 7.90795 19.1177 7.80713C19.0948 7.81768 19.0697 7.82256 19.0445 7.82136C19.0193 7.82017 18.9948 7.81293 18.973 7.80027L17.3945 6.8889C17.3726 6.87635 17.3541 6.85873 17.3405 6.83752C17.3268 6.81631 17.3185 6.79213 17.3162 6.76703C17.1927 6.70983 17.0679 6.65498 16.9411 6.60365C16.865 6.69744 16.7113 6.8309 16.5438 6.68727C16.3015 6.48633 16.0888 6.58103 15.8447 6.44009C15.814 6.42432 15.7868 6.40257 15.7647 6.37611C15.7427 6.34965 15.7261 6.31902 15.7161 6.28605C15.5219 6.26616 15.3275 6.32215 15.1736 6.44231C14.5825 6.98363 13.5044 8.9134 11.7292 12.0776C11.3957 12.6768 9.71667 14.8966 9.01388 16.5204Z" fill="url(#paint0_radial_153_5327)"/>
<path d="M9.77931 18.6666L9.41408 19.2992C10.1873 20.0765 11.1534 20.6343 12.2132 20.9152L12.5784 20.2826L9.77931 18.6666Z" fill="url(#paint1_linear_153_5327)"/>
<path d="M9.24292 16.5275C8.79933 17.5452 8.92665 17.8315 9.20637 18.5829C9.5842 19.6117 11.8563 20.9235 12.9362 20.7363C13.7325 20.5983 14.043 20.5648 14.7018 19.6729C15.713 18.3038 16.7596 15.8378 17.0962 15.2764C18.8788 12.273 19.9672 10.4446 20.1392 9.69414C20.338 8.82935 18.0546 7.56421 18.0546 7.56421C18.0546 7.56421 15.8184 6.21993 15.1677 6.82385C14.6038 7.34797 13.5653 9.20363 11.8548 12.2503C11.5318 12.8259 9.9219 14.9666 9.24292 16.5275Z" fill="url(#paint2_radial_153_5327)"/>
<path d="M14.9083 15.5858C15.2553 15.7294 15.6194 15.8276 15.9916 15.8779L16.0758 15.648C15.6957 15.6129 15.323 15.5212 14.9701 15.3758C14.2197 15.0402 13.5058 14.6281 12.84 14.146C12.5358 13.9125 12.2684 13.6347 12.0467 13.3218L11.8909 13.5104C12.1205 13.8075 12.3876 14.0738 12.6855 14.3024C13.3824 14.8023 14.127 15.2321 14.9083 15.5858Z" fill="url(#paint3_linear_153_5327)"/>
<path d="M15.0812 17.7826C14.6777 17.7374 14.2798 17.6509 13.894 17.5243C13.0162 17.2255 12.2056 16.7575 11.508 16.1468C11.2054 15.8759 10.9316 15.5746 10.6907 15.2477C10.6446 15.1938 10.6094 15.1315 10.5869 15.0642L10.5835 15.0701C10.5312 15.1231 10.4897 15.1858 10.4614 15.2546C10.4598 15.3007 10.496 15.3654 10.5678 15.4632C10.8087 15.7901 11.0826 16.0914 11.3851 16.3622C12.0828 16.973 12.8934 17.441 13.7711 17.7398C14.1577 17.8646 14.556 17.9494 14.9599 17.9927C15.0806 18.006 15.1547 18.005 15.1938 17.9806C15.2392 17.9216 15.2727 17.8543 15.2925 17.7825L15.2959 17.7767C15.2254 17.7927 15.1525 17.7947 15.0812 17.7826Z" fill="url(#paint4_linear_153_5327)"/>
<path d="M14.9083 15.5859C14.1244 15.2313 13.3775 14.8001 12.6784 14.2985C12.3806 14.0698 12.1135 13.8035 11.8839 13.5064L10.5823 15.0615C10.6048 15.1288 10.64 15.1911 10.686 15.245C10.9269 15.5719 11.2008 15.8732 11.5033 16.1441C12.201 16.7548 13.0116 17.2228 13.8893 17.5216C14.2752 17.6482 14.673 17.7347 15.0766 17.7799C15.1463 17.7929 15.2179 17.7922 15.2874 17.778L15.9833 15.8732C15.6142 15.8237 15.2529 15.7272 14.9083 15.5859Z" fill="url(#paint5_linear_153_5327)"/>
<path d="M14.7826 8.84856C14.7544 8.93248 14.7287 9.01776 14.7064 9.10507C14.7064 9.10507 14.7416 9.10657 14.8078 9.11661C15.0503 9.15181 15.7254 9.29434 16.7207 9.86894C17.323 10.2059 17.8654 10.6401 18.3259 11.1541C18.3679 11.2034 18.3893 11.2314 18.3893 11.2314C18.4513 11.1701 18.5109 11.1075 18.5681 11.0436C18.9218 10.6373 19.2177 10.1841 19.4474 9.69685C19.21 9.38674 18.9398 9.10323 18.6414 8.85129C18.0257 8.38769 17.3557 8.00086 16.6463 7.69937C16.2771 7.56539 15.8945 7.47198 15.5052 7.42081C15.2001 7.86143 14.957 8.34183 14.7826 8.84856ZM15.5373 7.68502C15.9025 7.72309 16.2622 7.80315 16.6091 7.92361C17.2718 8.19809 17.8956 8.55825 18.4646 8.99489C18.7429 9.23525 18.9925 9.50694 19.2084 9.80454C19.0109 10.2166 18.7698 10.6061 18.489 10.9666C17.9859 10.4795 17.423 10.0583 16.8138 9.71303C16.2143 9.35051 15.5689 9.06999 14.8949 8.87898C15.0659 8.45927 15.2813 8.05902 15.5373 7.68502Z" fill="url(#paint6_linear_153_5327)"/>
<path d="M18.4904 10.9643C18.7706 10.6045 19.0113 10.2157 19.2085 9.8046C18.9929 9.5073 18.7437 9.23585 18.4659 8.99563C17.8969 8.55899 17.2731 8.19883 16.6104 7.92435C16.2631 7.80357 15.9031 7.72328 15.5374 7.68508C15.2814 8.05908 15.066 8.45934 14.895 8.87904C15.569 9.07005 16.2144 9.35057 16.8139 9.71309C17.4234 10.0576 17.9868 10.478 18.4904 10.9643Z" fill="url(#paint7_linear_153_5327)"/>
<path d="M17.5533 14.1352L17.2322 13.7699L16.2688 15.5985L15.4253 17.9376C15.4253 17.9376 15.7719 17.4132 16.189 16.6149C16.4525 16.1098 16.7868 15.3952 17.0387 14.9616C17.2785 14.5462 17.4578 14.271 17.5533 14.1352Z" fill="url(#paint8_linear_153_5327)"/>
<path d="M12.6158 11.2845L13.0927 11.3799L11.9908 13.1286L10.388 15.0293C10.388 15.0293 10.6689 14.4669 11.1517 13.7066C11.4574 13.2259 11.9091 12.579 12.1586 12.1441C12.3961 11.7273 12.5484 11.4365 12.6158 11.2845Z" fill="url(#paint9_linear_153_5327)"/>
<path d="M17.6597 13.9776L17.3462 13.5666L18.1637 12.045C18.305 11.8995 18.4638 11.772 18.6364 11.6653C18.7993 11.5467 18.9763 11.4486 19.1633 11.3733C19.1633 11.3733 18.0317 13.4444 17.6597 13.9776Z" fill="url(#paint10_linear_153_5327)"/>
<path d="M12.6989 11.1135L13.2123 11.1783L14.1213 9.70953C14.1763 9.51473 14.2072 9.31388 14.213 9.11153C14.2343 8.91109 14.2308 8.70878 14.2024 8.50921C14.2024 8.50921 12.977 10.5261 12.6989 11.1135Z" fill="url(#paint11_linear_153_5327)"/>
<path d="M13.5528 20.6902L12.5822 20.7964C12.533 20.8021 12.4854 20.8178 12.4424 20.8425C12.3994 20.8671 12.3618 20.9003 12.332 20.9399C12.5397 20.9838 12.7532 20.9923 12.9637 20.9651C13.2536 20.9321 13.5392 20.8682 13.8155 20.7745C13.7802 20.7425 13.7386 20.7184 13.6933 20.7039C13.648 20.6893 13.6001 20.6847 13.5528 20.6902Z" fill="url(#paint12_radial_153_5327)"/>
<path d="M9.33244 18.9202L8.93922 18.0265C8.92022 17.9826 8.89205 17.9433 8.85658 17.9112C8.82112 17.8792 8.77919 17.855 8.73363 17.8405C8.79066 18.1267 8.87811 18.4059 8.9945 18.6734C9.07616 18.8693 9.19032 19.05 9.33217 19.2079C9.35166 19.1625 9.36174 19.1135 9.36178 19.0641C9.36183 19.0146 9.35185 18.9657 9.33244 18.9202Z" fill="url(#paint13_radial_153_5327)"/>
<path d="M19.6805 8.51244C19.9757 8.62183 20 8.85341 20.243 8.99367C20.2798 9.0158 20.3211 9.02948 20.3638 9.03371C20.1492 8.68936 19.8717 8.38848 19.5458 8.14674C19.5112 8.2582 19.4877 8.43711 19.6805 8.51244Z" fill="#93091A"/>
<path d="M16.5398 6.69918C16.7093 6.83928 16.8619 6.70515 16.9371 6.61556C16.5498 6.44122 16.1359 6.33345 15.7128 6.29678C15.7228 6.32976 15.7394 6.36038 15.7614 6.38684C15.7835 6.4133 15.8107 6.43506 15.8413 6.45082C16.0889 6.58589 16.2989 6.49589 16.5398 6.69918Z" fill="#93091A"/>
<path d="M14.4055 18.2642C14.4055 18.2642 13.4578 18.8406 13.2141 19.1162C13.0305 19.3232 12.6767 20.1094 12.6767 20.1094C12.6767 20.1094 13.1337 19.4344 13.3145 19.2352C13.5602 18.9639 14.4055 18.2642 14.4055 18.2642Z" fill="url(#paint14_linear_153_5327)"/>
<path d="M10.6078 16.0716C10.6078 16.0716 10.5798 17.1853 10.4656 17.5293C10.3782 17.7918 9.87418 18.4914 9.87418 18.4914C9.87418 18.4914 10.2303 17.7581 10.3124 17.5019C10.4244 17.1535 10.6078 16.0716 10.6078 16.0716Z" fill="url(#paint15_linear_153_5327)"/>
<path style="mix-blend-mode:screen" d="M10.6917 15.2484C10.9326 15.5753 11.2065 15.8766 11.509 16.1475C11.6712 16.2934 11.8416 16.4299 12.0194 16.5564C12.8359 16.3049 13.9999 15.6656 14.4846 15.3899C13.8573 15.075 13.2557 14.7115 12.6853 14.3025C12.3874 14.0739 12.1204 13.8076 11.8907 13.5105L10.5892 15.0656C10.6114 15.1325 10.6462 15.1946 10.6917 15.2484Z" fill="url(#paint16_linear_153_5327)"/>
<path d="M13.9801 14.6213C15.4223 15.4978 16.0674 15.5134 16.0674 15.5134C16.0674 15.5134 18.0941 11.9624 18.1858 11.546C18.2462 11.2679 17.388 10.6268 16.8286 10.246L16.3462 9.96746C15.7343 9.67209 14.7544 9.24716 14.5417 9.44204C14.2211 9.72637 12.165 13.2604 12.165 13.2604C12.165 13.2604 12.4999 13.8106 13.9801 14.6213Z" fill="url(#paint17_linear_153_5327)"/>
<path d="M17.728 7.54179C16.2834 6.76717 15.4231 6.80721 15.4231 6.80721L15.5084 7.30717C16.6811 7.3223 17.7571 8.07964 17.7571 8.07964C17.7571 8.07964 18.9502 8.63395 19.5504 9.6408L20.026 9.46474C20.026 9.46474 19.6306 8.69968 18.2374 7.83586C18.1634 7.79318 17.9827 7.68883 17.9827 7.68883C17.8905 7.62622 17.802 7.58448 17.728 7.54179Z" fill="url(#paint18_linear_153_5327)"/>
<path d="M12.649 20.6834C12.649 20.6834 13.786 20.7468 14.4486 19.8133C14.7941 19.3414 15.1138 18.851 15.4062 18.3444C15.4062 18.3444 13.7114 20.5832 12.649 20.6834Z" fill="url(#paint19_linear_153_5327)"/>
<path d="M9.39101 18.8024C9.39101 18.8024 8.76759 17.8494 9.24473 16.8089C9.48124 16.2734 9.74668 15.7512 10.0399 15.2446C10.0399 15.2446 8.94652 17.8322 9.39101 18.8024Z" fill="url(#paint20_linear_153_5327)"/>
<path d="M10.4792 14.9067C10.4792 14.9067 10.2773 14.7306 10.38 14.5364C10.4828 14.3422 10.9465 14.0811 10.8113 14.3316C10.7141 14.5308 10.6032 14.7229 10.4792 14.9067Z" fill="url(#paint21_linear_153_5327)"/>
<path d="M9.93324 14.02C9.94441 14.1173 10.3213 14.5242 10.3213 14.5242C10.3947 14.6057 10.4678 14.5415 10.5217 14.4834L9.97915 13.9026C9.96315 13.9174 9.95071 13.9357 9.94276 13.9561C9.93481 13.9764 9.93156 13.9983 9.93324 14.02Z" fill="url(#paint22_linear_153_5327)"/>
<path d="M10.5223 14.4825C10.5408 14.4562 10.5569 14.4283 10.5704 14.3992L10.0166 13.865C10.0011 13.875 9.98698 13.8868 9.97438 13.9002L10.5223 14.4825Z" fill="url(#paint23_linear_153_5327)"/>
<path d="M15.4796 17.8107C15.4796 17.8107 15.7482 17.9064 15.8639 17.7197C15.9795 17.5329 15.9597 16.9926 15.8123 17.2345C15.6873 17.4181 15.5761 17.6107 15.4796 17.8107Z" fill="url(#paint24_linear_153_5327)"/>
<path d="M15.8885 17.7557C15.8885 17.7557 16.4301 17.8774 16.5192 17.8397C16.5405 17.8292 16.559 17.8139 16.5732 17.7949C16.5874 17.7759 16.597 17.7538 16.601 17.7305L15.8277 17.5547C15.7978 17.6282 15.7763 17.7332 15.8885 17.7557Z" fill="url(#paint25_linear_153_5327)"/>
<path d="M16.6021 17.7311C16.6055 17.7169 16.6076 17.7024 16.6083 17.6878L15.8629 17.4718C15.8462 17.496 15.8315 17.5215 15.8189 17.5481L16.6021 17.7311Z" fill="url(#paint26_linear_153_5327)"/>
<path d="M17.2434 15.3898C17.2596 15.3991 17.2788 15.4017 17.2969 15.3968C17.3149 15.392 17.3303 15.3802 17.3397 15.364L17.6304 14.8605C17.6397 14.8443 17.6422 14.8251 17.6374 14.807C17.6326 14.789 17.6207 14.7736 17.6046 14.7642L17.2434 15.3898Z" fill="#595959"/>
<path d="M18.7277 12.89C18.7438 12.8993 18.7631 12.9018 18.7811 12.897C18.7992 12.8922 18.8146 12.8803 18.8239 12.8642L19.1139 12.3618C19.1233 12.3457 19.1258 12.3264 19.121 12.3084C19.1161 12.2903 19.1043 12.2749 19.0881 12.2656L18.7277 12.89Z" fill="#595959"/>
<path d="M11.6831 12.1792C11.6669 12.1699 11.6551 12.1545 11.6503 12.1364C11.6454 12.1184 11.648 12.0991 11.6573 12.0829L11.948 11.5795C11.9573 11.5633 11.9727 11.5515 11.9908 11.5466C12.0088 11.5418 12.0281 11.5443 12.0442 11.5537L11.6831 12.1792Z" fill="#595959"/>
<path d="M13.1058 9.64417C13.0909 9.63484 13.0801 9.62031 13.0754 9.6034C13.0706 9.5865 13.0724 9.56845 13.0803 9.55278L13.3703 9.05047C13.3797 9.03428 13.395 9.02247 13.4131 9.01763C13.4312 9.0128 13.4504 9.01533 13.4666 9.02467L13.1058 9.64417Z" fill="#595959"/>
<path d="M13.7255 18.1142C13.6234 18.0662 13.5422 18.0929 13.4408 18.0437C13.4367 18.0418 13.4322 18.0415 13.4279 18.0428C13.4237 18.0441 13.4201 18.047 13.4179 18.0508C13.4166 18.0526 13.4157 18.0547 13.4153 18.0568C13.4149 18.059 13.415 18.0612 13.4156 18.0633C13.4162 18.0655 13.4172 18.0674 13.4186 18.0691C13.42 18.0708 13.4218 18.0721 13.4238 18.0731C13.526 18.1211 13.6071 18.0944 13.7086 18.1436C13.7126 18.1455 13.7172 18.1458 13.7214 18.1445C13.7257 18.1432 13.7293 18.1403 13.7315 18.1364C13.7336 18.1327 13.7342 18.1283 13.7331 18.1241C13.732 18.1199 13.7293 18.1164 13.7255 18.1142Z" fill="#9E9E9E"/>
<path d="M13.457 18.0154C13.5592 18.0634 13.6403 18.0367 13.7418 18.0859C13.7458 18.0878 13.7504 18.0882 13.7546 18.0868C13.7589 18.0855 13.7625 18.0826 13.7647 18.0788C13.766 18.077 13.7668 18.0749 13.7672 18.0728C13.7676 18.0706 13.7675 18.0684 13.767 18.0663C13.7664 18.0641 13.7654 18.0622 13.7639 18.0605C13.7625 18.0588 13.7607 18.0575 13.7587 18.0566C13.6566 18.0085 13.5754 18.0352 13.474 17.986C13.47 17.9841 13.4654 17.9838 13.4611 17.9851C13.4569 17.9864 13.4533 17.9893 13.4511 17.9932C13.4498 17.995 13.4489 17.997 13.4485 17.9992C13.4482 18.0013 13.4483 18.0036 13.4488 18.0057C13.4494 18.0078 13.4504 18.0098 13.4518 18.0115C13.4533 18.0131 13.455 18.0145 13.457 18.0154Z" fill="#9E9E9E"/>
<path d="M13.4902 17.958C13.5924 18.006 13.6735 17.9793 13.775 18.0285C13.779 18.0305 13.7836 18.0308 13.7878 18.0295C13.7921 18.0281 13.7957 18.0253 13.7979 18.0214C13.8 18.0177 13.8006 18.0132 13.7995 18.0091C13.7984 18.0049 13.7957 18.0014 13.7919 17.9992C13.6898 17.9512 13.6086 17.9779 13.5072 17.9287C13.5031 17.9268 13.4986 17.9264 13.4943 17.9277C13.4901 17.9291 13.4865 17.9319 13.4843 17.9358C13.483 17.9376 13.4821 17.9396 13.4817 17.9418C13.4813 17.944 13.4814 17.9462 13.482 17.9483C13.4826 17.9504 13.4836 17.9524 13.485 17.9541C13.4864 17.9558 13.4882 17.9571 13.4902 17.958Z" fill="#9E9E9E"/>
<path d="M11.0859 16.5903C11.1786 16.6547 11.1961 16.7384 11.2894 16.8016C11.2931 16.8042 11.2957 16.808 11.2966 16.8123C11.2976 16.8166 11.2969 16.8212 11.2947 16.825C11.2938 16.827 11.2924 16.8288 11.2907 16.8302C11.2891 16.8316 11.2871 16.8327 11.285 16.8332C11.2829 16.8338 11.2806 16.8339 11.2785 16.8335C11.2763 16.8331 11.2743 16.8323 11.2725 16.831C11.1798 16.7665 11.1624 16.6829 11.069 16.6196C11.0653 16.6171 11.0628 16.6133 11.0618 16.609C11.0608 16.6046 11.0615 16.6001 11.0637 16.5962C11.0659 16.5925 11.0694 16.5898 11.0736 16.5887C11.0778 16.5875 11.0822 16.5881 11.0859 16.5903Z" fill="#9E9E9E"/>
<path d="M11.3046 16.7728C11.2119 16.7083 11.1945 16.6247 11.1011 16.5614C11.0975 16.5589 11.0949 16.5551 11.0939 16.5507C11.0929 16.5464 11.0936 16.5419 11.0958 16.538C11.0968 16.536 11.0981 16.5342 11.0998 16.5328C11.1015 16.5314 11.1034 16.5304 11.1056 16.5298C11.1077 16.5292 11.1099 16.5291 11.1121 16.5295C11.1142 16.5299 11.1163 16.5308 11.1181 16.5321C11.2107 16.5965 11.2282 16.6801 11.3215 16.7434C11.3252 16.7459 11.3278 16.7497 11.3288 16.7541C11.3297 16.7584 11.329 16.763 11.3268 16.7668C11.3246 16.7705 11.3211 16.7733 11.3169 16.7744C11.3128 16.7755 11.3083 16.7749 11.3046 16.7728Z" fill="#9E9E9E"/>
<path d="M11.3377 16.7153C11.245 16.6508 11.2276 16.5672 11.1342 16.5039C11.1306 16.5014 11.128 16.4976 11.127 16.4932C11.126 16.4889 11.1267 16.4844 11.129 16.4805C11.1311 16.4768 11.1347 16.474 11.1388 16.4729C11.143 16.4718 11.1474 16.4724 11.1512 16.4746C11.2438 16.539 11.2613 16.6226 11.3546 16.6859C11.3583 16.6884 11.3609 16.6922 11.3619 16.6966C11.3628 16.7009 11.3621 16.7055 11.3599 16.7093C11.359 16.7113 11.3577 16.7131 11.356 16.7145C11.3543 16.7159 11.3523 16.7169 11.3502 16.7175C11.3481 16.7181 11.3459 16.7182 11.3437 16.7178C11.3415 16.7174 11.3395 16.7165 11.3377 16.7153Z" fill="#9E9E9E"/>
<path d="M17.3917 6.89379L18.9691 7.80448C18.9909 7.81714 19.0154 7.82438 19.0406 7.82557C19.0658 7.82676 19.0909 7.82188 19.1138 7.81134C18.6443 7.4808 18.2353 7.25407 18.2341 7.25339C18.233 7.25271 17.8333 7.01258 17.3135 6.77191C17.3158 6.79701 17.3241 6.82119 17.3377 6.84241C17.3513 6.86362 17.3699 6.88124 17.3917 6.89379Z" fill="url(#paint27_linear_153_5327)"/>
<path style="mix-blend-mode:screen" d="M14.8949 8.87919C15.569 9.0702 16.2143 9.35071 16.8138 9.71323C16.9969 9.81894 17.1625 9.92238 17.3231 10.0292C17.9727 10.0912 18.6982 9.54462 18.8828 9.40391C18.7519 9.25969 18.6129 9.12303 18.4665 8.9946C17.8975 8.55796 17.2737 8.1978 16.611 7.92332C16.2635 7.80288 15.9032 7.72299 15.5373 7.68523C15.2813 8.05922 15.066 8.45948 14.8949 8.87919Z" fill="url(#paint28_linear_153_5327)"/>
<defs>
<radialGradient id="paint0_radial_153_5327" cx="0" cy="0" r="1" gradientUnits="userSpaceOnUse" gradientTransform="translate(15.2699 12.3875) rotate(-150) scale(4.22142 8.78055)">
<stop stop-color="#F7F7F7"/>
<stop offset="1" stop-color="#A8ABAA"/>
</radialGradient>
<linearGradient id="paint1_linear_153_5327" x1="-130.775" y1="-90.964" x2="-197.534" y2="-129.507" gradientUnits="userSpaceOnUse">
<stop stop-color="#525956"/>
<stop offset="1" stop-color="#2C2E2E"/>
</linearGradient>
<radialGradient id="paint2_radial_153_5327" cx="0" cy="0" r="1" gradientUnits="userSpaceOnUse" gradientTransform="translate(-159408 275281) rotate(-150) scale(159.961 1386.37)">
<stop stop-color="white"/>
<stop offset="1" stop-color="#D2D6D5"/>
</radialGradient>
<linearGradient id="paint3_linear_153_5327" x1="-168.556" y1="-138.832" x2="-311.751" y2="-221.506" gradientUnits="userSpaceOnUse">
<stop/>
<stop offset="1" stop-color="#1B1C1C"/>
</linearGradient>
<linearGradient id="paint4_linear_153_5327" x1="-186.281" y1="-150.974" x2="-377.856" y2="-261.58" gradientUnits="userSpaceOnUse">
<stop/>
<stop offset="1" stop-color="#1B1C1C"/>
</linearGradient>
<linearGradient id="paint5_linear_153_5327" x1="-128.063" y1="-250.172" x2="-316.643" y2="-359.048" gradientUnits="userSpaceOnUse">
<stop stop-color="#363B39"/>
<stop offset="1" stop-color="#1B1C1C"/>
</linearGradient>
<linearGradient id="paint6_linear_153_5327" x1="-49.24" y1="-335.901" x2="-184.13" y2="-413.78" gradientUnits="userSpaceOnUse">
<stop/>
<stop offset="1" stop-color="#1B1C1C"/>
</linearGradient>
<linearGradient id="paint7_linear_153_5327" x1="-68.7699" y1="-280.549" x2="-185.613" y2="-348.008" gradientUnits="userSpaceOnUse">
<stop stop-color="#363B39"/>
<stop offset="1" stop-color="#1B1C1C"/>
</linearGradient>
<linearGradient id="paint8_linear_153_5327" x1="158.195" y1="-278.572" x2="156.361" y2="-279.631" gradientUnits="userSpaceOnUse">
<stop stop-color="#363B39"/>
<stop offset="1" stop-color="#1B1C1C"/>
</linearGradient>
<linearGradient id="paint9_linear_153_5327" x1="135.484" y1="-291.684" x2="133.656" y2="-292.74" gradientUnits="userSpaceOnUse">
<stop stop-color="#363B39"/>
<stop offset="1" stop-color="#1B1C1C"/>
</linearGradient>
<linearGradient id="paint10_linear_153_5327" x1="146.944" y1="-261.187" x2="144.98" y2="-262.321" gradientUnits="userSpaceOnUse">
<stop stop-color="#363B39"/>
<stop offset="1" stop-color="#1B1C1C"/>
</linearGradient>
<linearGradient id="paint11_linear_153_5327" x1="124.004" y1="-274.432" x2="122.044" y2="-275.563" gradientUnits="userSpaceOnUse">
<stop stop-color="#363B39"/>
<stop offset="1" stop-color="#1B1C1C"/>
</linearGradient>
<radialGradient id="paint12_radial_153_5327" cx="0" cy="0" r="1" gradientUnits="userSpaceOnUse" gradientTransform="translate(-22.3447 -37.617) rotate(-150) scale(4.62791 3.60806)">
<stop stop-color="white"/>
<stop offset="1" stop-color="#D2D6D5"/>
</radialGradient>
<radialGradient id="paint13_radial_153_5327" cx="0" cy="0" r="1" gradientUnits="userSpaceOnUse" gradientTransform="translate(-62.2146 -60.6416) rotate(-150) scale(4.61589 3.59921)">
<stop stop-color="white"/>
<stop offset="1" stop-color="#D2D6D5"/>
</radialGradient>
<linearGradient id="paint14_linear_153_5327" x1="14.1585" y1="18.505" x2="12.3069" y2="20.1917" gradientUnits="userSpaceOnUse">
<stop stop-color="#D2DBDA"/>
<stop offset="1" stop-color="#B5B5B5"/>
</linearGradient>
<linearGradient id="paint15_linear_153_5327" x1="25.3778" y1="-111.368" x2="33.8018" y2="-79.458" gradientUnits="userSpaceOnUse">
<stop stop-color="#D2DBDA"/>
<stop offset="1" stop-color="#B5B5B5"/>
</linearGradient>
<linearGradient id="paint16_linear_153_5327" x1="-119.01" y1="-230.497" x2="-130.545" y2="-271.637" gradientUnits="userSpaceOnUse">
<stop stop-color="#363B39"/>
<stop offset="1"/>
</linearGradient>
<linearGradient id="paint17_linear_153_5327" x1="15.2473" y1="15.4703" x2="14.9806" y2="4.12303" gradientUnits="userSpaceOnUse">
<stop stop-color="#F7F7F7"/>
<stop offset="1" stop-color="#DBDBDB"/>
</linearGradient>
<linearGradient id="paint18_linear_153_5327" x1="-210.716" y1="-246.97" x2="-193.477" y2="-285.612" gradientUnits="userSpaceOnUse">
<stop stop-color="#F7F7F7"/>
<stop offset="1" stop-color="#DBDBDB"/>
</linearGradient>
<linearGradient id="paint19_linear_153_5327" x1="0.954101" y1="-57.2568" x2="-19.679" y2="-139.057" gradientUnits="userSpaceOnUse">
<stop stop-color="#F7F7F7"/>
<stop offset="1" stop-color="#DBDBDB"/>
</linearGradient>
<linearGradient id="paint20_linear_153_5327" x1="409.727" y1="178.72" x2="490.885" y2="155.714" gradientUnits="userSpaceOnUse">
<stop stop-color="#F7F7F7"/>
<stop offset="1" stop-color="#DBDBDB"/>
</linearGradient>
<linearGradient id="paint21_linear_153_5327" x1="10.6665" y1="-35.4048" x2="8.75849" y2="-39.6871" gradientUnits="userSpaceOnUse">
<stop stop-color="#363B39"/>
<stop offset="1" stop-color="#1B1C1C"/>
</linearGradient>
<linearGradient id="paint22_linear_153_5327" x1="-38.0815" y1="-39.5215" x2="-41.8661" y2="-41.7066" gradientUnits="userSpaceOnUse">
<stop stop-color="white"/>
<stop offset="1" stop-color="#D2D6D5"/>
</linearGradient>
<linearGradient id="paint23_linear_153_5327" x1="-40.7886" y1="-35.0323" x2="-44.5788" y2="-37.2206" gradientUnits="userSpaceOnUse">
<stop stop-color="#363B39"/>
<stop offset="1" stop-color="#1B1C1C"/>
</linearGradient>
<linearGradient id="paint24_linear_153_5327" x1="26.1279" y1="-27.1484" x2="24.5239" y2="-31.8301" gradientUnits="userSpaceOnUse">
<stop stop-color="#363B39"/>
<stop offset="1" stop-color="#1B1C1C"/>
</linearGradient>
<linearGradient id="paint25_linear_153_5327" x1="16.513" y1="17.9019" x2="15.8441" y2="17.5156" gradientUnits="userSpaceOnUse">
<stop stop-color="#D2D6D5"/>
<stop offset="1" stop-color="white"/>
</linearGradient>
<linearGradient id="paint26_linear_153_5327" x1="-1.39494" y1="-11.6786" x2="-5.20353" y2="-13.8775" gradientUnits="userSpaceOnUse">
<stop stop-color="#363B39"/>
<stop offset="1" stop-color="#1B1C1C"/>
</linearGradient>
<linearGradient id="paint27_linear_153_5327" x1="-81.3036" y1="-67.1837" x2="-108.921" y2="-83.1286" gradientUnits="userSpaceOnUse">
<stop stop-color="#363B39"/>
<stop offset="1" stop-color="#1B1C1C"/>
</linearGradient>
<linearGradient id="paint28_linear_153_5327" x1="-86.7771" y1="-259.49" x2="-79.8364" y2="-289.251" gradientUnits="userSpaceOnUse">
<stop stop-color="#363B39"/>
<stop offset="1"/>
</linearGradient>
</defs>
</svg>
