<svg width="24" height="24" viewBox="0 0 24 24" fill="none" xmlns="http://www.w3.org/2000/svg">
<path d="M22.8646 10.4231C22.7242 10.1891 21.339 9.59078 21.339 9.59078C21.5799 9.46633 21.7446 9.4406 21.7446 8.92598C21.7446 8.36458 21.7418 8.17744 21.3675 8.17744H20.0978C20.0927 8.16621 20.087 8.15452 20.0819 8.14282C19.2623 6.35288 19.1523 5.90048 17.9299 5.29136C16.2901 4.47592 13.2159 4.43475 12.0108 4.43475C10.8056 4.43475 7.73149 4.47592 6.09313 5.29136C4.86927 5.89955 4.89967 6.21253 3.94108 8.14282C3.94108 8.14797 3.93125 8.16154 3.92236 8.17744H2.65125C2.27979 8.17744 2.27698 8.36458 2.27698 8.92598C2.27698 9.4406 2.44166 9.46633 2.6826 9.59078C2.6826 9.59078 1.34412 10.2359 1.15698 10.4231C0.969849 10.6102 0.782715 11.9201 0.782715 14.1657C0.782715 16.4114 0.969849 18.657 0.969849 18.657H1.52845C1.52845 19.3119 1.62482 19.4055 1.90552 19.4055H5.64821C5.92892 19.4055 6.02248 19.3119 6.02248 18.657H17.9991C17.9991 19.3119 18.0927 19.4055 18.3734 19.4055H22.2096C22.3968 19.4055 22.4903 19.2652 22.4903 18.657H23.0517C23.0517 18.657 23.2389 16.3646 23.2389 14.1657C23.2389 11.9669 23.0049 10.657 22.8646 10.4231ZM5.8943 12.5255C5.04223 12.6187 4.18582 12.6665 3.32868 12.6687C2.37336 12.6687 2.34061 12.73 2.27324 12.1335C2.2479 11.8605 2.25591 11.5854 2.2971 11.3143L2.32658 11.1716H2.46693C3.02833 11.1716 3.55558 11.1955 4.55114 11.4888C5.05749 11.6407 5.53375 11.8791 5.95886 12.1933C6.16283 12.3412 6.20962 12.4815 6.20962 12.4815L5.8943 12.5255ZM17.4573 15.8939L17.2506 16.4114H6.77102C6.77102 16.4114 6.78927 16.3828 6.5371 15.8883C6.34997 15.5225 6.58389 15.2886 6.95395 15.1557C7.67067 14.8974 9.76517 14.1657 12.0108 14.1657C14.2564 14.1657 16.3925 14.7964 17.0868 15.1557C17.3441 15.2886 17.6637 15.3821 17.4573 15.8967V15.8939ZM5.43394 9.50657C5.28283 9.51527 5.13139 9.51639 4.98014 9.50984C5.10225 9.29276 5.17008 9.05089 5.28938 8.79826C5.66365 8.00294 6.09172 7.10282 6.85383 6.72341C7.95512 6.1751 10.2377 5.92809 12.0108 5.92809C13.7839 5.92809 16.0665 6.17323 17.1677 6.72341C17.9299 7.10282 18.3561 8.00341 18.7322 8.79826C18.8524 9.05323 18.9193 9.29698 19.0447 9.51545C18.9511 9.5206 18.8435 9.51545 18.5867 9.50657H5.43394ZM21.7016 12.1316C21.6014 12.7155 21.695 12.6687 20.6929 12.6687C19.8358 12.6665 18.9793 12.6187 18.1273 12.5255C17.9939 12.5017 17.9561 12.2766 18.0627 12.1933C18.4857 11.8756 18.9626 11.6369 19.4704 11.4888C20.466 11.1955 21.0265 11.1562 21.5799 11.1758C21.6171 11.1772 21.6524 11.1923 21.6791 11.2183C21.7058 11.2442 21.722 11.279 21.7245 11.3162C21.7509 11.5885 21.7432 11.8631 21.7016 12.1335V12.1316Z" fill="#3A3A3A"/>
</svg>
